<?xml version="1.0" encoding="UTF-8"?>
<svg width="65px" height="15px" viewBox="0 0 65 15" version="1.1" xmlns="http://www.w3.org/2000/svg" xmlns:xlink="http://www.w3.org/1999/xlink">
    <title>chicory</title>
    <g id="Page-1" stroke="none" stroke-width="1" fill="none" fill-rule="evenodd">
        <g id="iPhone-13-Pro-Copy-7" transform="translate(-54.000000, -674.000000)" fill="#FEFEFE">
            <g id="chicory" transform="translate(54.000000, 674.000000)">
                <path d="M7.44739945,0 C11.5605664,0 14.8947989,3.35796538 14.8947989,7.5 C14.8947989,11.642218 11.5605664,15 7.44739945,15 C3.33423252,15 0,11.642218 0,7.5 C0,3.35796538 3.33423252,0 7.44739945,0 Z M7.44466826,3.44311838 C6.9337543,3.44574226 6.42356866,3.54842673 5.94233359,3.74957826 C5.4612806,3.95091316 5.00936027,4.25071512 4.61515901,4.6477006 C4.22077567,5.04486944 3.92307634,5.49998166 3.72333557,5.9844323 C3.52341271,6.46888294 3.42163049,6.98285536 3.41884303,7.49737788 C3.41616812,8.0119004 3.51285212,8.52715637 3.70986171,9.01435749 L3.70986171,9.01435749 L5.78920506,8.12430321 C5.69598056,7.90719891 5.65046079,7.68239328 5.65046079,7.4594213 C5.65046079,7.23663268 5.69598056,7.01586108 5.78519932,6.80682485 C5.87441808,6.59778862 6.00715375,6.40067112 6.18140345,6.2251907 C6.35583523,6.04952692 6.55157026,5.91585375 6.75914044,5.82600484 C6.96671062,5.73615593 7.18593386,5.69031465 7.40715997,5.69031465 C7.62838608,5.69031465 7.85179713,5.73615593 8.06737879,5.83003887 C8.28277837,5.92392181 8.49071271,6.06584641 8.68116745,6.25746296 C8.87162219,6.44926287 9.01236933,6.65866584 9.10559383,6.87577013 C9.19881833,7.09287443 9.24433811,7.31768006 9.24433811,7.54046868 C9.24433811,7.76344066 9.19881833,7.98421226 9.10959957,8.1932485 C9.02038081,8.40210136 8.88764515,8.59940223 8.71339545,8.77488265 C8.53896367,8.95054643 8.34322863,9.0842196 8.13565846,9.17406851 C7.92827036,9.26373405 7.70886504,9.30975869 7.48763893,9.30975869 C7.26641282,9.30975869 7.04300176,9.26373405 6.8274201,9.17003447 L6.8274201,9.17003447 L5.94379022,11.2638807 C6.4275744,11.4624652 6.93921667,11.5596487 7.45013063,11.556955 C7.9610446,11.5543311 8.47123024,11.4516466 8.95228323,11.2504951 C9.4335183,11.0491602 9.88543863,10.7493582 10.2796399,10.3523727 C10.6740232,9.9552039 10.9717226,9.50009168 11.1714633,9.01564104 C11.3713862,8.53119041 11.4731684,8.01721798 11.475956,7.50269547 C11.4786308,6.98817295 11.3821289,6.47291697 11.1849372,5.98571586 C10.9877455,5.49851474 10.6900462,5.03936849 10.2903826,4.63688206 C9.890901,4.23439563 9.43479285,3.93459366 8.95100868,3.73619261 C8.4672245,3.53760819 7.9557643,3.44042467 7.44466826,3.44311838 Z" id="Combined-Shape"></path>
                <path d="M32.6257347,6.6944037 L32.6257347,11.0423573 L30.5161662,11.0423573 L30.5161662,7.00594103 C30.5161662,6.12780549 29.967744,5.71706763 29.2927768,5.71706763 C28.5193047,5.71706763 27.9847205,6.17034619 27.9847205,7.17592049 L27.9847205,11.0423573 L25.8753341,11.0423573 L25.8753341,2.08167082 L27.9847205,1.12835558 L27.9847205,4.62659528 C28.3645375,4.10253777 29.067727,3.76276221 29.9959662,3.76276221 C31.4161832,3.76276221 32.6257347,4.78245563 32.6257347,6.6944037" id="Fill-234"></path>
                <path d="M49.6707968,7.50165029 C49.6707968,6.49607599 48.9676073,5.83046061 48.0535702,5.83046061 C47.139351,5.83046061 46.4361615,6.49607599 46.4361615,7.50165029 C46.4361615,8.50722459 47.139351,9.17283996 48.0535702,9.17283996 C48.9676073,9.17283996 49.6707968,8.50722459 49.6707968,7.50165029 M44.326593,7.50165029 C44.326593,5.39130116 45.9862441,3.76265219 48.0535702,3.76265219 C50.1208963,3.76265219 51.7803653,5.39130116 51.7803653,7.50165029 C51.7803653,9.61181605 50.1208963,11.2406484 48.0535702,11.2406484 C45.9862441,11.2406484 44.326593,9.61181605 44.326593,7.50165029" id="Fill-236"></path>
                <path d="M57.1948333,3.97509902 L57.1948333,6.22700601 C56.3228565,6.08526478 55.0852648,6.43934282 55.0852648,7.84153587 L55.0852648,11.0423573 L52.9758784,11.0423573 L52.9758784,3.9609799 L55.0852648,3.9609799 L55.0852648,5.22143171 C55.3665771,4.27251724 56.3088364,3.97509902 57.1948333,3.97509902" id="Fill-238"></path>
                <path d="M33.9196981,11.0527908 L36.0290845,11.0527908 L36.0290845,3.97141338 L33.9196981,3.97141338 L33.9196981,11.0527908 Z M33.7088505,2.07358442 C33.7088505,1.37954745 34.2853129,0.798830131 34.9744823,0.798830131 C35.6636517,0.798830131 36.2401142,1.37954745 36.2401142,2.07358442 C36.2401142,2.76743802 35.6636517,3.34815535 34.9744823,3.34815535 C34.2853129,3.34815535 33.7088505,2.76743802 33.7088505,2.07358442 L33.7088505,2.07358442 Z" id="Fill-240"></path>
                <path d="M65,3.96101658 L63.7975496,7.39544521 C63.7975496,7.39544521 62.5754347,11.0414772 62.5654203,11.068982 C62.175771,12.1429514 61.6752356,12.7541074 61.0341351,13.2339739 C60.3846589,13.7200748 59.5911582,13.9195761 58.6230436,13.8764853 C58.6112085,13.8759352 57.5584271,13.882903 57.5464099,13.8822237 L57.5464099,12.3622561 C57.5464099,12.3622561 59.0545711,12.3552882 59.0802442,12.3549215 C59.4298361,12.3549215 60.3449657,12.1490025 60.3449657,11.068982 L58.9456878,7.33878539 L57.5464099,3.96101658 L58.7066179,3.96101658 L59.8668259,3.96101658 L60.6473991,6.12784216 L61.4279722,8.29485111 L62.0889193,6.12784216 L62.7498665,3.96101658 L63.8749332,3.96101658 L65,3.96101658 Z" id="Fill-242"></path>
                <path d="M40.7725364,9.17287663 C39.8559502,9.17287663 39.1130675,8.42456359 39.1130675,7.50168696 C39.1130675,6.40883086 39.9021983,5.83049729 40.7725364,5.83049729 C41.3684813,5.83049729 41.8895917,6.1479023 42.1821928,6.62300132 L43.9749437,5.57561977 C43.370259,4.48496406 42.1608896,3.76268887 40.7967529,3.76268887 C38.6591443,3.76268887 37.0699579,5.39133783 37.0699579,7.50168696 C37.0699579,9.61185272 38.6591443,11.2406851 40.7967529,11.2406851 C42.1749097,11.2406851 43.370259,10.5182265 43.9749437,9.41363503 L42.2053169,8.39320816 C41.9176319,8.88976089 41.3845043,9.17287663 40.7725364,9.17287663" id="Fill-243"></path>
                <path d="M21.8288263,9.17287663 C20.9122401,9.17287663 20.1693574,8.42456359 20.1693574,7.50168696 C20.1693574,6.40883086 20.9584882,5.83049729 21.8288263,5.83049729 C22.4247712,5.83049729 22.9458816,6.1479023 23.2384827,6.62300132 L25.0312336,5.57561977 C24.4265489,4.48496406 23.2171795,3.76268887 21.8530428,3.76268887 C19.7154342,3.76268887 18.1262478,5.39133783 18.1262478,7.50168696 C18.1262478,9.61185272 19.7154342,11.2406851 21.8530428,11.2406851 C23.2311996,11.2406851 24.4265489,10.5182265 25.0312336,9.41363503 L23.2616068,8.39320816 C22.9739218,8.88976089 22.4407942,9.17287663 21.8288263,9.17287663" id="Fill-244"></path>
            </g>
        </g>
    </g>
</svg>