<?xml version="1.0" encoding="UTF-8"?>
<svg width="67px" height="20px" viewBox="0 0 67 20" version="1.1" xmlns="http://www.w3.org/2000/svg" xmlns:xlink="http://www.w3.org/1999/xlink">
    <title>journey</title>
    <g id="Page-1" stroke="none" stroke-width="1" fill="none" fill-rule="evenodd">
        <g id="iPhone-13-Pro-Copy-7" transform="translate(-272.000000, -567.000000)" fill="#FFFFFF" fill-rule="nonzero">
            <g id="journey" transform="translate(272.000000, 567.000000)">
                <path d="M19.828447,4.60352633 L19.828447,10.4011585 C19.828447,13.0482924 20.9992551,13.7432928 22.4763005,13.7432928 C24.1267677,13.7432928 25.2586616,12.6794993 25.2586616,10.3415383 L25.2586616,4.60352633 L27.2534343,4.60352633 L27.2534343,15.3078955 L25.4286995,15.3078955 L25.4286995,14.1495615 L25.3923232,14.1495615 C24.8559848,15.0770804 23.6081944,15.5778895 22.2622727,15.5778895 C21.1566886,15.6070498 20.0784604,15.2294487 19.2295076,14.5157994 C18.3463258,13.7432928 17.8285985,12.5449281 17.8285985,10.3926413 L17.8285985,4.60097118 L19.828447,4.60352633 Z" id="Path"></path>
                <path d="M29.1170833,15.3078955 L29.1170833,4.60352633 L30.9781944,4.60352633 L30.9781944,5.56681734 L31.0154167,5.56681734 C31.8613763,4.36845266 33.2225253,4.32927371 33.7224874,4.31138767 L33.7224874,6.38787176 C33.2236339,6.41948131 32.7361013,6.55124346 32.2885859,6.77540263 C31.6558081,7.12375455 31.1177778,7.93373665 31.1177778,9.45575349 L31.1177778,15.3138575 L29.1170833,15.3078955 Z" id="Path"></path>
                <path d="M42.5272348,15.3078955 L42.5272348,9.48386013 C42.5272348,8.65939885 42.5272348,6.14172578 39.8793813,6.14172578 C38.211149,6.14172578 37.0784091,7.32135271 37.0784091,9.46341894 L37.0784091,15.2976749 L35.0819444,15.2976749 L35.0819444,4.31053595 L36.9430556,4.31053595 L36.9430556,5.74397431 L36.9819697,5.74397431 C38.0571843,4.31479454 39.6687374,4.31479454 40.0908712,4.31479454 C41.7413384,4.31479454 43.0847222,5.02853271 43.8520076,6.22604568 C44.2749874,6.92360124 44.5059343,7.77276229 44.5236995,8.97027526 L44.5236995,15.3078955 L42.5272348,15.3078955 Z" id="Path"></path>
                <path d="M54.6379924,9.27774481 C54.541553,7.71314216 53.1228788,6.14768779 51.2033965,6.14768779 C49.2839141,6.14768779 47.863548,7.71484559 47.7679545,9.27774481 L54.6379924,9.27774481 Z M47.7679545,11.0569799 C48.2670707,13.1189849 49.9175379,13.7373308 51.2609217,13.7373308 C52.7371212,13.7373308 53.8123359,13.1019505 54.2919949,12.1744316 L56.2884596,12.1744316 C55.2640025,14.9365472 52.8335606,15.5719275 51.1830934,15.5719275 C48.1714773,15.5719275 45.7731818,12.9639725 45.7731818,9.93101113 C45.7731818,6.72344794 48.2264646,4.30968424 51.2220076,4.30968424 C54.2173702,4.32981137 56.6352859,6.77977574 56.636149,9.79558826 C56.636149,10.1439402 56.5972348,10.9198536 56.5786237,11.0535731 L47.7679545,11.0569799 Z" id="Shape"></path>
                <path d="M10.9230303,4.1955542 C8.61954087,4.19520977 6.54267759,5.5919755 5.66093325,7.73450503 C4.7791889,9.87703455 5.26622009,12.3433638 6.89491212,13.9833824 C8.52360415,15.623401 10.9731915,16.1141127 13.1013711,15.2266866 C15.2295506,14.3392604 16.6171843,12.248472 16.6171843,9.9293077 C16.6171843,6.76297571 14.0679616,4.19602461 10.9230303,4.1955542 L10.9230303,4.1955542 Z M10.9230303,13.7100759 C9.40376907,13.7111093 8.03350165,12.7905869 7.4512362,11.3777837 C6.86897075,9.96498051 7.18938664,8.33815334 8.26306167,7.25595399 C9.33673671,6.17375465 10.9522066,5.84932637 12.3561158,6.43396249 C13.760025,7.01859861 14.6758683,8.39715283 14.6765565,9.92675255 L14.6765565,9.92675255 C14.6779001,10.9300647 14.2830896,11.8927729 13.5790701,12.602861 C12.8750507,13.3129492 11.919562,13.7121799 10.9230303,13.712631 L10.9230303,13.7100759 Z" id="Shape"></path>
                <polygon id="Path" points="64.8495707 4.60352633 61.6450758 12.9120178 58.5184091 4.60352633 56.3679798 4.60352633 60.6087753 15.0958181 58.6393813 20 60.7094444 20 67 4.60352633"></polygon>
                <path d="M0.694532828,19.982114 C1.34761364,19.982114 2.19103535,19.6542032 2.8830303,19.0537433 C4.0157702,18.0870454 4.0157702,17.1407887 4.0157702,15.4603527 L4.0157702,4.62396751 L2.01930556,4.62396751 L2.01930556,15.4629078 C2.01930556,16.8154331 2.01930556,17.7795759 0.694532828,17.8766715 L0,17.8766715 L0,19.982114 L0.694532828,19.982114 Z" id="Path"></path>
                <path d="M4.2797096,1.27246428 C4.2797096,1.78720541 3.97168738,2.25124575 3.49931004,2.44814899 C3.0269327,2.64505223 2.4832561,2.53602942 2.12186027,2.17193064 C1.76046443,1.80783187 1.65254254,1.26038278 1.84843119,0.784922942 C2.04431984,0.309463108 2.50542995,-0.000344251828 3.01669192,0 L3.01669192,0 C3.71437414,0.0004704544 4.2797096,0.570034305 4.2797096,1.27246428" id="Path"></path>
            </g>
        </g>
    </g>
</svg>