<?xml version="1.0" encoding="UTF-8"?>
<svg width="72px" height="18px" viewBox="0 0 72 18" version="1.1" xmlns="http://www.w3.org/2000/svg" xmlns:xlink="http://www.w3.org/1999/xlink">
    <title>otf</title>
    <g id="Page-1" stroke="none" stroke-width="1" fill="none" fill-rule="evenodd">
        <g id="iPhone-13-Pro-Copy-7" transform="translate(-160.000000, -568.000000)" fill="#FFFFFF" fill-rule="nonzero">
            <g id="Group-5" transform="translate(148.000000, 529.000000)">
                <g id="otf" transform="translate(12.000000, 39.000000)">
                    <polygon id="Path" points="17.5862069 15.7430181 17.5862069 15.0864415 14.6068966 15.0864415 14.6068966 17.9179279 15.3517241 17.9179279 15.3517241 16.850991 17.0482759 16.850991 17.0482759 16.1944145 15.3517241 16.1944145 15.3517241 15.7430181"></polygon>
                    <rect id="Rectangle" x="23.8344828" y="15.0864415" width="1" height="2.87252243"></rect>
                    <polygon id="Path" points="30.7862069 15.7430181 32.1103448 15.7430181 32.1103448 17.9179279 32.8551724 17.9179279 32.8551724 15.7430181 34.2206897 15.7430181 34.2206897 15.0864415 30.7862069 15.0864415"></polygon>
                    <polygon id="Path" points="42.9931034 16.7278829 40.6344828 15.0454055 40.3862069 15.0454055 40.3862069 17.9179279 41.1310345 17.9179279 41.1310345 16.2354505 43.4896552 18 43.737931 18 43.737931 15.0864415 42.9931034 15.0864415"></polygon>
                    <polygon id="Path" points="50.8551724 16.809955 52.4689655 16.809955 52.4689655 16.1123424 50.8551724 16.1123424 50.8551724 15.7430181 53.0482759 15.7430181 53.0482759 15.0864415 50.1103448 15.0864415 50.1103448 17.9179279 53.1724138 17.9179279 53.1724138 17.2203153 50.8551724 17.2203153"></polygon>
                    <path d="M61.3241379,16.1123424 L60.537931,16.0713064 C60,16.0302703 60,15.9481983 60,15.9071622 C60,15.7430181 60.2896552,15.660946 60.8275862,15.660946 C61.4896552,15.660946 61.8206897,15.7840541 62.0689655,15.9071622 L62.1931034,15.9892343 L62.5241379,15.3736938 L62.4,15.2916217 C61.9862069,15.0864415 61.5310345,14.9633334 60.8275862,14.9633334 C59.8344828,14.9633334 59.2551724,15.2916217 59.2551724,15.9071622 C59.2551724,16.6458109 60.1241379,16.7278829 60.4551724,16.7278829 L61.2413793,16.768919 C61.8206897,16.809955 61.8206897,16.8920271 61.8206897,16.9740991 C61.8206897,17.1792793 61.4896552,17.2613514 60.9103448,17.2613514 C60.2068966,17.2613514 59.8344828,17.0972072 59.5862069,16.9330631 L59.462069,16.850991 L59.0482759,17.4254955 L59.1724138,17.5075676 C59.5862069,17.7948198 60.1241379,17.9179279 60.8689655,17.9179279 C61.9448276,17.9179279 62.5241379,17.5486036 62.5241379,16.9330631 C62.6068966,16.1944145 61.737931,16.1533784 61.3241379,16.1123424 Z" id="Path"></path>
                    <path d="M70.7172414,16.1123424 L69.9310345,16.0713064 C69.3931034,16.0302703 69.3931034,15.9481983 69.3931034,15.9071622 C69.3931034,15.7430181 69.6827586,15.660946 70.2206897,15.660946 C70.8827586,15.660946 71.2137931,15.7840541 71.462069,15.9071622 L71.5862069,15.9892343 L71.9172414,15.3736938 L71.7931034,15.2916217 C71.3793103,15.0864415 70.9241379,14.9633334 70.2206897,14.9633334 C69.2275862,14.9633334 68.6482759,15.2916217 68.6482759,15.9071622 C68.6482759,16.6458109 69.5172414,16.7278829 69.8482759,16.7278829 L70.6344828,16.768919 C71.2137931,16.809955 71.2137931,16.8920271 71.2137931,16.9740991 C71.2137931,17.1792793 70.8827586,17.2613514 70.3034483,17.2613514 C69.6,17.2613514 69.2275862,17.0972072 68.9793103,16.9330631 L68.8551724,16.850991 L68.4413793,17.4254955 L68.5655172,17.5075676 C68.9793103,17.7948198 69.5172414,17.9179279 70.262069,17.9179279 C71.337931,17.9179279 71.9172414,17.5486036 71.9172414,16.9330631 C72,16.1944145 71.1310345,16.1533784 70.7172414,16.1123424 Z" id="Path"></path>
                    <path d="M13.0758621,6.22265805 L14.5655172,6.22265805 L14.5655172,6.83819857 L14.6482759,6.7561265 L14.7310345,6.6330184 C15.0206897,6.26369408 15.4344828,6.09954994 15.9310345,6.05851391 L16.0965517,6.05851391 L16.0965517,7.41270305 C16.0137931,7.37166702 15.9310345,7.37166702 15.8896552,7.37166702 C15.062069,7.28959495 14.6482759,7.74099133 14.6482759,8.56171203 L14.6482759,11.6394146 L13.0758621,11.6394146 L13.0758621,6.22265805 L13.0758621,6.22265805 Z" id="Path"></path>
                    <path d="M17.8758621,8.31549582 C18.1241379,8.27445978 18.3724138,8.27445978 18.6206897,8.31549582 C19.1172414,8.35653185 19.4482759,8.47963996 19.737931,8.68482013 L19.737931,8.31549582 C19.737931,7.74099133 19.3655172,7.41270305 18.4965517,7.28959495 C18.1655172,7.24855892 17.6275862,7.24855892 17.0482759,7.33063099 C16.9655172,7.33063099 16.8827586,7.37166702 16.8,7.37166702 L16.8,6.18162201 C17.1310345,6.14058598 17.3793103,6.09954994 17.7103448,6.09954994 C20.2758621,6.01747788 21.2689655,6.83819857 21.2689655,8.39756789 L21.2689655,11.5983786 L19.737931,11.5983786 L19.737931,11.1059462 C19.6965517,11.1469822 19.6137931,11.1880182 19.5724138,11.2290543 C19.1586207,11.5163065 18.7034483,11.6804507 18.1241379,11.6394146 C16.8,11.6394146 16.0137931,10.8186939 16.0551724,9.9569372 C16.0551724,9.17725255 16.7172414,8.47963996 17.8758621,8.31549582 M18.4965517,10.7776579 C18.6206897,10.7776579 18.7448276,10.7776579 18.8689655,10.7776579 C19.1172414,10.7366219 19.2827586,10.6955858 19.4068966,10.5724777 C19.7793103,10.3262615 19.8206897,9.8338291 19.5310345,9.54657686 C19.3655172,9.42346875 19.1586207,9.30036065 18.8275862,9.25932461 C18,9.13621651 17.5448276,9.50554082 17.5034483,9.99797324 C17.5862069,10.4083336 17.8758621,10.7366219 18.4965517,10.7776579" id="Shape"></path>
                    <path d="M22.3862069,6.22265805 L23.8758621,6.22265805 L23.8758621,6.79716253 C23.9172414,6.7561265 23.9586207,6.71509047 24,6.67405443 C24.4137931,6.30473012 24.8689655,6.09954994 25.4068966,6.09954994 C26.7310345,6.05851391 27.5586207,6.96130667 27.5586207,8.52067599 L27.5586207,11.6394146 L25.9862069,11.6394146 L25.9862069,8.72585616 C25.9862069,7.94617151 25.6965517,7.53581116 25.1586207,7.37166702 C24.3724138,7.16648685 23.9172414,7.61788323 23.9172414,8.43860392 L23.9172414,11.6394146 L22.3448276,11.6394146 L22.3448276,6.22265805 L22.3862069,6.22265805 Z" id="Path"></path>
                    <path d="M28.5103448,8.43860392 C28.6344828,7.6999553 29.0482759,7.08441478 29.6275862,6.67405443 C30.7034483,5.93540581 32.0689655,6.05851391 32.7310345,6.83819857 L32.7310345,6.22265805 L34.2206897,6.22265805 L34.2206897,11.5983786 C34.2206897,13.1167119 33.1862069,14.0605407 31.1172414,14.1015767 C30.7862069,14.1015767 30.4965517,14.0605407 30.1655172,14.0195046 L30.1655172,12.6653155 C30.4551724,12.7473876 30.7448276,12.7884236 31.0344828,12.7884236 C32.1517241,12.7473876 32.6482759,12.2959912 32.6482759,11.5163065 L32.6482759,11.1059462 C32.0689655,11.7625227 31.0344828,11.9677029 29.9586207,11.5163065 C29.1310345,11.1469822 28.5931034,10.4083336 28.4689655,9.46450479 C28.4689655,9.30036065 28.4275862,9.13621651 28.4275862,8.93103634 C28.4689655,8.7668922 28.4689655,8.60274806 28.5103448,8.43860392 M30.0413793,9.13621651 C30.1655172,10.0390093 30.7862069,10.5724777 31.6551724,10.4083336 C32.2344828,10.3262615 32.6482759,9.87486513 32.7310345,9.13621651 C32.7724138,8.97207237 32.7724138,8.80792823 32.7310345,8.64378409 C32.6068966,7.78202737 32.1103448,7.33063099 31.4068966,7.33063099 C30.662069,7.33063099 30.1655172,7.78202737 30.0827586,8.64378409 C30.0827586,8.72585616 30.0413793,8.80792823 30.0413793,8.8900003 C30.0413793,9.01310841 30.0413793,9.05414444 30.0413793,9.13621651" id="Shape"></path>
                    <path d="M41.0068966,6.22265805 L41.6275862,6.22265805 L41.6275862,4.82743287 L42.4137931,4.49914459 L42.4137931,6.22265805 L43.862069,6.22265805 L43.6965517,6.79716253 L42.3724138,6.79716253 L42.3724138,9.66968496 L42.3724138,9.8338291 L42.3724138,10.1621174 C42.3724138,10.8186939 42.7862069,11.1469822 43.6137931,11.1059462 C43.6965517,11.1059462 43.737931,11.1059462 43.8206897,11.0649101 L43.8206897,11.6804507 C43.737931,11.6804507 43.6965517,11.7214867 43.6137931,11.7214867 C42.0413793,11.8445948 41.5448276,11.3111263 41.5448276,9.710721 L41.5448276,6.83819857 L40.8413793,6.83819857 L41.0068966,6.22265805 Z" id="Path"></path>
                    <path d="M44.5655172,4.08878425 L45.3517241,3.92464011 L45.3517241,7.08441478 C45.4344828,6.96130667 45.5586207,6.83819857 45.6827586,6.71509047 C45.9724138,6.42783822 46.3448276,6.26369408 46.7586207,6.14058598 C48.3724138,5.8122977 49.5310345,6.83819857 49.5310345,8.47963996 L49.5310345,11.6394146 L48.7448276,11.6394146 L48.7448276,8.7668922 C48.7448276,7.45373909 48.1241379,6.7561265 47.0482759,6.79716253 C45.9724138,6.79716253 45.3103448,7.49477512 45.3103448,8.64378409 L45.3103448,11.6804507 L44.5241379,11.6804507 L44.5241379,4.08878425 L44.5655172,4.08878425 Z" id="Path"></path>
                    <path d="M50.6482759,7.78202737 C51.0206897,6.8792346 51.8068966,6.26369408 52.8,6.09954994 C54.4965517,5.85333374 55.9448276,7.04337874 56.0275862,8.72585616 C56.0275862,8.84896427 56.0275862,8.97207237 56.0275862,9.05414444 L51.2689655,9.05414444 C51.2689655,9.09518048 51.2689655,9.13621651 51.2689655,9.17725255 C51.3103448,9.87486513 51.6827586,10.4493696 52.3448276,10.7776579 C53.1724138,11.1880182 54.1655172,11.0238741 54.9103448,10.3262615 C54.9517241,10.2852255 54.9931034,10.2441894 55.0344828,10.2031534 L55.6137931,10.6135138 C55.4482759,10.8186939 55.2413793,10.9828381 55.0344828,11.1469822 C54.2896552,11.6804507 53.4206897,11.8035588 52.5517241,11.5573426 C50.937931,11.1059462 50.1517241,9.75175703 50.4827586,8.23342375 C50.5241379,8.15135168 50.6068966,7.98720754 50.6482759,7.78202737 M55.2827586,8.52067599 L55.2827586,8.43860392 L55.2827586,8.31549582 C55.2827586,8.23342375 55.2413793,8.19238771 55.2413793,8.06927961 C54.9931034,7.28959495 54.2896552,6.7561265 53.4206897,6.71509047 C52.5103448,6.71509047 51.7655172,7.24855892 51.4758621,8.11031564 C51.4344828,8.23342375 51.3931034,8.39756789 51.3931034,8.52067599 L55.2827586,8.52067599 Z" id="Shape"></path>
                    <path d="M60.3310345,6.05851391 C61.8206897,6.26369408 62.7724138,7.37166702 62.7724138,8.8900003 C62.7724138,10.4083336 61.862069,11.5163065 60.3310345,11.7214867 C58.3448276,12.0087389 56.8965517,10.7366219 56.8965517,8.8900003 C56.8965517,7.04337874 58.3448276,5.77126167 60.3310345,6.05851391 M59.462069,11.0238741 C59.7103448,11.0649101 59.9172414,11.0649101 60.1655172,11.0238741 C61.3655172,10.8186939 62.1103448,9.79279307 61.862069,8.43860392 C61.7793103,7.98720754 61.5724138,7.57684719 61.2413793,7.28959495 C60.8689655,6.96130667 60.3724138,6.7561265 59.7931034,6.7561265 C59.2137931,6.7561265 58.7172414,6.96130667 58.3448276,7.28959495 C57.9310345,7.65891926 57.6827586,8.23342375 57.6827586,8.8900003 C57.7241379,10.0390093 58.4275862,10.85973 59.462069,11.0238741" id="Shape"></path>
                    <path d="M63.8482759,6.22265805 L64.6344828,6.22265805 L64.6344828,7.00234271 C64.6758621,6.96130667 64.6758621,6.92027064 64.7172414,6.8792346 C65.0896552,6.34576615 65.5862069,6.09954994 66.2068966,6.09954994 C66.2896552,6.09954994 66.3724138,6.09954994 66.4137931,6.09954994 L66.4137931,6.83819857 C66.3310345,6.83819857 66.2482759,6.79716253 66.1655172,6.79716253 C65.6689655,6.7561265 65.2551724,6.96130667 64.9655172,7.24855892 C64.7172414,7.53581116 64.6344828,7.8230634 64.6344828,8.31549582 L64.6344828,11.6394146 L63.8482759,11.6394146 L63.8482759,6.22265805 Z" id="Path"></path>
                    <path d="M67.0758621,6.22265805 L67.862069,6.22265805 L67.862069,9.17725255 C67.862069,10.3262615 68.2344828,10.85973 69.1448276,11.0238741 C69.3931034,11.0649101 69.6413793,11.0649101 69.8896552,11.0238741 C70.8,10.85973 71.2137931,10.3262615 71.2137931,9.34139668 L71.2137931,6.22265805 L72,6.22265805 L72,11.4342345 C72,12.9115317 70.8827586,13.8963965 68.6482759,13.7732884 C68.5241379,13.7732884 68.4,13.7322524 68.2758621,13.7322524 L68.2758621,13.0756758 C68.4,13.1167119 68.5241379,13.1167119 68.6482759,13.1167119 C70.3862069,13.1987839 71.2137931,12.5011714 71.2137931,11.3111263 L71.2137931,10.8186939 C71.1724138,10.900766 71.1310345,10.941802 71.0896552,10.9828381 C70.6344828,11.5163065 70.0551724,11.7625227 69.3103448,11.7625227 C67.9862069,11.7625227 67.1586207,10.9828381 67.0758621,9.79279307 C67.0758621,9.62864893 67.0758621,9.62864893 67.0758621,9.34139668 L67.0758621,6.22265805 L67.0758621,6.22265805 Z" id="Path"></path>
                    <path d="M40.7172414,9.34139668 C40.7172414,9.17725255 40.7172414,9.05414444 40.7172414,8.8900003 C40.6758621,7.28959495 39.5586207,6.18162201 38.0275862,6.09954994 C37.6551724,6.09954994 37.2827586,6.14058598 36.9103448,6.26369408 C35.9586207,6.59198236 35.2965517,7.37166702 35.0896552,8.31549582 C34.7586207,9.75175703 35.5448276,11.2700903 37.2,11.7214867 C38.3172414,12.049775 39.3517241,11.7214867 40.1793103,10.900766 C40.2206897,10.85973 40.262069,10.8186939 40.3034483,10.7366219 L39.1034483,9.9569372 C39.062069,9.99797324 39.062069,9.99797324 39.0206897,10.0390093 C38.8137931,10.2852255 38.6068966,10.4083336 38.3586207,10.4904057 C37.9448276,10.6135138 37.5724138,10.5724777 37.2827586,10.4083336 C36.8689655,10.1621174 36.6206897,9.75175703 36.662069,9.42346875 L36.662069,9.42346875 L40.7172414,9.42346875 L40.7172414,9.34139668 Z M38.0689655,7.16648685 C38.7310345,7.16648685 39.2689655,7.61788323 39.3103448,8.27445978 L39.3103448,8.35653185 L36.662069,8.35653185 C36.7034483,8.27445978 36.7034483,8.19238771 36.7448276,8.11031564 C36.9517241,7.53581116 37.4896552,7.16648685 38.0689655,7.16648685 Z" id="Shape"></path>
                    <path d="M12.7862069,12.2549551 L12.7862069,12.2549551 C11.7517241,12.4190993 11.2551724,11.5573426 11.5862069,10.8186939 C11.8758621,10.2031534 12,9.54657686 12,8.84896427 C12,8.15135168 11.8758621,7.49477512 11.5862069,6.8792346 C11.337931,6.26369408 11.7517241,5.27882925 12.7862069,5.44297339 C13.3241379,5.52504546 13.7793103,4.99157701 13.7793103,4.29396442 C13.7793103,3.59635183 13.3655172,2.89873924 12.7862069,2.77563114 C12.2068966,2.611487 11.7103448,3.14495545 11.7103448,3.92464011 C11.7103448,5.27882925 10.9655172,5.8122977 10.3448276,5.31986529 C9.80689655,4.8684689 9.1862069,4.58121666 8.48275862,4.45810856 C7.73793103,4.33500045 7.03448276,4.45810856 6.37241379,4.7453608 C6.28965517,4.78639684 6.24827586,4.78639684 6.16551724,4.78639684 C5.46206897,4.8684689 4.34482759,4.04774821 4.34482759,2.40630682 C4.34482759,1.42144199 3.47586207,0.354505091 2.35862069,0.067252848 C1.11724138,-0.219999395 0.0413793103,0.43657716 0.0413793103,1.58558613 C0.0413793103,2.7345951 1.07586207,3.801532 2.31724138,3.96567614 C4.0137931,4.21189235 4.84137931,5.19675718 4.67586207,6.01747788 C4.67586207,6.09954994 4.63448276,6.18162201 4.55172414,6.26369408 C4.09655172,6.96130667 3.80689655,7.86409944 3.80689655,8.8900003 C3.80689655,9.8338291 4.05517241,10.6955858 4.51034483,11.3931984 C4.55172414,11.4752705 4.59310345,11.5573426 4.59310345,11.6394146 C4.71724138,12.3780632 4.0137931,13.5270722 2.27586207,13.7732884 L2.27586207,13.7732884 C1.07586207,13.9374326 0,15.0043695 0,16.1533784 C0,17.3023874 1.03448276,17.958964 2.27586207,17.6306757 C3.39310345,17.3434234 4.26206897,16.3175226 4.26206897,15.2916217 C4.26206897,15.2916217 4.26206897,15.2916217 4.26206897,15.2916217 C4.26206897,13.6912164 5.25517241,12.7473876 6.08275862,12.9115317 C6.12413793,12.9115317 6.20689655,12.9525677 6.24827586,12.9525677 C6.91034483,13.280856 7.65517241,13.4039641 8.44137931,13.280856 C9.14482759,13.1577479 9.76551724,12.8704957 10.3034483,12.4601353 C10.8,12.090811 11.6689655,12.5011714 11.6689655,13.8143245 L11.6689655,13.8143245 C11.6689655,14.5940091 12.1655172,15.0864415 12.7448276,14.9222974 C13.2827586,14.7991893 13.737931,14.1015767 13.737931,13.4039641 C13.737931,12.7063515 13.3241379,12.1728831 12.7862069,12.2549551 Z M8.44137931,11.6394146 C6.99310345,11.8035588 5.66896552,10.5724777 5.66896552,8.8900003 C5.66896552,7.20752288 6.99310345,5.97644184 8.44137931,6.14058598 C9.76551724,6.30473012 10.7172414,7.53581116 10.7172414,8.8900003 C10.7172414,10.2441894 9.76551724,11.4752705 8.44137931,11.6394146 Z" id="Shape"></path>
                </g>
            </g>
        </g>
    </g>
</svg>