<?xml version="1.0" encoding="UTF-8"?>
<svg width="53px" height="21px" viewBox="0 0 53 21" version="1.1" xmlns="http://www.w3.org/2000/svg" xmlns:xlink="http://www.w3.org/1999/xlink">
    <title>ptc</title>
    <g id="Page-1" stroke="none" stroke-width="1" fill="none" fill-rule="evenodd">
        <g id="iPhone-13-Pro-Copy-7" transform="translate(-278.000000, -462.000000)" fill="#FFFFFF" fill-rule="nonzero">
            <g id="ptc" transform="translate(278.000000, 462.000000)">
                <g id="LOGO_6_">
                    <polygon id="Path" points="8.92292089 0 0 5.25513866 0 9.90734095 8.92292089 4.61109299 13.9420639 7.54355628 12.947642 8.13964111 8.92292089 5.78270799 5.42900609 7.84502447 13.4179767 12.5588907 17.8525609 9.9141925 17.8525609 5.25513866"></polygon>
                    <polygon id="Path" points="8.92292089 21 17.8525609 15.7585644 17.8525609 11.0995106 8.92292089 16.388907 3.90377789 13.4564437 4.90491886 12.8672104 8.92292089 15.2241436 12.4235548 13.1618271 4.42786511 8.4411093 0 11.0858075 0 15.7585644"></polygon>
                </g>
                <g id="Group" transform="translate(25.337601, 1.678630)">
                    <path d="M1.50507099,5.30309951 C2.31135903,4.1040783 3.50735294,3.50114192 5.09977181,3.50114192 C6.5443712,3.50114192 7.71348884,4.01500816 8.61384381,5.03588907 C9.50747972,6.04306688 9.9576572,7.29690049 9.9576572,8.78368679 C9.9576572,10.2704731 9.50747972,11.5174551 8.61384381,12.5314845 C7.72020791,13.5523654 6.51077586,14.0662316 4.9989858,14.0662316 C3.48719574,14.0662316 2.32479716,13.4564437 1.50507099,12.2437194 L1.50507099,17.9510604 L0,17.9510604 L0,3.66557912 L1.50507099,3.66557912 L1.50507099,5.30309951 Z M4.8981998,4.89200653 C3.81643002,4.89200653 2.95638945,5.27569331 2.33151623,6.03621533 C1.7268002,6.76247961 1.43116126,7.67373573 1.43116126,8.77683524 C1.43116126,9.87993475 1.73351927,10.7980424 2.33151623,11.5174551 C2.96310852,12.2848287 3.81643002,12.6616639 4.8981998,12.6616639 C5.96653144,12.6616639 6.84001014,12.2779772 7.50519777,11.5174551 C8.13679006,10.7911909 8.44586714,9.87993475 8.44586714,8.77683524 C8.44586714,7.67373573 8.13007099,6.75562806 7.50519777,6.03621533 C6.84001014,5.27569331 5.96653144,4.89200653 4.8981998,4.89200653 Z" id="Shape"></path>
                    <polygon id="Path" points="13.0887424 13.9017945 13.0887424 5.01533442 10.837855 5.01533442 10.837855 3.66557912 13.0887424 3.66557912 13.0887424 0 14.5938134 0 14.5938134 3.66557912 16.8312627 3.66557912 16.8312627 5.01533442 14.5938134 5.01533442 14.5938134 13.9017945"></polygon>
                    <path d="M23.2479716,12.6685155 C23.893002,12.6685155 24.4574037,12.4835237 24.9546146,12.11354 C25.4518256,11.7435563 25.8079361,11.2707993 26.0363844,10.6815661 L27.6623986,10.6815661 C27.3533215,11.6887439 26.7956389,12.5040783 25.9759128,13.1207178 C25.1225913,13.7510604 24.1012931,14.0593801 22.9254564,14.0593801 C21.4539807,14.0593801 20.2579868,13.5455139 19.3307556,12.524633 C18.4371197,11.5311582 17.9869422,10.2773246 17.9869422,8.77683524 C17.9869422,7.27634584 18.4371197,6.02936378 19.3307556,5.02903752 C20.2512677,4.00815661 21.4539807,3.49429038 22.9254564,3.49429038 C24.1012931,3.49429038 25.1225913,3.80946166 25.9759128,4.43295269 C26.7889199,5.04959217 27.3533215,5.85807504 27.6623986,6.8721044 L26.0363844,6.8721044 C25.8079361,6.28287113 25.4451065,5.81011419 24.9546146,5.44013051 C24.4574037,5.07014682 23.893002,4.88515498 23.2479716,4.88515498 C22.6029412,4.88515498 22.0586968,4.98792822 21.6085193,5.19347471 C21.1583418,5.39902121 20.782074,5.67993475 20.472997,6.03621533 C19.8145284,6.77618271 19.4920132,7.68743883 19.4920132,8.77683524 C19.4920132,9.86623165 19.8212475,10.7843393 20.472997,11.5174551 C21.1449037,12.2916803 22.0654158,12.6685155 23.2479716,12.6685155 Z" id="Path"></path>
                </g>
            </g>
        </g>
    </g>
</svg>