<?xml version="1.0" encoding="UTF-8"?>
<svg width="62px" height="48px" viewBox="0 0 62 48" version="1.1" xmlns="http://www.w3.org/2000/svg" xmlns:xlink="http://www.w3.org/1999/xlink">
    <title>tequila-avion</title>
    <g id="Page-1" stroke="none" stroke-width="1" fill="none" fill-rule="evenodd">
        <g id="iPhone-13-Pro-Copy-7" transform="translate(-56.000000, -553.000000)" fill="#FFFFFF">
            <g id="tequila-avion" transform="translate(56.000000, 553.000000)">
                <path d="M30.6561014,0.759377392 C31.4298732,0.624649145 31.5649762,1.81270732 30.8280507,1.87394744 C30.5332805,1.89844348 30.0051506,1.70247512 30.1525357,1.13906609 C30.1893819,1.00433784 30.4227417,0.808369482 30.6561014,0.759377392 Z M31.0736926,1.40852258 C30.9631537,1.54325083 30.8034865,1.46976269 30.6069731,1.46976269 C30.5578447,1.37177851 30.6069731,1.17581016 30.5455626,1.090074 C29.8946117,1.43301863 31.1105388,2.08216382 31.0736926,1.40852258 Z" id="Shape"></path>
                <path d="M34.3161648,1.59224292 C34.6723455,1.50650676 35.0899366,1.70247512 35.0776545,2.11890788 C35.0653724,2.8905333 33.7143423,2.81704516 33.8985737,1.94743557 C33.9231379,1.78821128 34.0828051,1.64123501 34.3161648,1.59224292 L34.3161648,1.59224292 Z M34.5126783,2.37611636 C34.2916006,2.33937229 34.2179081,2.10665986 34.2793185,1.87394744 C33.9108558,1.93518755 34.1564976,2.63332483 34.5126783,2.37611636 Z" id="Shape"></path>
                <path d="M26.9100634,1.67797908 C27.3153724,1.59224292 27.7329635,1.94743557 27.5610143,2.38836438 C27.4750396,2.60882878 27.2416799,2.81704516 26.9469097,2.76805307 C26.5661648,2.70681296 26.4064976,2.21689206 26.5293185,1.94743557 C26.590729,1.81270732 26.7381141,1.71472314 26.9100634,1.67797908 L26.9100634,1.67797908 Z M26.7626783,2.43735647 C26.8363708,2.49859658 27.1065769,2.60882878 27.1434231,2.43735647 C27.1065769,2.33937229 26.8977813,2.41286042 26.9100634,2.26588415 C26.8363708,2.09441184 27.0820127,1.97193162 26.9714739,1.94743557 C26.7872425,1.88619546 26.6030111,2.22914009 26.7626783,2.43735647 Z" id="Shape"></path>
                <path d="" id="Path"></path>
                <path d="" id="Path"></path>
                <path d="M31.3316165,4.26231181 C31.2333597,4.29905588 30.459588,4.18882368 30.9508716,4.2010717 C31.0736926,4.21331972 31.2456418,4.23781577 31.3316165,4.26231181 Z" id="Path"></path>
                <path d="M32.9528526,4.34804797 C32.4861331,4.39704006 32.0071315,4.21331972 31.4544374,4.26231181 C31.4298732,4.2010717 31.7492076,4.25006379 31.8720285,4.23781577 C32.2159271,4.28680786 32.6212361,4.27455984 32.9528526,4.34804797 Z" id="Path"></path>
                <path d="M33.8371632,4.78897678 C33.7634707,5.04618525 33.4195721,4.99719316 33.1862124,5.05843327 C33.0756735,5.08292932 32.9528526,5.1809135 32.8300317,5.20540954 C32.5843899,5.25440163 32.2282092,5.20540954 31.8843106,5.22990559 C31.0982567,5.30339372 29.9560222,5.24215361 29.1085578,5.14416943 C28.5435816,5.0706813 28.1259905,5.11967339 27.929477,4.70324062 C27.9786054,4.56851238 28.1382726,4.60525644 28.2488114,4.5807604 C29.7226624,4.26231181 31.8965927,4.17657566 33.4318542,4.55626435 C33.5178288,4.70324062 33.800317,4.62975249 33.8371632,4.78897678 L33.8371632,4.78897678 Z M29.4524564,4.97269712 C29.2190967,4.911457 28.9366086,4.96044909 28.8383518,4.82572085 C29.1822504,4.8012248 29.4033281,4.911457 29.7226624,4.911457 C29.7472266,4.77672876 29.5752773,4.82572085 29.5138669,4.76448073 C29.661252,4.76448073 29.8209192,4.75223271 29.931458,4.78897678 C30.0051506,4.75223271 29.8823296,4.70324062 29.9560222,4.66649656 C30.47187,4.66649656 30.8771791,4.51952029 31.3070523,4.72773667 C31.52813,4.70324062 31.8843106,4.65424853 32.068542,4.70324062 C31.9457211,4.78897678 31.6877971,4.73998469 31.6263867,4.87471294 C31.9702853,4.88696096 32.2527734,4.83796887 32.5352615,4.87471294 C32.4124406,4.96044909 32.0931062,4.87471294 32.068542,5.04618525 C32.2650555,5.09517734 32.473851,4.98494514 32.6826466,4.96044909 C32.9160063,4.92370503 33.2230586,5.02168921 33.2967512,4.78897678 C33.2107765,4.62975249 32.9896989,4.67874458 32.8300317,4.64200051 C32.5843899,4.5807604 32.3633122,4.50727226 32.068542,4.49502424 C31.540412,4.4705282 30.9263074,4.4705282 30.4227417,4.49502424 C29.8946117,4.51952029 29.1945325,4.59300842 28.7400951,4.70324062 C28.5804279,4.73998469 28.3839144,4.72773667 28.322504,4.87471294 C28.6664025,4.97269712 29.0348653,5.03393723 29.4401743,5.04618525 C29.4278922,4.99719316 29.5752773,4.96044909 29.5015848,4.92370503 C29.5015848,4.96044909 29.4770206,4.97269712 29.4524564,4.97269712 L29.4524564,4.97269712 Z" id="Shape"></path>
                <path d="M33.3704437,7.05486093 C33.7020602,7.66726206 34.0950872,8.20617504 34.4267036,8.81857617 C34.5003962,8.79408012 34.610935,8.7818321 34.7214739,8.79408012 C34.9057052,9.32074509 35.1267829,9.81066599 35.2864501,10.349579 C35.3232964,10.3985711 35.5075277,10.3005869 35.5812203,10.374075 C35.6917591,10.9497321 35.8637084,11.464149 35.9988114,12.01531 C36.0233756,12.0887982 36.1830428,12.01531 36.207607,12.0765501 C36.3058637,12.4562388 36.2690174,13.080888 36.4164025,13.4238326 C36.4655309,13.5463128 36.5883518,13.5708089 36.6251981,13.6932891 C36.5637876,14.0484818 36.477813,14.3791784 36.3918384,14.722123 C36.5392235,14.9670834 36.8585578,15.0405716 36.9813788,15.3100281 C35.9005547,17.6004083 34.3898574,19.8785404 31.1719493,20.0377647 C28.5312995,20.172493 26.8240887,18.9721868 25.5099049,17.6249043 C25.8538035,16.9635111 25.4362124,16.5470783 25.1537242,16.0939015 C24.9694929,15.812197 24.8466719,15.5182445 24.6870048,15.29778 C24.7484152,15.1263077 24.8958003,15.0283236 24.981775,14.8813473 C24.8958003,14.4771625 24.7729794,14.1097219 24.6870048,13.7055371 C24.8343899,13.6810411 24.8958003,13.5830569 25.0431854,13.5585609 C25.0800317,13.1298801 25.1660063,12.7379434 25.2151347,12.3215106 C25.6204437,12.0520541 25.5590333,11.3294208 25.6327258,10.7292677 C25.8292393,10.6312835 25.9889065,10.4843072 26.1977021,10.374075 C26.455626,9.81066599 26.7012678,9.23500893 26.996038,8.69609594 C27.1065769,8.69609594 27.2171157,8.69609594 27.2908082,8.6715999 C27.6469889,8.21842307 27.8926307,7.66726206 28.2365293,7.2018372 C28.4084786,7.21408523 28.5435816,7.25082929 28.6786846,7.28757336 C29.0103011,7.07935698 29.3419176,6.71191631 29.6858162,6.40571574 C29.796355,6.30773156 29.9560222,6.16075529 30.0419968,6.13625925 C30.3613312,6.06277112 30.729794,6.28323552 31.135103,6.28323552 C31.3193344,6.16075529 31.52813,6.06277112 31.7000792,5.92804287 C31.9457211,6.07501914 32.5106973,6.56494004 32.8545959,6.8711406 C32.9651347,6.96912478 33.1493661,7.18958918 33.1739303,7.18958918 C33.2599049,7.23858127 33.2476228,6.93238071 33.3704437,7.05486093 Z M31.540412,6.55269201 C31.5158479,6.68742026 31.3561807,6.68742026 31.3684628,6.84664455 C31.6141046,7.07935698 32.0562599,7.11610105 32.5229794,7.14059709 C32.3633122,6.89563664 32.0071315,6.58943608 31.540412,6.55269201 L31.540412,6.55269201 Z M29.6858162,6.73641235 C29.6366878,6.82214851 29.5138669,6.90788466 29.4156101,7.00586884 C29.3541997,7.06710896 29.1454041,7.25082929 29.2436609,7.27532534 C29.5507132,7.18958918 30.3244849,7.12834907 30.3613312,6.85889257 C30.3858954,6.69966828 30.1648177,6.63842817 30.1525357,6.58943608 C29.9683043,6.6016841 29.8577655,6.69966828 29.6858162,6.73641235 L29.6858162,6.73641235 Z M31.3070523,7.41005359 C31.2210777,7.38555754 31.1473851,7.31206941 31.0736926,7.28757336 C30.6683835,7.2018372 30.4104596,7.3610615 30.1648177,7.43454963 C29.8577655,7.53253381 29.4647385,7.52028579 29.3050713,7.78974228 C29.6980983,8.04695075 30.0542789,8.41439143 30.459588,8.69609594 C30.8403328,8.96555244 30.9631537,8.95330441 31.2824881,8.69609594 C31.6509509,8.4021434 31.933439,8.0714468 32.1053883,7.66726206 C31.9580032,7.44679765 31.5895404,7.49578974 31.3070523,7.41005359 L31.3070523,7.41005359 Z M28.7646593,7.78974228 C28.4821712,7.55702985 28.322504,7.78974228 28.0891442,7.93671855 C28.0031696,8.23067109 27.8680666,8.46338352 27.794374,8.75733606 C28.187401,8.68384792 29.2927892,8.21842307 28.7646593,7.78974228 Z M33.4564184,8.05919878 C33.2599049,8.02245471 33.1862124,7.86323042 32.9528526,7.85098239 C32.9528526,7.88772646 32.9160063,7.88772646 32.9282884,7.93671855 C32.7686212,8.02245471 32.5598257,8.05919878 32.608954,8.35315131 C32.9037242,8.58586374 33.2599049,8.74508803 33.7266244,8.79408012 C33.677496,8.50012758 33.5546751,8.2919112 33.4564184,8.05919878 Z M33.1616482,9.08803266 C33.0756735,9.05128859 33.0142631,8.96555244 32.9282884,8.94105639 C32.7686212,8.90431232 32.5475436,8.8920643 32.4001585,8.94105639 C32.3141838,8.96555244 32.2282092,9.06353662 32.1299525,9.08803266 C31.8474643,9.17376882 31.3070523,9.21051289 31.270206,9.46772136 C31.2579239,9.54120949 31.4175911,9.73717785 31.5035658,9.84741005 C31.8351823,10.2270987 32.2282092,10.4598112 32.6212361,10.6680276 C33.0756735,10.3128349 33.4195721,9.83516203 33.7757528,9.36973718 C33.7020602,9.1615208 33.3827258,9.17376882 33.1616482,9.08803266 Z M29.1576862,9.17376882 C29.0471474,9.14927277 28.9366086,9.06353662 28.8383518,9.05128859 C28.4453249,9.0022965 28.2733756,9.21051289 28.0768621,9.32074509 C27.8680666,9.43097729 27.5855784,9.45547334 27.5487322,9.67593774 C27.659271,9.89640214 27.9171949,10.0556264 28.1628368,10.2883389 C28.3593502,10.4598112 28.6295563,10.8639959 28.8997623,10.8517479 C28.9611727,10.8517479 29.0962758,10.7537637 29.1945325,10.6802756 C29.5998415,10.349579 29.931458,9.92089819 30.1402536,9.44322531 C29.9068938,9.17376882 29.4893027,9.23500893 29.1576862,9.17376882 L29.1576862,9.17376882 Z M26.996038,9.17376882 C26.7872425,9.36973718 26.725832,9.70043378 26.7012678,10.0801225 C26.9714739,9.89640214 27.2171157,9.68818576 27.3153724,9.34524113 C27.2662441,9.24725695 27.1434231,9.18601684 26.996038,9.17376882 Z M34.340729,9.25950498 C34.3530111,9.25950498 34.2916006,9.30849707 34.2793185,9.32074509 C33.9599842,9.44322531 34.1810618,9.70043378 34.340729,9.88415412 C34.4635499,10.0188824 34.5863708,10.1046185 34.7214739,10.1781067 C34.7214739,9.8719061 34.5863708,9.271753 34.340729,9.25950498 Z M33.2844691,10.8150038 C33.3090333,10.9987242 33.6406498,11.1457004 33.812599,11.2559326 C34.0336767,11.3906609 34.2424723,11.5376372 34.4881141,11.5498852 C34.5740887,11.2436846 34.5863708,10.8639959 34.610935,10.4965552 C34.4512678,10.374075 34.3530111,10.1903547 34.0828051,10.1781067 C33.8371632,10.3985711 33.2353407,10.4353151 33.2844691,10.8150038 L33.2844691,10.8150038 Z M27.0574485,10.4108191 C26.860935,10.4230671 26.5538827,10.6925236 26.5293185,10.8272518 C26.455626,11.1089564 26.6767036,11.5253891 26.6767036,11.8315897 C27.2293978,11.7091095 27.5978605,11.427405 27.8803487,11.0354682 C27.794374,10.6435315 27.3030903,10.6435315 27.0574485,10.4108191 L27.0574485,10.4108191 Z M31.4544374,10.7047716 C31.1473851,10.4965552 30.7789223,10.4353151 30.4227417,10.5577954 C30.3122029,10.5945394 30.2262282,10.6925236 30.1279715,10.7292677 C29.7840729,10.8517479 29.3541997,10.8639959 29.1822504,11.1457004 C29.4401743,11.4029089 29.7472266,11.6356213 30.0419968,11.8560857 C30.336767,12.0765501 30.6438193,12.3337586 31.0122821,12.4684869 C31.6018225,12.1132942 32.1422345,11.7091095 32.4615689,11.0844603 C32.2404913,10.8394999 31.8597464,10.7537637 31.4544374,10.7047716 L31.4544374,10.7047716 Z M35.0162441,10.8762439 C34.9425515,11.0477163 34.8074485,10.9742281 34.7828843,11.1457004 C34.7091918,11.4886451 35.2987322,11.7948456 35.544374,11.9050778 C35.4583994,11.476397 35.4215531,10.9864761 35.0162441,10.8762439 Z M26.2345483,11.7336055 C26.3328051,11.5743812 26.3942155,11.4029089 26.4679081,11.2681807 C26.4433439,11.0477163 26.2468304,10.9987242 26.050317,10.9497321 C25.7678288,11.1701965 25.8660856,11.6356213 25.9029319,12.0643021 C26.0380349,12.0520541 26.1485737,11.8560857 26.2345483,11.7336055 Z M34.4635499,12.1745343 C34.3775753,12.1377903 34.3161648,12.0275581 34.2301902,12.003062 C34.0336767,11.9295739 33.800317,11.9540699 33.5546751,11.9418219 C33.1739303,12.1377903 32.473851,12.01531 32.203645,12.3215106 C32.4615689,12.7991835 32.9160063,13.1911202 33.3827258,13.4973207 C33.5178288,13.5953049 33.7757528,13.7790253 33.9108558,13.7667772 C34.0091125,13.7545292 34.1564976,13.5953049 34.2670365,13.4973207 C34.6354992,13.1788722 34.9425515,12.8604236 35.2127575,12.529727 C35.0408082,12.3092626 34.7091918,12.2970145 34.4635499,12.1745343 L34.4635499,12.1745343 Z M28.2733756,12.1377903 C28.1505547,12.1132942 28.0400158,12.0275581 27.9171949,12.01531 C27.5118859,11.990814 27.3276545,12.1745343 27.0574485,12.3092626 C26.8118067,12.4317428 26.4924723,12.4807349 26.4064976,12.7256953 C26.6030111,12.9339117 26.7749604,13.117632 27.0206022,13.3380965 C27.1434231,13.4483287 27.5732964,13.8647614 27.7575277,13.8647614 C27.8803487,13.8647614 28.1014263,13.656545 28.2242472,13.5708089 C28.7032488,13.2278643 29.133122,12.8481756 29.3787639,12.3705027 C29.0962758,12.0887982 28.6664025,12.1990304 28.2733756,12.1377903 Z M25.6450079,12.3215106 C25.4239303,12.5052309 25.387084,12.8726716 25.4116482,13.2891044 C25.6327258,13.2033682 26.2836767,12.4929829 25.6450079,12.3215106 Z M35.6671949,12.4317428 C35.1513471,12.6889513 35.7040412,13.2401123 35.9865293,13.3993366 C35.9742472,12.9829038 35.9742472,12.554223 35.6671949,12.4317428 Z M31.540412,13.3993366 C31.405309,13.3503445 31.2947702,13.2401123 31.1596672,13.2278643 C30.6683835,13.1543761 30.4350238,13.3625925 30.1525357,13.4605767 C29.7595087,13.5953049 29.268225,13.5830569 29.1208399,13.9260015 C29.4401743,14.1342179 29.7103803,14.3546823 30.066561,14.5996428 C30.2630745,14.734371 30.8280507,15.2120439 31.0982567,15.1875478 C31.1965135,15.1752998 31.4298732,15.0038275 31.540412,14.9180913 C32.0071315,14.5996428 32.3878764,14.2444501 32.6335182,13.8035213 C32.3755943,13.5095688 31.9088748,13.5463128 31.540412,13.3993366 Z M35.5812203,13.6075529 C35.2496038,13.6687931 34.7337559,13.656545 34.6969097,13.9015055 C34.6723455,14.0729778 35.0162441,14.3056902 35.1636292,14.4649145 C35.3847068,14.6731309 35.5689382,14.8690993 35.7531696,14.9058433 C35.9742472,14.6853789 36.0110935,14.2811942 36.1707607,13.9994897 C36.0110935,13.8280174 35.7531696,13.7545292 35.5812203,13.6075529 L35.5812203,13.6075529 Z M25.4730586,13.644297 C25.3256735,13.7667772 25.2151347,13.9382496 25.1537242,14.1464659 C25.3011094,14.4281705 25.4239303,14.734371 25.5958796,15.0038275 C26.0380349,14.8078591 26.2591125,14.4159224 26.4801902,13.9994897 C26.3450872,13.6687931 25.8292393,13.7300332 25.4730586,13.644297 L25.4730586,13.644297 Z M29.1208399,14.8201072 C28.998019,14.7711151 28.9243265,14.6608829 28.8015055,14.6118908 C28.5558637,14.5261546 28.2610935,14.5873947 27.9786054,14.5873947 C27.6469889,14.8690993 26.860935,14.709875 26.6521395,15.1140597 C26.8118067,15.4202603 27.0206022,15.6529727 27.3030903,15.9101812 C27.4504754,16.0571574 27.929477,16.4858382 28.1628368,16.4980862 C28.457607,16.5103343 29.0103011,16.0571574 29.1945325,15.9346772 C29.5629952,15.7019648 29.8823296,15.5304925 30.1402536,15.261036 C29.9191759,14.9303394 29.4770206,14.9548354 29.1208399,14.8201072 L29.1208399,14.8201072 Z M34.1319334,15.0160755 C33.9599842,14.9915795 33.800317,14.8690993 33.6038035,14.8690993 C33.3581616,14.8568512 33.1616482,14.9548354 32.9282884,14.9915795 C32.6335182,15.3590202 31.8843106,15.285532 31.7246434,15.7877009 C32.0316957,15.9836693 32.3510301,16.1183976 32.731775,16.3143659 C32.9651347,16.4368461 33.5178288,16.8410309 33.7880349,16.8165348 C33.9231379,16.8042868 34.070523,16.5960704 34.205626,16.4980862 C34.6354992,16.1306456 34.9916799,15.7632049 35.1759113,15.261036 C34.9179873,15.0038275 34.5249604,15.0895637 34.1319334,15.0160755 L34.1319334,15.0160755 Z M25.7678288,15.1997959 C25.6695721,15.1997959 25.387084,15.0895637 25.387084,15.261036 C25.2888273,15.3222761 25.1291601,15.3222761 25.116878,15.4692524 C25.3011094,15.6529727 25.5099049,16.3143659 25.792393,16.375606 C26.1362916,16.4613422 26.6152932,16.1061495 26.7381141,15.9346772 C26.5538827,15.5427405 26.0134707,15.5182445 25.7678288,15.1997959 L25.7678288,15.1997959 Z M36.3795563,15.1997959 C36.1830428,15.1997959 36.1093502,15.3835162 35.9619651,15.4937484 C35.7163233,15.7019648 35.3601426,15.9101812 35.3724247,16.1428936 C35.5566561,16.3143659 35.7900158,16.4245981 36.1339144,16.4368461 C36.3672742,16.1306456 36.5515055,15.799949 36.6988906,15.4080122 C36.5883518,15.3590202 36.5023772,15.1997959 36.3795563,15.1997959 Z M29.7103803,17.5514162 C29.9437401,17.6861444 30.459588,18.0535851 30.7420761,18.0535851 C31,18.0413371 31.4790016,17.7106405 31.6509509,17.5881602 C31.7492076,17.5146721 32.3878764,17.0369992 32.3633122,16.914519 C32.3141838,16.6940546 31.4790016,16.6573105 31.2456418,16.5960704 C31.1596672,16.5715744 31,16.4613422 30.9508716,16.4490942 C30.6192552,16.375606 30.3981775,16.4735902 30.0911252,16.4735902 C29.7349445,16.7430467 29.0103011,16.6328145 28.7646593,17.0002552 C29.0471474,17.1594795 29.3541997,17.3431998 29.7103803,17.5514162 L29.7103803,17.5514162 Z M35.7286054,16.5838224 C35.4706815,16.8655269 34.9793978,16.914519 34.868859,17.3431998 C34.9548336,17.477928 35.1267829,17.5391682 35.3724247,17.5146721 C35.5075277,17.1962235 35.949683,16.9757591 35.81458,16.5715744 C35.7900158,16.5838224 35.7531696,16.5838224 35.7286054,16.5838224 L35.7286054,16.5838224 Z M27.7698098,17.0492473 C27.6715531,17.0125032 27.6101426,16.902271 27.4996038,16.8777749 C27.2908082,16.8042868 27.0451664,16.8410309 26.8240887,16.8532789 C26.6644216,17.0492473 26.1977021,16.9390151 26.1117274,17.2084715 C26.2591125,17.4166879 26.4679081,17.5881602 26.7012678,17.7718806 C26.8854992,17.9188569 27.1679873,18.2005614 27.4136292,18.2128094 C27.6469889,18.2250574 27.9417591,18.0290891 28.1751189,17.9188569 C28.4330428,17.7963766 28.7032488,17.7106405 28.8874802,17.5391682 C28.6418384,17.1962235 28.1505547,17.2084715 27.7698098,17.0492473 L27.7698098,17.0492473 Z M33.9231379,17.3187038 C33.8494453,17.2942077 33.800317,17.2452156 33.7143423,17.2329676 C33.2476228,17.1839755 33.0265452,17.4044399 32.7686212,17.5269201 C32.3755943,17.7106405 31.8720285,17.7841286 31.7369255,18.1148252 C32.2282092,18.3107936 32.7194929,18.5067619 33.272187,18.6414902 C33.5301109,18.51901 33.7266244,18.2985455 33.9231379,18.1148252 C34.1196513,17.9188569 34.3898574,17.7596326 34.4881141,17.46568 C34.3530111,17.3064557 34.1073693,17.3676958 33.9231379,17.3187038 L33.9231379,17.3187038 Z M25.8169572,17.7596326 C26.0134707,17.8698648 26.4064976,18.531258 26.6398574,18.5802501 C26.8118067,18.6169941 27.0574485,18.555754 27.1434231,18.3720337 C26.8118067,18.016841 26.3450872,17.8086246 25.9029319,17.5759122 L25.8415214,17.5759122 C25.8538035,17.6494004 25.8538035,17.7228885 25.8169572,17.7596326 Z M34.9916799,17.6616484 C34.6354992,17.9188569 34.0828051,17.980097 33.8985737,18.3965297 C34.0950872,18.5067619 34.2670365,18.6414902 34.4881141,18.6047461 C34.5863708,18.5802501 34.7337559,18.4087777 34.868859,18.2495535 C35.0530903,18.0413371 35.2250396,17.8821128 35.139065,17.6616484 L34.9916799,17.6616484 Z M29.6489699,18.0535851 C29.5752773,18.0290891 29.5138669,17.9556009 29.4401743,17.9311049 C29.2068146,17.8698648 28.9611727,17.8821128 28.727813,17.9066088 C28.5681458,18.0780811 28.1751189,18.0290891 28.0154517,18.2005614 C28.3470681,18.5924981 28.8383518,18.8129625 29.2805071,19.082419 C29.0717116,19.1436591 28.8137876,19.1436591 28.6049921,19.2048992 C28.7032488,19.3518755 28.9243265,19.4621077 29.1085578,19.5600919 C29.2927892,19.658076 29.5384311,19.7805563 29.7226624,19.7928043 C30.0911252,19.8173003 30.459588,19.5845879 30.8157686,19.4988517 C30.6683835,19.4131156 30.4964342,19.3763715 30.3122029,19.3273794 C30.1279715,19.2783873 29.9560222,19.1926512 29.7840729,19.1559071 C29.661252,19.1191631 29.5015848,19.1804032 29.4033281,19.070171 C29.9437401,18.9476907 30.336767,18.6782342 30.8157686,18.5067619 C30.6192552,18.1148252 30.066561,18.2005614 29.6489699,18.0535851 L29.6489699,18.0535851 Z M28.0031696,19.3151314 C28.1382726,19.3396275 28.3347861,19.2783873 28.4698891,19.2293953 C28.9857369,19.0211789 28.727813,18.8619546 28.2610935,18.7027303 C27.8803487,18.568002 27.5732964,18.543506 27.253962,18.4700179 C27.2171157,18.531258 27.2048336,18.6169941 27.1679873,18.6782342 C27.4013471,18.8007145 27.7206815,19.2661393 28.0031696,19.3151314 L28.0031696,19.3151314 Z M31.7737718,18.4945139 C31.3930269,18.4700179 31.1842314,18.6292422 30.9140254,18.7272263 C30.6069731,18.8374585 30.2507924,18.8619546 30.1156894,19.082419 C30.5578447,19.2171472 30.9877179,19.3763715 31.4421553,19.4988517 C31.1965135,19.5600919 30.9140254,19.5968359 30.7052298,19.7070681 C31.2333597,19.9152845 31.8965927,19.8050523 32.2404913,19.4988517 C31.9702853,19.4743557 31.7737718,19.5233478 31.52813,19.4376116 C31.9948494,19.2293953 32.4370048,19.0089308 32.731775,18.6414902 C32.4124406,18.568002 32.0316957,18.5067619 31.7737718,18.4945139 L31.7737718,18.4945139 Z M32.8054675,18.9599388 C32.5475436,19.082419 32.2282092,19.1436591 32.068542,19.3763715 C32.473851,19.3641235 32.7931854,19.5723399 33.1248019,19.5233478 C33.40729,19.4866037 33.7880349,19.082419 33.9477021,18.9354427 C34.0336767,18.8619546 34.205626,18.8252105 34.1564976,18.7027303 C33.4932647,18.5924981 33.1616482,18.7884664 32.8054675,18.9599388 Z" id="Shape"></path>
                <path d="M21.8989699,12.2235264 C21.9235341,12.3949987 21.9603803,12.554223 21.9603803,12.7501914 C21.3585578,12.7624394 20.8918384,12.8971676 20.3391442,12.9584078 C20.8181458,12.9829038 21.4690967,12.9094157 22.0217908,12.8971676 C22.0586371,13.06864 22.0832013,13.2401123 22.1077655,13.4238326 C21.5919176,13.5585609 20.84271,13.4605767 20.31458,13.4238326 C20.84271,13.619801 21.5305071,13.656545 22.2551506,13.656545 C22.2919968,13.7545292 22.316561,13.8770094 22.3411252,13.9749936 C20.7567353,14.2689462 19.4179873,13.6075529 18.3862916,13.06864 C19.2706022,12.5052309 20.6093502,12.3949987 21.8989699,12.2235264 L21.8989699,12.2235264 Z" id="Path"></path>
                <path d="M43.2083994,13.0563919 C42.2135499,13.656545 40.9116482,14.2322021 39.290412,14.0239857 C39.2535658,13.9504976 39.3149762,13.7667772 39.3518225,13.6687931 C40.0641838,13.6687931 40.7028526,13.6075529 41.2678288,13.4605767 C40.7888273,13.4483287 40.0519017,13.5463128 39.4992076,13.4605767 C39.5114897,13.2523603 39.548336,13.080888 39.5851823,12.8971676 C40.1501585,12.9216637 40.7274168,12.9339117 41.2678288,12.9829038 C40.7642631,12.8604236 40.2361331,12.7746874 39.6465927,12.7501914 C39.6343106,12.541975 39.6957211,12.4072467 39.7080032,12.2235264 C40.9976228,12.3827507 42.2995246,12.529727 43.2083994,13.0563919 L43.2083994,13.0563919 Z" id="Path"></path>
                <path d="M42.0661648,22.9527941 L42.1275753,22.9527941 C42.2749604,23.5162031 42.4591918,24.0306201 42.5697306,24.6307732 L36.2935816,24.6307732 C38.1604596,24.0306201 40.1624406,23.5406992 42.0661648,22.9527941 Z" id="Path"></path>
                <path d="M0,40.1000255 L0,40.0755295 C1.31418384,39.5243685 1.78090333,38.2505741 2.48098257,36.8175555 C2.7389065,36.2786425 2.99683043,35.7887216 3.24247227,35.2865527 C3.58637084,34.6129115 4.50752773,32.9226844 3.24247227,32.6164838 C3.6477813,32.5307476 4.04080824,32.3837714 4.36014263,32.1510589 C4.92511886,31.7468742 5.20760697,31.2569533 5.51465927,30.6200561 C6.32527734,28.905333 7.23415214,27.0926257 8.02020602,25.4513907 C8.13074485,25.5248788 8.17987322,25.659607 8.22900158,25.7698392 C8.86767036,27.1416178 9.53090333,28.4889002 10.1695721,29.8239347 C10.4152139,30.3261036 10.6117274,30.8772646 10.8819334,31.3181934 C11.2749604,31.9550906 11.9627575,32.4572595 12.7979398,32.5797397 C12.294374,32.70222 12.0855784,33.0574126 12.1469889,33.6698137 C12.2083994,34.3067109 12.6137084,34.93136 12.8839144,35.4947691 C13.1664025,36.0949222 13.4366086,36.6583312 13.7068146,37.2339883 C14.3086371,38.5077826 14.8613312,39.6590967 15.9790016,40.0877775 C14.6156894,40.0020413 12.7365293,39.9163052 11.3240887,40.1122735 C11.2381141,40.0510334 11.3854992,40.0142894 11.4100634,39.9897933 C11.4714739,39.9408012 11.5206022,39.8795611 11.5820127,39.818321 C11.9136292,39.4753764 11.9136292,39.2426639 11.7293978,38.703751 C11.5206022,38.0791018 11.1521395,37.4054606 10.9679081,36.9155397 L4.83914422,36.9155397 C4.66719493,37.1727482 4.50752773,37.5524368 4.33557845,37.9443736 C4.17591125,38.2995662 3.94255151,38.740495 3.9548336,39.0956877 C3.96711569,39.4998724 4.29873217,39.818321 4.48296355,40.0020413 C4.49524564,40.0142894 4.66719493,40.0632814 4.56893819,40.1245216 C3.08280507,39.9775453 1.47385103,39.9530492 0,40.1000255 L0,40.1000255 Z M5.6251981,35.0415922 C7.11133122,35.0170962 8.67115689,35.0783363 10.1081616,35.0170962 C9.33438986,33.4003572 8.62202853,31.7223782 7.8973851,30.0443991 C7.16045959,31.7223782 6.41125198,33.4003572 5.6251981,35.0415922 L5.6251981,35.0415922 Z" id="Shape"></path>
                <path d="M47.838748,25.9903036 C49.042393,26.1005359 50.5653724,26.19852 51.7321712,25.9903036 C51.8058637,26.0270477 51.6953249,26.1372799 51.6707607,26.161776 C51.5602219,26.3210003 51.3391442,26.6027048 51.3514263,26.8966573 C51.3514263,27.3130901 51.8181458,27.7785149 52.0883518,28.0969635 C54.114897,30.4608318 56.4116482,32.9104363 58.4259113,35.1518244 C58.389065,33.8657821 58.3522187,32.3592753 58.3399366,30.8037765 C58.3276545,29.3830059 58.5610143,27.5947946 58.0206022,26.712937 C57.8363708,26.4189844 57.5047544,26.19852 57.2836767,25.9780556 C58.7206815,26.0760398 60.3173534,26.161776 61.729794,25.9780556 C61.8526149,25.9780556 61.729794,26.0025517 61.729794,26.0392957 C61.3244849,26.2720082 60.7840729,26.725185 60.6735341,27.3865782 C60.5998415,27.839755 60.6489699,28.5378923 60.6489699,29.1747895 C60.6489699,30.9874968 60.5015848,32.3347793 62,32.5552437 C60.4278922,32.8491962 60.6489699,34.8333759 60.6489699,36.8420515 L60.6489699,40.8716509 C60.5998415,41.0063792 60.5752773,40.8226588 60.526149,40.7859148 C58.9663233,39.1814238 57.4679081,37.4054606 55.9326466,35.7274815 C54.3482567,33.9882623 52.7270206,32.2490431 51.2163233,30.4975759 C51.2408875,32.2980352 51.2408875,34.4904312 51.2408875,36.4378668 C51.2408875,37.1605001 51.1426307,37.9811176 51.2654517,38.5567747 C51.437401,39.291656 52.112916,39.6835928 52.5673534,40.0877775 C51.0320919,39.9408012 49.1652139,39.9163052 47.6422345,40.0877775 C47.5439778,40.1122735 47.5931062,40.0265374 47.6422345,40.0265374 C48.2686212,39.6101046 48.8581616,39.1446798 48.9441363,38.0301097 C48.9809826,37.4789487 48.9441363,36.8053075 48.9441363,36.1439143 C48.9441363,35.4825211 48.9932647,34.7966318 48.9441363,34.2577188 C48.8827258,33.4860934 48.3791601,32.6042358 47.6790808,32.5797397 C47.2614897,32.5674917 46.8807448,32.9349324 46.7087956,33.2288849 C46.4508716,33.6575657 46.4263074,34.2087267 46.3280507,34.6741516 C45.9841521,36.1684103 45.3700475,37.2462363 44.4734548,38.2260781 C43.9453249,38.8017351 43.1469889,39.3651442 42.3486529,39.7203368 C41.4766244,40.1122735 40.4449287,40.3327379 39.3395404,40.3327379 C36.9690967,40.3327379 35.4215531,39.4263843 34.205626,38.2138301 C33.272187,37.2829804 32.6458003,36.1316662 32.3510301,34.6251595 C32.2527734,34.1352386 32.2650555,33.6208216 31.9948494,33.1798928 C31.8351823,32.9226844 31.52813,32.5674917 31.0859746,32.5674917 C30.6069731,32.5674917 30.1525357,33.0451646 29.9683043,33.4493493 C29.6489699,34.1597346 29.7595087,35.5682572 29.7595087,36.8053075 C29.7595087,38.164838 29.8086371,39.0221995 30.4964342,39.6223526 C30.729794,39.830569 30.9631537,39.8918091 31.0859746,40.0632814 C29.5384311,39.9285532 27.6469889,39.8795611 26.0994453,40.0632814 C26.7012678,39.6468487 27.3645008,39.1814238 27.4504754,38.1280939 C27.4996038,37.5279408 27.4504754,36.7563154 27.4504754,36.0459301 C27.4504754,35.2743047 27.524168,34.4781832 27.4504754,33.9637663 C27.3767829,33.4371013 27.0083201,32.9471804 26.7135499,32.7634601 C26.5538827,32.6654759 26.3450872,32.6042358 26.1485737,32.5919878 C26.4310618,32.5307476 26.7012678,32.4450115 26.9100634,32.2735392 C27.131141,32.1020669 27.389065,31.7591222 27.4381933,31.4529217 C27.524168,30.9752488 27.4381933,30.2526155 27.4381933,29.6034703 C27.4381933,28.9665731 27.4750396,28.3051799 27.4381933,27.7785149 C27.3767829,26.8354172 26.8732171,26.3332483 26.3450872,26.0392957 C25.0309033,26.8599132 24.2202853,29.1257974 23.4587956,30.6812962 C23.2745642,31.0609849 22.8938193,31.612146 23.1640254,32.1510589 C23.2745642,32.3715233 23.4710777,32.5307476 23.8395404,32.5307476 C22.0340729,32.9594284 21.518225,34.6986476 20.7690174,36.1806583 C20.0198098,37.662669 19.2706022,39.254912 18.5582409,40.6756826 C17.6984945,38.9977035 16.6913629,36.8053075 15.7824881,34.9681041 C15.4631537,34.3189589 15.1929477,33.7310538 14.6893819,33.265629 C14.3209192,32.9226844 13.8787639,32.6777239 13.3015055,32.5552437 C13.9401743,32.5307476 14.2226624,31.9550906 14.0138669,31.2569533 C13.8664818,30.7792804 13.5717116,30.2771115 13.3383518,29.7871906 C12.699683,28.4644042 11.9873217,26.5292166 10.7468304,25.9903036 C12.1469889,26.0147997 13.7927892,26.1495279 15.1929477,25.9658076 C15.3034865,26.0270477 15.094691,26.0760398 15.0701268,26.0882878 C14.9350238,26.186272 14.6648177,26.4189844 14.6279715,26.6149528 C14.5297147,27.0558816 14.8244849,27.5825466 14.9841521,27.9377392 C16.1386688,30.6078081 17.4651347,33.4738454 18.6073693,36.021434 C19.639065,33.8657821 20.6830428,31.4161776 21.7884311,29.1135494 C21.9480983,28.7828528 22.1691759,28.4031641 22.3534073,27.9989793 C22.5007924,27.6682827 22.7955626,27.0681296 22.7709984,26.737433 C22.7464342,26.3577443 22.3656894,26.174024 22.2060222,25.9780556 C23.2377179,26.0270477 24.2202853,26.1495279 25.3011094,26.0637918 C25.6204437,26.0392957 25.9520602,25.9780556 26.2713946,25.9780556 C27.0206022,25.9658076 27.7820919,26.1005359 28.5435816,26.1005359 C29.3050713,26.0882878 30.0419968,26.0147997 30.8157686,25.9780556 C30.9385895,25.9780556 30.8157686,26.0025517 30.8157686,26.0392957 C30.6315372,26.1372799 30.2139461,26.4189844 30.0542789,26.6884409 C29.7840729,27.1171217 29.7349445,27.8642511 29.7349445,28.7706047 C29.7349445,29.6157183 29.6735341,30.558816 29.7349445,31.1834652 C29.796355,31.7346262 30.1648177,32.2367951 30.4964342,32.4205154 C31.2087956,32.8002041 31.9948494,32.2980352 32.2650555,31.6856341 C32.4492868,31.2569533 32.4861331,30.8160245 32.6212361,30.4485838 C33.0142631,29.3217658 33.677496,28.354172 34.5126783,27.5947946 C35.6180666,26.5904567 36.883122,25.8555754 38.9342314,25.7085991 C41.0835975,25.5616229 42.9013471,26.3699923 44.0312995,27.3865782 C44.9033281,28.1704516 45.6279715,29.1380454 46.0701268,30.3873437 C46.2175119,30.7915285 46.229794,31.2569533 46.4263074,31.6856341 C46.6842314,32.2612911 47.3351823,32.738964 48.0229794,32.4817555 C48.4528526,32.3225313 48.8581616,31.8693544 48.9318542,31.2447053 C48.9932647,30.7547844 48.9318542,30.0566471 48.9318542,29.4197499 C48.9318542,28.4889002 49.0301109,27.5213065 48.7599049,26.9456494 C48.5511094,26.5414647 48.0598257,26.2107681 47.838748,25.9903036 L47.838748,25.9903036 Z M36.9690967,28.5133963 C35.5075277,29.4075019 34.5372425,31.0609849 34.6354992,33.3881092 C34.6969097,34.7966318 35.2373217,35.9724419 36.0233756,36.7930595 C36.7971474,37.613677 37.9393819,38.2505741 39.4377971,38.201582 C40.751981,38.164838 41.9801902,37.5646849 42.7416799,36.7073233 C43.8470681,35.458025 44.4488906,33.1921409 43.7488114,31.1222251 C43.5154517,30.4608318 43.2452456,29.9464149 42.9259113,29.5299821 C42.090729,28.4889002 40.7028526,27.6927788 38.7991284,27.8887471 C38.0376387,27.9744833 37.4849445,28.1949477 36.9690967,28.5133963 L36.9690967,28.5133963 Z" id="Shape"></path>
                <path d="M17.0352615,43.6764481 C17.1703645,43.651952 17.1335182,43.7989283 17.1826466,43.8479204 L20.4251189,43.8479204 C20.572504,43.8724164 20.4742472,43.639704 20.6339144,43.6764481 L20.6339144,44.8522582 C20.4865293,44.8890023 20.572504,44.6807859 20.4619651,44.6807859 L19.3442948,44.6807859 L19.3442948,47.1181424 C19.3565769,47.1916305 19.4916799,47.1426384 19.5162441,47.2038785 C19.4671157,47.3141107 19.3074485,47.2651187 19.1969097,47.2651187 C18.8898574,47.2773667 18.4477021,47.2896147 18.1652139,47.2406226 C18.1529319,47.1426384 18.2880349,47.1916305 18.3371632,47.1548865 L18.3371632,44.6807859 L17.2440571,44.6807859 C17.0966719,44.6562899 17.2072108,44.9012503 17.0352615,44.8522582 L17.0352615,43.6764481 Z" id="Path"></path>
                <path d="M25.0554675,43.6764481 L25.0554675,44.8277622 C24.8958003,44.8645063 24.981775,44.6685379 24.8835182,44.6562899 L22.8201268,44.6562899 C22.7464342,44.8032661 22.8078447,45.0727226 22.7955626,45.268691 L23.9992076,45.268691 C24.1711569,45.3054351 24.0974643,45.0849707 24.2694136,45.1217147 L24.2694136,46.0280684 C24.1220285,46.0525644 24.1588748,45.8810921 24.0360539,45.8810921 L22.8324089,45.8810921 C22.7587163,46.0158204 22.8201268,46.2852769 22.8078447,46.4689972 L24.8958003,46.4689972 C24.9940571,46.4567492 24.9449287,46.2975249 25.0186212,46.2607808 C25.1291601,46.346517 25.0800317,46.6282215 25.0800317,46.8241898 L25.0800317,47.4120949 C24.9326466,47.448839 25.0063391,47.2773667 24.9080824,47.2651187 C23.8272583,47.2406226 22.6727417,47.3018627 21.641046,47.2406226 C21.6533281,47.1303904 21.8252773,47.1916305 21.8498415,47.0936463 L21.8498415,44.0928808 C21.8744057,43.9336565 21.6287639,44.0316407 21.641046,43.8846645 C22.6727417,43.8111763 23.8272583,43.8724164 24.9080824,43.8601684 C24.981775,43.8479204 24.8958003,43.639704 25.0554675,43.6764481 L25.0554675,43.6764481 Z" id="Path"></path>
                <path d="M29.2068146,48 L29.1454041,48 C29.2313788,47.6937994 28.8997623,47.461087 28.7646593,47.2038785 C27.4381933,47.5835672 26.1731379,46.909926 26.0257528,45.8810921 C25.6450079,43.2845114 30.0419968,43.113039 30.066561,45.5626435 C30.066561,46.2117887 29.7840729,46.6404695 29.3541997,46.909926 C29.4893027,47.1181424 29.661252,47.3998469 29.9437401,47.3753509 C29.7717908,47.6570554 29.4156101,47.7550396 29.2068146,48 L29.2068146,48 Z M29.0962758,45.5626435 C29.0717116,44.3010972 26.9714739,44.3378413 26.9714739,45.5871396 C26.9714739,46.1995407 27.389065,46.6894616 28.2979398,46.6159735 C28.2119651,46.2975249 27.9417591,46.1750447 27.6469889,46.0525644 C28.0400158,45.7463639 28.6049921,45.9913243 28.8506339,46.2607808 C28.998019,46.0648125 29.0962758,45.8565961 29.0962758,45.5626435 Z" id="Shape"></path>
                <path d="M32.338748,43.8846645 C32.3755943,44.0193927 32.1667987,43.9214085 32.1667987,44.0316407 C32.3019017,44.742026 31.9457211,45.7096198 32.2527734,46.2117887 C32.5598257,46.7017096 33.6529319,46.5302373 33.7511886,46.0035723 C33.8617274,45.4401633 33.6652139,44.5950498 33.7511886,44.0316407 C33.7634707,43.9214085 33.542393,44.0438887 33.5792393,43.9091605 C33.6283677,43.7989283 33.7880349,43.8479204 33.8985737,43.8479204 L34.2547544,43.8479204 C34.5003962,43.8479204 34.7828843,43.7989283 34.9302694,43.9091605 C34.9548336,44.0316407 34.7337559,43.9091605 34.7583201,44.0316407 C34.7337559,45.3176831 34.9548336,46.5547334 34.1442155,47.0569023 C33.4809826,47.473335 32.0439778,47.3875989 31.5158479,46.8486859 C30.9877179,46.3097729 31.2087956,45.0972187 31.1596672,44.0316407 C31.1719493,43.9214085 30.9508716,44.0438887 30.9877179,43.9091605 C30.9877179,43.8724164 31,43.8601684 31.0122821,43.8479204 C31.4421553,43.8724164 31.9580032,43.8234243 32.338748,43.8846645 L32.338748,43.8846645 Z" id="Path"></path>
                <path d="M35.8391442,43.8601684 L36.5760697,43.8601684 C36.7971474,43.8601684 37.0550713,43.8111763 37.1901743,43.9214085 C37.2024564,44.0316407 37.018225,43.9459046 37.018225,44.0438887 L37.018225,47.1303904 C37.0305071,47.2038785 37.1656101,47.1548865 37.1901743,47.2161266 C37.141046,47.3263588 36.9813788,47.2773667 36.8708399,47.2773667 C36.5637876,47.2896147 36.1216323,47.3018627 35.8391442,47.2528706 C35.8268621,47.1548865 35.9619651,47.2038785 36.0110935,47.1671345 L36.0110935,44.0561368 C36.0110935,43.9336565 35.7900158,44.0316407 35.8391442,43.8601684 Z" id="Path"></path>
                <path d="M39.6711569,43.8846645 C39.7202853,44.0316407 39.5114897,43.9336565 39.4992076,44.0316407 L39.4992076,46.4445011 C39.9659271,46.5179893 40.5554675,46.4567492 41.0590333,46.4689972 C41.2064184,46.4812452 41.1450079,46.2975249 41.2678288,46.2975249 C41.3538035,46.346517 41.2678288,46.4812452 41.2432647,46.5669814 C41.15729,46.8241898 40.9853407,47.1916305 40.887084,47.448839 C40.7765452,47.473335 40.8625198,47.2896147 40.8011094,47.2773667 C39.9904913,47.2528706 39.0938986,47.3141107 38.3201268,47.2528706 C38.3078447,47.1548865 38.4429477,47.2038785 38.4920761,47.1671345 L38.4920761,44.0561368 C38.4920761,43.9459046 38.2832805,44.0438887 38.3201268,43.9091605 C38.7008716,43.8356724 39.290412,43.8356724 39.6711569,43.8846645 L39.6711569,43.8846645 Z" id="Path"></path>
                <path d="M42.889065,43.8601684 C43.4417591,43.8846645 44.0681458,43.8234243 44.5717116,43.8846645 C44.6208399,44.0193927 44.4488906,43.9214085 44.4857369,44.0316407 C44.7436609,44.7787701 45.0629952,45.5136514 45.3700475,46.2607808 C45.4683043,46.4934932 45.5419968,46.7751978 45.6648177,46.9956622 C45.7139461,47.0936463 45.8122029,47.1548865 45.836767,47.2651187 L44.5717116,47.2651187 C44.5471474,47.1548865 44.6454041,47.1671345 44.6945325,47.1181424 C44.6085578,46.934422 44.5471474,46.7262057 44.4611727,46.5302373 L42.9873217,46.5302373 C42.8767829,46.7262057 42.6434231,47.0813983 42.8645008,47.2651187 L41.68542,47.2651187 C41.6731379,47.1181424 41.8328051,47.1671345 41.8573693,47.0569023 C42.2381141,46.0403164 42.631141,45.0482266 43.0118859,44.0316407 C42.9996038,43.9459046 42.8399366,44.0071447 42.889065,43.8601684 L42.889065,43.8601684 Z M43.1224247,46.0035723 L44.2769414,46.0035723 C44.0804279,45.5136514 43.8961965,44.9869865 43.6628368,44.5338096 C43.4908875,45.0359786 43.2820919,45.4891554 43.1224247,46.0035723 Z" id="Shape"></path>
                <path d="M15.3280507,0 L15.3526149,0 C16.3474643,1.53100281 17.8581616,2.55983669 19.4793978,3.44169431 C21.1006339,4.32355193 22.8938193,5.09517734 24.7852615,5.6708344 C24.8098257,6.56494004 24.9080824,7.38555754 25.3502377,7.87547844 C24.6624406,7.32431743 23.8763867,6.6016841 23.4956418,5.64633835 C23.4342314,5.60959428 23.385103,5.83005869 23.2868463,5.85455473 C22.8201268,5.73207451 22.4025357,5.54835417 21.9849445,5.35238581 C22.2428685,5.59734626 22.72187,5.71982649 23.0166403,6.001531 C23.1271791,6.09951518 23.2008716,6.1117632 23.1026149,6.31997959 C21.0023772,5.47486604 19.3197306,4.2010717 17.7107765,2.85378923 C18.9267036,4.43378413 20.707607,5.60959428 22.5499208,6.61393213 C22.6236133,6.65067619 22.8815372,6.66292422 22.8201268,6.84664455 C22.7709984,7.00586884 22.5622029,6.85889257 22.4639461,6.82214851 C22.1077655,6.67517224 21.641046,6.46695586 21.3462758,6.25873947 C21.5305071,6.46695586 21.8498415,6.66292422 22.1446117,6.84664455 C22.4393819,7.03036489 22.7709984,7.18958918 23.114897,7.28757336 L23.114897,7.60602194 C20.6093502,6.34447563 18.300317,4.76448073 16.6545166,2.52309263 C16.1018225,1.77596326 15.5982567,0.930849707 15.3280507,0 L15.3280507,0 Z" id="Path"></path>
                <path d="M46.2789223,0 C45.6525357,1.88619546 44.4734548,3.34371013 43.1224247,4.55626435 C41.9310618,5.62184231 40.5431854,6.51594795 39.0816165,7.28757336 C38.8728209,7.39780556 38.6885895,7.54478183 38.4675119,7.5815259 C38.5657686,7.55702985 38.4183835,7.27532534 38.5534865,7.28757336 C39.1921553,7.03036489 39.8676704,6.65067619 40.2606973,6.25873947 C39.9659271,6.45470783 39.4869255,6.67517224 39.1430269,6.82214851 C39.0447702,6.85889257 38.8482567,7.00586884 38.7868463,6.84664455 C38.7254358,6.66292422 38.9833597,6.65067619 39.0570523,6.61393213 C39.9413629,6.12401123 40.7396989,5.62184231 41.5380349,5.05843327 C42.4346276,4.40928808 43.2820919,3.7111508 43.8716323,2.85378923 C42.8153724,3.82138301 41.4029319,4.82572085 39.9782092,5.62184231 C39.6097464,5.81781067 39.1184628,6.12401123 38.6763074,6.2709875 C38.5657686,6.30773156 38.5780507,6.35672365 38.5043582,6.2709875 C38.2955626,6.05052309 38.8359746,5.86680276 38.9465135,5.80556264 C39.1798732,5.65858637 39.3518225,5.53610615 39.5606181,5.38912988 C39.1798732,5.57285022 38.7745642,5.71982649 38.3569731,5.85455473 C38.22187,5.87905078 38.1727417,5.54835417 38.1236133,5.68308242 C37.7183043,6.61393213 36.9568146,7.34881347 36.2690174,7.88772646 C36.7111727,7.39780556 36.8094295,6.56494004 36.8339937,5.65858637 C38.75,5.10742536 40.5554675,4.33579995 42.1644216,3.45394233 C43.7733756,2.55983669 45.2595087,1.51875478 46.2666403,0.0122480225 C46.2543582,0 46.2666403,0 46.2789223,0 L46.2789223,0 Z" id="Path"></path>
                <path d="M28.0891442,3.94386323 C28.0522979,3.90711916 27.9908875,3.90711916 27.9171949,3.91936719 C27.7452456,3.55192651 27.5118859,3.24572595 27.3522187,2.86603725 C27.4013471,2.81704516 27.4873217,2.80479714 27.524168,2.74355703 C27.7083994,2.95177341 28.0031696,3.34371013 28.4084786,3.39270222 C28.8015055,3.42944629 29.1085578,3.24572595 29.0839937,2.74355703 C28.998019,2.64557285 28.8383518,2.63332483 28.727813,2.57208472 C28.4330428,2.08216382 29.1454041,1.83720337 29.3787639,2.19239602 C29.3419176,2.36386833 29.3419176,2.57208472 29.2068146,2.63332483 C29.4156101,2.84154121 29.5015848,3.13549375 29.8209192,3.15998979 C30.2999208,3.19673386 30.594691,2.64557285 30.6192552,2.10665986 C30.7052298,2.03317173 30.8771791,2.04541975 31,2.02092371 C31.0122821,2.41286042 31.2579239,2.91502934 31.52813,3.02526155 C31.7492076,3.1109977 32.3755943,3.08650166 32.2896197,2.64557285 C32.2404913,2.37611636 32.0808241,2.26588415 32.3141838,2.05766777 C32.4124406,1.97193162 32.3878764,1.93518755 32.5475436,1.93518755 C32.8914422,1.94743557 33.1125198,2.59658076 32.5475436,2.58433274 C32.5106973,2.85378923 32.5966719,3.01301352 32.6335182,3.19673386 C32.7563391,3.22122991 32.8300317,3.34371013 32.9528526,3.36820618 C33.2476228,3.41719826 33.5178288,3.25797397 33.7143423,3.15998979 C33.8371632,3.0007655 33.9599842,2.70681296 34.2179081,2.7803011 C34.2547544,2.93952539 34.1319334,3.01301352 34.070523,3.09874968 C34.0213946,3.17223782 33.9968304,3.34371013 33.8617274,3.33146211 C33.8494453,3.40495024 33.9108558,3.39270222 33.8862916,3.47843838 C33.8248811,3.52743047 33.812599,3.62541465 33.7143423,3.62541465 C33.7880349,3.72339883 33.7020602,3.85812707 33.5669572,3.83363103 C33.4441363,3.84587905 33.542393,3.67440674 33.542393,3.62541465 C33.2599049,3.77239092 32.9037242,3.6009186 32.5966719,3.6009186 C32.4861331,3.55192651 32.4861331,3.40495024 32.3633122,3.36820618 C32.2896197,3.29471804 32.2282092,3.42944629 32.1545166,3.45394233 C31.7737718,3.52743047 31.3316165,3.52743047 31,3.39270222 C30.9263074,3.34371013 30.9140254,3.23347793 30.8526149,3.15998979 C30.6561014,3.51518244 29.7472266,3.72339883 29.3787639,3.36820618 C29.2559429,3.39270222 29.2436609,3.52743047 29.1699683,3.6009186 C28.862916,3.67440674 28.4698891,3.80913498 28.1382726,3.68665476 C28.1382726,3.74789487 28.1259905,3.85812707 28.0891442,3.94386323 C28.6541204,3.76014289 29.4893027,3.74789487 30.2385103,3.64991069 C30.6315372,3.6009186 31.2456418,3.62541465 31.7369255,3.64991069 C32.2896197,3.67440674 32.6949287,3.68665476 33.1862124,3.79688696 C33.4318542,3.85812707 33.7020602,3.94386323 33.8617274,4.0908395 C33.8740095,4.18882368 33.800317,4.18882368 33.7143423,4.17657566 C33.7634707,4.27455984 33.7511886,4.43378413 33.6897781,4.49502424 C33.0511094,4.32355193 32.3264659,4.13983159 31.540412,4.13983159 C30.5824089,4.15207961 29.4401743,4.22556775 28.5067353,4.34804797 C28.3716323,4.36029599 28.1751189,4.49502424 28.06458,4.32355193 C28.5190174,4.0908395 29.0962758,4.00510334 29.7103803,3.94386323 C30.1034073,3.90711916 30.4473059,3.8703751 30.864897,3.88262312 C31.2210777,3.89487114 31.5772583,3.85812707 31.9211569,3.88262312 C32.5721078,3.93161521 33.1493661,4.11533554 33.6897781,4.2010717 C33.4564184,3.91936719 32.9896989,3.91936719 32.5966719,3.84587905 C32.3264659,3.79688696 31.9825674,3.73564685 31.5649762,3.72339883 C31.4298732,3.72339883 31.2824881,3.76014289 31.1473851,3.74789487 C31.0859746,3.74789487 31.0245642,3.68665476 30.9754358,3.68665476 C30.9140254,3.68665476 30.8526149,3.73564685 30.8034865,3.74789487 C30.5578447,3.78463894 30.2876387,3.73564685 30.0419968,3.74789487 C29.2805071,3.79688696 28.59271,3.94386323 28.0031696,4.12758357 C27.9417591,4.02959939 28.0277338,3.99285532 28.0891442,3.94386323 L28.0891442,3.94386323 Z M32.6580824,2.35162031 C32.4492868,2.4006124 32.4615689,2.24138811 32.3633122,2.180148 L32.3019017,2.180148 C32.2159271,2.43735647 32.608954,2.58433274 32.6580824,2.35162031 Z M29.1576862,2.37611636 C29.0103011,2.49859658 28.998019,2.22914009 28.8383518,2.25363613 C28.7523772,2.52309263 29.2313788,2.62107681 29.1576862,2.37611636 Z" id="Shape"></path>
                <path d="M33.0142631,4.40928808 C32.9528526,4.33579995 33.1002377,4.42153611 33.1616482,4.40928808 C33.137084,4.49502424 33.0633914,4.39704006 33.0142631,4.40928808 Z" id="Path"></path>
                <path d="M13.1172742,4.55626435 C15.4385895,6.62618015 19.2214739,7.50803776 23.114897,8.10819087 C23.2254358,8.5613677 23.3114105,9.05128859 23.4342314,9.4922174 C23.2991284,9.4922174 23.1885895,9.35748916 23.0780507,9.25950498 C22.7832805,8.97780046 22.4885103,8.58586374 22.2797147,8.20617504 C22.1323296,8.21842307 22.0832013,8.48787956 22.0095087,8.47563154 C21.383122,8.34090329 20.8058637,8.16943098 20.1549128,8.05919878 C20.6953249,8.35315131 21.3954041,8.48787956 22.0095087,8.70834397 L22.0095087,9.02679255 C21.0392235,8.87981628 20.1180666,8.5613677 19.2337559,8.23067109 C18.3617274,7.89997448 17.5142631,7.53253381 16.6667987,7.2018372 C18.2634707,8.10819087 20.1303487,8.74508803 21.9972266,9.3819852 C22.0095087,9.4922174 21.9480983,9.52896147 21.9726624,9.65144169 C21.3339937,9.55345751 20.7935816,9.35748916 20.179477,9.23500893 C20.5110935,9.55345751 21.3954041,9.62694565 21.9726624,9.82291401 C21.9480983,10.1536106 21.5427892,9.92089819 21.3585578,9.88415412 C17.7599049,9.03904057 15.1315372,6.9813728 13.1172742,4.55626435 L13.1172742,4.55626435 Z" id="Path"></path>
                <path d="M48.4651347,4.53176831 C48.2809033,4.89920898 47.9615689,5.19316152 47.6667987,5.49936208 C45.836767,7.45904567 43.3680666,9.1615208 40.2361331,9.88415412 C40.0764659,9.92089819 39.6957211,10.1413626 39.6220285,9.85965808 C39.7325674,9.72492983 39.9413629,9.74942587 40.088748,9.71268181 C40.5677496,9.61469763 41.0713154,9.45547334 41.4766244,9.271753 C40.8625198,9.28400102 40.2729794,9.57795356 39.6220285,9.65144169 C39.6465927,9.54120949 39.5851823,9.51671345 39.5974643,9.41872927 C39.6711569,9.32074509 39.818542,9.30849707 39.9167987,9.271753 C41.6485737,8.69609594 43.4049128,8.05919878 44.9278922,7.23858127 C44.6945325,7.25082929 44.5225832,7.38555754 44.3137876,7.4712937 C42.8522187,8.0714468 41.3169572,8.6715999 39.6220285,9.06353662 L39.6220285,8.68384792 C40.2729794,8.52462363 40.8748019,8.30415922 41.4766244,8.09594284 C40.8625198,8.10819087 40.223851,8.35315131 39.6220285,8.47563154 C39.5114897,8.51237561 39.4869255,8.25516713 39.3518225,8.20617504 C39.0079239,8.69609594 38.6885895,9.21051289 38.1727417,9.52896147 C38.2955626,9.07578464 38.3938193,8.58586374 38.4920761,8.12043889 C40.4326466,7.85098239 42.3240887,7.42230161 44.0312995,6.88338862 C45.7507924,6.33222761 47.3351823,5.6708344 48.4651347,4.53176831 L48.4651347,4.53176831 Z" id="Path"></path>
                <path d="M26.5538827,7.17734116 C26.6767036,7.49578974 26.9591918,7.64276601 27.118859,7.91222251 C26.7872425,7.78974228 26.5416006,7.59377392 26.2591125,7.41005359 C26.3573693,7.82648635 26.6889857,7.99795866 26.8732171,8.31640725 C26.5538827,8.15718295 26.2959588,7.92447053 26.0134707,7.72850217 C26.1117274,8.0714468 26.455626,8.4021434 26.725832,8.6715999 C25.6204437,8.21842307 24.7361331,6.69966828 25.2274168,5.02168921 C25.7678288,6.1117632 26.8732171,6.62618015 27.9663233,7.16509314 C27.5978605,7.18958918 27.1557052,7.03036489 26.8486529,6.89563664 C26.9591918,7.2018372 27.1679873,7.39780556 27.3522187,7.63051799 C27.131141,7.56927788 26.8240887,7.31206941 26.5538827,7.17734116 L26.5538827,7.17734116 Z" id="Path"></path>
                <path d="M35.6057845,7.72850217 C35.274168,7.89997448 35.0653724,8.181679 34.6969097,8.31640725 C34.9302694,8.03470273 35.2127575,7.81423833 35.3478605,7.43454963 C35.1145008,7.52028579 34.8197306,7.78974228 34.5249604,7.89997448 C34.5003962,7.76524624 34.6969097,7.67951008 34.7951664,7.5815259 C34.9057052,7.45904567 34.9793978,7.31206941 35.0653724,7.2018372 C34.8442948,7.27532534 34.5249604,7.50803776 34.3038827,7.66726206 C34.3652932,7.44679765 34.6723455,7.21408523 34.7706022,6.93238071 C34.4144216,7.03036489 34.070523,7.15284511 33.6529319,7.2018372 C34.1810618,6.92013269 34.7337559,6.65067619 35.2127575,6.31997959 C35.679477,6.001531 36.1584786,5.60959428 36.3672742,5.02168921 C36.4900951,5.24215361 36.5269414,5.54835417 36.5392235,5.81781067 C36.6006339,7.21408523 35.8022979,8.181679 34.9179873,8.69609594 C35.0653724,8.42663945 35.4583994,8.12043889 35.6057845,7.72850217 Z" id="Path"></path>
                <path d="M25.2274168,8.61035979 C25.4484945,8.97780046 25.7187005,9.28400102 26.0257528,9.55345751 C25.6941363,9.41872927 25.3256735,9.07578464 24.9694929,8.87981628 C25.1291601,9.29624904 25.5590333,9.6024496 25.7309826,9.90865017 C25.3256735,9.73717785 25.0309033,9.45547334 24.6992868,9.19826486 C24.8098257,9.72492983 25.1660063,10.0066343 25.4607765,10.349579 C25.2642631,10.337331 25.0923138,10.1291146 24.9326466,9.99438632 C24.7606973,9.84741005 24.5764659,9.70043378 24.4045166,9.57795356 C24.588748,10.0556264 24.8958003,10.4108191 25.2274168,10.7537637 C24.7361331,10.4843072 24.2939778,9.99438632 23.9623613,9.43097729 C23.4342314,8.54911967 23.1885895,7.29982138 23.4342314,5.90354682 C23.9623613,7.37330952 25.1905705,8.13268691 26.3573693,8.96555244 C25.9889065,8.95330441 25.5344691,8.7818321 25.2274168,8.61035979 L25.2274168,8.61035979 Z" id="Path"></path>
                <path d="M37.2024564,9.61469763 C36.8585578,9.7616739 36.5515055,10.2026027 36.1461965,10.374075 C36.4164025,10.0066343 36.7848653,9.73717785 36.9076862,9.22276091 C36.6251981,9.3819852 36.2812995,9.72492983 35.9005547,9.89640214 C35.7900158,9.84741005 35.9988114,9.74942587 36.0479398,9.68818576 C36.2444532,9.46772136 36.477813,9.1615208 36.6374802,8.8920643 C36.3181458,9.02679255 35.937401,9.34524113 35.6057845,9.56570554 C35.7900158,9.29624904 36.1584786,8.96555244 36.3672742,8.62260781 C36.0847861,8.72059199 35.6671949,8.91656035 35.2496038,8.97780046 C35.8268621,8.5613677 36.4041204,8.13268691 36.9322504,7.65501403 C37.4358162,7.18958918 37.951664,6.66292422 38.1358954,5.8912988 C38.209588,6.07501914 38.2464342,6.29548354 38.2587163,6.47920388 C38.4061014,8.52462363 37.546355,9.94539423 36.4041204,10.7660117 C36.612916,10.4598112 37.018225,10.0678745 37.2024564,9.61469763 L37.2024564,9.61469763 Z" id="Path"></path>
                <path d="M24.2939778,11.1457004 C24.5150555,11.4886451 24.8098257,11.7703496 25.116878,12.0275581 C24.7729794,11.9173258 24.3922345,11.5866292 24.0237718,11.4151569 C24.2448494,11.8070936 24.5641838,12.0887982 24.8835182,12.3827507 C24.4904913,12.3215106 24.1465927,11.9663179 23.790412,11.7703496 C23.9377971,12.2602705 24.2939778,12.541975 24.6133122,12.8604236 C24.4045166,12.8604236 24.2325674,12.6644552 24.048336,12.541975 C23.8641046,12.4072467 23.6798732,12.2970145 23.520206,12.1622863 C23.7044374,12.6399592 24.048336,12.9584078 24.3799525,13.2768563 C23.0289223,12.529727 22.0709192,10.8394999 22.3411252,8.57361572 C22.9429477,9.96989028 24.2080032,10.6802756 25.4362124,11.451901 C25.0677496,11.439653 24.6010301,11.2926767 24.2939778,11.1457004 L24.2939778,11.1457004 Z" id="Path"></path>
                <path d="M38.086767,12.1745343 C37.7797147,12.3460066 37.3744057,12.6767032 37.0305071,12.9094157 C37.0673534,12.7011993 37.3252773,12.5909671 37.4726624,12.4072467 C37.6200475,12.2235264 37.7305864,12.01531 37.8288431,11.7948456 C37.4972266,11.9173258 37.1656101,12.2970145 36.7357369,12.4072467 C37.018225,12.0887982 37.3498415,11.8070936 37.5954834,11.439653 C37.2638669,11.5498852 36.8708399,11.8560857 36.5392235,12.0520541 C36.7234548,11.7948456 37.1164818,11.5008931 37.3375594,11.1701965 C37.0550713,11.2559326 36.6006339,11.4151569 36.1830428,11.464149 C37.3498415,10.6435315 38.7008716,9.99438632 39.2535658,8.54911967 C39.3641046,8.83082419 39.3641046,9.22276091 39.3395404,9.55345751 C39.2535658,11.2804287 38.4061014,12.566471 37.276149,13.2891044 C37.4603803,12.9584078 37.9148177,12.6277112 38.086767,12.1745343 L38.086767,12.1745343 Z" id="Path"></path>
                <path d="M14.2717908,9.11252871 C16.3720285,9.8719061 19.3074485,10.0678745 22.0217908,10.3128349 L22.0217908,10.5455473 C21.5919176,10.5455473 21.2357369,10.4720592 20.8181458,10.4598112 C21.1988906,10.5455473 21.641046,10.5822914 22.0586371,10.6312835 C22.0954834,10.7170196 22.0586371,10.8639959 22.1200475,10.925236 C20.9900951,10.9497321 19.8478605,10.7415157 18.8530111,10.5455473 C19.7864501,10.912988 20.8672742,11.1457004 22.1200475,11.1946925 C22.1323296,11.3049247 22.1937401,11.3784129 22.2060222,11.4886451 C21.8007132,11.464149 21.4076862,11.427405 21.0023772,11.4029089 C21.383122,11.5131411 21.7884311,11.5988773 22.2674326,11.6111253 C22.3411252,11.7458535 22.4270998,11.8560857 22.4762282,12.0275581 C19.0126783,11.7703496 16.6176704,10.4598112 14.2717908,9.11252871 L14.2717908,9.11252871 Z" id="Shape"></path>
                <path d="M47.3106181,9.08803266 C47.0772583,9.30849707 46.770206,9.45547334 46.4877179,9.61469763 C44.4488906,10.7660117 42.1275753,11.7948456 39.1430269,12.0275581 C39.1798732,11.8683338 39.27813,11.7581016 39.3518225,11.6111253 C39.8431062,11.6233733 40.1870048,11.476397 40.616878,11.439653 C40.2606973,11.3906609 39.8062599,11.4886451 39.413233,11.5008931 C39.4255151,11.3906609 39.4869255,11.3171727 39.4992076,11.2069405 C40.7642631,11.1701965 41.7959588,10.90074 42.7662441,10.5945394 C41.7959588,10.7292677 40.6782884,10.9619801 39.4992076,10.9742281 C39.5360539,10.888492 39.548336,10.7660117 39.5606181,10.6557795 C39.9782092,10.6190355 40.358954,10.5332993 40.8011094,10.5088033 C40.4326466,10.4475632 40.0150555,10.5822914 39.5974643,10.5700434 L39.5974643,10.337331 C42.2995246,10.0433784 45.1735341,9.93314621 47.3106181,9.08803266 L47.3106181,9.08803266 Z" id="Shape"></path>
                <path d="M23.4096672,14.7588671 C23.5693344,15.0895637 23.8518225,15.3100281 24.0851823,15.5794846 C23.0289223,15.0528196 22.3902536,13.8402654 22.2919968,12.2602705 C22.7587163,13.105384 23.6430269,13.5463128 24.5273376,13.9627456 C24.3431062,13.9872416 23.9869255,13.9382496 23.790412,13.8770094 C23.8395404,14.0484818 24.0729002,14.2934422 24.2325674,14.4649145 C24.0606181,14.4649145 23.8518225,14.2566981 23.6675911,14.170962 C23.7044374,14.3546823 23.9746434,14.5751467 24.1343106,14.734371 C23.913233,14.7711151 23.7044374,14.5384027 23.520206,14.4404185 C23.6184628,14.8078591 23.9377971,14.9425874 24.1097464,15.2365399 C23.8518225,15.1018117 23.6307448,14.9180913 23.4096672,14.7588671 L23.4096672,14.7588671 Z" id="Path"></path>
                <path d="M38.1973059,14.7833631 C38.0130745,14.8568512 37.7428685,15.1018117 37.5217908,15.2242919 C37.5095087,15.0773156 37.7060222,14.9915795 37.816561,14.8690993 C37.9270998,14.746619 38.0130745,14.5996428 38.086767,14.4526665 C37.9270998,14.4771625 37.7183043,14.722123 37.4726624,14.746619 C37.6323296,14.5506507 37.8411252,14.3914264 37.9762282,14.158714 C37.7551506,14.2444501 37.6077655,14.3914264 37.3866878,14.4771625 C37.5340729,14.2689462 37.7183043,14.0852258 37.8534073,13.8647614 C37.6200475,13.9260015 37.3375594,13.9382496 37.0919176,13.9872416 C37.9270998,13.5095688 38.885103,13.1421281 39.3026941,12.2480225 C39.27813,13.8035213 38.6026149,14.9548354 37.5586371,15.6039806 C37.6568938,15.3467721 38.0499208,15.1018117 38.1973059,14.7833631 L38.1973059,14.7833631 Z" id="Path"></path>
                <path d="M22.4639461,14.2322021 C22.6113312,14.3179382 22.6236133,14.5261546 22.6973059,14.6731309 C22.1691759,14.709875 21.776149,14.8935953 21.2848653,14.9670834 C21.7393027,14.9793315 22.2674326,14.8201072 22.7832805,14.7956111 C22.8324089,14.9425874 22.9306656,15.0650676 22.9552298,15.2365399 C22.4885103,15.3835162 21.8866878,15.3835162 21.2725832,15.3835162 C21.8129952,15.5549885 22.5744849,15.4447563 23.1885895,15.4080122 C23.2131537,15.5059964 23.25,15.5794846 23.3114105,15.6407247 C23.114897,15.7509569 22.844691,15.799949 22.5990491,15.812197 C21.4322504,15.8979331 20.2408875,15.5672365 19.381141,15.285532 C19.7127575,14.9425874 20.2408875,14.7956111 20.7690174,14.6363868 C21.3217116,14.4771625 21.8866878,14.3424343 22.4639461,14.2322021 L22.4639461,14.2322021 Z" id="Path"></path>
                <path d="M42.2135499,15.285532 C41.1818542,15.6529727 39.5974643,16.0326614 38.2955626,15.6652207 C38.3324089,15.5672365 38.3938193,15.5059964 38.4183835,15.3957642 C39.0324881,15.4447563 39.7325674,15.4937484 40.3343899,15.3957642 C39.7816957,15.3345241 39.1061807,15.3835162 38.6517433,15.2242919 C38.6763074,15.0405716 38.7868463,14.9425874 38.8236926,14.7833631 C39.3518225,14.8323552 39.8308241,14.9180913 40.3221078,14.9915795 C39.8676704,14.8568512 39.4255151,14.722123 38.9096672,14.6731309 C38.9587956,14.5139066 39.0324881,14.3791784 39.0816165,14.2322021 C39.6220285,14.3179382 40.2484152,14.4771625 40.7888273,14.6486349 C41.3292393,14.7956111 41.8819334,14.9303394 42.2135499,15.285532 L42.2135499,15.285532 Z" id="Path"></path>
                <path d="M40.2361331,16.7797908 C39.2167195,17.1839755 37.6323296,17.5391682 36.3181458,17.1962235 C36.34271,17.0859913 36.4041204,17.0247512 36.4409667,16.926767 C37.1041997,16.9635111 37.7305864,17.0002552 38.3569731,16.926767 C37.7919968,16.8655269 37.141046,16.890023 36.6497623,16.7552947 C36.6866086,16.5838224 36.7971474,16.4980862 36.8217116,16.3143659 C37.3252773,16.338862 37.7551506,16.4368461 38.2341521,16.4858382 C37.8411252,16.35111 37.4235341,16.2286298 36.9322504,16.1918857 C36.9445325,16.0081653 37.0673534,15.9346772 37.0796355,15.7509569 C38.2587163,15.9714213 39.4255151,16.2041337 40.2361331,16.7797908 L40.2361331,16.7797908 Z" id="Path"></path>
                <path d="M23.3114105,16.4858382 L23.25,16.4858382 C23.6798732,16.4858382 24.2202853,16.3266139 24.723851,16.3143659 C24.8466719,16.4245981 24.8958003,16.5960704 24.9572108,16.7552947 C24.4659271,16.8777749 23.8641046,16.902271 23.25,16.902271 C23.8272583,17.0369992 24.5150555,16.9512631 25.1660063,16.926767 C25.2028526,17.0247512 25.2642631,17.0859913 25.2888273,17.1962235 C23.9746434,17.5636642 22.4270998,17.1594795 21.3708399,16.8165348 C21.7270206,16.4735902 22.2551506,16.2898699 22.7832805,16.1428936 C23.3236926,15.9836693 23.9009509,15.8734371 24.4659271,15.7632049 C24.588748,15.8611891 24.6255943,16.0449094 24.6747227,16.2041337 C24.1588748,16.2286298 23.7535658,16.387854 23.3114105,16.4858382 L23.3114105,16.4858382 Z" id="Path"></path>
            </g>
        </g>
    </g>
</svg>