<?xml version="1.0" encoding="UTF-8"?>
<svg width="68px" height="18px" viewBox="0 0 68 18" version="1.1" xmlns="http://www.w3.org/2000/svg" xmlns:xlink="http://www.w3.org/1999/xlink">
    <title>welcome</title>
    <g id="Page-1" stroke="none" stroke-width="1" fill="none" fill-rule="evenodd">
        <g id="iPhone-13-Pro-Copy-7" transform="translate(-162.000000, -673.000000)" fill="#FFFFFF">
            <g id="Group-4" transform="translate(148.000000, 634.000000)">
                <g id="welcome" transform="translate(14.000000, 39.000000)">
                    <path d="M0,7.80001875 C0,3.49218 3.29817,0 7.36668437,0 C11.4351562,0 14.7333156,3.49218 14.7333156,7.80001875 L14.7333156,18 L0,18 L0,7.80001875 Z M1.13333156,13.2000187 L1.13333156,16.8000187 L5.66668437,16.8000187 L5.66668437,13.2000187 C5.66668437,11.8745437 4.65184812,10.8 3.4,10.8 C2.14815719,10.8 1.13333156,11.8745437 1.13333156,13.2000187 Z M6.8,16.8000188 L6.8,13.2000188 C6.8,11.21175 5.27776687,9.60001875 3.4,9.60001875 C2.52919625,9.60001875 1.73485531,9.94663125 1.13333156,10.5166688 L1.13333156,10.5000188 C1.13333156,8.014725 3.03612562,6.00001875 5.38331562,6.00001875 C7.7305375,6.00001875 9.63331562,8.014725 9.63331562,10.5000188 L9.63331562,16.8000188 L6.8,16.8000188 Z M13.6,16.8000187 L10.7666844,16.8000187 L10.7666844,10.5000187 C10.7666844,7.3519875 8.35645625,4.79999812 5.38331562,4.79999812 C3.68696,4.79999812 2.17384844,5.63079375 1.18712594,6.92904375 C1.58970187,3.695625 4.20293125,1.19999812 7.36668437,1.19999812 C10.8092375,1.19999812 13.6,4.15492312 13.6,7.80001875 L13.6,16.8000187 Z" id="Shape"></path>
                    <polygon id="Path" fill-rule="nonzero" points="36.3153469 12.8856375 37.5887 12.8856375 37.5887 5.10000188 36.3153469 5.10000188"></polygon>
                    <path d="M33.891625,11.6064 C33.5864219,11.9041313 33.0707906,12.0364875 32.4919937,12.0364875 C31.6396031,12.0364875 30.9766562,11.7497813 30.7241,11.1542625 C30.6398969,10.9778063 30.5978219,10.790325 30.5767844,10.5587438 L35.5227219,10.5587438 C35.5227219,9.9081 35.4385187,9.4008375 35.2491281,8.915625 C34.8176469,7.91206875 33.8284594,7.30558125 32.4078437,7.30558125 C31.0082125,7.30558125 29.9664312,7.86796875 29.53495,8.893575 C29.3771156,9.26848125 29.2929125,9.67651875 29.2929125,10.1838375 C29.2929125,10.66905 29.3665969,11.0881125 29.53495,11.4519938 C29.9664312,12.4776 31.02925,13.0510688 32.481475,13.0510688 C33.4391062,13.0510688 34.2914969,12.8194313 34.859775,12.2790938 C35.1048937,12.0455438 35.2818531,11.773575 35.3906531,11.4514875 L34.0300156,11.4514875 C33.9891625,11.5074 33.9428375,11.5594313 33.891625,11.6064 Z M32.4078437,8.33113125 C33.2181062,8.33113125 33.8494969,8.5957875 34.112625,9.20233125 C34.1652187,9.3346875 34.2072937,9.4559625 34.2283312,9.61036875 L30.5978219,9.61036875 C30.6188594,9.4780125 30.6609344,9.3567375 30.7135812,9.23540625 C30.9766562,8.61789375 31.5764906,8.33113125 32.4078437,8.33113125 Z" id="Shape"></path>
                    <path d="M43.84215,12.2570438 C43.2844437,12.7753313 42.4741281,13.0510688 41.4849406,13.0510688 C40.1379562,13.0510688 39.0961219,12.510675 38.654175,11.4740438 C38.4963406,11.0991375 38.4121375,10.66905 38.4121375,10.1728125 C38.4121375,9.68754375 38.4963406,9.24643125 38.654175,8.88255 C39.0961219,7.86796875 40.1169187,7.30558125 41.4849406,7.30558125 C42.4741281,7.30558125 43.2738719,7.5702375 43.8316312,8.110575 C44.2420219,8.4855375 44.4630219,8.981775 44.4945781,9.57729375 L43.137075,9.57729375 C43.1055187,9.25745625 42.9792406,9.003825 42.78985,8.81634375 C42.4951656,8.5406625 42.0216094,8.4193875 41.4954594,8.4193875 C40.7272719,8.4193875 40.148475,8.72814375 39.8959187,9.2905875 C39.8011969,9.54421875 39.7486031,9.808875 39.7486031,10.1728125 C39.7486031,10.5256688 39.8011969,10.80135 39.8959187,11.0439563 C40.148475,11.6064 40.7272719,11.9151563 41.4954594,11.9151563 C42.0216094,11.9151563 42.5056844,11.7938813 42.78985,11.507175 C43.0002781,11.3196938 43.1265562,11.0550375 43.137075,10.746225 L44.5156687,10.746225 C44.4735406,11.3527688 44.2525937,11.8600313 43.84215,12.2570438 Z" id="Path" fill-rule="nonzero"></path>
                    <path d="M48.3584125,13.0400438 C49.831675,13.0400438 50.8419531,12.444525 51.2733812,11.4409688 C51.4312156,11.0660625 51.5154187,10.647 51.5154187,10.1728125 C51.5154187,9.70959375 51.4312156,9.2905875 51.2733812,8.915625 C50.8419531,7.91206875 49.831675,7.30558125 48.3584125,7.30558125 C46.8956687,7.30558125 45.8854437,7.91206875 45.4434969,8.937675 C45.2856094,9.3016125 45.2119781,9.720675 45.2119781,10.1728125 C45.2119781,10.635975 45.2856094,11.0439563 45.4434969,11.4189188 C45.8854437,12.4335 46.8956687,13.0400438 48.3584125,13.0400438 Z M48.3584125,11.9372625 C47.5586687,11.9372625 46.9483156,11.617425 46.6852406,11.0219063 C46.5905187,10.7793 46.5378719,10.5036188 46.5378719,10.1728125 C46.5378719,9.852975 46.5905187,9.56626875 46.6852406,9.3346875 C46.9483156,8.73916875 47.5586687,8.4193875 48.3584125,8.4193875 C49.1582094,8.4193875 49.7790812,8.72814375 50.0421562,9.3346875 C50.1368781,9.56626875 50.1789531,9.852975 50.1789531,10.1728125 C50.1789531,10.5036188 50.1368781,10.7793 50.0421562,11.0219063 C49.7790812,11.617425 49.1582094,11.9372625 48.3584125,11.9372625 Z" id="Shape"></path>
                    <path d="M64.9692188,12.0364875 C65.5482813,12.0364875 66.0635938,11.9041313 66.3690625,11.6064 C66.4200625,11.5594313 66.4662813,11.5074 66.5071875,11.4514875 L67.8677188,11.4514875 C67.7593438,11.773575 67.5819063,12.0455438 67.337,12.2790938 C66.7685625,12.8194313 65.9164375,13.0510688 64.9585938,13.0510688 C63.5066875,13.0510688 62.4436563,12.4776 62.0122813,11.4519938 C61.843875,11.0881125 61.7700313,10.66905 61.7700313,10.1838375 C61.7700313,9.67651875 61.8545,9.26848125 62.0122813,8.893575 C62.4436563,7.86796875 63.4854375,7.30558125 64.8852813,7.30558125 C66.3058438,7.30558125 67.2950313,7.91206875 67.7264063,8.915625 C67.9160625,9.4008375 68,9.9081 68,10.5587438 L63.0540625,10.5587438 C63.0753125,10.790325 63.1172813,10.9778063 63.2012188,11.1542625 C63.4540938,11.7497813 64.1170938,12.0364875 64.9692188,12.0364875 Z M66.5900625,9.20233125 C66.3265625,8.5957875 65.6954375,8.33113125 64.8852813,8.33113125 C64.053875,8.33113125 63.4540938,8.61789375 63.1905938,9.23540625 C63.138,9.3567375 63.0960313,9.4780125 63.0753125,9.61036875 L66.705875,9.61036875 C66.684625,9.4559625 66.6426563,9.3346875 66.5900625,9.20233125 Z" id="Shape"></path>
                    <path d="M54.8064062,7.317 C53.4320625,7.317 52.3181906,8.49740625 52.3181906,9.95349375 L52.3181906,12.889575 L53.6190625,12.889575 L53.6190625,9.6613875 C53.6190625,8.96641875 54.1503125,8.42551875 54.8064062,8.42551875 C55.4619687,8.42551875 55.99375,8.96641875 55.99375,9.6613875 L55.99375,12.889575 L57.29425,12.889575 L57.29425,9.6613875 C57.29425,8.96641875 57.8260312,8.42551875 58.482125,8.42551875 C59.1376875,8.42551875 59.6694687,8.96641875 59.6694687,9.6613875 L59.6694687,12.889575 L60.9699687,12.889575 L60.9699687,9.95349375 C60.9699687,8.49740625 59.8559375,7.317 58.482125,7.317 C57.7543125,7.317 57.0992812,7.64825625 56.644,8.17621875 C56.18925,7.64825625 55.5342187,7.317 54.8064062,7.317 Z" id="Path" fill-rule="nonzero"></path>
                    <polygon id="Path" fill-rule="nonzero" points="26.3901094 11.3439938 27.7327375 7.46499375 29.0961375 7.46499375 27.0354188 12.8757375 25.7448531 12.8757375 24.4647 9.0849375 23.1846 12.8757375 21.8940344 12.8757375 19.8333156 7.46499375 21.1967156 7.46499375 22.5392906 11.3550188 23.8194438 7.46499375 25.0995969 7.46499375"></polygon>
                </g>
            </g>
        </g>
    </g>
</svg>