<svg width="200" height="200" viewBox="0 0 200 200" fill="none" xmlns="http://www.w3.org/2000/svg">
<path d="M127.292 89.4935C126.876 89.8036 119.542 93.78 119.542 102.622C119.542 112.849 128.875 116.467 129.154 116.557C129.111 116.777 127.671 121.512 124.233 126.336C121.168 130.581 117.966 134.819 113.096 134.819C108.226 134.819 106.972 132.097 101.35 132.097C95.871 132.097 93.9229 134.909 89.468 134.909C85.0131 134.909 81.9047 130.981 78.3307 126.157C74.191 120.492 70.8462 111.691 70.8462 103.339C70.8462 89.9414 79.8992 82.8362 88.8091 82.8362C93.5433 82.8362 97.4897 85.8271 100.462 85.8271C103.291 85.8271 107.703 82.657 113.089 82.657C115.13 82.657 122.464 82.8362 127.292 89.4935ZM110.532 76.9852C112.76 74.4422 114.335 70.9137 114.335 67.3852C114.335 66.8959 114.292 66.3997 114.199 66C110.575 66.1309 106.263 68.3225 103.664 71.2238C101.622 73.4567 99.7171 76.9852 99.7171 80.5619C99.7171 81.0995 99.8102 81.637 99.8532 81.8093C100.082 81.8507 100.455 81.8989 100.827 81.8989C104.079 81.8989 108.169 79.8039 110.532 76.9852Z" fill="black"/>
</svg>
