<svg width="200" height="200" viewBox="0 0 200 200" fill="none" xmlns="http://www.w3.org/2000/svg">
<path d="M148.679 80.9039C147.938 81.457 134.856 88.5496 134.856 104.32C134.856 122.562 151.502 129.015 152 129.175C151.923 129.568 149.356 138.013 143.224 146.618C137.756 154.19 132.046 161.749 123.359 161.749C114.672 161.749 112.436 156.894 102.408 156.894C92.6353 156.894 89.1605 161.909 81.2146 161.909C73.2686 161.909 67.7244 154.903 61.3497 146.298C53.9659 136.194 48 120.497 48 105.599C48 81.7029 64.1474 69.0297 80.0393 69.0297C88.4835 69.0297 95.5224 74.3645 100.824 74.3645C105.87 74.3645 113.739 68.7101 123.346 68.7101C126.987 68.7101 140.068 69.0297 148.679 80.9039ZM118.785 58.5937C122.758 54.0579 125.569 47.7643 125.569 41.4707C125.569 40.598 125.492 39.7129 125.326 39C118.862 39.2336 111.172 43.1425 106.534 48.3174C102.893 52.3001 99.4954 58.5937 99.4954 64.9733C99.4954 65.9321 99.6615 66.8909 99.7381 67.1982C100.147 67.2719 100.811 67.358 101.475 67.358C107.275 67.358 114.57 63.6212 118.785 58.5937Z" fill="black"/>
</svg>
