<svg width="200" height="200" viewBox="0 0 200 200" fill="none" xmlns="http://www.w3.org/2000/svg">
<path fill-rule="evenodd" clip-rule="evenodd" d="M128.859 82.1314H113.351V82.0996C115.214 81.5655 117.082 81.0362 118.953 80.5061C121.869 79.68 124.792 78.8517 127.715 78L127.716 78.0035C128.097 79.3689 128.478 80.7343 128.859 82.1314ZM47.9154 108.191H36.8242C38.6992 104.027 40.5743 99.896 42.4493 95.7646C44.2607 99.896 46.0722 104.027 47.9154 108.191ZM53.0319 104.917C52.7777 103.424 53.2544 102.47 54.5574 102.057L54.5097 102.047C54.3729 102.019 54.2616 101.997 54.176 102.025C52.1739 101.548 50.6167 100.373 49.7268 98.5612C48.321 95.705 46.9622 92.8331 45.6064 89.9675C45.0314 88.7522 44.4567 87.5374 43.8794 86.326C43.7168 85.9685 43.546 85.6109 43.3711 85.2449C43.204 84.8952 43.0332 84.5376 42.8624 84.1649C42.8381 84.2014 42.8185 84.2285 42.8017 84.2517C42.7746 84.2892 42.7549 84.3163 42.7353 84.3556C41.7189 86.452 40.6945 88.5562 39.6702 90.6605L39.6695 90.6619L39.6684 90.6642C38.6436 92.7695 37.6187 94.8748 36.6018 96.9722C36.5045 97.1667 36.4122 97.3636 36.32 97.5603C36.0808 98.0706 35.8424 98.5791 35.5213 99.0379C34.409 100.627 32.9471 101.739 30.945 102.057C32.1208 102.47 32.5657 103.106 32.4704 104.313C32.4068 105.076 32.2479 105.839 31.9301 106.506C31.1888 108.137 30.3898 109.749 29.593 111.356C29.365 111.816 29.1373 112.276 28.911 112.735C28.2119 114.197 27.481 115.627 26.7182 117.057C25.8602 118.614 24.7161 119.886 23.0953 120.648C23.0636 120.648 23.0318 120.68 23 120.712C26.75 120.457 30.4683 120.553 34.2818 120.807C34.0276 120.616 33.8369 120.457 33.678 120.299C32.7882 119.409 32.3433 118.424 32.8835 117.152C33.2861 116.263 33.6604 115.373 34.0346 114.483C34.2217 114.038 34.409 113.593 34.5996 113.148C34.695 112.894 34.8539 112.799 35.1399 112.799H41.337H49.6951C49.9493 112.799 50.1082 112.894 50.2035 113.148C50.3148 113.434 50.4419 113.72 50.569 114.006C50.6961 114.292 50.8232 114.578 50.9345 114.864C51.3794 116.008 51.7925 117.121 52.2057 118.265C52.4281 118.9 52.2692 119.504 51.7925 119.981C51.5383 120.235 51.2205 120.521 50.9027 120.807C54.7481 120.457 58.5616 120.489 62.407 120.807C62.3323 120.76 62.2582 120.713 62.1845 120.667C61.6622 120.338 61.1643 120.025 60.6909 119.663C59.3561 118.646 58.5616 117.184 57.8307 115.722C56.9937 114.026 56.189 112.313 55.382 110.596C55.0553 109.9 54.7282 109.204 54.3985 108.508C54.3169 108.331 54.2339 108.154 54.151 107.977C53.6847 106.984 53.2208 105.996 53.0319 104.917ZM132.514 102.693C132.514 101.008 132.101 98.879 131.147 96.8451C128.732 91.7921 123.806 89.5358 118.753 90.3938C114.876 91.0612 112.175 93.3493 110.459 96.8133C108.965 99.8642 108.711 103.106 109.346 106.411C110.586 112.608 115.321 116.104 120.564 116.136C124.219 116.136 127.27 114.801 129.59 111.941C131.656 109.43 132.514 106.443 132.514 102.693ZM100.162 120.744C96.0622 120.458 91.9626 120.362 87.8312 120.775C88.1671 120.535 88.4849 120.296 88.7845 120.069L88.7857 120.068L88.8954 119.986C88.9545 119.941 89.0129 119.897 89.0706 119.854C90.4054 118.805 91.041 117.407 91.1045 115.754C91.1363 114.769 91.1363 113.784 91.1363 112.767V106.093C91.1363 104.25 89.8016 102.534 87.9901 102.057C88.2443 101.993 88.4032 101.962 88.562 101.93C90.0239 101.548 91.1363 100.055 91.1363 98.5612C91.1363 97.7671 91.1399 96.9766 91.1434 96.1872V96.1856V96.1841V96.1825V96.1815C91.1504 94.6034 91.1575 93.03 91.1363 91.4426C91.1045 90.4574 91.041 89.4722 90.8185 88.5506C90.5325 87.2794 89.5791 86.4531 88.5304 85.8175C88.435 85.754 88.2443 85.8175 88.149 85.8811C87.2592 86.4849 86.5282 87.2476 85.9244 88.1375C84.8613 89.7169 84.0305 91.4414 83.21 93.1447L83.096 93.3811C82.8206 93.9532 82.5416 94.5252 82.2626 95.0973C81.7047 96.2414 81.1468 97.3854 80.6172 98.5295C80.4265 98.9108 80.2994 99.324 80.2676 99.7371C80.1723 101.04 80.6807 101.707 82.0155 102.025C81.7613 102.089 81.5388 102.152 81.3481 102.216C79.632 102.82 78.329 103.964 77.3756 105.458C76.6765 106.538 76.1044 107.714 75.5642 108.89C74.3486 111.359 73.1443 113.84 71.9378 116.325L71.9367 116.327C71.1249 117.999 70.3122 119.673 69.4942 121.347L68.9858 122.364C68.2866 120.902 67.6192 119.504 66.9518 118.106C66.5972 117.359 66.2426 116.611 65.8877 115.863L65.8872 115.862C64.4296 112.788 62.9679 109.706 61.4857 106.665C60.5959 104.854 59.2929 103.392 57.4497 102.502C57.1966 102.385 56.9436 102.292 56.676 102.194C56.5066 102.132 56.3314 102.067 56.1467 101.993C56.242 101.962 56.3056 101.962 56.3692 101.962C57.3861 101.739 57.9264 100.945 57.8946 99.8642C57.8658 99.0286 57.5235 98.3237 57.1756 97.6073L57.1752 97.6063C57.1397 97.533 57.1037 97.4591 57.0683 97.3854C56.5793 96.381 56.1014 95.3711 55.6229 94.3603L55.6223 94.3589C54.9504 92.9394 54.2777 91.5182 53.5725 90.1078C52.9687 88.8684 52.2378 87.629 51.1573 86.7391C50.7513 86.4144 50.3223 86.1126 49.8702 85.7947C49.7917 85.7395 49.7117 85.6832 49.6318 85.6268C49.9517 85.6434 50.2715 85.6604 50.5913 85.6774C53.9582 85.8566 57.3273 86.0359 60.723 85.6586C60.4688 85.8493 60.1827 86.0718 59.9285 86.2942C59.2611 86.8345 59.0069 87.5654 59.2929 88.3599C59.6743 89.4722 60.0874 90.5527 60.5641 91.6332C61.9623 94.7793 63.3685 97.9174 64.7747 101.056C66.181 104.194 67.5875 107.333 68.9858 110.479C69.0119 110.557 69.0596 110.636 69.1288 110.75L69.152 110.788L69.1764 110.828C69.6531 109.78 70.098 108.763 70.5429 107.746C71.8301 104.949 73.1175 102.16 74.4047 99.3705L74.4087 99.3618C75.6943 96.5764 76.9799 93.791 78.2655 90.9976C78.5338 90.3992 78.7618 89.8007 78.9932 89.1935L78.9937 89.1921L78.9945 89.1902C79.119 88.8634 79.2445 88.5342 79.3778 88.201C79.6002 87.5972 79.4731 87.0569 79.06 86.612C78.774 86.2624 78.4879 85.9446 78.2337 85.6904C79.346 85.754 80.6172 85.8175 81.8884 85.8811C83.9541 85.9764 86.0515 85.9446 88.1172 85.6904C88.6698 85.6213 89.239 85.6857 89.8128 85.7506C90.0311 85.7752 90.25 85.8 90.4689 85.8175C92.916 86.0082 95.363 85.9446 97.8101 85.754C98.0824 85.7396 98.3482 85.7188 98.6221 85.6974C98.9556 85.6713 99.3012 85.6443 99.6851 85.6268C99.5251 85.7432 99.3784 85.8463 99.2419 85.9421C99.0805 86.0554 98.9329 86.1592 98.7953 86.2624C97.5876 87.1523 96.952 88.3599 96.8885 89.8218C96.8249 91.2201 96.8249 92.6502 96.8249 94.0485V98.3706C96.8249 100.182 98.0961 101.739 99.8758 102.089C100.575 102.216 101.179 101.93 101.751 101.549C102.609 101.008 103.149 100.182 103.372 99.1968C104.134 95.7646 105.66 92.7455 108.107 90.2349C110.649 87.629 113.732 85.8811 117.355 85.2455C121.645 84.4828 125.776 85.023 129.59 87.1523C134.007 89.6311 136.645 93.4447 137.948 98.2752C137.99 98.426 138.03 98.579 138.069 98.7324C138.181 99.1611 138.293 99.5935 138.456 99.9913C138.997 101.167 139.918 101.898 141.221 102.057C141.603 102.089 142.079 101.962 142.461 101.803C143.891 101.167 144.558 99.9278 144.622 98.4659C144.69 96.4665 144.677 94.467 144.664 92.4792V92.4771C144.659 91.6853 144.654 90.8952 144.654 90.1078C144.654 88.4235 143.859 87.1841 142.556 86.1989C142.427 86.1064 142.308 86.0139 142.181 85.9152C142.09 85.8443 141.995 85.77 141.889 85.6904C142.151 85.7057 142.412 85.7213 142.674 85.737C145.686 85.9171 148.697 86.0972 151.709 85.6586C151.676 85.7077 151.645 85.7547 151.616 85.8001L151.615 85.8006C151.53 85.9314 151.453 86.0493 151.359 86.1671C151.343 86.1989 151.319 86.2386 151.296 86.2783C151.272 86.3181 151.248 86.3578 151.232 86.3896C150.533 87.3747 150.533 88.3599 151.232 89.3769C152.056 90.5139 152.982 91.5492 153.919 92.5965C154.03 92.7201 154.14 92.8438 154.251 92.968C156.793 95.7964 159.336 98.6566 161.878 101.517C162.911 102.677 163.944 103.829 164.977 104.981C166.01 106.133 167.042 107.285 168.075 108.445C168.107 108.476 168.139 108.54 168.171 108.604C168.187 108.588 168.202 108.58 168.218 108.572C168.234 108.564 168.25 108.556 168.266 108.54V106.888C168.25 105.87 168.226 104.853 168.202 103.836C168.179 102.819 168.155 101.803 168.139 100.786C168.123 99.2127 168.123 97.6317 168.123 96.0506C168.123 94.4696 168.123 92.8885 168.107 91.3154C168.107 90.718 168.022 90.0993 167.939 89.4941C167.92 89.359 167.902 89.2242 167.885 89.0908C167.694 87.8197 166.995 86.8663 165.978 86.1035C165.787 85.9764 165.596 85.8493 165.438 85.6586C169.156 85.9129 172.874 86.1035 176.688 85.6268C176.402 85.8492 176.179 86.008 175.957 86.1668C174.527 87.152 173.827 88.5506 173.859 90.2985C173.873 91.4154 173.869 92.5323 173.865 93.6491C173.86 95.1382 173.855 96.6273 173.891 98.1163C173.923 99.8324 174.781 101.358 176.306 101.898C176.561 101.993 176.847 102.057 177.133 102.121C175.353 102.565 174.495 103.837 174.113 105.521C173.955 106.188 173.891 106.888 173.891 107.555C173.87 110.882 173.877 114.21 173.884 117.528V117.532V117.539V117.546V117.553C173.887 119.202 173.891 120.848 173.891 122.492V122.936C173.888 122.94 173.884 122.943 173.881 122.946C173.879 122.947 173.878 122.948 173.876 122.949C173.869 122.955 173.862 122.959 173.856 122.962C173.84 122.973 173.827 122.98 173.827 123L173.826 122.998C166.009 114.355 158.191 105.711 150.374 97.0358V98.7201C150.382 100.137 150.392 101.556 150.402 102.976C150.431 107.257 150.461 111.546 150.438 115.818C150.438 117.375 151.073 118.551 152.154 119.568C152.46 119.855 152.789 120.107 153.127 120.366C153.351 120.538 153.578 120.713 153.806 120.903C149.675 120.521 145.575 120.489 141.444 120.839L141.73 120.648C142.842 119.886 143.891 119.059 144.336 117.693C144.59 116.898 144.749 116.04 144.749 115.214C144.812 112.386 144.812 109.525 144.749 106.697C144.717 105.203 144.272 103.805 143.033 102.851C141.825 101.93 141.221 101.93 140.014 102.851C139.092 103.551 138.679 104.599 138.52 105.712C138.012 109.875 136.295 113.466 133.34 116.453C130.512 119.314 127.048 120.966 123.043 121.443C119.007 121.919 115.194 121.284 111.666 119.186C107.503 116.739 104.929 113.085 103.689 108.476C103.53 107.878 103.433 107.255 103.336 106.631L103.336 106.63C103.278 106.259 103.22 105.888 103.149 105.521C102.895 103.964 101.973 102.661 100.575 102.248C100.321 102.184 100.035 102.184 99.7804 102.248C98.2868 102.693 97.5241 103.805 97.1427 105.235C96.9838 105.807 96.9202 106.379 96.9202 106.983C96.8991 108.845 96.9061 110.707 96.9132 112.578C96.9167 113.518 96.9202 114.459 96.9202 115.405C96.9202 117.756 97.9372 119.536 100.003 120.712C100.027 120.663 100.071 120.689 100.119 120.719C100.133 120.727 100.147 120.736 100.162 120.744Z" fill="black"/>
</svg>
