<svg width="200" height="200" viewBox="0 0 200 200" fill="none" xmlns="http://www.w3.org/2000/svg">
<path fill-rule="evenodd" clip-rule="evenodd" d="M100.447 44.9788C130.577 44.9788 155 69.576 155 99.9167C155 130.259 130.577 154.855 100.447 154.855C70.3182 154.855 45.8948 130.259 45.8948 99.9167C45.8948 69.576 70.3182 44.9788 100.447 44.9788ZM100.427 70.1998C96.6849 70.219 92.9478 70.9712 89.4227 72.4446C85.899 73.9194 82.5886 76.1155 79.7011 79.0234C76.8122 81.9327 74.6315 85.2664 73.1684 88.8151C71.704 92.3637 70.9584 96.1286 70.938 99.8975C70.9184 103.666 71.6266 107.441 73.0697 111.009L88.301 104.49C87.6182 102.899 87.2847 101.253 87.2847 99.6194C87.2847 97.9875 87.6182 96.3703 88.2717 94.8391C88.9252 93.3079 89.8975 91.864 91.1739 90.5786C92.4516 89.2919 93.8854 88.3127 95.4059 87.6546C96.9263 86.9964 98.5321 86.6606 100.153 86.6606C101.773 86.6606 103.41 86.9964 104.989 87.6841C106.567 88.3718 108.09 89.4114 109.485 90.815C110.88 92.22 111.911 93.7539 112.594 95.3442C113.277 96.9345 113.61 98.5812 113.61 100.213C113.61 101.846 113.277 103.464 112.623 104.995C111.97 106.525 110.997 107.97 109.721 109.255C108.443 110.542 107.009 111.521 105.489 112.179C103.97 112.836 102.363 113.173 100.742 113.173C99.1217 113.173 97.4852 112.836 95.906 112.15L89.4334 127.487C92.9771 128.942 96.7249 129.654 100.467 129.634C104.21 129.615 107.947 128.863 111.471 127.389C114.996 125.914 118.306 123.718 121.194 120.81C124.083 117.901 126.263 114.567 127.726 111.019C129.191 107.47 129.936 103.705 129.957 99.9364C129.976 96.1675 129.27 92.3932 127.825 88.8245C126.381 85.2557 124.2 81.8924 121.272 78.9442C118.346 75.9959 115.005 73.7999 111.461 72.3466C107.918 70.8919 104.171 70.1801 100.427 70.1998Z" fill="black"/>
</svg>
