<svg width="200" height="200" viewBox="0 0 200 200" fill="none" xmlns="http://www.w3.org/2000/svg">
<path fill-rule="evenodd" clip-rule="evenodd" d="M38.3703 82C48.5161 82 56.7405 90.283 56.7405 100.5C56.7405 110.717 48.5161 119 38.3703 119C28.2244 119 20 110.717 20 100.5C20 90.283 28.2244 82 38.3703 82ZM38.3635 90.493C37.1033 90.4995 35.8448 90.7528 34.6578 91.249C33.4712 91.7456 32.3564 92.4851 31.3841 93.4643C30.4112 94.444 29.6769 95.5666 29.1842 96.7616C28.6911 97.9566 28.44 99.2244 28.4331 100.494C28.4265 101.763 28.665 103.034 29.151 104.235L34.28 102.04C34.0501 101.504 33.9378 100.95 33.9378 100.4C33.9378 99.8504 34.0501 99.3058 34.2702 98.7902C34.4902 98.2745 34.8176 97.7883 35.2475 97.3555C35.6777 96.9222 36.1605 96.5924 36.6725 96.3708C37.1846 96.1492 37.7253 96.0361 38.271 96.0361C38.8167 96.0361 39.3678 96.1492 39.8995 96.3808C40.4309 96.6123 40.9438 96.9624 41.4135 97.4351C41.8833 97.9082 42.2305 98.4247 42.4605 98.9602C42.6904 99.4958 42.8027 100.05 42.8027 100.6C42.8027 101.15 42.6904 101.694 42.4703 102.21C42.2503 102.725 41.9229 103.212 41.493 103.645C41.0628 104.078 40.58 104.408 40.068 104.629C39.5564 104.851 39.0152 104.964 38.4695 104.964C37.9238 104.964 37.3727 104.851 36.841 104.619L34.6613 109.784C35.8547 110.274 37.1167 110.514 38.377 110.507C39.6372 110.501 40.8957 110.247 42.0823 109.751C43.2693 109.255 44.3841 108.515 45.3564 107.536C46.3293 106.556 47.0636 105.434 47.5563 104.239C48.0494 103.044 48.3005 101.776 48.3074 100.507C48.314 99.2375 48.0759 97.9665 47.5895 96.7648C47.1031 95.563 46.3688 94.4304 45.3829 93.4376C44.3976 92.4448 43.2725 91.7053 42.0792 91.2159C40.8858 90.7261 39.6242 90.4864 38.3635 90.493Z" fill="black"/>
<path fill-rule="evenodd" clip-rule="evenodd" d="M100.477 98.5127V109.238H95.2736V99.2811C95.2736 97.1151 93.9208 96.1019 92.2559 96.1019C90.348 96.1019 89.0293 97.22 89.0293 99.7004V109.238H83.8262V87.1346L89.0293 84.7831V93.4121C89.9662 92.1194 91.7007 91.2813 93.9904 91.2813C97.4936 91.2813 100.477 93.7965 100.477 98.5127Z" fill="black"/>
<path fill-rule="evenodd" clip-rule="evenodd" d="M142.521 100.504C142.521 98.0238 140.787 96.382 138.532 96.382C136.277 96.382 134.542 98.0238 134.542 100.504C134.542 102.985 136.277 104.627 138.532 104.627C140.787 104.627 142.521 102.985 142.521 100.504ZM129.339 100.504C129.339 95.2987 133.433 91.2814 138.532 91.2814C143.631 91.2814 147.725 95.2987 147.725 100.504C147.725 105.709 143.631 109.727 138.532 109.727C133.433 109.727 129.339 105.709 129.339 100.504Z" fill="black"/>
<path fill-rule="evenodd" clip-rule="evenodd" d="M161.081 91.8051V97.3598C158.93 97.0102 155.877 97.8836 155.877 101.342V109.238H150.674V91.7703H155.877V94.8794C156.571 92.5387 158.896 91.8051 161.081 91.8051Z" fill="black"/>
<path fill-rule="evenodd" clip-rule="evenodd" d="M103.669 109.264H108.872V91.7962H103.669V109.264ZM103.148 87.1149C103.148 85.4029 104.57 83.9705 106.27 83.9705C107.97 83.9705 109.392 85.4029 109.392 87.1149C109.392 88.8264 107.97 90.2588 106.27 90.2588C104.57 90.2588 103.148 88.8264 103.148 87.1149Z" fill="black"/>
<path fill-rule="evenodd" clip-rule="evenodd" d="M180.333 91.7706L177.367 100.242C177.367 100.242 174.353 109.236 174.328 109.304C173.367 111.953 172.132 113.46 170.551 114.644C168.949 115.843 166.991 116.335 164.603 116.229C164.574 116.227 161.977 116.245 161.948 116.243V112.494C161.948 112.494 165.668 112.476 165.731 112.476C166.594 112.476 168.851 111.968 168.851 109.304L165.399 100.102L161.948 91.7706H164.81H167.671L169.597 97.1155L171.522 102.461L173.153 97.1155L174.783 91.7706H177.558H180.333Z" fill="black"/>
<path fill-rule="evenodd" clip-rule="evenodd" d="M120.572 104.627C118.311 104.627 116.479 102.781 116.479 100.504C116.479 97.8085 118.425 96.382 120.572 96.382C122.042 96.382 123.327 97.1649 124.049 98.3368L128.471 95.7533C126.98 93.063 123.997 91.2814 120.632 91.2814C115.359 91.2814 111.439 95.2987 111.439 100.504C111.439 105.709 115.359 109.727 120.632 109.727C124.031 109.727 126.98 107.945 128.471 105.22L124.106 102.703C123.397 103.928 122.082 104.627 120.572 104.627Z" fill="black"/>
<path fill-rule="evenodd" clip-rule="evenodd" d="M73.8449 104.627C71.584 104.627 69.7516 102.781 69.7516 100.504C69.7516 97.8085 71.6981 96.382 73.8449 96.382C75.3149 96.382 76.6003 97.1649 77.3221 98.3368L81.7442 95.7533C80.2527 93.063 77.2695 91.2814 73.9047 91.2814C68.6319 91.2814 64.7119 95.2987 64.7119 100.504C64.7119 105.709 68.6319 109.727 73.9047 109.727C77.3041 109.727 80.2527 107.945 81.7442 105.22L77.3791 102.703C76.6695 103.928 75.3545 104.627 73.8449 104.627Z" fill="black"/>
</svg>
