<svg width="200" height="200" viewBox="0 0 200 200" fill="none" xmlns="http://www.w3.org/2000/svg">
<path d="M139.812 118.765C141.288 118.765 142.331 119.285 143.219 120.185L141.851 122.125C141.251 121.535 140.663 121.197 139.824 121.197C138.613 121.197 137.678 122.378 137.678 123.882V123.91C137.678 125.513 138.625 126.652 139.956 126.652C140.532 126.652 140.964 126.511 141.3 126.244V125.049H139.656V123.053H143.506V127.468C142.618 128.339 141.395 129 139.86 129C137.246 129 135.303 126.891 135.303 123.91V123.882C135.303 121.014 137.222 118.765 139.812 118.765ZM63.0059 121.352H60.4873V128.803H58.1602V121.352H55.6533V118.962H63.0059V121.352ZM71.835 118.962C73.1184 118.962 74.0065 119.355 74.5703 120.016C75.062 120.592 75.3135 121.338 75.3135 122.308V122.336C75.3134 123.854 74.6294 124.853 73.5859 125.373L75.5898 128.803H72.915L71.2236 125.822H70.1924V128.803H67.8652V118.962H71.835ZM88.8916 128.803H86.3965L85.7969 127.032H82.5469L81.9473 128.803H79.5127L83.0742 118.892H85.3174L88.8916 128.803ZM95.9307 128.803H93.6045V118.962H95.9307V128.803ZM106.931 124.163V118.962H109.233V128.803H107.207L103.608 123.404V128.803H101.306V118.962H103.477L106.931 124.163ZM116.948 128.803H114.621V118.962H116.948V128.803ZM127.948 124.163V118.962H130.251V128.803H128.225L124.626 123.404V128.803H122.323V118.962H124.494L127.948 124.163ZM83.2305 124.909H85.1133L84.1777 122.125L83.2305 124.909ZM70.1924 123.686H71.7393C72.5189 123.686 72.9863 123.236 72.9863 122.519V122.49C72.9863 121.703 72.4949 121.31 71.7275 121.31H70.1924V123.686ZM143.963 87.8496H169.168V92.6807H143.962V94.8662H169.168V97.6797L143.96 97.5244V100.461C143.96 108.102 138.696 113.647 131.442 113.647H93.4111V103.096H76.6729V113.636H56.1426V97.6758L30.918 97.5215V94.8662H56.1426V92.6807H30.918V87.8496H56.1426V71H143.968L143.963 87.8496ZM59.8164 109.989H72.998V99.416H77.0234V99.4209H97.085V109.972H131.441C136.646 109.972 140.283 106.064 140.283 100.461L140.273 95.4414L140.271 95.375C140.115 91.9888 138.682 89.2943 136.408 87.7422H140.291V74.6758H59.8164V109.989ZM81.2031 84.7139H69.9697V89.3838H79.4814L98.3574 77.7031H107.272L107.261 89.3838H110.355V77.7021H137.265V84.7139H117.618V89.3047H131.441C135.147 89.3061 137.087 92.0347 137.246 95.5146V95.5137L137.256 100.467C137.256 104.038 135.247 106.943 131.441 106.943H110.419V99.4219H130.127V96.3955H107.337V106.945H100.113V96.3955H79.9023V96.3887H69.9688V106.961H62.8457V77.7021H92.71L81.2031 84.7139ZM91.2754 89.3838H100.037L100.113 83.6309L91.2754 89.3838Z" fill="black"/>
</svg>
