<svg width="200" height="200" viewBox="0 0 200 200" fill="none" xmlns="http://www.w3.org/2000/svg">
<path d="M100.472 95.4677H85.5586L100.6 85.6196L100.472 95.4677ZM163.802 105.962C163.528 100.007 160.228 95.3369 153.923 95.3322H130.395V87.4743H163.83V75.4735H118.033V95.4685L112.766 95.4677L112.786 75.4735H97.6129L65.484 95.4677H49.2956V87.4743H68.4137L87.9978 75.4735H37.1698V122.926H49.2956V107.458H66.2015V107.468H100.6V125.526H112.895V107.468H151.681V112.652H118.14V125.526H153.923C160.399 125.526 163.817 120.552 163.817 114.44L163.802 105.962ZM175.238 64H25.762V134.399H60.7043V118.941L89.192 118.943V137H153.922C166.265 137 175.224 127.508 175.224 114.431L175.238 64ZM168.984 70.29V92.6574H162.375C166.244 95.3158 168.684 99.9287 168.95 105.723L168.956 105.838L168.971 114.431C168.971 124.02 162.782 130.71 153.922 130.71H95.4456V112.652H61.3016V112.642H54.4499V128.11H32.0155V70.29H168.984Z" fill="black"/>
</svg>
