<svg width="200" height="200" viewBox="0 0 200 200" fill="none" xmlns="http://www.w3.org/2000/svg">
<path fill-rule="evenodd" clip-rule="evenodd" d="M67.8657 89.204C69.5737 89.8324 70.97 91.1009 71.7591 92.7409L86.3286 123.024C80.8659 131.917 78.1345 138.692 78.1345 143.347C78.1345 146.672 82.0083 149.087 86.04 151.493L86.5904 151.821C86.7519 151.917 86.9133 152.014 87.0745 152.11L47.298 152.11C43.4295 152.11 40.2935 148.974 40.2935 145.106C40.2935 144.281 40.4393 143.462 40.7243 142.687L58.8733 93.3591C60.2091 89.7285 64.2351 87.8682 67.8657 89.204ZM121.634 48.326C123.584 49.034 125.12 50.5697 125.828 52.5194L158.577 142.715C159.898 146.352 158.02 150.37 154.384 151.69C153.618 151.968 152.809 152.11 151.993 152.11L111.552 152.11C103.547 147.204 94.7895 145.204 91.6578 143.347C87.9684 141.16 84.6059 132.706 87.1324 122.823L112.66 52.5194C113.98 48.8832 117.998 47.0057 121.634 48.326Z" fill="black"/>
<path fill-rule="evenodd" clip-rule="evenodd" d="M65.2872 47C73.0274 47 79.302 53.2746 79.302 61.0148C79.302 68.7549 73.0274 75.0295 65.2872 75.0295C57.5471 75.0295 51.2725 68.7549 51.2725 61.0148C51.2725 53.2746 57.5471 47 65.2872 47ZM66.6887 51.5552C60.6903 51.5552 55.8277 56.4179 55.8277 62.4162C55.8277 62.9965 56.2981 63.4669 56.8784 63.4669C57.4586 63.4669 57.9291 62.9965 57.9291 62.4162C57.9291 57.5784 61.8509 53.6566 66.6887 53.6566C67.269 53.6566 67.7394 53.1862 67.7394 52.6059C67.7394 52.0256 67.269 51.5552 66.6887 51.5552Z" fill="black"/>
</svg>
