<svg width="200" height="200" viewBox="0 0 200 200" fill="none" xmlns="http://www.w3.org/2000/svg">
<g clip-path="url(#clip0_123_502)">
<path d="M121.165 120.543C119.543 121.051 117.582 122.84 116.855 124.532C116.032 126.418 116.032 129.634 116.855 131.52C118.381 135.026 122.545 136.694 126.855 135.485C128.768 134.929 130.56 133.382 131.359 131.52C132.182 129.634 132.182 126.418 131.359 124.532C130.608 122.816 128.792 121.147 127.025 120.591C125.427 120.059 122.763 120.059 121.165 120.543ZM125.184 121.293C126.298 122.09 126.661 123.735 126.661 128.159C126.661 131.883 126.613 132.318 126.08 133.406C124.942 135.679 122.957 135.558 122.037 133.164C121.359 131.423 121.359 124.653 122.037 122.888C122.739 121.051 123.95 120.446 125.184 121.293ZM136.861 120.928C136.051 121.321 134.709 121.787 133.874 121.984C133.039 122.156 132.356 122.401 132.356 122.524C132.356 122.647 132.659 123.015 133.064 123.358L133.798 123.972V129.176V134.379L132.887 135.115L131.976 135.876H136.405C140.531 135.876 141.746 135.655 140.303 135.214C139.265 134.895 138.987 133.643 138.987 129.028C138.987 125.813 139.088 124.586 139.366 124.046C140.227 122.45 142.454 121.861 143.568 122.941C144.15 123.481 144.175 123.727 144.251 128.807L144.327 134.109L143.365 134.993L142.404 135.852H146.807C149.237 135.852 151.211 135.778 151.211 135.655C151.211 135.533 150.908 135.312 150.553 135.14C149.566 134.698 149.364 133.422 149.364 128.046C149.338 122.892 149.237 122.377 147.972 121.272C147.061 120.462 145.491 120.069 143.897 120.217C142.252 120.388 141.037 120.928 139.847 122.033L138.987 122.818V121.493C138.987 119.922 138.936 119.922 136.861 120.928ZM123.269 146.546C124.731 144.953 127.376 144.195 129.395 144.802C130.556 145.156 131.855 146.47 132.064 147.532C132.133 147.861 132.203 152.185 132.249 157.141C132.296 165.081 132.366 166.269 132.737 167.002C133.201 167.938 133.595 168.166 134.732 168.166C136.334 168.166 136.96 166.952 136.496 164.777C136.334 164.069 136.403 163.816 136.914 163.26C138.236 161.819 140.719 162.754 140.719 164.727C140.719 167.281 138.144 169 134.361 169C131.925 169 130.672 168.595 129.511 167.483C127.887 165.865 127.748 165.131 127.585 156.028C127.456 148.739 127.427 148.053 126.994 147.525L126.951 147.475C126.931 147.452 126.91 147.429 126.889 147.406C125.891 146.319 124.128 146.799 123.153 148.443C122.77 149.056 122.693 149.717 122.689 153.293L122.689 153.796C122.695 158.461 122.933 159.724 123.896 160.049C125.218 160.529 124.105 160.732 120.322 160.732L116.238 160.706L117.097 159.948L117.932 159.189V148.468L117.259 147.836C116.888 147.507 116.609 147.128 116.609 147.001C116.609 146.875 117.236 146.622 118.002 146.42C118.767 146.243 119.997 145.762 120.74 145.358C122.643 144.321 122.689 144.321 122.689 145.864V147.178L123.269 146.546ZM140.441 144.999C142.201 144.369 145.36 144.49 146.807 145.241C147.989 145.847 148.977 146.865 149.58 148.053C150.111 149.071 150.424 151.397 150.038 151.421C149.609 151.421 147.263 151.623 144.99 151.838L144.687 151.867C142.474 152.079 140.415 152.295 140.369 152.342C140.127 152.585 140.923 154.887 141.55 155.687C142.466 156.899 143.672 157.359 145.674 157.214C147.651 157.068 148.664 156.584 150.135 155.057C151.389 153.748 151.533 153.942 150.641 155.687C149.894 157.189 148.061 158.91 146.518 159.613C143.672 160.849 140.031 160.34 137.861 158.377C136.149 156.85 135.473 155.202 135.473 152.56C135.497 148.634 137.089 146.186 140.441 144.999ZM144.613 145.896C143.552 144.757 141.695 145.459 140.947 147.301C140.537 148.271 140.055 150.864 140.224 151.155C140.296 151.252 141.454 151.179 142.804 150.985C144.179 150.815 145.384 150.67 145.481 150.646C145.746 150.646 145.722 148.368 145.432 147.35C145.288 146.889 144.926 146.235 144.613 145.896ZM37.6824 87.3609C42.0375 86.3601 47.1822 87.9804 48.3069 90.6731C49.5034 93.5325 47.4215 97.1545 44.4065 97.4643C43.6647 97.5119 42.8032 97.4404 42.3725 97.2498C41.3675 96.8447 40.3625 95.6295 40.3625 94.8431C40.3625 93.1513 42.0853 91.8407 42.8271 92.9606C43.3297 93.747 44.5022 93.6993 45.0286 92.8892C45.6508 91.936 45.3876 90.1727 44.5022 89.2434C42.6118 87.2656 38.6635 87.5754 36.6534 89.8391C34.787 91.9598 33.9734 94.581 33.9734 98.3936C33.9734 105.232 37.4431 109.998 42.4921 110.093C43.3297 110.093 44.1672 110.022 44.3347 109.927C44.55 109.808 44.6458 108.545 44.6458 105.733L44.6457 105.574C44.6411 101.168 44.436 100.578 42.8989 99.9186C42.3964 99.728 41.7743 99.4659 41.4871 99.3467C41.0419 99.162 43.2143 99.0346 46.1423 99.031L46.3987 99.031C47.0444 99.0318 47.7232 99.0386 48.4161 99.052L48.694 99.0577L48.8334 99.0608L51.5373 99.1323L50.7477 99.585C49.6241 100.191 49.4164 101.116 49.4079 106.243L49.4077 106.591C49.4077 109.164 49.3598 111.285 49.288 111.285C49.2402 111.285 48.7616 110.999 48.2591 110.642C47.1105 109.879 46.919 109.879 44.6218 110.665C41.9178 111.595 39.6924 111.714 37.1081 111.047C31.7001 109.688 28.8047 105.59 28.8047 99.2514C28.8047 93.0798 32.1308 88.6238 37.6824 87.3609ZM58.023 87.0639C58.197 87.0883 58.3461 91.1559 58.4206 98.3411C58.5449 110.105 58.5946 110.495 59.7128 110.836C61.1292 111.275 59.9116 111.469 55.886 111.469H51.5373L53.3265 110.008V90.7174L52.581 90.0842C51.7113 89.3535 51.8355 89.183 53.575 88.7689C54.2708 88.5984 55.5132 88.1113 56.3084 87.7215C57.1036 87.3318 57.8739 87.0396 58.023 87.0639ZM97.0982 90.5737C100.278 90.6936 101.956 91.2927 104.761 93.3537C108.587 96.1337 109.432 96.7357 110.181 96.8531L110.237 96.861C110.321 96.8716 110.405 96.8766 110.492 96.8784L110.551 96.8791L110.611 96.8791C110.662 96.8788 110.715 96.8778 110.77 96.8766C111.346 96.8766 112.097 96.6849 112.473 96.4453C113.399 95.8461 113.675 95.942 113.675 96.8287C113.675 97.5716 113.7 97.5956 114.125 97.2122C116.129 95.4866 120.135 95.7023 122.539 97.6675C124.642 99.393 125.569 103.491 124.592 106.702C123.991 108.716 121.988 110.681 119.985 111.232C117.982 111.807 115.928 111.735 114.1 111.016C113.777 110.879 113.673 110.939 113.667 112.236L113.667 112.394C113.668 112.887 113.681 113.539 113.7 114.395L113.8 117.966L114.651 118.709C115.127 119.093 115.503 119.5 115.503 119.572C115.503 119.812 105.352 121.569 101.58 117.774C99.7272 116.275 99.6774 115.546 99.5021 106.918C99.3474 100.403 99.3292 99.4516 98.931 98.9556L98.9059 98.9254C98.9016 98.9205 98.8973 98.9156 98.8929 98.9107L98.8636 98.8789C98.8487 98.8632 98.8332 98.8478 98.8173 98.8323L98.7848 98.8013L98.7509 98.7699C98.0247 98.0749 96.5724 98.0989 95.4957 98.8178L94.7445 99.3451L94.7445 104.429C94.7463 109.444 94.833 109.853 96.0215 110.801L96.6976 111.376H87.7583L88.4594 110.801C89.6226 109.853 89.734 109.421 89.7364 104.829L89.7364 104.494C89.7342 100.989 89.6604 100.085 89.3196 99.388L89.2858 99.3211C88.5346 97.9071 86.5564 97.8352 85.3294 99.2013C84.8126 99.7859 84.7586 100.012 84.7539 103.601L84.7536 103.891L84.7536 103.966L84.7535 104.354C84.7535 109.219 84.9789 110.441 86.0306 110.753C87.4829 111.184 86.2559 111.376 82.1744 111.376H77.7673L78.6938 110.633L79.6203 109.914V99.7764L78.8941 99.1773C78.4935 98.8418 78.168 98.4823 78.168 98.3625C78.168 98.2666 78.8441 98.027 79.6704 97.8353C80.5217 97.6435 81.924 97.1642 82.8004 96.7808C83.7018 96.3734 84.5031 96.0378 84.5782 96.0378C84.6784 96.0378 84.7535 96.4932 84.7535 97.0444V98.027L85.8553 97.332C86.4813 96.9246 87.3827 96.4932 87.8585 96.3254C89.9618 95.6544 92.7413 96.2535 93.8681 97.6435C94.3188 98.1947 94.444 98.2427 94.7194 97.9311C94.8947 97.7394 95.7711 97.2122 96.6475 96.8047C99.5522 95.4147 102.707 95.9899 104.034 98.1708C104.235 98.5302 104.36 101.526 104.46 107.613C104.581 115.191 104.656 116.569 105.003 117.279L105.025 117.322L105.036 117.343C105.562 118.23 105.962 118.445 107.239 118.445C107.865 118.445 108.216 118.278 108.416 117.918C108.552 117.659 108.627 115.783 108.632 112.124L108.632 111.459C108.631 110.549 108.626 109.539 108.617 108.428L108.542 99.4409L107.79 98.0749C106.113 95.0553 102.857 92.9223 99.8527 92.8984C98.4504 92.8984 98.0748 93.0182 96.4222 93.9529C95.3955 94.552 94.2687 95.0313 93.9182 95.0313C92.9416 95.0313 92.1403 94.3603 91.965 93.4256C91.7397 92.2753 92.1904 91.5563 93.4925 90.9811C94.419 90.5737 95.0199 90.5018 97.0982 90.5737ZM172.195 92.9503C172.195 93.5069 172.004 94.1142 171.717 94.4431C171.286 94.9492 171.07 94.9745 169.706 94.8227C168.317 94.6709 168.101 94.7215 167.455 95.3034L166.761 95.936L167.79 96.6445C170.95 98.8458 171.19 104.412 168.269 107.069C166.354 108.79 162.691 109.498 160.034 108.663C157.999 108.031 157.663 108.031 157.568 108.714C157.448 109.625 158.358 109.853 161.877 109.853C165.181 109.853 167.623 110.283 168.676 111.017C170.783 112.459 170.903 115.925 168.915 117.874C167.096 119.695 164.103 120.353 158.549 120.151C153.043 119.923 149.332 118.81 148.111 116.963C147.704 116.355 147.585 115.014 147.872 114.255C148.231 113.243 150.625 112.687 151.75 113.319C151.858 113.38 151.944 113.429 152.014 113.47L152.095 113.518C152.216 113.593 152.273 113.638 152.319 113.692L152.337 113.713C152.472 113.885 152.573 114.176 154.191 115.653C156.759 117.997 158.621 119.974 163.194 119.164C166.09 118.658 168.149 116.988 167.431 115.774C167.072 115.166 166.21 114.989 161.925 114.66C157.783 114.331 156.778 114.078 155.676 113.041C154.575 112.003 154.934 109.22 155.892 108.284C156.53 107.66 156.873 107.339 156.921 107.322L156.107 106.184C154.815 104.412 154.455 102.414 155.03 100.162C155.916 96.6698 159.148 94.7468 163.553 95.0757L165.707 95.2275L166.019 94.0636C166.354 92.6972 167.383 91.3309 168.437 90.8248C170.16 89.9898 172.195 91.1538 172.195 92.9503ZM138.471 87.8447C140.696 88.9651 141.228 90.3777 141.252 95.1757V98.1714L142.365 97.319C145.268 95.1026 149.453 95.5897 150.686 98.2932C150.696 98.3169 150.706 98.3405 150.716 98.3642L150.745 98.4354C151.081 99.2917 151.146 100.261 151.146 104.552L151.17 109.765L152.065 110.617L152.96 111.469L148.497 111.469C146.316 111.466 144.566 111.418 144.566 111.348C144.566 111.275 144.929 110.885 145.389 110.471L146.211 109.74L146.211 104.746C146.207 99.5872 146.005 98.6299 144.857 98.2445C143.889 97.9035 142.679 98.3175 141.905 99.2187C141.861 99.2728 141.82 99.3234 141.782 99.372L141.745 99.42C141.733 99.4359 141.721 99.4516 141.709 99.4672L141.675 99.5138C141.291 100.056 141.256 100.573 141.253 103.813L141.252 104.097L141.252 104.17L141.252 109.74L142.026 110.495C142.438 110.909 142.776 111.323 142.776 111.372C142.776 111.441 141.14 111.467 139.086 111.469H138.339C136.285 111.467 134.649 111.441 134.649 111.372C134.649 111.323 134.987 110.909 135.423 110.495L136.197 109.691L136.124 104.552L136.052 99.4135L135.302 98.829L134.576 98.2445L136.003 97.5625C138.398 96.4178 139.632 93.8813 139.632 92.7518C139.632 91.6224 139.845 89.869 137.842 88.5997C135.838 87.3304 129.98 89.306 131.456 91.0596C132.157 91.8877 132.351 93.4221 131.843 94.372C130.972 96.0038 127.997 95.9794 127.126 94.2989C125.699 91.5224 128.263 88.3075 132.713 87.3089C134.721 86.8461 136.947 87.041 138.471 87.8447ZM131.639 95.7793C131.74 95.7548 131.865 98.8487 131.916 102.655C131.991 109.898 132.092 110.512 133.247 110.856C133.499 110.929 133.725 111.101 133.725 111.248C133.725 111.369 131.932 111.466 129.489 111.469L124.981 111.469L125.911 110.61L126.866 109.751L126.866 105.071C126.863 102.647 126.788 100.514 126.69 100.273C126.589 100.052 126.187 99.6835 125.76 99.4871C125.358 99.2661 125.006 98.996 125.006 98.8732C125.006 98.7504 125.861 98.3576 126.916 97.9893C127.971 97.5964 129.428 96.958 130.157 96.5406C130.886 96.1232 131.539 95.7793 131.639 95.7793ZM115.352 97.5237C115.027 97.6435 114.526 98.0749 114.226 98.4344C114.213 98.4502 114.2 98.4658 114.188 98.4812L114.152 98.5272L114.133 98.5524L114.097 98.6027C113.717 99.1394 113.678 99.7223 113.675 103.207V104.453C113.678 107.839 113.715 108.499 114.072 109.111L114.104 109.165C114.148 109.237 114.197 109.309 114.251 109.387C114.576 109.842 115.177 110.321 115.578 110.441C116.604 110.777 118.132 110.01 118.733 108.859C120.26 105.864 119.86 99.2732 118.057 97.8592C117.531 97.4278 116.029 97.2361 115.352 97.5237ZM162.499 95.7589C161.757 95.7589 160.608 97.1505 160.273 98.441C159.818 100.238 159.866 104.159 160.369 105.779C161.326 108.815 163.409 109.018 164.63 106.184C165.061 105.172 165.157 104.412 165.181 102.135C165.181 98.9977 164.726 97.2012 163.625 96.3156C163.266 96.0119 162.763 95.7589 162.499 95.7589ZM66.667 96.0344C63.2062 96.9037 61.4989 99.8741 63.5523 101.54C64.1983 102.048 65.8364 101.927 66.4593 101.323C66.9438 100.84 66.99 100.647 66.8285 99.1979C66.6901 97.7007 66.7131 97.6041 67.3361 97.0728C68.8819 95.817 70.6122 96.9279 70.6122 99.2221C70.6122 101.106 69.6894 101.975 66.9669 102.627C63.6446 103.4 62.0065 105.09 62.0296 107.602C62.0527 109.292 62.5602 110.113 64.0599 110.91C65.6057 111.731 66.8746 111.659 69.0434 110.621C70.7276 109.8 70.866 109.775 71.0737 110.21C71.3736 110.814 72.5733 111.248 73.8654 111.224C75.1804 111.224 76.8877 110.307 77.4645 109.268C77.9721 108.351 77.8106 107.723 77.2107 108.326C77.0031 108.544 76.6109 108.689 76.334 108.64C75.4111 108.52 75.2035 107.578 75.2035 103.279C75.2035 98.7874 74.9728 97.9663 73.427 96.8554C72.0427 95.8653 68.928 95.4789 66.667 96.0344ZM70.6122 105.525C70.6122 109.051 70.52 109.196 68.8127 109.196C67.6591 109.196 66.9669 108.278 66.9669 106.733C66.9669 105.139 67.5899 103.931 68.8819 103.086C70.5892 101.951 70.6122 101.951 70.6122 105.525ZM74.6502 135.876C79.4745 135.876 80.8186 136.046 79.3785 136.506C78.4904 136.796 78.5144 137.765 79.3785 140.283C79.871 141.66 80.6652 143.797 81.4891 145.977L81.6266 146.34L81.7644 146.704C83.1428 150.338 84.5196 153.872 84.6348 153.988C84.7308 154.085 85.5708 151.833 86.5069 149L88.211 143.818L87.1789 141.034C86.1708 138.273 84.9708 136.385 84.2747 136.385C84.0827 136.385 83.9147 136.264 83.9147 136.118C83.9147 135.973 85.5468 135.876 88.331 135.876C90.7551 135.876 92.7472 135.949 92.7472 136.022C92.7472 136.118 92.4832 136.385 92.1952 136.627C91.8351 136.893 91.6671 137.329 91.6671 137.813C91.6911 138.443 94.0193 144.98 96.8514 152.269L97.7155 154.545L100.14 147.063C101.58 142.608 102.564 139.169 102.564 138.54C102.564 137.353 101.988 136.385 101.316 136.385C101.052 136.385 100.764 136.264 100.668 136.118C100.572 135.973 101.772 135.876 104.076 135.876C107.46 135.876 108.396 136.118 106.596 136.506C105.588 136.724 104.412 137.741 103.836 138.903C103.611 139.379 102.08 143.808 100.368 148.985L100.252 149.335C100.175 149.569 100.097 149.805 100.02 150.041L96.6354 160.283H94.3793L91.5951 152.801C90.0831 148.685 88.763 145.392 88.667 145.489C88.571 145.586 87.3949 148.951 86.0508 152.971L83.6027 160.283H82.5227C81.7306 160.283 81.3946 160.162 81.2746 159.847C81.1786 159.605 79.3545 154.714 77.1944 148.976C75.0583 143.237 73.0181 138.128 72.7061 137.62C71.7941 136.24 70.162 136.094 68.3859 137.281C66.9698 138.201 66.2498 141.591 67.1618 142.947C67.6899 143.697 69.1539 143.721 69.562 142.995C69.898 142.341 70.378 142.341 71.2181 143.068C71.7461 143.552 71.8901 143.891 71.8901 144.738C71.8901 148.104 66.6338 148.637 64.5697 145.489C63.9937 144.617 63.8737 144.109 63.8017 142.511C63.7297 140.864 63.8017 140.404 64.3057 139.46C65.0737 138.031 66.3938 136.942 68.0979 136.361C68.161 136.338 68.2239 136.317 68.2873 136.297L68.3829 136.268C69.4075 135.961 70.6345 135.898 74.6502 135.876ZM112.429 144.593C112.53 144.593 112.63 147.437 112.63 150.943L112.63 151.351C112.637 157.906 112.827 159.116 113.836 159.572C114.188 159.719 114.489 159.94 114.489 160.063C114.489 160.185 112.504 160.283 110.118 160.283H105.746L106.676 159.425L107.63 158.543L107.63 153.662C107.624 149.151 107.48 148.58 106.424 148.172C106.073 148.05 105.771 147.829 105.771 147.707C105.771 147.584 106.625 147.167 107.681 146.8C108.736 146.432 110.193 145.77 110.922 145.353C111.65 144.936 112.329 144.593 112.429 144.593ZM107.305 138.069C108.148 137.489 110.066 137.46 111.171 138.04C112.217 138.562 112.741 139.693 112.741 141.317C112.741 142.998 111.2 144.593 109.543 144.593C106.636 144.593 104.892 141.926 106.171 139.432C106.433 138.939 106.927 138.33 107.305 138.069ZM100.043 45.0156C101.342 45.0156 102.607 45.1584 103.824 45.429C98.6514 46.8166 94.8436 51.536 94.8436 57.1445C94.8436 63.8431 100.276 69.2734 106.976 69.2734C111.365 69.2734 115.21 66.9435 117.341 63.4533C116.768 72.5051 109.242 79.6696 100.043 79.6696C90.4709 79.6696 82.7109 71.9121 82.7109 62.3426C82.7109 52.7732 90.4709 45.0156 100.043 45.0156ZM122.589 39.6983C122.627 44.8623 124.379 47.4444 127.845 47.4444C124.341 47.4444 122.59 50.9152 122.59 57.8569C122.59 50.9152 120.838 47.4444 117.334 47.4444C120.837 47.4444 122.589 44.9188 122.59 39.8675L122.589 39.6983ZM114.277 36.1981C114.298 39.1547 115.301 40.6329 117.286 40.6329C115.308 40.6329 114.305 42.5637 114.277 46.4252L114.276 46.5638L114.276 46.4252C114.248 42.5637 113.245 40.6329 111.268 40.6329C113.295 40.6329 114.298 39.1547 114.277 36.1981ZM127.641 31C127.659 33.4638 128.495 34.6957 130.148 34.6957C128.477 34.6957 127.641 36.3516 127.641 39.6635C127.641 36.3516 126.805 34.6957 125.133 34.6957C126.823 34.6957 127.659 33.4638 127.641 31Z" fill="black"/>
</g>
<defs>
<clipPath id="clip0_123_502">
<rect width="143.391" height="138" fill="white" transform="translate(28.8047 31)"/>
</clipPath>
</defs>
</svg>
