<svg width="200" height="200" viewBox="0 0 200 200" fill="none" xmlns="http://www.w3.org/2000/svg">
<g clip-path="url(#clip0_132_1253)">
<path fill-rule="evenodd" clip-rule="evenodd" d="M88.6992 79.3916C93.373 79.5003 93.4334 72.1091 88.7716 72.0849C84.1099 71.9642 83.9649 79.4399 88.6992 79.3916Z" fill="black"/>
<path d="M64.9188 139.958C63.1073 139.958 61.344 139.548 59.6653 138.714C55.5953 136.71 53.5059 132.398 54.2426 127.471C54.9431 122.7 57.9624 118.111 62.4913 114.886C67.455 111.36 73.5661 110.49 78.9525 109.717L79.182 109.681C80.438 104.452 81.537 99.6448 82.5153 95.0072L82.6723 94.2584C83.0346 92.5314 83.421 90.7682 83.6022 89.2827C83.6022 89.1981 83.6022 89.0412 83.6022 88.8721C83.4452 87.6402 83.9645 86.3238 85.0152 85.4542C86.0297 84.5967 87.0442 84.4156 87.7205 84.4156C88.7833 84.4156 89.7736 84.8504 90.5224 85.6233C91.3799 86.517 91.863 87.8697 91.8026 89.2344C91.706 91.3962 91.235 93.4493 90.776 95.43C90.6432 95.9976 90.5224 96.541 90.4016 97.0724L90.1359 98.3043C89.4355 101.626 88.7108 105.055 87.9017 108.485C89.4838 108.256 91.404 107.966 93.3122 107.555C94.4596 107.278 95.631 106.831 96.8871 106.179C97.3822 100.937 98.4692 95.3092 100.293 88.4977C101.863 82.6524 104.17 75.1041 108.119 68.5462C111.971 62.1453 116.198 59.0415 121.029 59.0415C121.416 59.0415 121.814 59.0656 122.213 59.1019C125.655 59.4883 128.904 62.0729 130.486 65.6839C131.778 68.6308 131.947 72.1814 130.993 76.2514C128.855 85.2731 122.817 93.1232 118.457 98.244C115.365 101.867 112.116 105.104 108.771 107.857C107.901 108.57 106.609 109.621 105.136 110.671C105.715 112.724 107.237 114.645 109.109 115.635C110.293 116.263 111.863 116.577 113.771 116.577C115.208 116.577 116.851 116.396 118.626 116.034C119.882 115.78 121.005 115.418 121.959 114.971C119.52 113.232 117.829 111.203 116.911 108.896C115.74 105.949 116.09 102.519 117.841 99.9468C119.363 97.7125 121.754 96.4203 124.411 96.4203C124.846 96.4203 125.293 96.4565 125.727 96.5169C128.348 96.9154 130.534 98.2319 132.044 100.333C133.71 102.652 134.483 105.961 134.205 109.379C135.546 108.256 136.838 106.565 137.925 105.152C138.275 104.693 138.553 104.331 138.831 103.981C139.592 103.014 140.715 102.471 141.923 102.471C143.457 102.471 144.894 103.389 145.582 104.826C146.283 106.263 146.089 107.942 145.099 109.186C143.408 111.311 141.669 113.509 139.495 115.418C137.019 117.579 134.399 118.691 131.681 118.691C131.283 118.691 130.872 118.666 130.462 118.618C129.024 120.261 127.213 121.577 125.063 122.519C121.826 123.944 118.01 124.693 114.037 124.693C112.986 124.693 111.935 124.632 110.909 124.524C105.836 123.98 101.283 120.937 98.747 116.372C98.4329 115.804 98.1552 115.212 97.9136 114.621C97.2132 114.874 96.4764 115.104 95.6914 115.309C95.5224 115.369 95.4016 115.406 95.2808 115.43C92.1166 116.106 88.9403 116.517 85.8727 116.915L85.6674 116.939C83.8317 123.038 81.6336 127.688 78.7834 131.541C76.9356 134.113 71.8511 139.958 64.9188 139.958ZM76.6578 118.292C73.1675 118.872 69.6652 119.741 66.9961 121.686C64.8826 123.219 62.5397 125.949 62.2619 128.98C62.0687 131.106 63.3971 131.504 63.844 131.637C64.2546 131.758 64.6531 131.818 65.0638 131.818C68.9888 131.818 72.5516 126.444 73.554 124.79C74.7255 122.857 75.74 120.72 76.6578 118.292ZM124.097 103.606C123.94 103.86 123.771 104.331 123.831 104.923C123.988 106.468 125.51 107.942 126.742 108.908C126.754 107.338 126.5 105.985 126.005 105.043C125.582 104.21 125.027 103.799 124.097 103.606ZM120.896 67.2057C118.058 67.411 115.377 72.2539 114.496 73.8481C111.537 79.1862 109.701 85.1402 108.433 89.7295C107.479 93.1715 106.73 96.372 106.138 99.4396C108.904 96.8913 111.645 93.8961 114.314 90.4904C117.527 86.3962 121.947 80.2128 123.239 73.7153C123.614 71.8312 123.372 69.0052 122.334 67.7371C122.008 67.3385 121.681 67.1936 121.138 67.1936C121.041 67.1936 120.969 67.1936 120.896 67.2057Z" fill="black"/>
</g>
<defs>
<clipPath id="clip0_132_1253">
<rect width="91.9032" height="80.9169" fill="white" transform="translate(54.0967 59.0415)"/>
</clipPath>
</defs>
</svg>
