<svg width="200" height="200" viewBox="0 0 200 200" fill="none" xmlns="http://www.w3.org/2000/svg">
<path d="M90.1292 155.366C93.7489 155.366 98.4236 153.549 102.259 150.221C108.537 144.863 108.537 139.618 108.537 130.305V70.2441H97.4718V130.319C97.4718 137.815 97.4718 143.159 90.1292 143.697H86.2798V155.366H90.1292Z" fill="black"/>
<path d="M110 51.6683C110 54.5213 108.293 57.0932 105.675 58.1846C103.057 59.2759 100.043 58.6716 98.0402 56.6536C96.0372 54.6356 95.4391 51.6014 96.5248 48.9662C97.6105 46.3309 100.166 44.6138 103 44.6157C106.867 44.6183 110 47.7751 110 51.6683Z" fill="black"/>
</svg>
