<svg width="200" height="200" viewBox="0 0 200 200" fill="none" xmlns="http://www.w3.org/2000/svg">
<path d="M67.5882 87.0484V100.963C67.5882 107.316 70.3982 108.984 73.9431 108.984C77.9042 108.984 80.6207 106.431 80.6207 100.82V87.0484H85.4082V112.739H81.0288V109.959H80.9415C79.6543 112.185 76.6596 113.387 73.4294 113.387C70.776 113.457 68.1882 112.551 66.1508 110.838C64.0311 108.984 62.7886 106.108 62.7886 100.942V87.0422L67.5882 87.0484Z" fill="black"/>
<path d="M89.8813 112.739V87.0485H94.348V89.3604H94.4374C96.4677 86.4844 99.7344 86.3903 100.934 86.3474V91.331C99.7371 91.4068 98.567 91.7231 97.493 92.261C95.9743 93.0971 94.683 95.041 94.683 98.6939V112.753L89.8813 112.739Z" fill="black"/>
<path d="M122.065 112.739V98.7613C122.065 96.7826 122.065 90.7402 115.711 90.7402C111.707 90.7402 108.988 93.5713 108.988 98.7123V112.714H104.197V86.3453H108.663V89.7856H108.757C111.337 86.3556 115.205 86.3556 116.218 86.3556C120.179 86.3556 123.403 88.0685 125.245 90.9426C126.26 92.6167 126.814 94.6547 126.857 97.5287V112.739H122.065Z" fill="black"/>
<path d="M151.131 98.2666C150.899 94.5116 147.494 90.7545 142.887 90.7545C138.281 90.7545 134.872 94.5157 134.642 98.2666H151.131ZM134.642 102.537C135.84 107.486 139.801 108.97 143.026 108.97C146.568 108.97 149.149 107.445 150.3 105.219H155.092C152.633 111.848 146.8 113.373 142.839 113.373C135.611 113.373 129.855 107.114 129.855 99.8344C129.855 92.1363 135.743 86.3433 142.932 86.3433C150.121 86.3916 155.924 92.2715 155.926 99.5094C155.926 100.345 155.833 102.208 155.788 102.529L134.642 102.537Z" fill="black"/>
<path d="M46.2154 86.0693C40.687 86.0685 35.7025 89.4207 33.5863 94.5628C31.4701 99.7049 32.639 105.624 36.5479 109.56C40.4567 113.496 46.3357 114.674 51.4434 112.544C56.551 110.414 59.8813 105.396 59.8813 99.8303C59.8813 92.2311 53.7632 86.0705 46.2154 86.0693ZM46.2154 108.904C42.5691 108.907 39.2805 106.697 37.883 103.307C36.4856 99.916 37.2546 96.0116 39.8314 93.4143C42.4082 90.817 46.2854 90.0384 49.6548 91.4415C53.0241 92.8446 55.2222 96.1532 55.2238 99.8242C55.227 102.232 54.2795 104.543 52.5898 106.247C50.9002 107.951 48.607 108.909 46.2154 108.91V108.904Z" fill="black"/>
<path d="M175.64 87.0485L167.949 106.989L160.445 87.0485H155.284L165.462 112.23L160.735 124H165.703L180.801 87.0485H175.64Z" fill="black"/>
<path d="M21.6669 123.957C23.2343 123.957 25.2585 123.17 26.9193 121.729C29.6378 119.409 29.6378 117.138 29.6378 113.105V87.0977H24.8463V113.111C24.8463 116.357 24.8463 118.671 21.6669 118.904H20V123.957H21.6669Z" fill="black"/>
<path d="M30.2712 79.0539C30.2712 80.2893 29.532 81.403 28.3983 81.8756C27.2646 82.3481 25.9597 82.0865 25.0924 81.2126C24.225 80.3388 23.966 79.0249 24.4362 77.8838C24.9063 76.7427 26.013 75.9992 27.24 76C28.9144 76.0011 30.2712 77.3681 30.2712 79.0539Z" fill="black"/>
</svg>
