<svg width="200" height="200" viewBox="0 0 200 200" fill="none" xmlns="http://www.w3.org/2000/svg">
<path d="M163.879 91.5588C166.064 91.5588 168 92.0888 169.687 93.1477C171.372 94.2061 172.73 95.7118 173.609 97.4973C174.536 99.3352 175 101.379 175 103.629C174.998 104.228 174.948 104.826 174.85 105.417H158.326C158.329 104.434 158.721 103.491 159.416 102.795C160.114 102.097 161.061 101.704 162.049 101.703H170.883C170.584 99.7444 169.838 98.194 168.647 97.053C167.456 95.9121 165.868 95.342 163.882 95.342C161.928 95.3421 160.364 95.9214 159.19 97.0793C158.119 98.1308 157.433 99.5133 157.09 101.192C157.09 101.192 156.533 103.667 157.006 106.103C157.036 106.235 157.064 106.37 157.099 106.5C157.424 107.927 158.109 109.247 159.088 110.334C160.296 111.658 162.009 112.321 164.226 112.321C167.634 112.323 169.753 110.8 170.581 107.753H174.603C174.319 110.082 173.156 112.214 171.351 113.711C169.514 115.266 167.139 116.043 164.226 116.043C161.976 116.042 160.006 115.505 158.317 114.431C156.641 113.367 155.278 111.876 154.37 110.111C153.422 108.289 152.889 106.28 152.808 104.228V103.88C152.784 101.735 153.251 99.6117 154.173 97.6741C155.024 95.8517 156.365 94.3012 158.046 93.1965C159.717 92.1047 161.661 91.5589 163.879 91.5588ZM54.499 91.5608C56.0421 91.5249 57.5632 91.9311 58.8828 92.7317C60.2023 93.5322 61.2653 94.6934 61.9463 96.0784C61.9463 93.9244 63.7002 92.1096 65.8691 92.1096H66.0186V115.494H61.9463V111.524C61.2655 112.909 60.2025 114.07 58.8828 114.87C57.5631 115.671 56.042 116.077 54.499 116.04C52.4269 116.063 50.395 115.465 48.665 114.324C46.9321 113.187 45.5219 111.622 44.5693 109.781C43.5855 107.931 43.073 105.868 43.0791 103.774C43.0593 101.638 43.5719 99.5311 44.5693 97.6428C45.5199 95.8186 46.9438 94.2835 48.6914 93.1985C50.4317 92.1104 52.4466 91.5423 54.499 91.5608ZM111.055 106.956C111.058 108.776 111.331 110.059 111.874 110.804C112.417 111.549 113.367 111.921 114.724 111.921C115.47 111.897 116.214 111.822 116.95 111.697V115.474C115.906 115.683 114.845 115.789 113.78 115.793C111.596 115.792 109.917 115.204 108.742 114.031C107.567 112.857 106.963 110.945 106.93 108.296V87.1038C106.93 86.5623 107.037 86.0258 107.244 85.5256C107.451 85.0256 107.756 84.5713 108.139 84.1887C108.522 83.8062 108.976 83.5029 109.477 83.2961C109.977 83.0894 110.513 82.9831 111.055 82.9836V106.956ZM29.3691 111.425H40C41.0782 111.427 42.1119 111.856 42.874 112.618C43.6361 113.381 44.065 114.416 44.0654 115.494H25V87.3528C25 86.194 25.4609 85.0824 26.2803 84.2629C27.0996 83.4438 28.2106 82.9837 29.3691 82.9836V111.425ZM94 108.991L98.1025 96.3137C98.4981 95.0932 99.27 94.0292 100.308 93.2747C101.345 92.5201 102.596 92.1135 103.879 92.1135L95.6338 115.494H92.4561L86.5 98.1243L80.6406 115.494H77.4629L69.0732 92.1106C70.3714 92.1119 71.636 92.5236 72.6865 93.2864C73.737 94.0492 74.5198 95.1246 74.9229 96.3586L79.0469 108.991L84.4629 92.1106H88.5342L94 108.991ZM119.243 92.1243C120.336 92.1243 121.384 92.5586 122.157 93.3313C122.93 94.104 123.364 95.1526 123.364 96.2454V115.494H119.243V92.1243ZM140.923 91.5647C143.572 91.5647 145.616 92.5004 147.055 94.3704C148.494 96.2403 149.214 98.6649 149.215 101.644V115.494H145.095V102.636C145.095 100.584 144.639 98.888 143.729 97.5471C142.819 96.2061 141.454 95.5364 139.633 95.5374C137.614 95.5374 136.059 96.2568 134.967 97.6965C133.875 99.1365 133.328 101.065 133.328 103.481V115.494H129.206V92.1604H129.356C130.41 92.1608 131.42 92.5797 132.165 93.3245C132.91 94.0692 133.328 95.079 133.328 96.1321C133.757 95.0731 134.576 94.0469 135.785 93.054C136.994 92.061 138.707 91.5647 140.923 91.5647ZM54.5996 95.5374C52.3148 95.5374 50.5021 96.3062 49.1621 97.845C47.8221 99.384 47.1523 101.346 47.1523 103.729C47.1524 106.112 47.8138 108.098 49.1377 109.687C50.4617 111.276 52.2826 112.071 54.5996 112.074C56.9485 112.074 58.7602 111.32 60.0352 109.811C61.3091 108.305 61.9462 106.327 61.9463 103.877C61.9463 101.395 61.3092 99.384 60.0352 97.845C58.7612 96.3063 56.9493 95.5374 54.5996 95.5374ZM127.16 86.5959C127.16 86.7142 127.162 86.837 127.163 86.9583C127.182 87.4386 127.157 87.9203 127.086 88.3958C127 88.9898 126.687 89.5276 126.213 89.8958C125.659 90.2917 124.96 90.3245 124.36 90.3245H119.243V87.637C119.243 87.2165 119.278 86.8651 119.279 86.8538C119.389 86.0914 119.741 85.384 120.282 84.8362C120.824 84.2885 121.527 83.9285 122.288 83.8098L127.177 82.9836L127.16 86.5959Z" fill="black"/>
</svg>
