<svg width="200" height="200" viewBox="0 0 200 200" fill="none" xmlns="http://www.w3.org/2000/svg">
<path d="M64.6132 111.438C67.7473 112.34 70.2975 114.957 71.1357 118.116C72.4753 122.631 70.602 128.245 66.2644 130.398C64.5846 131.293 62.6612 131.509 60.7879 131.523C59.8316 131.531 58.6066 131.696 58.2305 132.738C57.6718 134.158 57.3995 135.679 56.8085 137.091C55.6624 140.053 53.6852 142.9 50.7124 144.226C49.2044 144.801 47.4673 145.085 45.9271 144.463C45.4113 144.248 44.9493 143.633 45.243 143.069C45.4364 142.371 46.271 142.785 46.7545 142.824C48.1836 143.227 49.6736 142.673 50.895 141.929C52.9474 140.549 54.1186 138.259 55.0177 136.024C56.7691 131.552 57.3852 126.746 58.7069 122.149C59.4197 119.982 60.2614 117.563 62.3173 116.319C62.8367 115.866 63.4599 116.121 64.0366 116.29C64.0437 116.725 64.0473 117.164 64.0545 117.602C61.2106 119.608 60.5909 123.21 59.674 126.33C59.3982 127.375 58.9397 128.91 60.1897 129.496C63.2343 129.949 66.7086 128.777 68.3383 126.028C69.4594 124.079 70.0217 121.682 69.4379 119.471C68.8935 116.891 67.0345 114.601 64.5559 113.67C60.0321 111.952 54.4911 114.202 52.231 118.454C50.7625 121.057 50.2682 124.435 51.812 127.12C51.8768 127.261 51.9604 127.403 52.0495 127.547L52.1855 127.764C52.5271 128.31 52.8502 128.883 52.4459 129.489C51.9624 129.73 51.3499 130.046 50.9273 129.518C48.2767 126.376 48.2732 121.65 50.0605 118.084C52.582 112.836 59.0221 109.939 64.6132 111.438ZM78.2276 116.021C78.4998 116.492 78.3709 117.07 78.2455 117.566C76.9167 122.005 75.6308 126.455 74.3055 130.894C73.7647 132.684 73.2059 134.503 73.163 136.387C73.1558 137.034 73.3098 137.821 74.0441 138.001C75.3013 138.004 76.2898 137.091 77.0456 136.178C78.1309 134.776 79.098 133.234 79.492 131.48C80.2585 129.191 81.444 126.639 83.8295 125.686C85.1082 125.165 86.48 125.485 87.6978 126.013C88.3569 126.394 88.9873 125.794 89.5926 125.593C90.0224 125.927 90.7853 126.294 90.4128 126.955C90.2852 127.343 90.1544 127.73 90.0223 128.118L89.6247 129.281C88.8306 131.609 88.0676 133.954 87.7802 136.405C87.6226 137.131 88.0596 137.76 88.3819 138.367C90.7889 138.134 91.8312 135.653 92.963 133.853C94.1773 132.059 94.582 129.852 95.9108 128.13C96.9746 126.592 98.6402 125.345 100.564 125.28C101.613 125.413 102.795 125.895 103.146 127.002C103.683 128.084 103.21 129.306 102.72 130.309C102.494 130.884 101.746 130.83 101.283 130.625C101.122 129.55 102.19 128.533 101.613 127.508C101.309 126.815 100.431 127.074 99.858 127.138C97.8772 127.911 96.7526 129.917 96.0362 131.811C95.4488 133.45 95.019 135.344 95.7497 137.008C96.3335 138.116 97.7877 138.525 98.9303 138.123C101.362 137.469 102.971 135.341 104.267 133.317C105.216 131.998 105.496 130.344 106.37 128.982C107.387 127.296 108.898 125.679 110.926 125.359C112.441 125.039 114.35 126.085 114.318 127.792C114.375 130.761 111.782 133.076 109.106 133.817C108.193 134.183 106.878 134.086 106.413 135.129C106.083 136.725 107.509 138.482 109.192 138.259C112.265 137.864 114.3 135.118 115.664 132.566C117.068 129.884 118.48 127.207 119.912 124.543C120.099 124.097 120.672 123.637 121.141 124.008C121.979 124.277 121.7 125.258 121.578 125.902C121.048 128.058 121.291 130.298 121.825 132.426C122.201 133.885 122.036 135.391 122.094 136.879C123.269 136.098 124.026 134.949 124.745 133.768L125.104 133.177C125.463 132.586 125.828 132.002 126.249 131.466C126.99 131.498 127.28 132.07 126.89 132.688C125.489 135.398 123.573 138.112 120.697 139.363C119.013 139.995 116.825 140.053 115.435 138.755C114.83 138.245 114.651 137.088 115.6 136.872C116.517 137.228 117.215 138.313 118.311 138.076C119.83 137.796 120.575 136.074 120.435 134.658C120.238 133.019 119.73 131.444 119.397 129.834C118.945 129.913 118.447 129.956 118.297 130.47C116.75 133.436 115.166 136.592 112.344 138.55C110.496 139.862 107.659 140.157 105.872 138.601C104.919 137.778 104.726 136.469 104.521 135.298C102.888 137.458 100.653 139.826 97.7053 139.611C96.226 139.711 94.6966 138.888 94.0626 137.526C93.7009 136.789 93.6543 135.952 93.5469 135.15C92.5726 137.141 91.079 139.366 88.7329 139.744C87.4757 139.981 86.7773 138.795 85.932 138.123C84.6103 138.313 83.6898 139.622 82.3001 139.683C80.1546 139.963 78.7219 137.63 78.8866 135.704C77.7942 137.85 75.5484 139.909 72.9874 139.575C72.3069 139.449 71.784 138.824 71.5762 138.184C70.9422 136.322 71.4509 134.334 71.8986 132.487C73.4352 127.217 74.9324 121.93 76.4868 116.668C76.5728 115.812 77.6008 115.55 78.2276 116.021ZM84.596 127.293C83.5107 127.656 82.823 128.641 82.3001 129.604C81.3581 131.372 80.7635 133.342 80.6381 135.348C80.6417 136.318 80.7133 137.598 81.6983 138.094C82.8015 138.425 83.7614 137.537 84.4205 136.757C86.1899 134.564 87.1032 131.646 86.9241 128.831C86.8919 127.746 85.6275 126.764 84.596 127.293ZM110.947 127.12C109.203 127.756 108.139 129.442 107.351 131.031C107.043 131.498 107.143 132.045 107.265 132.551C109.79 132.436 113.025 130.682 112.724 127.756C112.634 126.89 111.563 127.005 110.947 127.12ZM110.259 88.2792C110.901 88.3762 111.535 88.9981 111.298 89.6954C110.482 90.7557 109.174 91.3668 108.526 92.5745C107.503 94.5615 106.913 96.721 106.355 98.88L106.077 99.9587C106.03 100.138 105.984 100.318 105.936 100.497C105.746 101.079 105.822 101.683 105.908 102.272C106.484 102.312 107.097 102.52 107.659 102.261C111.706 100.701 115.722 98.8539 119.139 96.1365C120.425 95.0546 121.936 93.6852 121.696 91.8233C121.463 91.586 121.23 91.3488 120.998 91.1152C120.364 91.1475 119.662 91.0828 119.171 91.5681C117.487 92.9231 116.986 95.1481 116.134 97.0351C115.793 97.8295 114.848 97.9912 114.085 98.0308C114.092 96.8015 114.626 95.68 115.048 94.555C115.714 92.9375 116.51 91.2985 117.824 90.1051C118.935 89.1167 120.647 88.5595 122.015 89.3539C123.731 90.1698 123.953 92.4882 123.197 94.0446C121.854 96.8087 119.196 98.5592 116.674 100.134C115.421 100.885 114.411 102.082 114.053 103.523C112.896 107.581 111.717 111.679 111.384 115.906C111.255 117.484 111.599 119.044 111.599 120.618C111.08 120.679 110.439 120.97 110.03 120.474C109.475 119.687 109.5 118.655 109.407 117.732C109.249 113.099 110.453 108.559 111.757 104.159C111.921 103.76 111.9 103.343 111.585 103.027C110.883 102.689 110.177 103.146 109.522 103.365C105.317 105.105 101.004 106.618 96.9889 108.785C94.2525 110.309 91.5805 112.405 90.3591 115.388C89.983 116.474 89.7215 118.127 90.9286 118.785C92.3076 119.346 93.7618 118.526 94.9044 117.778C98.1136 115.478 100.087 111.88 101.552 108.293C101.792 107.513 102.523 106.78 103.393 106.956C104.095 107.2 103.776 108.045 103.576 108.541C101.982 112.552 99.8114 116.546 96.3371 119.216C94.5032 120.618 91.9458 121.693 89.6929 120.668C88.1993 120.018 87.5653 118.235 87.816 116.7C88.1455 114.306 89.5782 112.236 91.2653 110.579C93.7582 108.074 96.9424 106.452 100.159 105.087C101.882 104.422 103.21 102.894 103.651 101.097C104.314 98.4837 105.112 95.9065 105.807 93.3006C105.721 93.1316 105.549 92.7973 105.46 92.6284C103.905 92.251 102.301 92.1252 100.75 91.7154C99.0413 91.3668 97.1788 90.709 95.4846 91.4638C93.1457 92.402 91.8061 95.6046 93.1923 97.8079C94.2059 99.2637 96.2511 99.145 97.5656 98.1817C98.2318 97.5671 99.4246 98.0919 99.138 99.0516C97.1824 101.395 92.9057 101.219 91.3727 98.4765C89.5317 95.2883 91.5052 90.8096 94.9652 89.7637C96.8961 89.0363 98.8269 89.3964 100.767 89.8154L101.452 89.9641C102.822 90.2597 104.198 90.5243 105.582 90.3963C107.423 90.4538 108.615 88.8004 110.259 88.2792ZM146.081 94.3393C145.867 95.2727 145.581 96.1889 145.281 97.1018L144.919 98.1968C144.438 99.657 143.984 101.123 143.803 102.653C145.139 102.553 146.618 102.161 147.836 102.937C148.878 103.519 149.057 104.813 149.111 105.892C149.197 108.649 148.201 111.287 147.026 113.728C146.718 114.245 146.851 114.845 146.937 115.403C147.657 115.536 148.448 115.51 149 114.957C150.816 113.372 151.672 111.032 152.99 109.069C153.33 109.278 153.667 109.493 154 109.723C153.731 110.168 153.473 110.631 153.216 111.099L152.907 111.664C151.823 113.642 150.674 115.633 148.656 116.725C147.438 117.394 146.213 116.571 145.028 116.359C143.495 116.883 141.647 117.419 140.167 116.459C138.889 115.708 138.921 113.994 138.885 112.7C137.796 114.288 136.682 116.028 134.902 116.909C133.588 117.588 131.618 116.794 131.55 115.194C131.642 113.675 132.209 112.278 132.801 110.891L133.124 110.134C133.337 109.629 133.543 109.122 133.72 108.609C134.505 107.096 132.345 105.924 131.109 106.291C129.913 108.26 129.3 110.557 127.875 112.401C126.27 114.666 123.992 117.131 120.976 116.97C119.321 117.103 117.591 116.075 117.09 114.454C116.528 112.987 116.778 111.391 117.101 109.899C117.67 107.574 118.845 105.32 120.718 103.789C122.011 102.747 123.978 102.2 125.446 103.207C126.65 103.958 126.685 105.615 126.249 106.823C125.446 109.127 123.265 110.676 120.976 111.258C120.081 111.553 118.745 111.585 118.519 112.732C118.544 113.792 119.046 114.982 120.091 115.388C121.567 116.01 123.204 115.212 124.397 114.321C127.18 112.099 128.462 108.638 129.837 105.464C129.078 103.936 129.544 101.992 130.769 100.849C131.374 100.687 132.295 100.849 132.413 101.575C132.284 102.384 132.094 103.182 132.001 103.997C133.398 104.821 135.472 105.23 136.034 106.931C135.737 109.612 133.906 111.848 133.448 114.49C133.258 115.075 133.892 115.403 134.171 115.809C136.664 114.378 137.968 111.632 139.365 109.238C140.748 104.875 142.084 100.489 143.434 96.115C143.728 95.202 143.921 94.2423 144.405 93.4084C145.089 92.8117 146.428 93.3257 146.081 94.3393ZM142.678 106.751C141.321 109.213 140.368 112.221 141.22 115.007C142.27 115.589 143.402 115.183 144.268 114.482C144.147 113.577 143.677 112.545 144.351 111.736C144.834 111.395 145.468 111.56 146.02 111.492C146.672 109.921 147.213 108.271 147.295 106.56C147.306 105.805 147.202 104.734 146.375 104.45C144.73 104.037 143.498 105.547 142.678 106.751ZM120.306 106.988C119.798 107.869 118.992 108.854 119.472 109.921C121.632 109.731 124.021 108.652 124.809 106.478C124.952 105.813 125.145 104.867 124.44 104.454C122.62 104.066 121.202 105.604 120.306 106.988ZM83.9728 56.7599C85.2729 58.5427 84.9971 60.9761 84.3596 62.9638C82.8158 67.2483 79.3451 70.8751 75.0219 72.3596C73.8184 72.8448 72.4359 73.2043 71.612 74.2898C71.0604 75.156 70.8849 76.1948 70.559 77.1545C70.0898 78.8259 69.42 80.4434 69.1155 82.1543C68.9579 82.8876 69.2696 83.6783 69.8928 84.0917C72.4287 85.8098 75.6451 86.9169 78.6968 86.101C79.985 85.7926 81.0635 85.0279 82.0976 84.2352L82.5723 83.8688C83.0916 83.2758 84.1411 83.8868 84.0337 84.6309C84.0157 85.3749 83.2492 85.7667 82.7585 86.2016C79.9218 88.4553 75.9388 88.6817 72.6042 87.5495C70.8169 87.0139 69.2946 85.8925 67.579 85.1844C65.7415 86.3166 63.7823 87.7005 61.5043 87.4201C59.7384 87.3302 57.9046 85.8817 58.1374 83.9623C58.3308 81.4031 61.3216 80.1271 63.5638 80.8028C64.7314 80.9394 66.3934 81.9782 67.2029 80.6231C67.9944 78.7935 68.4601 76.8382 68.9472 74.908C69.3376 73.499 67.8368 72.6399 66.7659 72.1619C64.2837 71.0943 62.6755 68.5783 62.2135 65.9759C61.9806 65.1276 62.8868 64.6496 63.6068 64.876C64.0724 65.3792 64.144 66.0873 64.384 66.7056C65.1111 69.0312 67.3318 70.7601 69.7316 70.9865C75.6201 71.5472 81.2614 67.047 82.7908 61.4506C83.1991 60.1745 82.9949 58.5535 81.7843 57.7879C79.9683 57.2128 78.2885 58.4349 77.1925 59.772C74.7998 62.6763 73.5963 66.321 72.5146 69.8722C71.8198 70.53 70.5626 70.2676 70.5196 69.236C71.1751 66.2635 72.3678 63.4239 73.8399 60.7712C75.1867 58.4996 76.9453 56.1524 79.5994 55.3976C81.1467 54.8333 83.0057 55.4335 83.9728 56.7599ZM61.6798 82.3089C60.6446 82.4167 59.6668 83.6029 60.1253 84.6309C60.4405 85.6445 61.669 86.0435 62.6146 85.7523C63.8324 85.3605 65.326 84.8717 65.6842 83.4699C64.4664 82.8013 63.1089 82.1256 61.6798 82.3089ZM111.556 59.5923C111.778 60.0667 111.703 60.6131 111.567 61.1019C110.209 65.6416 108.895 70.1921 107.537 74.7319C107.007 76.5506 106.405 78.4125 106.502 80.3284C106.423 81.1659 107.283 81.8488 108.067 81.4678C109.762 80.9214 110.75 79.2824 111.653 77.8482C112.559 76.5291 112.634 74.8577 113.393 73.463C114.382 71.5113 115.89 69.5272 118.118 68.9952C119.16 68.6789 120.367 68.9772 121.159 69.7213C122.036 70.566 121.947 71.9534 121.596 73.0209C120.797 75.3357 118.605 76.8921 116.309 77.4744C115.417 77.7655 114.106 77.8015 113.863 78.9301C113.884 79.9941 114.382 81.1874 115.428 81.6008C116.563 82.1327 117.856 81.6547 118.892 81.1047C121.209 79.7748 122.473 77.3198 123.906 75.1668C124.264 75.4292 125.12 75.7599 124.619 76.335C123.104 79.0164 121.195 81.8416 118.197 82.9595C116.678 83.3369 114.876 83.38 113.594 82.3376C112.641 81.6367 112.262 80.4398 112.197 79.304C111.044 81.4893 108.691 83.628 106.051 83.096C104.898 82.5749 104.643 81.2162 104.64 80.0732C103.812 81.3851 102.777 82.7294 101.255 83.2506C100.22 83.6244 98.8228 83.3261 98.2963 82.2837C97.845 81.5684 97.8987 80.6914 97.9095 79.8862C97.1752 81.2162 96.1651 82.4994 94.7503 83.1356C93.6579 83.6604 92.0712 83.4303 91.4838 82.2693C90.9823 81.4246 91.0575 80.4074 91.1542 79.4729C90.1585 81.5253 88.1205 83.7107 85.6096 83.1032C84.3524 82.4778 84.0659 80.8855 84.1805 79.6095C84.4384 76.1948 85.5702 72.9167 86.7773 69.7392C86.9349 69.0132 87.7802 68.9988 88.339 69.2324C88.7795 69.8579 88.4607 70.5732 88.2387 71.213C87.2214 73.9375 86.2114 76.7052 85.8532 79.6095C85.735 80.3607 85.9033 81.342 86.6519 81.7122C87.6763 81.856 88.4178 80.9718 89.0553 80.3068C90.1764 78.9661 91.1614 77.4672 91.7882 75.8246C92.5296 73.0209 93.4108 70.2532 94.1593 67.4496C93.332 67.2987 92.4723 67.2735 91.6628 67.0255C91.0468 66.7451 91.0969 65.9004 91.6664 65.6021C92.655 65.2498 93.8012 65.7063 94.7432 65.2103C95.4953 63.5317 95.6637 61.6447 96.4517 59.9804C96.8922 59.5347 97.5262 59.8079 98.0599 59.8331C98.156 60.7752 97.9118 61.6577 97.624 62.5344L97.4047 63.1917C97.1501 63.9592 96.919 64.7327 96.9102 65.5482C98.4432 65.4116 100.087 65.7063 101.545 65.2103C102.297 63.5389 102.469 61.659 103.243 59.9948C103.68 59.5276 104.328 59.8079 104.865 59.8331C105.066 61.8208 103.755 63.5461 103.716 65.5158C103.918 65.5339 104.168 65.5279 104.434 65.5235L104.664 65.5208C105.553 65.5163 106.496 65.6086 106.287 66.7092C105.574 67.8126 104.099 67.2915 103.017 67.3993C102.322 69.1749 101.889 71.0404 101.301 72.852C100.632 75.192 99.8365 77.5283 99.6036 79.9653C99.4998 80.659 99.8114 81.306 100.055 81.9351C102.652 81.8128 103.784 79.0344 104.898 77.0826C106.567 71.4825 108.128 65.8465 109.794 60.2464C109.88 59.3766 110.922 59.1214 111.556 59.5923ZM96.2117 67.4101C95.3736 69.6314 94.8112 71.9426 94.0949 74.1999C94.0345 74.4293 93.9713 74.659 93.9068 74.8892L93.7104 75.581C93.1504 77.5449 92.5933 79.5415 92.9093 81.59C93.5612 81.7913 94.3026 82.0177 94.8721 81.4965C96.4732 80.2816 97.4152 78.4125 98.325 76.6657C99.2204 73.5924 100.112 70.5192 100.968 67.4352C99.3959 67.0399 97.802 67.5071 96.2117 67.4101ZM118.462 70.6882C116.463 71.443 115.367 73.481 114.55 75.3321C114.636 75.5262 114.805 75.9144 114.887 76.1085C117.376 75.9648 120.518 74.2251 120.249 71.3531C120.181 70.4653 119.092 70.5624 118.462 70.6882ZM90.1836 64.8796C90.1871 65.1492 90.1907 65.6848 90.1943 65.9543C89.5568 66.5941 88.7652 66.8637 87.9772 66.3066C87.8268 65.6021 87.6727 64.5813 88.5145 64.2542C89.1735 63.8696 89.7251 64.4878 90.1836 64.8796Z" fill="black"/>
</svg>
