<svg width="200" height="200" viewBox="0 0 200 200" fill="none" xmlns="http://www.w3.org/2000/svg">
<g clip-path="url(#clip0_132_1093)">
<path fill-rule="evenodd" clip-rule="evenodd" d="M222.783 76.3669H207.687L205.227 79.4295L202.767 76.3669H187.669C181.031 76.3669 175.983 81.8971 175.983 88.5343V122.384H180.811V88.5343C180.811 84.5416 183.675 81.1944 187.669 81.1944H202.813V122.092H207.639V81.1944H222.783C226.777 81.1944 230.291 84.5416 230.291 88.5343V122.384H235.118V88.5343C235.118 81.8971 229.422 76.3669 222.783 76.3669ZM335.82 110.448V89.1417C335.82 85.5602 332.699 83.173 328.748 82.0714C327.006 81.6125 325.168 81.336 323.24 81.336C321.312 81.336 319.475 81.6125 317.731 82.0714C313.781 83.173 310.657 85.469 310.657 89.1417V110.448C310.657 114.581 314.79 117.242 319.566 118.07C322.962 118.62 326.452 118.437 329.666 117.334C333.158 116.142 335.82 113.753 335.82 110.448ZM340.413 110.448C340.413 116.142 336.463 119.814 331.137 121.651C327.188 122.937 322.962 123.121 318.832 122.478C311.944 121.284 306.067 117.334 306.067 110.448V89.1417C306.067 83.0818 310.657 79.2239 316.536 77.6633C318.741 77.0206 320.944 76.7455 323.24 76.7455C325.536 76.7455 327.83 77.0206 329.944 77.6633C335.82 79.2239 340.413 83.0818 340.413 89.1417V110.448ZM299.455 122.753C291.923 123.213 288.159 120.825 288.159 112.651V58.1028H292.751V112.744C292.751 117.518 294.681 118.62 299.455 118.62V122.753ZM274.473 110.448V89.1417C274.473 85.5602 271.352 83.173 267.403 82.0714C265.659 81.6125 263.822 81.336 261.892 81.336C259.964 81.336 258.127 81.6125 256.382 82.0714C252.433 83.173 249.312 85.469 249.312 89.1417V110.448C249.312 114.581 253.445 117.242 258.218 118.07C261.618 118.62 265.107 118.437 268.321 117.334C271.81 116.142 274.473 113.753 274.473 110.448ZM279.065 110.448C279.065 116.142 275.118 119.814 269.79 121.651C265.843 122.937 261.618 123.121 257.484 122.478C250.598 121.284 244.719 117.334 244.719 110.448V89.1417C244.719 83.0818 249.312 79.2239 255.188 77.6633C257.394 77.0206 259.599 76.7455 261.892 76.7455C264.188 76.7455 266.485 77.0206 268.596 77.6633C274.473 79.2239 279.065 83.0818 279.065 89.1417V110.448ZM127.862 103.146V83.9098C127.862 77.2725 122.432 71.8417 115.794 71.8417H101.958L99.9557 74.2548L97.9525 71.8417H84.4179C77.7806 71.8417 72.3485 77.2725 72.3485 83.9098V103.247C66.7244 108.179 62.6091 113.271 63.4929 117.398C63.7721 118.706 95.436 136.628 100.01 139.213C100.366 139.414 100.736 139.418 101.064 139.226C105.396 136.691 136.146 118.659 136.417 117.398C137.315 113.199 133.473 108.07 127.862 103.146ZM152 74.9207V125.606C152 128.261 150.122 131.525 147.826 132.859L104.128 158.178C101.832 159.51 98.0765 159.51 95.7819 158.178L52.3863 132.859C50.0917 131.525 48.2139 128.261 48.2139 125.606V74.9207C48.2139 72.2653 50.0917 69.0011 52.3863 67.6666L95.7819 42.3485C98.0765 41.0153 101.832 41.0153 104.128 42.3485L147.826 67.6666C150.122 69.0011 152 72.2653 152 74.9207ZM123.035 99.231V83.9098C123.035 79.917 119.787 76.6679 115.794 76.6679H102.52V86.4794C106.361 88.5834 115.12 93.3591 122.892 99.2378C122.889 99.2338 123.036 99.2338 123.035 99.231ZM116.696 100.692C112.243 97.5615 103.594 93.5606 100.107 91.5384V133.657C111.785 127.01 127.278 117.906 131.471 115.147C130.749 113.129 127.877 108.546 116.696 100.692ZM84.4179 76.6679H97.6924V86.5121C93.2422 88.9796 84.4846 93.6818 77.0085 99.3468C77.0153 99.3413 77.1706 99.3386 77.1774 99.3332V83.9098C77.1774 79.917 80.4238 76.6679 84.4179 76.6679Z" fill="black"/>
</g>
<defs>
<clipPath id="clip0_132_1093">
<rect width="103.786" height="117.828" fill="white" transform="translate(48.2139 41.3486)"/>
</clipPath>
</defs>
</svg>
