<svg width="200" height="200" viewBox="0 0 200 200" fill="none" xmlns="http://www.w3.org/2000/svg">
<path fill-rule="evenodd" clip-rule="evenodd" d="M113.251 89.2988H106.224L105.08 90.7242L103.934 89.2988H96.9073C93.8181 89.2988 91.4685 91.8727 91.4685 94.9619V110.717H93.7154V94.9619C93.7154 93.1036 95.0483 91.5456 96.9073 91.5456H103.956V110.581H106.202V91.5456H113.251C115.11 91.5456 116.745 93.1036 116.745 94.9619V110.717H118.992V94.9619C118.992 91.8727 116.341 89.2988 113.251 89.2988ZM165.862 105.161V95.2446C165.862 93.5777 164.409 92.4666 162.571 91.9538C161.76 91.7402 160.904 91.6116 160.007 91.6116C159.109 91.6116 158.254 91.7402 157.443 91.9538C155.604 92.4666 154.15 93.5352 154.15 95.2446V105.161C154.15 107.085 156.074 108.323 158.297 108.709C159.878 108.965 161.502 108.88 162.998 108.367C164.623 107.811 165.862 106.7 165.862 105.161ZM168 105.161C168 107.811 166.161 109.521 163.682 110.376C161.844 110.974 159.878 111.06 157.955 110.76C154.749 110.205 152.014 108.367 152.014 105.161V95.2446C152.014 92.4241 154.15 90.6285 156.887 89.9022C157.913 89.603 158.938 89.475 160.007 89.475C161.076 89.475 162.144 89.603 163.127 89.9022C165.862 90.6285 168 92.4241 168 95.2446V105.161ZM148.937 110.888C145.431 111.103 143.679 109.991 143.679 106.187V80.798H145.816V106.23C145.816 108.452 146.715 108.965 148.937 108.965V110.888ZM137.309 105.161V95.2446C137.309 93.5777 135.857 92.4666 134.019 91.9538C133.207 91.7402 132.352 91.6116 131.453 91.6116C130.556 91.6116 129.701 91.7402 128.889 91.9538C127.051 92.4666 125.598 93.5352 125.598 95.2446V105.161C125.598 107.085 127.522 108.323 129.743 108.709C131.326 108.965 132.95 108.88 134.446 108.367C136.07 107.811 137.309 106.7 137.309 105.161ZM139.447 105.161C139.447 107.811 137.609 109.521 135.13 110.376C133.292 110.974 131.326 111.06 129.402 110.76C126.197 110.205 123.46 108.367 123.46 105.161V95.2446C123.46 92.4241 125.598 90.6285 128.333 89.9022C129.36 89.603 130.386 89.475 131.453 89.475C132.522 89.475 133.591 89.603 134.574 89.9022C137.309 90.6285 139.447 92.4241 139.447 95.2446V105.161ZM69.0713 101.763V92.8095C69.0713 89.7202 66.5437 87.1926 63.4544 87.1926H57.0142L56.0825 88.3157L55.1502 87.1926H48.8507C45.7614 87.1926 43.2331 89.7202 43.2331 92.8095V101.81C40.6155 104.105 38.7001 106.475 39.1114 108.396C39.2414 109.005 53.9789 117.346 56.1079 118.549C56.2733 118.643 56.4457 118.645 56.5984 118.556C58.6146 117.376 72.9268 108.983 73.053 108.396C73.4706 106.442 71.6826 104.055 69.0713 101.763ZM80.3057 88.6256V112.216C80.3057 113.452 79.4317 114.972 78.3631 115.592L58.0245 127.377C56.9559 127.996 55.2078 127.996 54.1399 127.377L33.942 115.592C32.874 114.972 32 113.452 32 112.216V88.6256C32 87.3897 32.874 85.8704 33.942 85.2493L54.1399 73.4654C55.2078 72.8449 56.9559 72.8449 58.0245 73.4654L78.3631 85.2493C79.4317 85.8704 80.3057 87.3897 80.3057 88.6256ZM66.8244 99.9405V92.8095C66.8244 90.9511 65.3128 89.4388 63.4544 89.4388H57.276V94.0055C59.064 94.9847 63.1407 97.2075 66.7579 99.9437C66.7566 99.9418 66.8251 99.9418 66.8244 99.9405ZM63.874 100.621C61.8014 99.1635 57.7761 97.3013 56.1529 96.3601V115.963C61.5885 112.87 68.7994 108.633 70.7509 107.349C70.415 106.409 69.0783 104.276 63.874 100.621ZM48.8507 89.4388H55.0291V94.0207C52.9578 95.1692 48.8817 97.3577 45.4021 99.9944C45.4052 99.9919 45.4775 99.9906 45.4806 99.9881V92.8095C45.4806 90.9511 46.9917 89.4388 48.8507 89.4388Z" fill="black"/>
</svg>
