<svg width="200" height="200" viewBox="0 0 200 200" fill="none" xmlns="http://www.w3.org/2000/svg">
<path d="M100.108 117.362C111.789 117.362 108.469 129.896 105.735 136.854C103.073 143.565 101.174 150.044 100.108 157.216C99.0255 150.044 97.1433 143.565 94.4805 136.854C91.7467 129.913 88.4276 117.362 100.108 117.362ZM58.1846 140.705C58.097 141.561 58.0347 142.381 58.001 143.156C57.9762 142.263 58.0405 141.449 58.1846 140.705ZM142.013 140.651C142.157 141.396 142.222 142.21 142.197 143.104C142.163 142.328 142.1 141.507 142.013 140.651ZM77.2969 113.368C81.6993 113.35 86.297 117.026 86.5811 121.605C86.8473 125.813 82.445 128.635 79.0898 130.126C72.7858 132.942 59.8966 131.862 58.1846 140.705C59.2948 129.864 64.8253 113.434 77.2969 113.368ZM122.901 113.315C135.373 113.381 140.902 129.81 142.013 140.651C140.3 131.809 127.412 132.89 121.108 130.073C117.753 128.582 113.351 125.759 113.617 121.552C113.902 116.972 118.499 113.298 122.901 113.315ZM63.3613 94.4805C70.3023 91.7467 82.8532 88.4272 82.8535 100.107C82.8535 111.788 70.3023 108.469 63.3613 105.735C56.6511 103.073 50.1718 101.173 43 100.107C50.1717 99.0246 56.6512 97.1432 63.3613 94.4805ZM117.008 100.108C117.008 88.4101 129.558 91.7289 136.499 94.4805C143.209 97.1433 149.69 99.0433 156.861 100.108C149.69 101.191 143.209 103.073 136.499 105.735C129.558 108.469 117.008 111.789 117.008 100.108ZM58.1846 59.9717C59.8961 68.8149 72.7856 67.7345 79.0898 70.5508C82.445 72.0242 86.8473 74.8651 86.5811 79.0723C86.2968 83.6521 81.6992 87.3263 77.2969 87.3086C64.825 87.2426 59.2946 70.813 58.1846 59.9717ZM141.936 60.5615C140.657 71.3942 135.096 87.1026 122.901 87.167C118.499 87.1847 113.901 83.5097 113.617 78.9297C113.351 74.7227 117.753 71.9003 121.108 70.4092C127.409 67.5943 140.288 68.672 142.011 59.8447L141.936 60.5615ZM99.9307 43C100.996 50.1717 102.895 56.6512 105.558 63.3613C108.291 70.3023 111.611 82.8534 99.9307 82.8535C88.2499 82.8535 91.5689 70.3023 94.3027 63.3613C96.9655 56.6511 98.8478 50.1718 99.9307 43ZM58.001 57.5215C58.0347 58.2963 58.097 59.1165 58.1846 59.9717C58.0406 59.2279 57.9762 58.4139 58.001 57.5215ZM142.197 57.3789C142.222 58.2709 142.156 59.0846 142.013 59.8281C142.1 58.9734 142.164 58.1534 142.197 57.3789Z" fill="black"/>
</svg>
