<svg width="200" height="200" viewBox="0 0 200 200" fill="none" xmlns="http://www.w3.org/2000/svg">
<path d="M55.0596 100.17C55.0596 104.705 59.9319 103.416 62.6265 102.355C65.2315 101.321 67.7469 100.591 70.5311 100.17C67.7469 99.7567 65.2315 99.0193 62.6265 97.9856C59.9319 96.9174 55.0596 95.6287 55.0596 100.17Z" fill="black"/>
<path d="M48.4986 106.869C43.964 106.869 45.2527 111.741 46.314 114.436C47.3477 117.041 48.0782 119.556 48.4986 122.34C48.9121 119.556 49.6495 117.041 50.6832 114.436C51.7445 111.734 53.0332 106.869 48.4986 106.869Z" fill="black"/>
<path d="M41.8006 100.17C41.8006 95.6351 36.9283 96.9238 34.2337 97.9851C31.6287 99.0188 29.1133 99.7493 26.3291 100.17C29.1133 100.583 31.6287 101.321 34.2337 102.354C36.9283 103.416 41.8006 104.704 41.8006 100.17Z" fill="black"/>
<path d="M64.8386 83.582C64.6594 87.6963 62.5713 95.1185 57.3475 95.146C55.6384 95.1529 53.8535 93.7264 53.7432 91.9483C53.6399 90.3151 55.349 89.2193 56.6515 88.6404C59.3047 87.4551 64.9627 88.0477 64.8386 83.582Z" fill="black"/>
<path d="M32.1524 83.6372C32.3316 87.7515 34.4197 95.1736 39.6435 95.2012C41.3526 95.2081 43.1375 93.7815 43.2478 92.0035C43.3511 90.3702 41.642 89.2676 40.3395 88.6956C37.6863 87.5102 32.0284 88.1029 32.1524 83.6372Z" fill="black"/>
<path d="M64.8386 116.861C64.6594 112.747 62.5713 105.325 57.3475 105.297C55.6384 105.29 53.8535 106.717 53.7432 108.495C53.6399 110.128 55.349 111.224 56.6515 111.803C59.3047 112.988 64.9627 112.395 64.8386 116.861Z" fill="black"/>
<path d="M32.1524 116.882C32.3316 112.768 34.4197 105.345 39.6435 105.318C41.3526 105.311 43.1375 106.738 43.2478 108.516C43.3511 110.149 41.642 111.245 40.3395 111.824C37.6863 113.009 32.0284 112.416 32.1524 116.882Z" fill="black"/>
<path d="M48.4302 93.4715C43.8956 93.4715 45.1843 88.5992 46.2456 85.9046C47.2793 83.2996 48.0098 80.7842 48.4302 78C48.8437 80.7842 49.5811 83.2996 50.6148 85.9046C51.6761 88.5992 52.9649 93.4715 48.4302 93.4715Z" fill="black"/>
<path d="M87.8363 96.8183V112.009H81.1509V88.819L87.8363 88.1042V90.275C89.4432 88.8411 91.3565 88.1264 93.5672 88.1264C96.5947 88.1264 98.9031 89.0409 100.492 90.8743C102.082 92.7077 102.881 94.8163 102.881 97.2045V112.009H96.1952V98.8737C96.1952 97.28 95.7957 96.0459 95.0011 95.1714C94.2065 94.2969 93.0035 93.8352 91.3965 93.7864C90.0115 93.884 88.8218 94.8917 87.8363 96.8183Z" fill="black"/>
<path d="M120.065 94.692C119.11 93.9773 117.996 93.6177 116.722 93.6177C115.448 93.6177 114.334 93.9773 113.379 94.692C112.425 95.4067 111.946 96.4011 111.946 97.6751H121.499C121.499 96.4055 121.024 95.4111 120.065 94.692ZM104.785 100.068C104.785 96.5653 105.899 93.6976 108.128 91.4692C110.356 89.2407 113.224 88.1265 116.727 88.1265C120.229 88.1265 123.017 89.2407 125.085 91.4692C127.154 93.6976 128.188 96.5653 128.188 100.068V102.456H111.71C111.87 103.73 112.425 104.725 113.384 105.439C114.338 106.154 115.452 106.514 116.727 106.514C118.955 106.514 120.944 105.879 122.697 104.605L126.519 108.427C124.77 110.815 121.503 112.009 116.731 112.009C113.228 112.009 110.361 110.895 108.132 108.666C105.899 106.438 104.785 103.57 104.785 100.068Z" fill="black"/>
<path d="M144.489 88.797C145.731 89.3386 146.895 90.1421 147.973 91.2075L144.249 95.4113C143.166 94.1196 141.812 93.4759 140.191 93.4759C138.584 93.4759 137.506 93.7733 136.964 94.3726C136.423 94.9674 136.423 95.509 136.964 95.9973C137.506 96.4812 138.58 96.8852 140.191 97.2048C142.562 97.4267 144.506 98.1059 146.016 99.2335C147.529 100.365 148.284 102.332 148.284 105.133C148.284 107.393 147.392 109.146 145.607 110.385C143.823 111.623 141.745 112.249 139.375 112.249C137.115 112.249 135.233 111.93 133.728 111.281C132.223 110.638 130.931 109.772 129.848 108.689L133.55 104.512C134.634 105.803 136.312 106.549 138.589 106.758C140.418 106.758 141.603 106.46 142.136 105.861C142.668 105.262 142.748 104.667 142.375 104.068C142.003 103.473 140.737 103.069 138.593 102.86C136.649 102.638 134.869 102.043 133.257 101.071C131.642 100.099 130.834 98.2702 130.834 95.58C130.834 93.1119 131.753 91.2297 133.59 89.9334C135.428 88.6372 137.319 87.9846 139.264 87.9846C141.501 87.9846 143.246 88.2554 144.489 88.797Z" fill="black"/>
<path d="M161.482 106.469C163.298 106.469 164.767 105.861 165.899 104.64C167.031 103.424 167.595 101.906 167.595 100.09C167.595 98.2746 167.031 96.7564 165.899 95.5312C164.767 94.306 163.289 93.6934 161.455 93.6934C159.658 93.6934 158.193 94.306 157.061 95.5312C155.929 96.7564 155.365 98.2791 155.365 100.09C155.365 101.901 155.929 103.424 157.061 104.64C158.193 105.857 159.666 106.469 161.482 106.469ZM152.812 108.747C150.486 106.416 149.328 103.522 149.328 100.064C149.328 96.5922 150.491 93.6978 152.812 91.3717C155.134 89.05 158.033 87.887 161.504 87.887C164.976 87.887 167.87 89.05 170.196 91.3717C172.522 93.6978 173.681 96.5966 173.681 100.064C173.681 103.535 172.518 106.434 170.196 108.755C167.87 111.077 164.976 112.24 161.504 112.24C158.037 112.245 155.139 111.082 152.812 108.747Z" fill="black"/>
</svg>
