<svg width="200" height="200" viewBox="0 0 200 200" fill="none" xmlns="http://www.w3.org/2000/svg">
<path fill-rule="evenodd" clip-rule="evenodd" d="M115.346 113.598C115.346 113.598 125.778 110.052 125.778 108.743C125.778 107.435 112.883 107.131 112.883 107.131C112.883 107.131 127.302 105.397 132.869 105.397C138.436 105.397 140.706 106.545 139.916 107.489C139.126 108.434 115.346 113.598 115.346 113.598Z" fill="black"/>
<mask id="mask0_123_525" style="mask-type:luminance" maskUnits="userSpaceOnUse" x="112" y="105" width="29" height="9">
<path d="M115.346 113.598C115.346 113.598 125.778 110.052 125.778 108.743C125.778 107.435 112.883 107.131 112.883 107.131C112.883 107.131 127.302 105.397 132.869 105.397C138.436 105.397 140.706 106.545 139.916 107.489C139.126 108.434 115.346 113.598 115.346 113.598Z" fill="white"/>
</mask>
<g mask="url(#mask0_123_525)">
<path d="M321.09 27.7642H-1.26611V272.432H321.09V27.7642Z" fill="black"/>
<mask id="mask1_123_525" style="mask-type:luminance" maskUnits="userSpaceOnUse" x="-2" y="27" width="324" height="246">
<path d="M321.09 27.7642H-1.26611V272.432H321.09V27.7642Z" fill="white"/>
</mask>
<g mask="url(#mask1_123_525)">
<path d="M140.229 105.062H112.561V114.056H140.229V105.062Z" fill="black"/>
</g>
</g>
<path fill-rule="evenodd" clip-rule="evenodd" d="M108.177 116.177C107.658 116.696 87.6623 104.005 87.6623 86.8843C87.6623 69.764 63.4566 120.248 86.1988 120.248C108.941 120.248 91.6531 123.043 76.7732 123.043C61.8932 123.043 63.3825 113.459 63.3825 95.4332C63.3825 77.4071 38.5095 68.6164 38.5095 68.6164L47.6709 69.5319L35.7631 65.8667L44.9373 66.7854L33.0101 63.1203L42.1715 64.0358L30.2637 60.3706C30.2637 60.3706 50.4464 55.4933 96.8366 81.127C96.8366 81.127 96.324 104.311 108.177 116.177Z" fill="black"/>
<mask id="mask2_123_525" style="mask-type:luminance" maskUnits="userSpaceOnUse" x="30" y="60" width="79" height="64">
<path d="M108.177 116.177C107.658 116.696 87.6623 104.005 87.6623 86.8843C87.6623 69.764 63.4566 120.248 86.1988 120.248C108.941 120.248 91.6531 123.043 76.7732 123.043C61.8932 123.043 63.3825 113.459 63.3825 95.4332C63.3825 77.4071 38.5095 68.6164 38.5095 68.6164L47.6709 69.5319L35.7631 65.8667L44.9373 66.7854L33.0101 63.1203L42.1715 64.0358L30.2637 60.3706C30.2637 60.3706 50.4464 55.4933 96.8366 81.127C96.8366 81.127 96.324 104.311 108.177 116.177Z" fill="white"/>
</mask>
<g mask="url(#mask2_123_525)">
<path d="M320.396 27.7642H-1.95947V272.432H320.396V27.7642Z" fill="black"/>
<mask id="mask3_123_525" style="mask-type:luminance" maskUnits="userSpaceOnUse" x="-2" y="27" width="323" height="246">
<path d="M320.396 27.7642H-1.95947V272.432H320.396V27.7642Z" fill="white"/>
</mask>
<g mask="url(#mask3_123_525)">
<path d="M114.578 55.1709H29.9536V123.365H114.578V55.1709Z" fill="black"/>
</g>
</g>
<path fill-rule="evenodd" clip-rule="evenodd" d="M125.922 121.657C125.565 121.299 113.028 116.947 103.035 126.918C93.0422 136.888 71.3702 136.05 71.3702 133.4C71.3702 130.75 99.3571 127.485 79.3259 127.485C59.2948 127.485 52.8928 130.193 50.2785 132.804C47.6642 135.415 61.3385 140.763 85.022 140.763C108.705 140.763 113.828 132.382 125.91 121.67C125.91 121.67 139.906 111.951 154.067 111.838C155.276 111.838 154.39 106.113 154.39 106.113C154.39 106.113 157.21 111.731 159.87 111.731C162.529 111.731 169.824 111.296 169.824 110.268C169.824 109.24 165.907 109.169 161.646 104.907C157.384 100.646 136.164 114.471 127.373 114.471C118.582 114.471 115.175 116.728 115.43 116.728C124.855 116.499 125.922 121.657 125.922 121.657Z" fill="black"/>
<mask id="mask4_123_525" style="mask-type:luminance" maskUnits="userSpaceOnUse" x="49" y="104" width="121" height="37">
<path d="M125.922 121.657C125.565 121.299 113.028 116.947 103.035 126.918C93.0422 136.888 71.3702 136.05 71.3702 133.4C71.3702 130.75 99.3571 127.485 79.3259 127.485C59.2948 127.485 52.8928 130.193 50.2785 132.804C47.6642 135.415 61.3385 140.763 85.022 140.763C108.705 140.763 113.828 132.382 125.91 121.67C125.91 121.67 139.906 111.951 154.067 111.838C155.276 111.838 154.39 106.113 154.39 106.113C154.39 106.113 157.21 111.731 159.87 111.731C162.529 111.731 169.824 111.296 169.824 110.268C169.824 109.24 165.907 109.169 161.646 104.907C157.384 100.646 136.164 114.471 127.373 114.471C118.582 114.471 115.175 116.728 115.43 116.728C124.855 116.499 125.922 121.657 125.922 121.657Z" fill="white"/>
</mask>
<g mask="url(#mask4_123_525)">
<path d="M320.396 27.7642H-1.95947V272.432H320.396V27.7642Z" fill="black"/>
<mask id="mask5_123_525" style="mask-type:luminance" maskUnits="userSpaceOnUse" x="-2" y="27" width="323" height="246">
<path d="M320.396 27.7642H-1.95947V272.432H320.396V27.7642Z" fill="white"/>
</mask>
<g mask="url(#mask5_123_525)">
<path d="M163.719 104.943H47.3584V141.085H163.719V104.943Z" fill="black"/>
</g>
</g>
</svg>
