<svg width="200" height="200" viewBox="0 0 200 200" fill="none" xmlns="http://www.w3.org/2000/svg">
<path d="M142.777 124.568C135.253 125.761 131.641 119.494 134.049 114.121C136.156 109.644 137.059 104.869 137.059 99.7948C137.059 94.7209 136.156 89.9454 134.049 85.4684C132.243 80.9914 135.253 73.8282 142.777 75.0221C146.689 75.619 150 71.739 150 66.665C150 61.5911 146.99 56.5172 142.777 55.6218C138.563 54.4279 134.952 58.308 134.952 63.9788C134.952 73.8282 129.535 77.7083 125.02 74.1267C121.108 70.8436 116.593 68.7543 111.477 67.8589C106.059 66.9635 100.943 67.8589 96.1276 69.9482C95.5257 70.2466 95.2247 70.2466 94.6228 70.2466C89.5064 70.8436 81.3804 64.8742 81.3804 52.9356C81.3804 45.7724 75.0602 38.0123 66.9342 35.923C57.9053 33.8337 50.0803 38.6092 50.0803 46.9662C50.0803 55.3233 57.6043 63.0834 66.6332 64.2773C78.9727 66.0681 84.992 73.2313 83.7881 79.2006C83.7881 79.7975 83.4872 80.3945 82.8852 80.9914C79.5746 86.0653 77.4679 92.6316 77.4679 100.093C77.4679 106.958 79.2737 113.226 82.5843 118.3C82.8852 118.897 83.1862 119.494 83.1862 120.091C84.0891 125.463 78.9727 133.82 66.3323 135.611C57.6043 136.805 49.7793 144.565 49.7793 152.922C49.7793 161.279 57.3034 166.054 66.3323 163.667C74.4583 161.577 80.7785 154.116 80.7785 146.654C80.7785 135.014 88.0016 128.149 94.0209 129.343C94.3218 129.343 94.9238 129.641 95.2247 129.641C100.04 132.029 105.457 132.925 111.176 132.029C116.292 131.134 120.807 129.045 124.719 126.06C128.331 123.374 134.651 126.358 134.651 135.909C134.651 141.58 138.262 145.162 142.476 143.968C146.388 143.072 149.699 137.998 149.699 132.925C149.699 127.851 146.689 123.971 142.777 124.568ZM111.176 120.091C100.642 121.284 91.0112 112.33 91.0112 100.093C91.0112 87.8561 100.642 78.9021 111.176 80.096C120.807 81.2899 127.729 90.2439 127.729 100.093C127.729 109.943 120.807 118.897 111.176 120.091Z" fill="black"/>
</svg>
