<svg width="200" height="200" viewBox="0 0 200 200" fill="none" xmlns="http://www.w3.org/2000/svg">
<path d="M59.5921 114.547V113.106H53.0542V119.32H54.6887V116.979H58.4117V115.538H54.6887V114.547H59.5921Z" fill="black"/>
<path d="M75.4977 113.106H73.3032V119.41H75.4977V113.106Z" fill="black"/>
<path d="M88.5586 114.547H91.4643V119.32H93.0988V114.547H96.0954V113.106H88.5586V114.547Z" fill="black"/>
<path d="M115.346 116.708L110.17 113.016H109.625V119.32H111.26V115.628L116.436 119.5H116.981V113.106H115.346V116.708Z" fill="black"/>
<path d="M132.599 116.888H136.14V115.358H132.599V114.547H137.411V113.106H130.964V119.32H137.684V117.789H132.599V116.888Z" fill="black"/>
<path d="M155.572 115.358L153.847 115.268C152.667 115.178 152.667 114.998 152.667 114.907C152.667 114.547 153.302 114.367 154.483 114.367C155.936 114.367 156.662 114.637 157.207 114.907L157.479 115.088L158.206 113.737L157.933 113.557C157.025 113.106 156.026 112.836 154.483 112.836C152.303 112.836 151.032 113.557 151.032 114.907C151.032 116.528 152.939 116.709 153.665 116.709L155.391 116.799C156.662 116.889 156.662 117.069 156.662 117.249C156.662 117.699 155.936 117.879 154.664 117.879C153.121 117.879 152.303 117.519 151.759 117.159L151.486 116.979L150.578 118.239L150.851 118.419C151.759 119.05 152.939 119.32 154.574 119.32C156.934 119.32 158.206 118.51 158.206 117.159C158.387 115.538 156.48 115.448 155.572 115.358Z" fill="black"/>
<path d="M176.185 115.358L174.46 115.268C173.279 115.178 173.279 114.998 173.279 114.907C173.279 114.547 173.915 114.367 175.096 114.367C176.548 114.367 177.275 114.637 177.82 114.907L178.092 115.088L178.819 113.737L178.546 113.557C177.638 113.106 176.639 112.836 175.096 112.836C172.916 112.836 171.645 113.557 171.645 114.907C171.645 116.528 173.552 116.709 174.278 116.709L176.004 116.799C177.275 116.889 177.275 117.069 177.275 117.249C177.275 117.699 176.548 117.879 175.277 117.879C173.733 117.879 172.916 117.519 172.371 117.159L172.099 116.979L171.191 118.239L171.463 118.419C172.371 119.05 173.552 119.32 175.186 119.32C177.547 119.32 178.819 118.51 178.819 117.159C179 115.538 177.093 115.448 176.185 115.358Z" fill="black"/>
<path d="M49.6938 93.6551H52.9628V95.0059L53.1444 94.8258L53.326 94.5556C53.9617 93.7452 54.8697 93.385 55.9594 93.2949H56.3226V96.2666C56.141 96.1766 55.9594 96.1766 55.8686 96.1766C54.0525 95.9965 53.1444 96.987 53.1444 98.7881V105.542H49.6938V93.6551Z" fill="black"/>
<path d="M60.2278 98.248C60.7726 98.158 61.3175 98.158 61.8623 98.248C62.952 98.3381 63.6784 98.6082 64.314 99.0585V98.248C64.314 96.9873 63.4968 96.2669 61.5899 95.9967C60.8635 95.9067 59.683 95.9067 58.4117 96.0868C58.2301 96.0868 58.0485 96.1768 57.8669 96.1768V93.5653C58.5933 93.4753 59.1382 93.3852 59.8646 93.3852C65.4945 93.2051 67.6738 95.0062 67.6738 98.4281V105.452H64.314V104.371C64.2232 104.462 64.0416 104.552 63.9508 104.642C63.0428 105.272 62.0439 105.632 60.7727 105.542C57.8669 105.542 56.1416 103.741 56.2324 101.85C56.2324 100.139 57.6853 98.6082 60.2278 98.248ZM61.5899 103.651C61.8623 103.651 62.1347 103.651 62.4071 103.651C62.952 103.561 63.3152 103.471 63.5876 103.201C64.4048 102.661 64.4956 101.58 63.86 100.95C63.4968 100.679 63.0428 100.409 62.3163 100.319C60.5002 100.049 59.5014 100.859 59.4106 101.94C59.5922 102.841 60.2278 103.561 61.5899 103.651Z" fill="black"/>
<path d="M70.125 93.6554H73.3939V94.9161C73.4848 94.8261 73.5756 94.736 73.6664 94.646C74.5744 93.8355 75.5733 93.3853 76.7537 93.3853C79.6595 93.2952 81.4756 95.2763 81.4756 98.6983V105.542H78.025V99.1485C78.025 97.4376 77.3894 96.5371 76.2089 96.1769C74.4836 95.7266 73.4848 96.7172 73.4848 98.5182V105.542H70.0342V93.6554H70.125Z" fill="black"/>
<path d="M83.5649 98.518C83.8373 96.8971 84.7454 95.5463 86.0166 94.6458C88.3776 93.0249 91.3741 93.295 92.827 95.006V93.6552H96.0959V105.452C96.0959 108.784 93.8258 110.855 89.2856 110.945C88.5592 110.945 87.9235 110.855 87.1971 110.765V107.793C87.8327 107.973 88.4684 108.063 89.104 108.063C91.5557 107.973 92.6454 106.983 92.6454 105.272V104.371C91.3741 105.812 89.104 106.262 86.7431 105.272C84.927 104.461 83.7465 102.84 83.4741 100.769C83.4741 100.409 83.3833 100.049 83.3833 99.5986C83.4741 99.2384 83.4741 98.8782 83.5649 98.518ZM86.9247 100.049C87.1971 102.03 88.5592 103.201 90.4661 102.84C91.7373 102.66 92.6454 101.67 92.827 100.049C92.9178 99.6887 92.9178 99.3285 92.827 98.9683C92.5546 97.0772 91.4649 96.0866 89.9212 96.0866C88.2868 96.0866 87.1971 97.0772 87.0155 98.9683C87.0155 99.1484 86.9247 99.3285 86.9247 99.5086C86.9247 99.7787 86.9247 99.8688 86.9247 100.049Z" fill="black"/>
<path d="M110.987 93.6553H112.349V90.5936L114.075 89.8732V93.6553H117.253L116.89 94.916H113.984V101.22V101.58V102.3C113.984 103.741 114.892 104.461 116.708 104.371C116.89 104.371 116.98 104.371 117.162 104.281V105.632C116.98 105.632 116.89 105.722 116.708 105.722C113.257 105.992 112.168 104.822 112.168 101.31V95.0061H110.624L110.987 93.6553Z" fill="black"/>
<path d="M118.796 88.9728L120.521 88.6125V95.5465C120.703 95.2763 120.975 95.0062 121.248 94.736C121.883 94.1057 122.7 93.7455 123.609 93.4753C127.15 92.7549 129.692 95.0062 129.692 98.6082V105.542H127.967V99.2386C127.967 96.357 126.605 94.8261 124.244 94.9161C121.883 94.9161 120.43 96.447 120.43 98.9684V105.632H118.705V88.9728H118.796Z" fill="black"/>
<path d="M132.145 97.0771C132.962 95.096 134.687 93.7452 136.867 93.385C140.59 92.8447 143.768 95.4562 143.95 99.1483C143.95 99.4185 143.95 99.6886 143.95 99.8687H133.507C133.507 99.9588 133.507 100.049 133.507 100.139C133.598 101.67 134.415 102.93 135.868 103.651C137.684 104.551 139.863 104.191 141.498 102.66C141.589 102.57 141.679 102.48 141.77 102.39L143.041 103.291C142.678 103.741 142.224 104.101 141.77 104.461C140.136 105.632 138.229 105.902 136.322 105.362C132.781 104.371 131.055 101.4 131.782 98.0677C131.873 97.8876 132.054 97.5274 132.145 97.0771ZM142.315 98.6981V98.518V98.2478C142.315 98.0677 142.224 97.9777 142.224 97.7075C141.679 95.9965 140.136 94.8259 138.229 94.7358C136.231 94.7358 134.597 95.9065 133.961 97.7976C133.87 98.0677 133.779 98.4279 133.779 98.6981H142.315Z" fill="black"/>
<path d="M153.393 93.2952C156.662 93.7454 158.75 96.1768 158.75 99.5087C158.75 102.841 156.753 105.272 153.393 105.722C149.034 106.353 145.856 103.561 145.856 99.5087C145.856 95.4564 149.034 92.6648 153.393 93.2952ZM151.486 104.191C152.031 104.281 152.485 104.281 153.03 104.191C155.663 103.741 157.297 101.49 156.753 98.5181C156.571 97.5276 156.117 96.6271 155.39 95.9967C154.573 95.2763 153.484 94.826 152.212 94.826C150.941 94.826 149.851 95.2763 149.034 95.9967C148.126 96.8072 147.581 98.0679 147.581 99.5087C147.672 102.03 149.216 103.831 151.486 104.191Z" fill="black"/>
<path d="M161.111 93.6554H162.837V95.3664C162.927 95.2763 162.927 95.1863 163.018 95.0962C163.835 93.9256 164.925 93.3853 166.287 93.3853C166.469 93.3853 166.65 93.3853 166.741 93.3853V95.0062C166.56 95.0062 166.378 94.9161 166.196 94.9161C165.107 94.8261 164.199 95.2763 163.563 95.9067C163.018 96.537 162.837 97.1674 162.837 98.248V105.542H161.111V93.6554Z" fill="black"/>
<path d="M168.194 93.6553H169.919V100.139C169.919 102.66 170.736 103.831 172.734 104.191C173.279 104.281 173.824 104.281 174.369 104.191C176.366 103.831 177.274 102.66 177.274 100.499V93.6553H179V105.092C179 108.334 176.548 110.495 171.644 110.225C171.372 110.225 171.1 110.135 170.827 110.135V108.694C171.1 108.784 171.372 108.784 171.644 108.784C175.458 108.964 177.274 107.433 177.274 104.822V103.741C177.184 103.921 177.093 104.011 177.002 104.101C176.003 105.272 174.732 105.812 173.097 105.812C170.192 105.812 168.375 104.101 168.194 101.49C168.194 101.13 168.194 101.13 168.194 100.499V93.6553Z" fill="black"/>
<path d="M110.352 100.499C110.352 100.139 110.352 99.8689 110.352 99.5087C110.261 95.9967 107.809 93.5654 104.449 93.3853C103.632 93.3853 102.815 93.4753 101.998 93.7455C99.909 94.4659 98.4561 96.1768 98.0021 98.248C97.2757 101.4 99.001 104.732 102.633 105.722C105.085 106.443 107.355 105.722 109.171 103.921C109.262 103.831 109.353 103.741 109.443 103.561L106.81 101.85C106.719 101.94 106.719 101.94 106.629 102.03C106.175 102.57 105.72 102.841 105.176 103.021C104.268 103.291 103.45 103.201 102.815 102.841C101.907 102.3 101.362 101.4 101.453 100.679H110.352V100.499ZM104.54 95.7266C105.993 95.7266 107.173 96.7172 107.264 98.158V98.3381H101.453C101.543 98.158 101.543 97.9779 101.634 97.7978C102.088 96.537 103.269 95.7266 104.54 95.7266Z" fill="black"/>
<path d="M49.0586 106.893C46.7885 107.253 45.6988 105.362 46.4253 103.741C47.0609 102.39 47.3333 100.949 47.3333 99.4186C47.3333 97.8877 47.0609 96.4469 46.4253 95.0961C45.8805 93.7453 46.7885 91.5841 49.0586 91.9443C50.2391 92.1244 51.2379 90.9537 51.2379 89.4229C51.2379 87.892 50.3299 86.3611 49.0586 86.091C47.7874 85.7308 46.6977 86.9014 46.6977 88.6124C46.6977 91.5841 45.0632 92.7548 43.7011 91.6741C42.5207 90.6836 41.1586 90.0532 39.6149 89.7831C37.9805 89.5129 36.4368 89.7831 34.9839 90.4134C34.8023 90.5035 34.7115 90.5035 34.5299 90.5035C32.9862 90.6836 30.5345 88.8826 30.5345 85.2805C30.5345 83.1193 28.6276 80.7779 26.1759 80.1476C23.4517 79.5172 21.0908 80.958 21.0908 83.4795C21.0908 86.0009 23.3609 88.3423 26.0851 88.7025C29.808 89.2428 31.6241 91.404 31.2609 93.205C31.2609 93.3851 31.1701 93.5652 30.9885 93.7453C29.9897 95.2762 29.354 97.2573 29.354 99.5086C29.354 101.58 29.8989 103.471 30.8977 105.002C30.9885 105.182 31.0793 105.362 31.0793 105.542C31.3517 107.163 29.808 109.684 25.9943 110.225C23.3609 110.585 21 112.926 21 115.448C21 117.969 23.2701 119.41 25.9943 118.69C28.446 118.059 30.3529 115.808 30.3529 113.557C30.3529 110.045 32.5322 107.973 34.3483 108.334C34.4391 108.334 34.6207 108.424 34.7115 108.424C36.1644 109.144 37.7989 109.414 39.5241 109.144C41.0678 108.874 42.4299 108.244 43.6103 107.343C44.7 106.533 46.6069 107.433 46.6069 110.315C46.6069 112.026 47.6966 113.106 48.9678 112.746C50.1483 112.476 51.1471 110.945 51.1471 109.414C51.1471 107.883 50.2391 106.713 49.0586 106.893ZM39.5241 105.542C36.346 105.902 33.4402 103.201 33.4402 99.5086C33.4402 95.8165 36.346 93.115 39.5241 93.4752C42.4299 93.8354 44.5184 96.5369 44.5184 99.5086C44.5184 102.48 42.4299 105.182 39.5241 105.542Z" fill="black"/>
</svg>
