<svg width="200" height="200" viewBox="0 0 200 200" fill="none" xmlns="http://www.w3.org/2000/svg">
<path d="M64.5459 106.754L55.9521 111.723L46.0654 106.039L43.5977 107.469L55.9521 114.548L77.9043 101.785V113.017L55.9521 125.66L34 113.017V101.751L44.8906 95.3691L64.5459 106.754ZM110.509 87.5078C114.065 87.5078 116.941 88.7503 119.153 91.2178C121.365 93.6512 122.455 96.6633 122.455 100.254C122.455 103.844 121.348 106.857 119.153 109.29C116.941 111.757 113.98 112.999 110.271 112.999C106.544 112.999 103.685 111.536 101.677 108.609V122.393H97.9668V87.8994H101.677V91.8467C103.651 88.9539 106.595 87.5078 110.509 87.5078ZM154.362 87.4902C157.255 87.4902 159.757 88.2564 161.867 89.7539C163.875 91.2344 165.254 93.1916 166.02 95.625H162.021C161.459 94.2126 160.574 93.0548 159.349 92.1699C158.123 91.2852 156.728 90.8428 155.146 90.8428C153.563 90.8428 152.218 91.0983 151.129 91.5918C150.023 92.0852 149.105 92.7664 148.339 93.6172C146.722 95.387 145.922 97.5987 145.922 100.236C145.922 102.874 146.722 105.07 148.339 106.856C149.989 108.694 152.253 109.63 155.146 109.63C156.728 109.63 158.123 109.188 159.349 108.303C160.574 107.418 161.459 106.26 162.021 104.848H166.02C165.254 107.281 163.875 109.238 161.867 110.719C159.757 112.233 157.255 112.982 154.362 112.982C150.738 112.982 147.794 111.74 145.53 109.272C143.318 106.873 142.229 103.861 142.229 100.236C142.23 96.6117 143.335 93.5995 145.53 91.2002C147.794 88.7327 150.755 87.4903 154.362 87.4902ZM133.874 87.8994H139.388V91.1494H133.874V112.574H130.164V91.1494H124.616V87.8994H130.164V79.0674H133.874V87.8994ZM110.016 90.8604C107.344 90.8604 105.234 91.779 103.702 93.6338C102.222 95.3866 101.473 97.5822 101.473 100.254C101.473 102.925 102.222 105.12 103.702 106.873C105.251 108.711 107.361 109.647 110.016 109.647C112.653 109.647 114.78 108.728 116.431 106.873C117.979 105.137 118.745 102.925 118.745 100.254C118.745 97.5822 117.979 95.3866 116.431 93.6338C114.797 91.779 112.653 90.8604 110.016 90.8604ZM77.9043 87.6943V98.9258L67.0137 105.308L47.3418 93.9229L55.9521 88.9541L65.8389 94.6377L68.3066 93.208L55.9521 86.1289L34 98.8926V87.6943L55.9521 75L77.9043 87.6943Z" fill="black"/>
</svg>
