<svg width="200" height="200" viewBox="0 0 200 200" fill="none" xmlns="http://www.w3.org/2000/svg">
<path d="M49.7102 194.463C46.4714 193.533 37.3002 190.038 31.913 185.645C22.7418 178.847 17.8676 170.414 15.0136 160.281C13.4103 154.573 12.6727 148.673 12.4162 142.741C12.1276 135.334 11.7749 124.304 12.1917 122.636C13.0575 119.269 17.4507 117.345 22.2928 118.339C27.7122 119.494 40.6352 124.239 44.6756 128.536C47.2731 131.294 48.3633 135.174 47.5937 138.861L47.5617 138.957C46.2469 145.178 48.0106 151.848 52.7565 156.08C54.2637 157.427 56.0915 158.582 58.3362 159.351C66.0002 161.981 72.3495 159.255 76.3258 152.778C81.4886 144.344 79.2118 136.456 72.574 129.498C66.7698 123.406 59.1379 121.257 51.4097 118.949C29.8607 112.535 17.0018 96.631 18.7975 79.1873C20.7857 59.7556 35.5045 44.9734 57.4063 42.793C75.1714 41.0294 93.161 40.9332 111.054 40.7395C119.937 40.6446 122.374 46.0636 121.38 54.6893C118.462 80.1172 109.387 90.282 89.826 90.8592C82.643 91.0836 79.276 88.3581 76.2296 82.6504C74.0811 78.6422 70.0086 76.7824 65.2627 78.2254C61.9598 79.2194 59.5868 81.7205 59.3303 85.0874C58.9134 90.282 62.8576 92.4945 66.9622 94.0657C71.9326 95.9576 77.0634 97.4326 82.0658 99.2604C109.74 109.489 120.963 132.544 111.952 160.634C103.326 187.473 76.422 202.127 49.8705 194.463C49.8064 194.495 49.7743 194.463 49.7102 194.463Z" fill="#0044D2"/>
<path d="M163.388 34.6484C167.268 35.418 173.04 38.5283 177.016 38.4642C180.992 38.4 185.225 36.7326 187.021 33.2375C188.047 31.2174 188.175 28.8445 187.823 26.5999C186.925 20.7961 182.916 15.6015 177.529 13.2607C172.078 10.8878 165.825 11.4329 159.989 12.6835C152.677 14.2547 145.43 16.9161 139.562 21.5656C134.014 25.9586 127.216 32.1473 125.484 39.1055C137.349 36.0593 149.438 31.8907 163.388 34.6484Z" fill="#0044D2"/>
<path d="M132.507 16.435C133.886 15.0562 135.489 13.7736 136.547 12.1062C137.605 10.4388 138.119 8.22627 137.156 6.49473C136.611 5.5007 135.617 4.76319 134.623 4.31427C131.962 3.06372 128.691 3.28818 126.222 4.85939C123.72 6.46266 122.181 9.2203 121.091 11.9779C119.712 15.441 118.782 19.1927 119.071 22.9443C119.359 26.4715 120.033 31.0249 122.438 33.6863C122.406 27.3053 125.516 21.7579 132.507 16.435Z" fill="#0044D2"/>
<path d="M146.007 57.1262C147.29 58.6332 149.246 60.9419 150.818 62.1284C152.389 63.3148 154.601 63.9882 156.365 63.1224C157.391 62.6414 158.161 61.7436 158.706 60.7496C160.149 58.1843 160.149 54.8816 158.738 52.3163C157.327 49.719 154.666 48.0195 151.972 46.7049C148.573 45.1016 144.917 43.9152 141.197 43.9793C137.638 44.0434 133.084 44.3961 130.23 46.5766C137.093 47.6348 137.51 47.6348 146.007 57.1262Z" fill="#0044D2"/>
</svg>
