<svg width="200" height="200" viewBox="0 0 200 200" fill="none" xmlns="http://www.w3.org/2000/svg">
<path d="M71.6382 111.191C71.6876 113.835 69.8335 113.38 68.2208 113.457C66.5093 113.539 65.0446 113.446 65.2695 111.092C65.3299 110.445 65.3354 109.402 65.3299 108.661C65.3244 108.2 65.3518 107.74 65.3902 107.279C65.4506 106.56 65.3683 105.347 64.145 105.271C62.6639 105.183 62.5652 106.675 62.6091 107.427C62.631 107.794 62.6475 108.162 62.6365 108.535C62.62 109.27 62.6036 110.428 62.62 111.13C62.6804 114.499 60.1351 113.232 58.4785 113.424C56.7011 113.632 56.202 112.776 56.2239 110.966C56.3007 105.216 56.1142 99.4602 56.0868 93.7102C56.0703 90.5663 56.6408 90.1822 60.1296 90.1877C62.8395 90.1877 63.2783 91.7898 63.1576 93.9845C63.0808 95.3507 63.0973 96.7224 63.1192 98.094C63.1247 98.5439 63.2618 99.0377 63.8268 99.1145C64.5345 99.2078 64.8362 98.6921 64.8472 98.1324C64.8801 96.5797 64.8746 95.027 64.7868 93.4797C64.6497 91.1479 65.84 90.0725 68.0233 90.0176C70.0858 89.9683 71.7973 90.2865 71.6273 93.1176C71.4462 96.1188 71.5834 102.154 71.5834 102.154C71.5834 102.154 71.5834 108.179 71.6382 111.191Z" fill="black"/>
<path d="M129.516 90.1877C130.975 90.1877 132.44 90.1219 133.893 90.2042C136.625 90.3523 137.075 91.2082 135.72 93.6827C133.35 98.0007 130.953 102.302 128.539 106.593C127.865 107.789 127.212 109.66 128.819 110.324C130.278 110.927 134.239 113.956 134.239 113.956C134.239 113.956 135.923 115.317 138.485 114.433C139.417 114.115 140.021 114.675 140.388 115.322C140.838 116.107 140.964 117.034 140.832 117.928C140.723 118.664 140.448 119.519 139.779 119.871C136.894 121.385 134.135 120.973 131.567 119.07C129.949 117.868 127.058 115.827 125.775 114.916C125.215 114.521 124.634 114.159 124.019 113.852C123.893 113.791 123.778 113.731 123.674 113.687C119.603 111.986 119.538 111.964 121.315 107.986C122.582 105.155 124.014 102.401 125.418 99.6412C126.8 96.9199 126.663 96.5907 123.641 96.651C121.501 96.6949 120.064 96.0639 119.905 93.6937C119.779 91.8666 120.432 90.7254 122.407 90.484C124.771 90.1932 127.135 89.9902 129.516 90.1877Z" fill="black"/>
<path d="M82.0939 98.1873C82.209 98.3849 82.5108 98.3574 82.5875 98.1434C83.5256 95.5318 84.3703 93.0354 85.3303 90.5883C86.2848 88.1742 87.5904 85.9795 90.1027 84.8273C90.3715 84.7066 90.6897 84.6847 91.0078 84.7231C92.072 84.8438 92.9771 85.5625 93.4379 86.5282C93.8329 87.3621 94.0578 88.4101 93.2021 89.0904C91.2821 90.6048 90.772 92.6568 90.2015 94.7527C88.7643 100.036 87.3929 105.342 85.9831 110.631C85.4016 112.82 84.0632 113.748 81.7153 113.446C80.3604 113.27 79.5486 112.831 79.0988 111.514C76.9868 105.276 75.4289 98.8951 73.9204 92.4922C73.5968 91.1205 74.1398 90.5444 75.5222 90.2701C78.9726 89.5897 80.4098 90.5334 81.0626 93.9736C81.3259 95.3233 81.282 96.7718 82.0939 98.1873Z" fill="black"/>
<path d="M37.9897 103.016C38.1159 98.7799 39.0539 94.8624 42.5647 92.0367C46.5691 88.8106 51.8243 90.067 53.6729 94.6319C53.9417 95.3013 53.7277 96.0091 53.4096 96.5852C52.9159 97.4795 52.0821 98.1324 51.1331 98.511C50.0031 98.9609 48.3903 99.2352 47.2548 97.8636C46.5965 97.068 45.5543 97.8416 45.2306 98.8786C44.6766 100.651 44.545 102.461 44.9015 104.288C45.5049 107.405 46.1303 107.597 48.7908 105.83C49.4984 105.364 50.4364 105.369 51.3141 105.556C53.0969 105.929 54.2873 107.756 53.6454 109.462C53.6125 109.545 53.5796 109.622 53.5412 109.693C51.9888 112.639 49.3174 113.594 46.2071 113.473C43.1023 113.352 40.5076 112.283 39.1966 109.15C38.3792 107.185 37.9952 105.144 37.9897 103.016Z" fill="black"/>
<path d="M113.581 90.5443C117.108 90.6211 118.479 92.1629 117.338 95.5591C117.009 96.5413 116.258 96.8979 115.479 96.8375C113.268 96.6675 113.273 97.9897 113.301 99.5809C113.361 103.136 113.29 106.692 113.334 110.247C113.361 112.25 112.933 113.583 110.465 113.501C108.38 113.435 106.455 113.824 106.537 110.631C106.636 106.812 106.241 102.983 106.268 99.1639C106.279 97.5618 106.049 96.7278 104.244 96.9857C102.237 97.2765 101.666 96.1517 101.825 94.374C101.984 92.6457 100.865 90.7803 104.019 90.6376C105.928 90.5498 112.303 90.5169 113.581 90.5443Z" fill="black"/>
<path d="M99.8062 102.363C99.8062 105.095 99.6856 107.838 99.8392 110.56C99.9928 113.193 98.5885 113.484 96.4491 113.501C94.403 113.517 93.2071 113.243 93.2071 110.757C93.2017 104.848 93.5582 98.3903 93.3443 92.4867C93.273 90.4566 94.1562 90.1274 96.0706 90.2591C97.7766 90.3743 100.223 89.2989 100.251 92.5251C100.278 95.8006 99.7733 102.363 99.8062 102.363Z" fill="black"/>
<path d="M145.578 110.56C145.731 113.193 144.958 113.484 142.818 113.501C140.772 113.517 138.946 113.243 138.946 110.757C138.94 104.848 138.748 98.939 138.534 93.0353C138.463 91.0053 139.346 90.1274 141.261 90.2591C142.967 90.3743 145.413 89.2989 145.441 92.5251C145.468 95.8061 145.446 99.0817 145.446 102.363C145.479 102.363 145.424 107.838 145.578 110.56Z" fill="black"/>
<path d="M155.891 104.771C155.721 104.574 155.391 104.694 155.397 104.958C155.408 107.037 155.441 108.562 155.38 110.082C155.298 112.156 154.536 113.594 152.073 113.435C149.769 113.286 148.271 112.562 148.337 109.846C148.463 104.201 148.441 98.5493 148.463 92.9035C148.469 91.7348 148.578 90.632 150.005 90.418C151.985 90.1218 154.108 89.617 155.479 91.6964C156.401 93.09 157.147 94.5934 158.167 96.4643C158.299 96.7058 158.661 96.6344 158.694 96.3656C158.919 94.544 158.771 93.0681 159.198 91.6525C160.334 87.8448 162.709 85.3922 166.456 84.1248C168.069 83.5816 169.127 83.8999 169.703 85.513C170.241 87.0273 171.272 88.7775 169.045 89.7157C166.286 90.8789 165.693 93.0023 165.748 95.6743C165.841 100.316 165.94 104.969 165.808 109.605C165.71 113.023 164.355 113.934 161.031 113.336C159.286 113.023 158.129 112.151 158.266 110.241C158.392 108.228 157.564 106.686 155.891 104.771Z" fill="black"/>
<path d="M24.6109 113.089C24.0569 112.93 22.488 112.332 21.5665 111.58C19.9976 110.417 19.1638 108.974 18.6756 107.24C18.4013 106.264 18.2752 105.254 18.2313 104.239C18.1819 102.972 18.1216 101.084 18.1929 100.799C18.341 100.223 19.0925 99.8937 19.9208 100.064C20.8479 100.261 23.0585 101.073 23.7497 101.809C24.194 102.28 24.3805 102.944 24.2489 103.575L24.2434 103.592C24.0185 104.656 24.3202 105.797 25.1321 106.522C25.3899 106.752 25.7026 106.95 26.0865 107.081C27.3976 107.531 28.4837 107.065 29.1639 105.956C30.0471 104.513 29.6576 103.164 28.5221 101.973C27.5292 100.931 26.2237 100.563 24.9017 100.168C21.2154 99.0707 19.0157 96.3493 19.3229 93.3646C19.663 90.0397 22.1808 87.5103 25.9275 87.1372C28.9665 86.8355 32.0438 86.819 35.1048 86.7859C36.6243 86.7696 37.0412 87.6969 36.8711 89.1728C36.3719 93.5237 34.8195 95.263 31.4733 95.3617C30.2446 95.4001 29.6686 94.9338 29.1475 93.9571C28.7799 93.2713 28.0833 92.9531 27.2714 93.2C26.7064 93.3701 26.3005 93.798 26.2566 94.3741C26.1853 95.263 26.86 95.6416 27.5622 95.9104C28.4124 96.2341 29.2901 96.4865 30.1458 96.7992C34.8799 98.5495 36.7998 102.494 35.2584 107.301C33.7827 111.893 29.1804 114.4 24.6384 113.089C24.6329 113.095 24.6219 113.095 24.6109 113.089Z" fill="black"/>
<path d="M177.723 84.9477C178.376 85.1288 179.319 85.7323 180 85.7707C180.68 85.8091 181.42 85.5787 181.771 85.0081C181.974 84.6789 182.024 84.2729 181.991 83.8833C181.914 82.8793 181.294 81.941 180.406 81.4747C179.506 80.9973 178.431 81.0138 177.421 81.151C176.154 81.3265 174.882 81.6886 173.823 82.4019C172.819 83.0823 171.579 84.0479 171.195 85.2166C173.258 84.8599 175.375 84.3003 177.723 84.9477Z" fill="black"/>
<path d="M172.687 81.4418C172.94 81.2224 173.23 81.0248 173.433 80.7505C173.636 80.4817 173.751 80.1086 173.609 79.8013C173.532 79.6202 173.373 79.4886 173.203 79.3953C172.764 79.1484 172.205 79.1484 171.76 79.3788C171.316 79.6202 171.014 80.0756 170.795 80.5255C170.515 81.1016 170.312 81.7271 170.312 82.3691C170.317 82.9726 170.372 83.7627 170.745 84.2455C170.822 83.1701 171.426 82.2648 172.687 81.4418Z" fill="black"/>
<path d="M174.464 88.558C174.667 88.8323 174.969 89.2493 175.221 89.4743C175.474 89.6992 175.841 89.8364 176.154 89.7157C176.335 89.6498 176.478 89.5072 176.587 89.3371C176.867 88.9146 176.905 88.355 176.702 87.8996C176.494 87.4387 176.061 87.1095 175.622 86.8571C175.062 86.5389 174.453 86.292 173.817 86.2536C173.208 86.2152 172.429 86.2207 171.914 86.5609C173.071 86.8297 173.137 86.8297 174.464 88.558Z" fill="black"/>
</svg>
