<svg width="200" height="200" viewBox="0 0 200 200" fill="none" xmlns="http://www.w3.org/2000/svg">
<path d="M99.666 160.026C111.878 160.026 119.727 166.38 124.227 172.38C126.433 175.321 127.886 178.221 128.791 180.37C129.248 181.455 129.577 182.379 129.801 183.062C129.913 183.404 129.999 183.689 130.062 183.906C130.093 184.014 130.119 184.107 130.139 184.18C130.149 184.217 130.158 184.249 130.165 184.277C130.169 184.291 130.172 184.305 130.175 184.316C130.176 184.322 130.177 184.328 130.179 184.333C130.179 184.335 130.18 184.339 130.181 184.341C130.17 184.347 129.872 184.427 122.448 186.331L130.183 184.347C131.278 188.619 128.703 192.971 124.432 194.066C120.162 195.161 115.812 192.589 114.714 188.32V188.321C114.714 188.322 114.715 188.326 114.716 188.328C114.717 188.332 114.718 188.335 114.719 188.339C114.721 188.346 114.722 188.352 114.724 188.357L114.72 188.344C114.705 188.293 114.672 188.183 114.62 188.025C114.516 187.706 114.337 187.198 114.071 186.566C113.53 185.281 112.678 183.6 111.45 181.963C109.08 178.802 105.538 175.997 99.666 175.997C93.7943 175.997 90.252 178.802 87.8818 181.963C86.6536 183.6 85.8019 185.281 85.2607 186.566C84.9947 187.198 84.8152 187.706 84.7109 188.025C84.6592 188.183 84.6263 188.293 84.6113 188.344L84.6074 188.357C83.4939 192.603 79.158 195.158 74.9004 194.066C70.6285 192.971 68.0531 188.619 69.1484 184.347L76.8838 186.331C69.3391 184.396 69.154 184.345 69.1504 184.341C69.1507 184.339 69.1517 184.335 69.1523 184.333C69.1537 184.328 69.1548 184.322 69.1562 184.316C69.1593 184.305 69.1633 184.291 69.167 184.277C69.1743 184.249 69.1834 184.217 69.1934 184.18C69.2135 184.107 69.2392 184.014 69.2705 183.906C69.3332 183.689 69.4193 183.405 69.5312 183.062C69.7546 182.379 70.0833 181.455 70.54 180.37C71.4448 178.221 72.8981 175.321 75.1045 172.38C79.6041 166.38 87.4533 160.026 99.666 160.026ZM30.6094 134.039C38.0333 132.978 48.0763 134.035 56.7119 142.671C65.3477 151.306 66.4043 161.35 65.3438 168.774C64.8237 172.414 63.8018 175.492 62.9219 177.651C62.4776 178.741 62.0565 179.627 61.7314 180.268C61.5685 180.59 61.4283 180.852 61.3193 181.05C61.265 181.148 61.2177 181.231 61.1797 181.298C61.1609 181.33 61.1443 181.36 61.1299 181.385C61.1226 181.397 61.1155 181.41 61.1094 181.421C61.1065 181.425 61.1032 181.43 61.1006 181.434C61.0993 181.436 61.0975 181.44 61.0967 181.441C61.0908 181.442 60.9237 181.348 54.2207 177.381L61.0928 181.448C58.8465 185.243 53.9486 186.499 50.1533 184.253C46.3711 182.014 45.1114 177.142 47.3262 173.352L47.333 173.341C47.3589 173.294 47.4128 173.192 47.4883 173.044C47.64 172.745 47.8721 172.259 48.1309 171.624C48.6572 170.332 49.2437 168.542 49.5332 166.515C50.0919 162.605 49.5709 158.116 45.4189 153.964C41.267 149.812 36.7778 149.291 32.8672 149.849C30.8408 150.139 29.0504 150.725 27.7588 151.252C27.1237 151.511 26.638 151.744 26.3389 151.895C26.1903 151.971 26.0899 152.025 26.043 152.051L26.0312 152.056C26.0358 152.054 26.0417 152.05 26.0479 152.047C26.0508 152.045 26.0543 152.044 26.0576 152.042C26.0594 152.041 26.0624 152.038 26.0635 152.038L26.0645 152.037C22.2699 154.279 17.3752 153.023 15.1299 149.229C12.884 145.434 14.1403 140.536 17.9355 138.29L22.002 145.162C18.1057 138.579 17.9452 138.3 17.9414 138.287C17.9425 138.286 17.9459 138.284 17.9482 138.283C17.9529 138.28 17.9578 138.276 17.9629 138.273C17.9732 138.267 17.9847 138.26 17.9971 138.253C18.0219 138.238 18.052 138.222 18.085 138.203C18.1514 138.165 18.2344 138.118 18.333 138.063C18.5306 137.954 18.7931 137.814 19.1143 137.651C19.7551 137.326 20.6421 136.906 21.7324 136.462C23.8919 135.582 26.9693 134.559 30.6094 134.039ZM142.62 142.671C151.256 134.036 161.298 132.978 168.722 134.039C172.362 134.559 175.44 135.582 177.6 136.462C178.69 136.906 179.576 137.326 180.217 137.651C180.538 137.814 180.8 137.954 180.998 138.063C181.097 138.118 181.181 138.165 181.247 138.203C181.28 138.222 181.309 138.238 181.334 138.253C181.346 138.26 181.358 138.267 181.368 138.273C181.373 138.276 181.378 138.28 181.383 138.283C181.385 138.284 181.388 138.286 181.39 138.287C181.385 138.302 181.216 138.594 177.329 145.162L181.396 138.29C185.192 140.536 186.448 145.434 184.202 149.229C181.957 153.023 177.061 154.279 173.267 152.037L173.268 152.038C173.268 152.038 173.273 152.041 173.274 152.042C173.277 152.044 173.28 152.045 173.283 152.047C173.289 152.05 173.295 152.054 173.3 152.056L173.288 152.051C173.241 152.025 173.141 151.971 172.992 151.895C172.693 151.744 172.207 151.511 171.572 151.252C170.281 150.725 168.49 150.139 166.464 149.849C162.553 149.291 158.065 149.812 153.913 153.964C149.761 158.116 149.24 162.605 149.799 166.515C150.088 168.542 150.674 170.332 151.2 171.624C151.459 172.259 151.691 172.745 151.843 173.044C151.918 173.192 151.973 173.294 151.999 173.341L152.005 173.352C154.22 177.142 152.96 182.014 149.178 184.253C145.382 186.499 140.485 185.243 138.238 181.448L145.11 177.381C138.537 181.271 138.25 181.437 138.235 181.441C138.235 181.44 138.232 181.437 138.23 181.434C138.228 181.43 138.225 181.425 138.222 181.421C138.216 181.41 138.209 181.397 138.202 181.385C138.188 181.36 138.171 181.331 138.152 181.298C138.114 181.231 138.067 181.148 138.013 181.05C137.904 180.852 137.764 180.59 137.601 180.268C137.276 179.627 136.854 178.741 136.41 177.651C135.53 175.492 134.507 172.414 133.987 168.774C132.927 161.35 133.984 151.306 142.62 142.671ZM114.714 108.715C115.812 104.446 120.162 101.874 124.432 102.969C128.703 104.064 131.278 108.415 130.183 112.687L122.448 110.704C129.838 112.599 130.167 112.687 130.181 112.694C130.18 112.695 130.179 112.699 130.179 112.702C130.177 112.707 130.176 112.713 130.175 112.719C130.172 112.73 130.169 112.744 130.165 112.758C130.158 112.785 130.149 112.818 130.139 112.854C130.119 112.928 130.093 113.02 130.062 113.129C129.999 113.345 129.913 113.63 129.801 113.972C129.577 114.655 129.248 115.58 128.791 116.665C127.886 118.814 126.433 121.713 124.227 124.655C119.727 130.654 111.879 137.008 99.666 137.009C87.4532 137.008 79.6041 130.654 75.1045 124.655C72.8982 121.713 71.4447 118.814 70.54 116.665C70.0833 115.58 69.7545 114.655 69.5312 113.972C69.4194 113.63 69.3332 113.345 69.2705 113.129C69.2392 113.02 69.2135 112.928 69.1934 112.854C69.1834 112.818 69.1743 112.785 69.167 112.758C69.1633 112.744 69.1593 112.73 69.1562 112.719C69.1548 112.713 69.1537 112.707 69.1523 112.702C69.1517 112.699 69.1507 112.695 69.1504 112.694C69.1547 112.689 69.3522 112.635 76.8838 110.704L69.1484 112.687C68.0532 108.415 70.6285 104.064 74.9004 102.969C79.158 101.877 83.4938 104.431 84.6074 108.677L84.6113 108.69C84.6262 108.742 84.6592 108.851 84.7109 109.01C84.8152 109.328 84.9947 109.836 85.2607 110.469C85.8019 111.754 86.6537 113.434 87.8818 115.072C90.252 118.232 93.7943 121.038 99.666 121.038C105.538 121.038 109.08 118.232 111.45 115.072C112.678 113.434 113.53 111.754 114.071 110.469C114.337 109.836 114.516 109.328 114.62 109.01C114.672 108.851 114.705 108.742 114.72 108.69L114.719 108.696C114.718 108.699 114.717 108.703 114.716 108.707C114.715 108.709 114.714 108.712 114.714 108.714V108.715ZM5.26465 74.9001C6.36017 70.6284 10.7116 68.053 14.9834 69.1482L13 76.8835C14.9345 69.339 14.9855 69.1538 14.9902 69.1501C14.9915 69.1505 14.9954 69.1514 14.998 69.1521C15.0031 69.1534 15.009 69.1546 15.0146 69.156C15.0262 69.159 15.0398 69.1631 15.0537 69.1667C15.0814 69.1741 15.1138 69.1832 15.1504 69.1931C15.2242 69.2132 15.3165 69.2389 15.4248 69.2703C15.6415 69.333 15.9263 69.4191 16.2686 69.531C16.9515 69.7543 17.8759 70.0831 18.9609 70.5398C21.1101 71.4445 24.0094 72.898 26.9512 75.1042C32.9506 79.6038 39.3045 87.4532 39.3047 99.6658C39.3046 111.878 32.9505 119.727 26.9512 124.226C24.0094 126.433 21.1102 127.886 18.9609 128.791C17.8757 129.248 16.9516 129.577 16.2686 129.801C15.9262 129.912 15.6416 129.999 15.4248 130.061C15.3165 130.093 15.2243 130.118 15.1504 130.138C15.1137 130.148 15.0815 130.157 15.0537 130.165C15.0398 130.168 15.0263 130.172 15.0146 130.175C15.0089 130.176 15.0032 130.177 14.998 130.178C14.9954 130.179 14.9915 130.18 14.9902 130.18C14.9823 130.164 14.8862 129.804 13 122.448L14.9834 130.182C10.7115 131.278 6.36022 128.703 5.26465 124.431C4.17006 120.161 6.74238 115.811 11.0107 114.714H11.0098C11.0087 114.714 11.005 114.715 11.0029 114.716C10.9991 114.717 10.9955 114.718 10.9922 114.719C10.9852 114.72 10.9787 114.722 10.9736 114.723L10.9863 114.719C11.0379 114.705 11.1471 114.672 11.3057 114.62C11.6245 114.516 12.1324 114.337 12.7646 114.071C14.0502 113.53 15.7305 112.678 17.3682 111.45C20.5284 109.08 23.3339 105.537 23.334 99.6658C23.3338 93.7942 20.5284 90.2518 17.3682 87.8816C15.7306 86.6535 14.0502 85.8017 12.7646 85.2605C12.1326 84.9944 11.6244 84.8149 11.3057 84.7107C11.1473 84.6589 11.0378 84.626 10.9863 84.6111L10.9736 84.6072C6.72756 83.4935 4.17298 79.1577 5.26465 74.9001ZM184.348 69.1482C188.62 68.0529 192.971 70.6284 194.066 74.9001C195.158 79.1578 192.604 83.4937 188.357 84.6072L188.345 84.6111C188.293 84.626 188.184 84.6589 188.025 84.7107C187.707 84.8149 187.199 84.9944 186.566 85.2605C185.281 85.8017 183.601 86.6534 181.963 87.8816C178.803 90.2518 175.997 93.7942 175.997 99.6658C175.997 105.537 178.803 109.08 181.963 111.45C183.6 112.678 185.281 113.53 186.566 114.071C187.198 114.337 187.707 114.516 188.025 114.62C188.184 114.672 188.293 114.705 188.345 114.719L188.357 114.723C188.352 114.722 188.346 114.72 188.339 114.719C188.336 114.718 188.332 114.717 188.328 114.716C188.326 114.715 188.322 114.714 188.321 114.714H188.32C192.589 115.811 195.161 120.161 194.066 124.431C192.971 128.703 188.62 131.278 184.348 130.182L186.331 122.448C184.439 129.827 184.348 130.166 184.341 130.18C184.339 130.18 184.335 130.179 184.333 130.178C184.328 130.177 184.322 130.176 184.316 130.175C184.305 130.172 184.291 130.168 184.277 130.165C184.25 130.157 184.217 130.148 184.181 130.138C184.107 130.118 184.014 130.093 183.906 130.061C183.689 129.999 183.405 129.912 183.062 129.801C182.379 129.577 181.455 129.248 180.37 128.791C178.221 127.886 175.322 126.433 172.38 124.226C166.381 119.727 160.026 111.878 160.026 99.6658C160.027 87.4532 166.38 79.6038 172.38 75.1042C175.322 72.8979 178.221 71.4445 180.37 70.5398C181.455 70.083 182.379 69.7543 183.062 69.531C183.405 69.4191 183.689 69.333 183.906 69.2703C184.015 69.2389 184.107 69.2132 184.181 69.1931C184.217 69.1831 184.25 69.1741 184.277 69.1667C184.291 69.1631 184.305 69.159 184.316 69.156C184.322 69.1545 184.328 69.1534 184.333 69.1521C184.336 69.1514 184.339 69.1505 184.341 69.1501C184.346 69.1538 184.397 69.3391 186.331 76.8835L184.348 69.1482ZM79.7012 62.322C84.63 62.3222 88.6259 66.3179 88.626 71.2468V86.7478C88.626 91.6768 84.6301 95.6724 79.7012 95.6726C74.7721 95.6726 70.7764 91.6769 70.7764 86.7478C70.7764 80.1717 70.7764 73.5955 70.7764 71.2468C70.7765 66.3178 74.7722 62.322 79.7012 62.322ZM121.037 62.322C125.966 62.322 129.962 66.3178 129.962 71.2468V86.7478C129.962 91.6769 125.966 95.6726 121.037 95.6726C116.108 95.6725 112.112 91.6768 112.112 86.7478C112.112 80.1717 112.112 73.5955 112.112 71.2468C112.112 66.3179 116.108 62.3221 121.037 62.322ZM50.1533 15.0779C53.9485 12.8317 58.8464 14.0875 61.0928 17.8826L54.2207 21.95C60.9237 17.9828 61.0908 17.8887 61.0967 17.8894C61.0975 17.8907 61.0993 17.8941 61.1006 17.8962C61.1033 17.9008 61.1064 17.9058 61.1094 17.9109C61.1155 17.9213 61.1226 17.9336 61.1299 17.946C61.1443 17.9708 61.1609 18.0001 61.1797 18.033C61.2177 18.0994 61.2649 18.1823 61.3193 18.281C61.4283 18.4786 61.5685 18.741 61.7314 19.0623C62.0565 19.7031 62.4776 20.5891 62.9219 21.6794C63.8019 23.8389 64.8237 26.917 65.3438 30.5574C66.4042 37.9813 65.3475 48.0243 56.7119 56.6599C48.0763 65.2954 38.0333 66.3522 30.6094 65.2917C26.9693 64.7717 23.8919 63.7489 21.7324 62.8689C20.6421 62.4246 19.7551 62.0045 19.1143 61.6794C18.793 61.5165 18.5306 61.3763 18.333 61.2673C18.2344 61.213 18.1514 61.1657 18.085 61.1277C18.052 61.1088 18.0219 61.0923 17.9971 61.0779L17.9482 61.0486C17.9459 61.0472 17.9426 61.0444 17.9414 61.0437C17.9462 61.0286 18.1178 60.7316 22.002 54.1687L17.9355 61.0408C14.1404 58.7947 12.8842 53.8976 15.1299 50.1023C17.3749 46.309 22.269 45.0515 26.0635 47.2927C26.0624 47.2921 26.0594 47.2898 26.0576 47.2888C26.0543 47.2869 26.0508 47.2857 26.0479 47.2839C26.0416 47.2803 26.0358 47.2768 26.0312 47.2742L26.043 47.28C26.0899 47.3059 26.1903 47.3599 26.3389 47.4353C26.638 47.587 27.1237 47.82 27.7588 48.0789C29.0504 48.6052 30.8408 49.1917 32.8672 49.4812C36.7778 50.0399 41.267 49.5188 45.4189 45.3669C49.5707 41.2152 50.0917 36.7267 49.5332 32.8162C49.2437 30.7896 48.6572 28.9985 48.1309 27.7068C47.8721 27.0719 47.64 26.586 47.4883 26.2869C47.4128 26.1382 47.3589 26.037 47.333 25.99L47.3262 25.9783C45.1115 22.1885 46.3711 17.3165 50.1533 15.0779ZM138.238 17.8826C140.485 14.0874 145.382 12.8318 149.178 15.0779C152.96 17.3165 154.22 22.1884 152.005 25.9783L151.999 25.99C151.973 26.037 151.918 26.1382 151.843 26.2869C151.691 26.586 151.459 27.0719 151.2 27.7068C150.674 28.9985 150.088 30.7896 149.799 32.8162C149.24 36.7267 149.761 41.2151 153.913 45.3669C158.065 49.5186 162.553 50.0398 166.464 49.4812C168.49 49.1917 170.281 48.6052 171.572 48.0789C172.207 47.82 172.693 47.587 172.992 47.4353C173.141 47.36 173.241 47.306 173.288 47.28L173.3 47.2742C173.295 47.2768 173.289 47.2804 173.283 47.2839L173.626 47.0935C177.365 45.1325 182.027 46.4272 184.202 50.1023C186.448 53.8974 185.191 58.7947 181.396 61.0408L177.329 54.1687C181.205 60.7171 181.384 61.0274 181.39 61.0437C181.388 61.0444 181.385 61.0472 181.383 61.0486L181.334 61.0779C181.309 61.0923 181.28 61.1088 181.247 61.1277C181.181 61.1657 181.097 61.2129 180.998 61.2673C180.8 61.3763 180.538 61.5166 180.217 61.6794C179.576 62.0045 178.69 62.4247 177.6 62.8689C175.44 63.7489 172.362 64.7717 168.722 65.2917C161.298 66.3522 151.256 65.2951 142.62 56.6599C133.984 48.0243 132.927 37.9813 133.987 30.5574C134.507 26.917 135.53 23.8389 136.41 21.6794C136.854 20.5892 137.276 19.7031 137.601 19.0623C137.763 18.7411 137.904 18.4786 138.013 18.281C138.067 18.1823 138.114 18.0994 138.152 18.033C138.171 18 138.188 17.9709 138.202 17.946C138.209 17.9337 138.216 17.9212 138.222 17.9109C138.225 17.9059 138.228 17.9007 138.23 17.8962C138.232 17.8939 138.235 17.8905 138.235 17.8894C138.249 17.8933 138.53 18.0553 145.11 21.95L138.238 17.8826ZM114.714 11.0105C115.812 6.7421 120.162 4.16966 124.432 5.2644C128.703 6.35997 131.278 10.7113 130.183 14.9832L122.448 12.9998C129.838 14.8945 130.167 14.9827 130.181 14.99C130.18 14.9913 130.179 14.9952 130.179 14.9978C130.177 15.0029 130.176 15.0087 130.175 15.0144C130.172 15.026 130.169 15.0395 130.165 15.0535C130.158 15.0812 130.149 15.1135 130.139 15.1501C130.119 15.224 130.093 15.3162 130.062 15.4246C129.999 15.6413 129.913 15.926 129.801 16.2683C129.577 16.9513 129.248 17.8755 128.791 18.9607C127.886 21.1099 126.433 24.0091 124.227 26.9509C119.727 32.9503 111.879 39.3044 99.666 39.3044C87.4532 39.3044 79.6041 32.9504 75.1045 26.9509C72.8982 24.0091 71.4447 21.1099 70.54 18.9607C70.0833 17.8756 69.7545 16.9513 69.5312 16.2683C69.4194 15.9261 69.3332 15.6413 69.2705 15.4246C69.2392 15.3162 69.2135 15.224 69.1934 15.1501C69.1834 15.1136 69.1743 15.0812 69.167 15.0535C69.1633 15.0396 69.1593 15.026 69.1562 15.0144C69.1548 15.0088 69.1537 15.0029 69.1523 14.9978C69.1517 14.9952 69.1507 14.9912 69.1504 14.99C69.1547 14.9851 69.3521 14.931 76.8838 12.9998L69.1484 14.9832C68.0532 10.7112 70.6285 6.35983 74.9004 5.2644C79.158 4.17273 83.4938 6.72729 84.6074 10.9734L84.6113 10.9861C84.6262 11.0376 84.6592 11.1471 84.7109 11.3054C84.8152 11.6242 84.9947 12.1323 85.2607 12.7644C85.8019 14.0499 86.6537 15.7303 87.8818 17.3679C90.252 20.5282 93.7943 23.3337 99.666 23.3337C105.538 23.3337 109.08 20.5282 111.45 17.3679C112.678 15.7302 113.53 14.0499 114.071 12.7644C114.337 12.1322 114.516 11.6242 114.62 11.3054C114.672 11.1469 114.705 11.0376 114.72 10.9861L114.719 10.9919C114.718 10.9953 114.717 10.9989 114.716 11.0027C114.715 11.0047 114.714 11.0083 114.714 11.0095V11.0105Z" fill="url(#paint0_linear_143_1305)"/>
<defs>
<linearGradient id="paint0_linear_143_1305" x1="1.5" y1="2.5" x2="201" y2="200" gradientUnits="userSpaceOnUse">
<stop/>
<stop offset="1" stop-color="#666666"/>
</linearGradient>
</defs>
</svg>
