<svg width="200" height="200" viewBox="0 0 200 200" fill="none" xmlns="http://www.w3.org/2000/svg">
<path fill-rule="evenodd" clip-rule="evenodd" d="M132.99 105.707L129.756 116.689L117.753 128.501L102.281 133.748L88.5459 132.328L75.1266 122.275L68.4142 111.013L66.7701 103.008L77.9901 93.5821L81.9097 96.2747L86.5751 96.0417L101.807 85.5768L114.47 94.3154V94.323L115.716 94.2528L116.74 93.5641L123.605 88.9352L133.355 98.7566L132.99 105.707ZM123.795 87.0118L116.386 92.0055L115.052 92.906L101.807 83.7705L85.9763 94.5805L82.3398 94.7623L77.8975 91.7127L65.137 102.438L67.0097 111.56L74.0051 123.309L88.818 133.783L102.45 134.777L118.362 129.871L118.536 129.817L131.079 117.48L134.471 105.959L134.874 98.1751L123.795 87.0118Z" fill="black"/>
<path fill-rule="evenodd" clip-rule="evenodd" d="M134.171 104.124L129.609 100.567L133.257 108.266L134.171 104.124Z" fill="black"/>
<path fill-rule="evenodd" clip-rule="evenodd" d="M130.225 107.701L125.701 101.08L126.098 104.974L123.719 103.954L124.34 108.303L130.268 108.134L130.225 107.701Z" fill="black"/>
<path fill-rule="evenodd" clip-rule="evenodd" d="M122.326 110.15L121.046 101.255L123.806 91.8616L107.349 102.654L105.781 101.376L88.9216 114.062L97.5067 111.029L97.6374 115.489L112.02 114L118.645 105.904L122.326 110.15Z" fill="black"/>
<path fill-rule="evenodd" clip-rule="evenodd" d="M110.85 94.9005L112.477 94.3899L101.834 87.4048L98.1326 89.976L97.7297 94.0148L95.4759 93.2913L93.3746 97.3879L86.3247 103.676L88.965 102.878L101.813 96.2169L106.538 98.2224L106.402 96.5027L107.311 95.8282L107.061 94.0153L108.77 94.7122L110.153 94.6414L110.85 94.9005Z" fill="black"/>
<path fill-rule="evenodd" clip-rule="evenodd" d="M86.9077 107.336L80.2117 103.949L80.5819 107.576L86.9077 107.336Z" fill="black"/>
<path fill-rule="evenodd" clip-rule="evenodd" d="M77.9573 95.061L67.7173 103.822L74.544 104.303L75.709 101.887L77.9845 102.371L76.7596 98.8941L77.9573 95.061Z" fill="black"/>
<path fill-rule="evenodd" clip-rule="evenodd" d="M71.2126 113.147L84.0712 119.098L95.547 120.785L99.3196 123.566L86.2433 126.147L82.4816 120.985L71.2126 113.147Z" fill="black"/>
<path fill-rule="evenodd" clip-rule="evenodd" d="M99.9946 67.3381C81.986 67.3381 67.3364 81.9904 67.3364 100.001C67.3364 118.01 81.986 132.662 99.9946 132.662C118.009 132.662 132.658 118.01 132.658 100.001C132.658 81.9904 118.009 67.3381 99.9946 67.3381ZM99.9946 135.64C80.3474 135.64 64.3586 119.653 64.3586 100.001C64.3586 80.348 80.3474 64.3597 99.9946 64.3597C119.647 64.3597 135.636 80.348 135.636 100.001C135.636 119.653 119.647 135.64 99.9946 135.64ZM99.9946 47.9789C71.3105 47.9789 47.9778 71.3154 47.9778 100.001C47.9778 128.685 71.3105 152.021 99.9946 152.021C128.684 152.021 152.017 128.685 152.017 100.001C152.017 71.3154 128.684 47.9789 99.9946 47.9789ZM99.9946 155C69.6719 155 45 130.327 45 100.001C45 69.6735 69.6719 45 99.9946 45C130.323 45 155 69.6735 155 100.001C155 130.327 130.323 155 99.9946 155Z" fill="black"/>
<path fill-rule="evenodd" clip-rule="evenodd" d="M58.5229 116.466C56.4433 111.226 55.3872 105.687 55.3872 100C55.3872 91.9499 57.5539 84.0595 61.6532 77.1838L62.9325 77.946C58.9693 84.5925 56.8734 92.2183 56.8734 100C56.8734 105.497 57.8969 110.852 59.9057 115.916L58.5229 116.466Z" fill="black"/>
<path fill-rule="evenodd" clip-rule="evenodd" d="M141.749 115.754L140.356 115.228C142.19 110.367 143.121 105.244 143.121 100C143.121 92.2189 141.025 84.5925 137.062 77.946L138.342 77.1838C142.441 84.0601 144.613 91.9505 144.613 100C144.613 105.424 143.649 110.724 141.749 115.754Z" fill="black"/>
<path fill-rule="evenodd" clip-rule="evenodd" d="M117.268 113.147L113.669 117.416L114.557 119.799L116.789 119.353L117.268 113.147Z" fill="black"/>
<path fill-rule="evenodd" clip-rule="evenodd" d="M82.3398 93.2731L85.9764 93.0913L101.807 82.2818L111.59 89.0306C110.806 79.5337 102.831 72.0439 93.1351 72.0439C82.9169 72.0439 74.604 80.3579 74.604 90.5762C74.604 91.3541 74.653 92.1201 74.7455 92.873L77.8976 90.2239L82.3398 93.2731Z" fill="black"/>
<path fill-rule="evenodd" clip-rule="evenodd" d="M71.3159 70.9693V68.9333C72.3829 68.9066 73.3193 68.5778 74.0706 67.9484C74.5551 67.5445 74.6748 67.1596 74.4407 66.882L74.4244 66.8635C74.2012 66.594 73.8637 66.6245 72.813 67.1591C71.1635 68.0013 69.7753 68.5054 68.6539 67.1711L68.6375 67.1525C67.6304 65.9467 67.8536 64.2754 69.4106 62.9694C70.5157 62.0451 71.6262 61.6188 72.8021 61.5938L72.9709 63.6178C72.0236 63.6978 71.1907 64.0196 70.6137 64.5014C70.1782 64.8666 70.1237 65.2308 70.3143 65.4622L70.3306 65.4813C70.581 65.7774 70.9131 65.7208 71.9801 65.171C73.7439 64.2444 75.0777 63.9493 76.0957 65.1639L76.112 65.1824C77.2226 66.508 76.8361 68.1744 75.2573 69.4951C74.1087 70.4586 72.715 71.0145 71.3159 70.9693Z" fill="black"/>
<path fill-rule="evenodd" clip-rule="evenodd" d="M82.7647 59.6921L82.7538 59.6709C82.204 58.5794 80.9355 58.0257 79.7814 58.6082C78.6327 59.1848 78.3333 60.5 78.8832 61.5915L78.894 61.6127C79.4439 62.7037 80.7123 63.2574 81.861 62.6803C83.0151 62.0983 83.3145 60.7836 82.7647 59.6921ZM76.76 62.7168L76.7437 62.6955C75.6549 60.524 76.515 57.882 78.8505 56.7067C81.1805 55.5313 83.7881 56.4002 84.8824 58.5712L84.8933 58.5935C85.9875 60.7646 85.1219 63.4065 82.7865 64.5819C80.4565 65.7572 77.8488 64.8884 76.76 62.7168Z" fill="black"/>
<path fill-rule="evenodd" clip-rule="evenodd" d="M87.2503 58.3782L86.2214 53.7373L88.546 53.2195L89.5694 57.8137C89.8308 59.0064 90.5602 59.4387 91.4803 59.234C92.4057 59.0298 92.8848 58.3526 92.6289 57.1952L91.5946 52.5429L93.9191 52.0251L94.9372 56.6073C95.5305 59.2754 94.2676 60.7839 91.9212 61.306C89.5694 61.8286 87.8274 60.9641 87.2503 58.3782Z" fill="black"/>
<path fill-rule="evenodd" clip-rule="evenodd" d="M101.355 55.8025C102.156 55.8155 102.624 55.4355 102.629 54.8187V54.7948C102.64 54.1295 102.166 53.7828 101.377 53.7702L99.8419 53.7458L99.8092 55.7774L101.355 55.8025ZM97.5282 51.6765L101.529 51.7402C102.825 51.7609 103.712 52.1142 104.273 52.7038C104.763 53.1954 105.008 53.8525 104.992 54.687V54.7115C104.97 56.0055 104.268 56.8531 103.206 57.2838L105.182 60.267L102.471 60.224L100.805 57.6327L100.784 57.6322L99.782 57.6158L99.7384 60.1799L97.3921 60.1429L97.5282 51.6765Z" fill="black"/>
<path fill-rule="evenodd" clip-rule="evenodd" d="M107.083 56.2872L107.088 56.2638C107.671 53.8652 109.968 52.4291 112.461 53.0307C114.143 53.4368 115.053 54.4031 115.537 55.5909L113.501 56.5044C113.174 55.8033 112.723 55.2964 111.933 55.1064C110.784 54.8283 109.739 55.6084 109.445 56.8077L109.44 56.8311C109.146 58.0652 109.723 59.2253 110.877 59.5035C111.732 59.7109 112.336 59.4327 112.973 58.9526L114.394 60.5896C113.359 61.4726 112.124 62.0077 110.3 61.5678C107.948 61.0006 106.489 58.7441 107.083 56.2872Z" fill="black"/>
<path fill-rule="evenodd" clip-rule="evenodd" d="M118.923 55.2256L125.031 58.2361L124.149 60.026L120.126 58.0417L119.56 59.1926L123.202 60.9891L122.386 62.6489L118.738 60.8524L118.145 62.0566L122.228 64.0676L121.346 65.8576L115.183 62.8199L118.923 55.2256Z" fill="black"/>
<path fill-rule="evenodd" clip-rule="evenodd" d="M126.485 67.0979C127.574 67.9826 128.782 67.9695 129.648 66.9085L129.664 66.8894C130.519 65.8377 130.29 64.64 129.201 63.7554L128.456 63.1522L125.745 66.4958L126.485 67.0979ZM127.949 60.0579L130.481 62.1168C132.833 64.0238 133.094 66.4822 131.553 68.3794L131.537 68.398C129.996 70.2946 127.476 70.5821 125.108 68.6598L122.609 66.6309L127.949 60.0579Z" fill="black"/>
<path fill-rule="evenodd" clip-rule="evenodd" d="M63.2586 124.892L64.7775 122.799L62.2352 123.293L63.2586 124.892ZM66.525 120.361L67.7444 122.266L62.5019 129.903L61.1464 127.783L62.0882 126.448L60.3243 123.697L58.7238 124.004L57.3955 121.925L66.525 120.361Z" fill="black"/>
<path fill-rule="evenodd" clip-rule="evenodd" d="M68.3762 132.985C69.3942 133.951 70.6027 134.032 71.5445 133.041L71.5609 133.023C72.4972 132.041 72.3611 130.83 71.3431 129.863L70.6517 129.204L67.6848 132.326L68.3762 132.985ZM70.385 126.08L72.7531 128.33C74.9415 130.414 75.0177 132.884 73.3301 134.656L73.3138 134.673C71.6316 136.444 69.0948 136.534 66.8845 134.434L64.5491 132.217L70.385 126.08Z" fill="black"/>
<path fill-rule="evenodd" clip-rule="evenodd" d="M76.4167 131.828L78.676 133.169L77.5926 138.759L81.9804 135.134L84.1961 136.45L76.8849 142.028L75.0122 140.916L76.4167 131.828Z" fill="black"/>
<path fill-rule="evenodd" clip-rule="evenodd" d="M85.269 136.784L91.7528 138.87L91.143 140.771L86.8696 139.396L86.4776 140.616L90.3482 141.861L89.7821 143.624L85.9114 142.379L85.4977 143.657L89.8311 145.051L89.2159 146.952L82.6777 144.846L85.269 136.784Z" fill="black"/>
<path fill-rule="evenodd" clip-rule="evenodd" d="M93.2389 139.221L95.4219 139.404L98.5195 144.153L98.8951 139.693L101.209 139.886L100.507 148.323L98.4542 148.153L95.2368 143.223L94.8503 147.851L92.5366 147.659L93.2389 139.221Z" fill="black"/>
<path fill-rule="evenodd" clip-rule="evenodd" d="M105.335 141.497L102.82 141.853L102.531 139.816L109.886 138.776L110.175 140.812L107.66 141.168L108.552 147.518L106.233 147.846L105.335 141.497Z" fill="black"/>
<path fill-rule="evenodd" clip-rule="evenodd" d="M112.755 142.944L111.062 138.502L113.289 137.653L114.965 142.049C115.395 143.191 116.179 143.513 117.061 143.177C117.943 142.841 118.324 142.101 117.9 140.993L116.201 136.541L118.428 135.691L120.099 140.077C121.073 142.631 120.044 144.305 117.796 145.164C115.548 146.021 113.697 145.418 112.755 142.944Z" fill="black"/>
<path fill-rule="evenodd" clip-rule="evenodd" d="M125.374 136.07C126.033 135.622 126.196 135.044 125.853 134.533L125.837 134.513C125.466 133.962 124.873 133.954 124.225 134.395L122.951 135.257L124.095 136.939L125.374 136.07ZM119.87 134.891L123.185 132.645C124.252 131.918 125.189 131.696 125.984 131.858C126.664 131.98 127.241 132.378 127.709 133.069L127.726 133.089C128.45 134.161 128.363 135.259 127.742 136.22L131.068 137.529L128.825 139.05L125.973 137.884L125.956 137.898L125.124 138.461L126.561 140.584L124.623 141.901L119.87 134.891Z" fill="black"/>
<path fill-rule="evenodd" clip-rule="evenodd" d="M127.192 129.65L131.874 124.704L133.322 126.076L130.236 129.335L131.166 130.217L133.959 127.265L135.304 128.537L132.511 131.489L133.486 132.412L136.616 129.108L138.064 130.481L133.339 135.471L127.192 129.65Z" fill="black"/>
<path fill-rule="evenodd" clip-rule="evenodd" d="M138.635 127.723L137.987 125.794C138.989 125.43 139.779 124.82 140.29 123.984C140.617 123.448 140.611 123.045 140.301 122.855L140.279 122.843C139.98 122.66 139.67 122.796 138.842 123.637C137.547 124.958 136.387 125.878 134.906 124.968L134.884 124.956C133.54 124.134 133.224 122.477 134.286 120.744C135.037 119.517 135.957 118.761 137.067 118.362L137.868 120.229C136.997 120.604 136.305 121.174 135.913 121.814C135.619 122.299 135.679 122.663 135.935 122.821L135.957 122.833C136.289 123.035 136.583 122.876 137.421 122.015C138.804 120.576 139.969 119.873 141.325 120.701L141.341 120.714C142.816 121.618 142.98 123.321 141.907 125.074C141.123 126.353 139.975 127.323 138.635 127.723Z" fill="black"/>
</svg>
