<svg width="200" height="200" viewBox="0 0 200 200" fill="none" xmlns="http://www.w3.org/2000/svg">
<path d="M104.119 79.9922C105.321 80.711 108.084 83.107 109.766 84.6045C110.306 85.0833 111.206 86.1593 111.327 86.1611C111.748 86.4007 111.688 84.9041 112.288 85.5029C113.91 88.4978 115.833 91.1331 117.454 94.1279C117.815 94.0082 118.355 93.9489 118.896 94.0088C119.797 96.5843 120.879 98.9799 121.659 101.615C121.84 101.855 122.74 101.376 123.101 101.735C123.641 104.551 124.482 107.066 125.143 109.762C125.263 110.121 126.044 109.762 126.164 110.062C126.645 111.918 126.464 114.973 127.185 116.65C127.425 117.249 128.026 117.37 128.206 117.969C127.906 119.706 127.485 121.323 127.065 123C127.785 124.198 129.348 124.557 129.948 125.875C124.663 137.076 117.274 148.217 101.536 148.996C88.6223 149.655 80.273 143.785 73.8459 137.196C75.5277 133.962 73.4863 131.925 72.1047 129.709C71.2037 128.331 70.6024 126.894 69.8215 125.815C70.1219 124.977 70.8425 124.497 71.2629 123.778C70.8425 121.802 70.242 120.005 69.8215 118.028C70.5423 117.909 70.8429 117.429 71.5637 117.31C71.7439 115.213 72.1643 113.296 72.4045 111.26C74.3867 109.942 74.0862 106.408 74.4465 103.473C75.4076 102.993 76.1891 102.274 77.2102 101.735C78.4716 98.98 79.6729 96.1648 81.1145 93.5293C81.655 93.5293 82.1956 93.529 82.5559 93.4092C84.2977 91.193 85.4992 88.4978 87.1809 86.2217C88.0217 86.2816 88.6824 86.461 89.343 86.6406C90.9648 85.6223 92.587 83.8256 94.2688 82.3281C94.8094 81.8489 95.5905 81.1296 96.011 81.0098C97.5726 80.6506 99.3746 81.7285 101.357 81.7285C102.258 81.1297 103.279 80.6509 104.119 79.9922ZM104.48 141.449C102.618 141.33 101.597 142.108 100.276 142.587C98.7741 143.126 97.0322 143.246 96.3713 144.324C98.5337 144.983 100.636 145.762 102.859 146.361C101.657 146.661 100.275 146.84 99.2542 147.379C101.837 148.397 105.081 147.859 106.763 146.361C105.441 146.242 104.48 146.481 103.279 146.062C105.561 145.043 107.724 143.965 109.165 142.168C107.604 141.809 105.741 141.509 104.48 141.449ZM93.0676 138.693C91.9264 138.394 90.7245 138.454 89.5833 138.574C88.8022 139.412 86.8806 139.173 86.0999 140.012C87.7216 141.928 90.1241 143.007 92.2864 144.324C91.2653 144.624 90.0037 144.623 88.9827 144.923C89.4632 145.642 90.5446 146.181 91.4456 146.66C92.3466 147.139 93.5485 147.739 94.4495 147.799C96.2513 147.918 98.0534 146.781 99.7952 146.361C99.0744 145.942 98.2332 145.762 97.3323 145.522C96.4313 145.283 95.5902 144.863 94.7493 144.684C94.1486 144.504 93.3675 144.804 92.887 144.265C95.5299 143.666 97.4526 142.347 99.7952 141.509C98.8341 139.592 96.1304 140.012 94.0881 139.293C93.7279 139.173 93.4279 138.813 93.0676 138.693ZM116.133 142.468C112.889 141.929 111.268 142.887 109.526 143.726C108.264 144.324 106.703 144.624 105.922 145.762C107.904 145.702 109.466 146.72 111.087 146.48C112.469 146.301 114.331 144.324 115.112 143.605C115.532 143.246 116.373 143.067 116.133 142.468ZM82.3752 141.329C82.1951 141.629 82.1355 142.048 81.9553 142.348C83.0965 142.947 84.6579 145.223 86.0393 145.463C86.7 145.583 87.6618 145.283 88.3225 145.043C90.8449 144.025 89.5834 143.246 87.301 142.468C85.439 141.809 83.937 141.689 82.3752 141.329ZM113.971 135.279C111.689 135.04 110.607 136.118 109.346 136.717C107.424 137.615 104.961 137.975 104.3 139.592C106.703 140.55 109.105 141.509 111.808 142.168C113.069 141.569 114.03 140.49 114.991 139.592C115.952 138.633 117.275 137.855 117.755 136.418C117.094 135.639 115.892 135.939 114.991 135.699C114.631 135.579 114.391 135.339 113.971 135.279ZM120.218 137.376C118.476 138.634 115.772 138.933 114.871 140.97C115.832 141.509 116.674 142.168 117.755 141.988C118.236 141.868 118.956 141.029 119.616 140.251C120.517 139.233 121.359 138.454 120.939 137.376H120.218ZM75.468 136.957C75.528 137.316 75.528 137.676 75.3479 137.855C76.309 138.395 78.2311 141.629 79.3723 141.868C80.2132 142.048 81.4146 141.749 81.8352 140.851C80.2134 139.113 77.9302 138.095 75.7678 136.957H75.468ZM83.5774 133.542C82.5564 133.183 81.3548 133.363 80.2737 133.423C79.4929 134.381 77.2101 133.842 76.7893 135.159C77.5101 136.177 78.5318 137.017 79.6731 137.915C80.5741 138.634 81.9553 140.011 83.1565 140.071C84.2978 140.131 85.7398 139.173 86.8811 138.634C88.1423 138.035 89.4636 137.616 90.3645 136.777C89.1632 135.1 86.7607 135.159 84.8987 134.381C84.4183 134.201 84.1178 133.662 83.5774 133.542ZM100.455 131.446C98.8337 131.087 97.7527 131.565 96.2512 131.565C94.5093 132.883 90.9652 132.345 89.7639 134.142C91.1454 134.92 92.6471 135.819 94.3889 136.837C95.5302 137.496 98.0533 139.293 99.4348 139.293C100.696 139.233 103.038 137.616 103.879 137.017C104.36 136.657 107.484 134.321 107.364 133.722C107.123 132.644 103.04 132.464 101.898 132.165C101.477 132.045 100.696 131.506 100.455 131.446ZM124.242 132.045C124.122 132.105 123.942 132.104 123.822 132.104C122.56 133.482 120.157 133.722 119.616 135.818C120.037 136.477 120.878 136.777 122.079 136.657C122.74 135.1 124.903 134.021 124.242 132.045ZM68.7405 128.091C69.3411 128.57 69.5217 129.468 69.762 130.247C67.2509 130.366 65.2749 131.137 63.1243 131.617C65.1691 131.545 67.6668 130.843 70.0022 130.786C70.6029 131.325 70.8425 132.165 71.1428 132.943C68.7403 133.542 65.7972 133.662 62.7942 133.662C65.6173 134.321 68.9809 133.901 72.1643 133.781C72.3445 134.26 72.6448 134.561 72.7649 135.1C66.3378 136.897 58.7694 134.919 53.6038 133.242C55.3456 131.565 57.9284 130.667 60.511 129.948C63.1539 129.17 65.9774 128.63 68.7405 128.091ZM130.429 128.031C136.195 129.109 141.901 130.247 145.865 133.063C140.88 135.039 133.131 136.777 126.704 135.1C126.824 134.561 127.125 134.261 127.305 133.782C130.549 133.962 133.613 134.142 136.676 133.782C133.913 133.483 130.729 133.602 128.326 132.943C128.507 132.105 129.047 131.685 129.167 130.787C131.63 130.907 133.732 131.385 136.074 131.625C134.153 130.966 132.111 130.367 129.708 130.188C129.768 129.289 130.369 128.93 130.429 128.031ZM113.43 123.719C112.229 123.659 111.267 124.138 110.126 124.317C108.685 126.114 105.02 125.755 104.24 128.211C105.741 129.169 107.303 129.829 109.165 130.787C110.307 131.386 113.01 133.363 114.331 133.243C114.992 133.183 115.713 132.165 116.373 131.686C118.476 129.889 120.217 128.092 121.118 125.636C119.857 124.378 117.935 124.797 116.013 124.438C115.172 124.318 114.391 123.719 113.43 123.719ZM89.9436 122.461C88.7423 122.042 87.3006 122.341 85.9192 122.341C84.2973 123.718 80.453 122.94 79.4319 124.917C80.2127 126.414 81.234 127.553 82.6155 128.811C83.3363 129.529 85.6793 131.626 86.8206 131.686C88.2622 131.745 90.9655 129.529 91.8665 128.93C93.6683 127.792 95.2301 126.953 96.4915 125.636C95.4103 124.019 93.248 124.138 91.5061 123.479C90.9054 123.24 90.5443 122.701 89.9436 122.461ZM62.7942 131.625H63.094C63.1041 131.623 63.1142 131.619 63.1243 131.617C63.0128 131.621 62.9028 131.625 62.7942 131.625ZM127.005 125.336C126.044 125.336 125.684 126.234 124.963 126.773C123.762 127.792 122.019 128.81 122.079 129.948C122.98 130.787 124.122 131.326 125.804 131.386C126.945 129.888 127.846 128.271 128.567 126.354C128.026 126.115 127.606 125.336 127.005 125.336ZM75.1077 125.336C74.6271 125.336 73.2454 124.797 73.2454 125.636C72.7648 125.935 71.9841 125.936 71.9241 126.654C72.825 127.553 73.8464 130.787 75.2278 131.087C76.9096 131.506 79.2521 129.768 79.8528 128.93C78.9516 127.013 76.3089 126.893 75.1077 125.336ZM58.9495 120.604C59.6703 121.023 59.7307 122.041 60.0911 122.76C57.5082 122.939 55.5855 123.838 53.1829 124.197C55.4053 124.257 57.9883 123.479 60.511 123.359C60.7513 124.078 61.2317 124.677 61.3518 125.516C59.0694 126.234 56.1264 126.234 53.1233 126.234C55.7662 127.073 59.4902 126.533 62.4934 126.354C62.6135 126.833 62.7937 127.193 63.094 127.492C62.133 128.031 60.8118 128.271 59.6106 128.331C53.9043 128.75 48.077 127.133 43.8723 125.755C45.4941 124.078 48.0775 123.359 50.6604 122.58C53.3633 121.801 56.1264 121.143 58.9495 120.604ZM140.22 120.604C142.863 121.023 145.927 121.802 148.57 122.641C151.212 123.359 153.916 124.018 155.537 125.755C150.492 127.552 142.743 129.409 136.376 127.612C136.556 127.133 136.857 126.833 136.977 126.294C139.98 126.534 143.404 126.773 146.347 126.294C143.644 125.994 140.34 126.234 138.117 125.455C138.238 124.557 138.778 124.077 138.958 123.299C141.541 123.538 143.884 123.958 146.286 124.317C144.064 123.659 141.902 122.999 139.379 122.76C139.619 121.981 139.98 121.322 140.22 120.604ZM141.3 110.9C141.18 118.507 137.876 124.138 132.771 127.313C133.251 126.055 135.173 124.856 135.894 123.299C134.993 123.658 133.672 124.857 132.591 125.456C132.531 124.737 133.492 124.318 134.032 123.719C134.573 123.12 134.993 122.4 135.354 121.682C134.573 121.801 133.552 122.999 132.351 123.119C133.132 122.161 134.152 121.382 134.813 120.244C133.732 120.663 133.011 121.382 131.93 121.802C132.651 120.783 133.551 119.885 134.212 118.807C133.071 119.106 131.69 119.167 130.489 119.406C134.573 117.07 139.258 115.273 141.3 110.9ZM58.1086 110.96C60.3912 115.093 64.7165 117.25 69.0413 119.286C68.1403 119.406 66.3978 119.166 65.4368 118.866C65.677 119.705 66.818 120.904 67.5989 121.742C66.758 121.742 65.7371 120.723 64.8362 120.304C65.0164 121.202 66.3375 122.281 67.1184 123.06C66.0374 123.239 65.0164 122.101 64.1155 121.622C64.5961 123.419 66.1574 124.078 66.9983 125.516C65.7369 124.857 64.6556 123.958 63.5745 123.18C64.3553 124.797 65.737 125.875 66.8782 127.192C61.7127 124.617 58.5892 118.687 58.1086 110.96ZM101.477 115.692C99.0741 115.333 97.9326 116.351 96.551 116.83C94.629 117.489 92.227 117.429 91.5061 119.106C93.0677 120.125 94.3893 121.203 96.1311 122.401C97.0924 123.061 99.8545 125.396 101.176 125.276C101.657 125.216 102.799 124.377 103.339 123.958C105.621 122.401 107.484 120.664 108.685 118.508C107.424 117.07 105.141 117.25 103.339 116.531C102.678 116.292 102.138 115.752 101.477 115.692ZM73.6663 117.729C72.9455 118.327 72.4051 119.166 72.1047 120.185C72.8255 121.562 73.4259 123.06 74.2668 124.378C76.4292 123.42 77.5099 121.502 78.5911 119.466C77.9302 117.849 75.4081 118.148 73.6663 117.729ZM123.101 117.549C121.479 117.848 118.956 117.789 118.776 118.986C118.656 119.825 120.338 120.963 121.059 121.742C122.14 122.76 123.041 123.719 123.942 123.898C125.023 122.82 125.203 120.844 125.984 119.466C125.203 118.627 123.942 118.268 123.101 117.549ZM143.283 110.78C149.59 111.559 155.957 112.278 160.402 114.854C155.536 117.789 149.169 120.603 141.24 119.585C141.061 119.225 141.361 118.328 141.541 117.849C145.025 117.849 148.148 117.549 150.911 116.83C148.569 116.77 144.965 117.249 142.262 116.83C142.322 115.812 142.503 114.973 142.683 114.074C145.446 114.194 148.269 114.255 150.911 114.494C148.449 113.895 145.866 113.475 142.983 113.355C142.923 112.337 143.223 111.679 143.283 110.78ZM56.1868 110.78C56.3069 111.619 56.4865 112.397 56.4866 113.355C53.5433 113.415 51.2608 114.075 48.5579 114.374C50.9005 114.494 54.0844 114.134 56.7874 114.074C56.9676 114.913 57.0871 115.752 57.2073 116.65C54.6845 117.309 51.0205 116.83 48.4377 116.65C51.0205 117.609 54.3842 117.788 57.928 117.788C58.1082 118.267 58.2287 118.867 58.3489 119.346C50.6003 120.783 44.0527 117.549 39.0071 114.913C43.3319 112.158 49.8798 111.619 56.1868 110.78ZM85.6194 109.762C83.6372 109.642 82.7358 110.54 81.4143 111.199C80.213 111.798 78.6512 112.038 78.2307 113.236C79.1918 114.255 80.0333 115.153 81.2346 116.231C81.8355 116.771 83.9371 118.806 84.8381 118.807C85.4388 118.807 86.5207 117.788 87.1213 117.369C89.4638 115.692 91.5656 113.835 92.7668 111.499C91.3854 110.122 89.2835 110.661 87.3616 110.361C86.761 110.242 86.22 109.822 85.6194 109.762ZM113.19 109.402C111.328 110.361 107.904 109.762 106.582 111.26C107.844 113.596 110.066 115.512 112.349 117.01C113.01 117.489 114.271 118.388 114.932 118.328C115.412 118.268 116.134 117.489 116.674 117.01C118.476 115.453 119.978 113.895 121.299 112.278C120.458 111.2 118.836 111.14 117.635 110.541C117.215 110.361 116.914 109.822 116.493 109.702C115.532 109.343 114.391 109.462 113.19 109.402ZM123.521 111.799C120.999 113.057 123.702 115.753 125.083 116.531C125.023 114.495 125.022 112.398 123.521 111.799ZM74.5071 111.26C73.426 112.158 73.2454 113.955 73.3655 115.991C74.4467 115.572 77.6302 112.098 74.5071 111.26ZM141.061 92.8096C141.601 94.1873 141.602 96.1044 141.482 97.7217C141.061 106.168 136.916 112.457 131.39 115.991C132.291 114.374 134.514 112.756 135.355 110.54C133.853 111.379 131.871 112.996 130.189 114.134C130.369 113.116 131.63 112.577 132.351 111.679C133.072 110.78 133.613 109.762 134.093 108.684C132.471 109.283 130.85 111.14 128.747 111.679C130.129 110.121 131.75 108.743 132.951 106.946C131.33 107.486 129.408 108.983 127.786 109.941C128.687 108.684 130.609 107.246 131.691 105.629C130.309 106.048 128.086 106.827 126.044 107.066C131.751 103.053 138.358 99.8778 141.061 92.8096ZM58.3489 92.9297C61.2921 99.7583 67.479 103.233 73.4856 107.007C71.6837 106.947 69.4012 106.228 67.8997 105.509C68.9808 107.186 70.4225 108.563 71.9241 109.821C70.2423 109.282 68.3802 107.666 66.5784 106.827C67.6596 108.744 69.2218 110.121 70.7834 111.559C68.8613 111.259 67.1787 109.522 65.4368 108.563C66.1575 110.959 67.8995 112.337 69.4612 113.895C68.4403 113.894 67.5993 112.937 66.6985 112.338C65.7975 111.679 64.8963 111.139 64.1155 110.48C65.0165 112.817 66.6988 114.374 68.3206 115.932C61.7132 112.278 57.0274 104.011 58.3489 92.9297ZM102.918 103.353C101.417 102.334 99.6142 102.035 97.8723 102.634C97.3319 102.814 96.9113 103.293 96.4309 103.473C94.7492 104.072 92.6469 104.131 91.8059 105.509C93.0673 106.767 94.5694 107.905 96.011 108.983C97.4525 110.062 98.9542 111.32 100.756 111.979C103.639 110.241 106.282 108.265 107.844 105.21C106.763 104.012 104.9 103.592 102.918 103.353ZM76.4895 104.551C75.108 105.629 75.5876 107.905 75.7678 110.002C76.4284 109.942 76.9695 108.984 77.3899 108.385C77.8704 107.606 78.1711 106.767 78.5315 106.108C78.4114 105.03 77.4504 104.79 76.4895 104.551ZM18.885 95.5654C29.1564 99.2792 43.5127 100.238 56.7874 101.436V102.574C54.6851 102.574 52.9428 102.214 50.9006 102.154C52.7626 102.574 54.9249 102.754 56.967 102.993C57.1472 103.412 56.9675 104.131 57.2678 104.431C51.7417 104.55 46.1547 103.533 41.2893 102.574C45.8544 104.371 51.141 105.509 57.2678 105.749C57.328 106.288 57.6277 106.648 57.6877 107.187C55.7056 107.067 53.7832 106.886 51.801 106.767C53.6631 107.306 55.6459 107.725 57.9885 107.785C58.3489 108.444 58.7688 108.984 59.009 109.822C42.0705 108.564 30.3576 102.154 18.885 95.5654ZM180.464 95.4453C179.323 96.5235 177.821 97.2428 176.44 98.0215C166.469 103.652 155.116 108.683 140.52 109.821C140.7 109.043 141.181 108.504 141.541 107.785C143.944 107.845 145.626 107.126 147.728 106.946C145.986 106.707 143.764 107.186 141.842 107.246C141.902 106.707 142.202 106.348 142.262 105.809C148.449 105.629 153.494 104.311 158.24 102.813C153.494 103.472 148.028 104.61 142.262 104.67C142.442 104.251 142.503 103.652 142.563 103.113C144.605 102.934 146.467 102.513 148.629 102.394C146.827 102.094 144.785 102.753 142.742 102.693V101.556C155.957 100.118 170.013 99.5783 180.464 95.4453ZM120.338 104.191C119.978 105.03 119.317 104.671 119.197 105.509C118.836 107.186 121.719 108.683 122.92 109.223C122.5 107.126 122.32 104.731 120.338 104.191ZM81.4143 101.915C80.4532 101.975 78.9514 103.293 78.8313 103.952C78.4713 105.33 79.5528 107.366 79.553 108.863C82.2557 108.264 84.0573 106.886 85.4387 104.97C85.018 103.053 82.6155 103.053 81.4143 101.915ZM115.773 100.777C114.571 101.855 111.628 102.035 111.868 103.892C111.989 104.79 113.61 105.509 114.451 106.048C115.533 106.707 116.554 107.426 117.755 107.486C118.176 105.989 118.236 104.132 118.356 102.335C117.575 101.736 117.094 100.837 115.773 100.777ZM90.1243 95.2666C88.2021 95.027 87.3607 96.0449 86.3997 96.584C85.3786 97.123 83.9978 97.2432 83.8176 98.3213C84.3583 99.3994 85.6193 100.178 86.8206 101.316C87.7815 102.155 89.1028 104.131 90.4241 104.071C90.7244 104.071 91.3859 103.593 91.8665 103.233C93.8486 101.616 95.4703 99.5196 96.4915 97.1836C95.3502 95.8658 93.3076 96.1647 91.6858 95.8652C91.1453 95.7454 90.6047 95.3265 90.1243 95.2666ZM135.594 79.8125C135.954 80.7109 136.135 81.7891 136.195 82.6875C136.915 92.6907 132.71 99.6391 127.124 103.652C128.145 102.155 130.128 100.238 131.029 98.0215C129.347 98.7404 127.845 100.897 125.864 101.735C127.185 99.9385 128.987 98.6202 129.587 96.1045C128.206 96.8832 126.524 98.5608 124.662 99.3994C124.122 99.1598 125.143 98.6804 125.383 98.3809C126.344 97.3027 127.485 95.805 128.266 94.4873C126.704 95.1462 124.842 96.704 123.22 97.7822C124.121 96.4644 125.923 94.8471 126.945 93.1699C125.563 93.6491 123.521 94.6077 121.479 94.9072C124.302 92.8707 127.124 90.7736 129.707 88.4375C132.17 86.1614 134.693 83.586 135.594 79.8125ZM63.6956 79.8721C66.2785 87.0599 72.2852 90.7735 77.9915 94.8467C76.1895 94.7868 73.9668 93.948 72.4651 93.1094C73.5463 94.9063 74.8678 96.4039 76.3694 97.7217C74.7476 97.0628 72.9453 95.3861 71.2034 94.4277C71.9843 96.4643 74.0871 97.9615 74.928 99.459C72.9459 98.6204 71.5038 97.2432 69.8821 95.9854C70.4227 98.5606 72.1643 99.9383 73.6057 101.615C72.6449 101.555 71.8044 100.537 71.0237 99.8779C70.1828 99.1592 69.2816 98.4408 68.4407 97.8418C69.3417 100.178 70.8434 101.915 72.4651 103.592C70.0624 102.274 67.8994 99.8784 66.2776 97.123C63.6948 92.8103 62.4943 86.7005 63.6956 79.8721ZM110.126 94.7275C109.345 94.5478 108.264 94.4879 107.543 94.7275C107.123 94.8475 106.702 95.3265 106.222 95.4463C104.84 95.8655 102.198 96.0451 102.018 97.3027C101.958 97.6621 102.738 98.6211 103.158 99.1602C104.78 101.017 106.702 102.155 108.624 103.173C110.847 101.436 112.529 99.0994 114.271 96.8232C113.91 95.8055 112.349 95.8654 111.268 95.4463C110.847 95.2666 110.547 94.8473 110.126 94.7275ZM117.034 96.2842C117.093 96.2853 116.794 96.5241 116.734 96.584C115.172 97.183 116.254 98.4413 117.034 99.3398C117.635 99.9985 118.235 100.418 118.896 100.777C118.896 99.28 118.236 96.3447 117.034 96.2842ZM81.1145 95.8652C80.0934 96.8236 79.7932 98.441 79.6731 100.298C80.9944 99.3994 82.1955 98.3811 82.676 96.7041C82.4358 96.225 81.8352 95.9252 81.1145 95.8652ZM186.111 73.1631C185.21 74.9599 183.648 76.3971 182.206 77.8945C173.256 87.4785 161.183 95.8048 145.866 99.3389C145.086 99.5185 143.224 100.597 142.864 99.2197C143.404 98.5608 144.425 98.6797 145.146 98.5C147.488 98.0208 149.951 97.2422 151.933 96.3438C148.93 96.4037 146.047 97.8417 142.864 98.2012C142.984 97.6621 142.683 97.5417 142.743 97.0625C143.104 96.5837 143.825 96.5234 144.305 96.3438C152.774 93.5285 161.364 90.4136 168.812 86.4004C167.671 86.4603 166.83 87.1198 165.809 87.5391C158.661 90.4741 151.153 93.4094 142.864 95.3262V93.4688C146.047 92.6901 148.99 91.612 151.933 90.5938C148.93 90.6537 145.807 91.8512 142.864 92.4502C142.323 92.6299 142.202 91.3724 141.541 91.1328C139.86 93.5286 138.298 96.0442 135.776 97.6016C136.376 95.3855 136.857 92.9898 137.337 90.7139C146.828 89.3961 156.078 87.2996 164.427 84.6641C172.836 81.9686 180.584 78.7336 186.111 73.1631ZM13.2385 73.2832C24.5911 83.4062 43.0921 87.7182 62.1331 90.6533C62.6737 92.8696 63.0939 95.2665 63.6946 97.4229C63.0338 97.4229 62.493 96.7634 61.9524 96.2842C60.5109 94.9065 59.0692 92.9896 58.0481 91.1328C57.3275 91.1928 57.0871 92.5108 56.7268 92.4512C53.6634 91.7923 50.84 90.9532 47.6565 90.4141C50.2994 91.8517 53.7235 92.5107 56.7268 93.5889V95.1465C51.9816 94.4277 47.4764 92.8702 43.1516 91.2529C38.887 89.6357 34.7424 87.8389 30.5979 86.2217C38.4064 90.6541 47.5363 93.7691 56.6663 96.8838C56.7262 97.4226 56.4261 97.6024 56.5461 98.2012C53.4229 97.722 50.7798 96.764 47.7766 96.165C49.3984 97.7223 53.7231 98.0817 56.5461 99.04C56.4258 100.657 54.4442 99.5186 53.5432 99.3389C35.9439 95.2058 23.0894 85.1433 13.2385 73.2832ZM101.056 86.6406C99.0741 86.2215 97.8128 87 96.6116 87.3594C95.1099 87.8386 93.1874 87.7789 92.4065 89.0967C94.3286 90.3546 96.0708 92.1516 98.053 93.5293C99.915 94.8471 100.516 94.7871 102.077 93.5293C103.879 92.0918 105.261 90.4746 106.102 88.498C105.381 87.4198 103.579 87.6586 102.198 87.2393C101.777 87.1194 101.416 86.7604 101.056 86.6406ZM110.246 89.3965C110.246 89.5758 110.066 89.576 110.126 89.8154C109.345 90.2346 108.325 90.4144 108.565 91.8516C110.006 92.9896 111.748 93.7692 114.031 94.0088C113.79 92.5712 113.19 91.5522 112.709 90.4141C111.748 90.2343 111.388 89.4564 110.246 89.3965ZM89.7639 89.0967C88.3824 87.9586 87.6014 89.0966 86.4602 89.8154C86.0397 91.253 85.3792 92.3915 85.0188 93.8291C86.941 93.4696 92.3465 91.1931 89.7639 89.0967ZM126.945 75.5596C127.545 76.6377 127.725 78.1355 127.785 79.4531C128.086 86.2815 124.181 91.0136 119.857 93.5293C120.577 92.2115 122.499 90.7137 123.22 88.7969C121.598 89.6354 120.577 91.013 118.776 91.6719C119.917 90.2943 121.299 89.2161 121.959 87.3594C120.818 87.7786 119.376 89.0966 117.935 89.6357C117.815 88.9768 118.776 88.5573 119.256 88.0781C119.797 87.4792 120.157 86.7607 120.577 86.2217C119.496 86.5811 117.935 87.7184 116.854 88.4971C117.154 87.419 118.656 86.2808 119.136 84.9033C117.394 85.3825 115.712 85.9821 113.67 86.2217C116.253 84.844 118.956 83.5255 121.298 81.9082C123.581 80.3509 125.923 78.4345 126.945 75.5596ZM72.4651 75.5596C75.1081 80.8903 80.5139 83.4065 85.8596 86.042C84.0577 86.1618 81.8955 85.3825 80.3938 84.7236C80.9343 86.2209 81.9548 87.1795 82.8557 88.3174C81.7746 88.0176 80.2727 86.7604 78.9514 86.1016C79.5521 87.6589 80.9342 88.3776 81.7151 89.6953C80.0933 89.0963 78.8915 88.1378 77.51 87.2393C77.9905 89.2758 79.6129 90.1145 80.5139 91.6719C78.9522 90.8932 77.6904 89.7553 76.3088 88.7969C76.7894 90.4741 78.4717 92.0914 79.7932 93.4092C74.3873 91.1929 70.0626 83.7658 72.4651 75.5596ZM175.419 51C172.356 60.2246 166.589 67.3531 159.982 73.2832C154.155 78.4944 147.368 82.867 140.22 86.6406C139.199 87.1797 138.297 87.8984 137.216 88.0781C137.697 87.9583 136.976 86.5807 137.637 86.6406C140.76 85.3827 144.064 83.5252 145.987 81.6084C144.545 82.5668 142.202 83.6455 140.52 84.3643C140.039 84.5441 139.079 85.2622 138.779 84.4844C138.478 83.5859 139.739 83.5254 140.1 83.3457C144.425 80.9498 148.328 78.4936 152.233 75.7383C156.617 72.5636 160.763 69.1499 163.646 64.957C158.48 69.6891 151.572 74.6007 144.605 78.4941C142.803 79.4525 140.4 80.9501 138.238 81.6689C137.697 81.8486 137.757 82.088 137.397 81.6689C136.376 80.5909 139.018 79.6922 139.559 79.3926C140.7 78.6738 141.542 78.0752 142.563 77.3564C140.701 78.2549 138.718 78.973 136.676 79.6318C136.015 79.7516 135.775 78.135 135.534 78.7939C133.552 83.3462 129.828 86.9397 126.464 89.5752C128.626 87.1792 129.108 83.1064 129.228 78.6738C138.598 75.9784 147.428 72.2043 155.296 67.8916C163.165 63.5189 170.433 58.4273 175.359 51.0596C175.299 50.9999 175.359 51 175.419 51ZM24.1711 51C29.0365 58.4875 36.425 63.5192 44.3538 67.832C52.2825 72.1448 61.0527 75.9181 70.303 78.7334C70.4231 83.1061 70.9033 87.1196 73.0657 89.5156C69.702 86.8202 65.8575 83.2863 63.9954 78.6143C63.6951 78.4346 63.4551 79.5115 62.9749 79.6318C60.6923 79.0328 58.6499 78.1342 56.6077 77.1758C57.8689 78.3737 60.211 78.9732 61.6526 80.3506C62.1932 80.8298 62.5539 80.89 62.0735 81.9082C51.8022 77.7751 43.573 71.5459 35.7043 64.957C41.6509 72.6839 50.3606 78.434 59.3704 83.3457C59.7308 83.5254 60.992 83.5859 60.6917 84.4844C60.4512 85.2622 59.4311 84.5442 58.9504 84.3643C57.2085 83.6455 54.9252 82.6267 53.4836 81.6084C54.3846 82.6267 55.9464 83.5859 57.3879 84.4844C58.8294 85.3828 60.4513 86.1614 62.1331 86.6406V88.1982C49.8796 82.0286 38.5872 74.3014 30.5383 63.3398C27.8353 59.6859 25.3725 55.5524 24.051 51H24.1711ZM96.551 83.2266C95.6502 83.2866 95.1096 83.7656 94.2688 83.9453C94.0286 84.3645 93.428 84.7836 92.9475 85.2627C92.6472 85.5622 91.6262 86.4613 92.1067 86.5811C93.6085 86.1618 97.3923 85.8617 97.5725 84.5439C97.6923 83.7655 96.6112 83.4661 96.551 83.2266ZM103.339 83.0469C103.219 83.7057 102.438 83.7057 102.498 84.4844C103.7 85.6222 105.862 85.8021 108.144 85.9219C107.363 84.724 105.621 83.2267 103.339 83.0469ZM87.2405 73.4023C94.4485 71.8449 105.081 71.4253 112.589 73.2822C113.01 74.001 114.391 73.6422 114.572 74.4209C114.211 75.6785 112.529 75.439 111.388 75.7383C110.847 75.8581 110.246 76.3372 109.646 76.457C108.444 76.6966 106.703 76.4574 105.021 76.5771C101.177 76.9365 95.5901 76.6374 91.4456 76.1582C88.6825 75.7988 86.64 76.0376 85.679 74.001C85.9193 73.3426 86.7 73.522 87.2405 73.4023ZM105.921 72.9834C103.338 72.8636 100.335 72.8636 97.8723 72.9834C95.2896 73.1032 91.8662 73.462 89.6438 74.001C88.8629 74.1807 87.9012 74.121 87.6008 74.8398C89.2827 75.319 91.0854 75.6188 93.0676 75.6787C93.0076 75.4391 93.7278 75.2588 93.3674 75.0791C93.3674 75.2588 93.2473 75.3193 93.1272 75.3193C91.9861 75.0199 90.605 75.2591 90.1243 74.6006C91.8059 74.4809 92.887 75.0195 94.4485 75.0195C94.5685 74.3608 93.7284 74.6001 93.428 74.3008C94.1487 74.3008 94.9295 74.2412 95.47 74.4209C95.8304 74.2412 95.2297 74.001 95.5901 73.8213C98.1129 73.8213 100.095 73.1028 102.198 74.1211C103.279 74.0013 105.02 73.7616 105.921 74.001C105.32 74.4202 104.059 74.1811 103.759 74.8398C105.441 74.8997 106.823 74.6601 108.204 74.8398C107.604 75.2591 106.041 74.8401 105.921 75.6787C106.882 75.9183 107.904 75.3786 108.925 75.2588C110.066 75.0792 111.567 75.5586 111.928 74.4209C111.508 73.6423 110.427 73.8818 109.646 73.7021C108.444 73.4026 107.363 73.0433 105.921 72.9834ZM108.265 60.4639C109.947 60.5241 111.027 63.6984 108.265 63.6387C108.085 64.9564 108.505 65.7353 108.685 66.6338C109.285 66.7536 109.647 67.3529 110.247 67.4727C111.689 67.712 113.01 66.9332 113.971 66.4541C114.572 65.6754 115.172 64.2383 116.434 64.5977C116.614 65.3758 116.013 65.7352 115.713 66.1543C115.473 66.5137 115.352 67.3529 114.692 67.293C114.632 67.6521 114.932 67.5925 114.812 68.0117C114.512 68.2514 114.451 68.7305 113.971 68.7305C114.331 69.2096 113.911 69.8687 113.25 69.749C112.65 69.8089 113.13 68.9702 113.13 68.7305C111.749 69.4492 110.007 68.6104 108.505 68.6104C107.965 68.3708 107.964 67.6524 107.364 67.4727C107.003 67.1133 106.702 67.7718 106.342 67.8916C104.48 68.2509 102.318 68.2506 100.697 67.5918C100.336 67.3522 100.276 66.8135 99.9758 66.4541C99.0148 68.1911 94.57 69.2094 92.7678 67.4727C92.1672 67.5924 92.1067 68.2509 91.7463 68.6104C90.2447 68.9698 88.3222 69.6293 86.7004 69.0303C86.7004 69.3299 86.6403 69.869 86.4602 70.2881C89.2232 69.3896 93.3079 69.3298 96.9719 68.8506C98.894 68.611 101.897 68.7308 104.3 68.8506C107.003 68.9704 108.985 69.0302 111.388 69.5693C112.589 69.8688 113.911 70.288 114.692 71.0068C114.752 71.4858 114.391 71.4857 113.971 71.4258C114.211 71.905 114.151 72.6839 113.851 72.9834C110.727 72.1448 107.183 71.2461 103.339 71.2461C98.6541 71.306 93.0681 71.6657 88.5032 72.2646C87.8424 72.3245 86.8807 72.9831 86.3401 72.1445C88.5625 71.0065 91.3857 70.5876 94.3889 70.2881C96.311 70.1084 97.9932 69.9284 100.035 69.9883C101.777 70.0482 103.52 69.8685 105.201 69.9883C108.385 70.2279 111.208 71.1266 113.851 71.5459C112.71 70.1683 110.427 70.168 108.505 69.8086C107.184 69.569 105.501 69.2699 103.459 69.21C102.799 69.21 102.078 69.389 101.417 69.3291C101.117 69.3291 100.817 69.0305 100.576 69.0303C100.276 69.0303 99.9758 69.269 99.7356 69.3291C98.5343 69.5088 97.2123 69.2692 96.011 69.3291C92.287 69.5687 88.9234 70.2881 86.0403 71.1865C85.7401 70.7075 86.1599 70.5275 86.4602 70.2881C86.28 70.1084 85.9798 70.1081 85.6194 70.168C84.7785 68.371 83.6375 66.8734 82.8567 65.0166C83.0969 64.7771 83.5172 64.7172 83.6975 64.418C84.5984 65.4362 86.04 67.3519 88.0217 67.5918C89.9438 67.7715 91.4454 66.8736 91.3254 64.418C90.905 63.9389 90.1248 63.8785 89.5842 63.5791C88.1427 61.1832 91.6265 59.9847 92.7678 61.7217C92.5876 62.5602 92.5875 63.5793 91.927 63.8789C92.9478 64.8972 93.3684 66.3343 94.9299 66.4541C97.2725 66.6338 98.7141 63.9383 98.8342 61.3027C99.2547 60.9434 100.096 61.0036 100.697 60.8838C100.757 62.8005 101.958 65.2559 103.28 65.7949C104.361 66.2141 107.423 66.0946 107.003 63.9385C106.763 62.6208 105.982 62.0817 107.123 61.0635C107.604 60.6442 107.484 60.4639 108.265 60.4639ZM110.546 72.5635C110.247 72.2047 110.966 72.6231 111.267 72.5635C111.147 72.9828 110.786 72.5036 110.546 72.5635ZM102.918 71.8447C102.799 71.5457 104.361 71.7855 104.961 71.7256C106.643 71.9651 108.625 71.9053 110.246 72.2646C107.964 72.5041 105.621 71.6051 102.918 71.8447ZM100.455 71.5459C101.056 71.6058 101.897 71.7249 102.318 71.8447C101.837 72.0244 98.0527 71.486 100.455 71.5459ZM80.6936 59.2061C82.6756 58.7871 84.718 60.5245 83.8772 62.6807C83.4567 63.7589 82.3149 64.7767 80.8733 64.5371C79.0115 64.2374 78.2308 61.8422 78.8313 60.5244C79.1316 59.8655 79.8527 59.3858 80.6936 59.2061ZM116.914 58.7871C118.656 58.368 120.698 59.3268 120.638 61.3633C120.578 65.1366 113.971 64.7771 114.871 60.5244C114.991 59.7457 115.773 59.0267 116.914 58.7871ZM80.9934 60.5244C80.0925 60.2252 79.1921 61.9017 79.9729 62.9199C80.3334 63.2194 81.654 63.7585 81.8342 62.9199C81.6537 62.4414 80.6339 62.8002 80.6936 62.082C80.3332 61.2434 81.534 60.6442 80.9934 60.5244ZM90.1243 62.0215C89.7038 63.3393 92.0462 63.8181 91.6858 62.6201C90.9651 63.219 90.9051 61.9017 90.1243 62.0215ZM107.064 61.6621C106.643 62.9199 108.564 63.6387 108.805 62.501C107.784 62.7403 107.844 61.9616 107.364 61.6621H107.064ZM116.734 60.165C114.932 60.4647 116.133 63.8789 117.875 62.6211C116.794 62.4414 116.433 61.3031 116.734 60.165ZM99.0149 54.7139C102.799 54.0554 103.459 59.8653 99.8557 60.165C98.4142 60.2848 95.8315 59.3264 96.552 56.5713C96.7322 55.9124 97.8736 54.9535 99.0149 54.7139ZM98.4739 56.3311C95.2904 58.0083 101.237 61.1832 101.057 57.8887C100.516 58.5475 99.7356 58.1886 98.7747 58.1885C98.5344 57.7093 98.7742 56.7504 98.4739 56.3311Z" fill="black"/>
</svg>
