<svg width="200" height="200" viewBox="0 0 200 200" fill="none" xmlns="http://www.w3.org/2000/svg">
<path fill-rule="evenodd" clip-rule="evenodd" d="M97.1476 63.0881C81.738 61.9887 71.4344 64.8517 66.3055 71.7001C58.6007 81.984 59.5897 92.268 66.3055 104.178C73.0213 116.088 83.026 120.303 95.5606 116.913C103.909 114.668 110.855 105.896 116.398 90.6189L126.403 106.652C113.661 125.823 100.689 136.381 87.5339 138.305C67.8005 141.168 58.9917 131.091 48.665 116.913C38.3613 102.735 35.6474 80.1288 48.665 65.5388C53.5409 60.1106 58.6927 55.7817 64.1666 52.5751C68.7204 49.8953 73.5043 48.0172 78.4721 46.8949C81.0481 46.3452 83.67 45.9787 86.3379 45.8184L97.1476 63.0881Z" fill="black"/>
<path fill-rule="evenodd" clip-rule="evenodd" d="M103.725 137.687C119.158 138.787 129.439 135.924 134.59 129.075C142.295 118.791 141.306 108.507 134.59 96.5971C127.875 84.687 117.87 80.4726 105.335 83.8624C96.9865 86.107 90.0407 94.8793 84.4979 110.156L74.4932 94.1235C87.2348 74.9527 100.206 64.3939 113.362 62.4699C133.095 59.6069 141.904 69.6847 152.208 83.8624C162.535 98.0401 165.248 120.646 152.208 135.236C147.355 140.665 142.18 144.994 136.729 148.2C132.175 150.88 127.392 152.758 122.424 153.858C119.848 154.43 117.226 154.797 114.558 154.957L103.725 137.687Z" fill="black"/>
</svg>
