<svg width="200" height="200" viewBox="0 0 200 200" fill="none" xmlns="http://www.w3.org/2000/svg">
<path d="M95.9463 40C113.357 40 126.278 46.974 137.689 58.249C149.099 69.5256 159 85.1039 159 102.31C159 119.515 151.942 135.093 140.532 146.369C129.121 157.644 113.357 159 95.9463 159C78.5352 159 62.7716 157.644 51.3604 146.369C39.9505 135.093 40 119.515 40 102.31C40 85.1039 45.636 69.5256 57.0459 58.249C68.4571 46.9739 78.5352 40 95.9463 40ZM68.5469 127.231C67.7396 127.501 66.8587 127.68 66.168 128.135C64.9527 128.935 63.8547 129.914 62.709 130.817V131.597C63.2036 132.557 63.6203 133.571 64.2158 134.469C64.8781 135.466 65.7725 136.241 66.7119 137.04C68.1347 138.249 69.6332 138.735 71.2734 138.693C73.5321 138.636 75.7812 138.207 78.0342 137.947C83.147 137.359 88.2489 136.627 93.4229 136.96C93.8505 136.986 94.6038 136.841 94.6787 136.609C95.0056 135.593 95.6895 135.638 96.5322 135.669C98.4128 135.738 100.3 135.746 102.182 135.717C103.583 135.694 104.98 135.531 106.382 135.506C107.536 135.485 108.694 135.55 109.849 135.616C111.28 135.699 112.707 135.874 114.139 135.905C114.92 135.922 115.718 135.591 116.489 135.649C118.073 135.772 119.645 136.04 121.219 136.271C121.932 136.374 122.639 136.529 123.371 136.665C123.427 137.064 123.477 137.438 123.51 137.681C126.485 138.743 129.5 138.77 132.549 138.558C132.148 138.26 131.748 137.96 131.347 137.662C131.386 137.56 131.426 137.457 131.466 137.354H133.469C133.29 136.682 133.151 136.159 132.997 135.576C133.781 135.52 134.241 135.488 135.085 135.429C134.418 135.142 134.092 135.003 133.77 134.864C134.431 133.158 135.001 132.692 136.292 133.075C136.116 132.651 135.998 132.393 135.902 132.128C135.796 131.827 135.528 131.372 135.642 131.237C136.699 129.976 135.215 128.927 135.606 127.83C134.683 127.94 133.95 128.026 133.133 128.123C133.109 128.372 133.065 128.815 133.021 129.256C131.955 129.077 130.98 128.843 129.993 128.766C128.559 128.655 127.116 128.611 125.676 128.628C124.86 128.636 123.605 128.54 123.313 128.983C122.46 130.277 121.246 130.039 120.167 130.022C117.208 129.976 114.252 129.684 111.291 129.618C107.011 129.524 102.727 129.583 98.4453 129.504C95.0539 129.441 91.6654 129.269 88.2754 129.144C88.2754 129.034 88.2764 128.924 88.2764 128.814C88.8549 128.757 89.4342 128.698 90.0127 128.641C87.0049 128.36 84.0308 128.31 81.0586 128.372C77.8277 128.439 74.5981 128.668 71.3672 128.696C70.4561 128.703 69.2101 128.835 68.9727 127.393C68.9591 127.313 68.6619 127.192 68.5469 127.231ZM95.3838 136.506C95.3852 136.587 95.3853 136.67 95.3867 136.751C96.204 136.83 97.0217 136.909 97.7451 136.979C97.8631 136.617 97.9518 136.341 98.0684 135.98C97.1318 136.164 96.2578 136.335 95.3838 136.506ZM98.7715 136.437C98.7885 136.563 98.8062 136.688 98.8232 136.814H103.991V136.437H98.7715ZM94.0596 135.659C92.0227 135.888 89.9867 136.116 87.9512 136.344C87.9327 136.153 87.914 135.962 87.8955 135.771C89.9438 135.67 91.9927 135.571 94.041 135.47C94.0467 135.533 94.0525 135.596 94.0596 135.659ZM102.484 132.487C101.151 133.188 99.8692 134.032 98.46 134.516C97.4437 134.864 96.2511 134.707 95.1367 134.775C95.124 134.642 95.1094 134.509 95.0967 134.376C95.8387 134.216 96.5813 134.054 97.3232 133.894C97.3247 133.853 97.3257 133.814 97.3272 133.773C96.0209 133.695 94.7145 133.615 93.4082 133.538C93.4039 133.351 93.4007 133.166 93.3965 132.98C96.4252 132.817 99.4556 132.652 102.484 132.487ZM116.09 132.27C114.937 132.559 113.783 132.848 112.63 133.138C112.65 133.268 112.671 133.399 112.69 133.531C113.237 133.471 113.783 133.363 114.327 133.373C114.613 133.377 114.895 133.589 115.178 133.708C114.922 133.863 114.656 134.163 114.408 134.149C112.91 134.057 111.418 133.869 109.92 133.768C109.376 133.731 108.813 133.923 108.271 133.88C106.943 133.773 105.621 133.589 104.313 133.278C106.005 133.158 107.697 133.041 109.387 132.915C110.065 132.865 110.915 133.245 111.225 132.221C111.239 132.173 111.38 132.14 111.463 132.14C113.001 132.135 114.541 132.137 116.08 132.137C116.083 132.181 116.087 132.226 116.09 132.27ZM113.94 130.563C113.945 130.69 113.948 130.816 113.952 130.941C113.097 130.988 112.241 131.038 111.384 131.079C109.842 131.154 108.248 131.012 106.771 131.358C105.65 131.622 104.673 132.495 103.644 133.114C103.317 133.311 103.025 133.564 102.397 134.027C102.477 133.255 102.515 132.862 102.556 132.477C103.196 132.197 103.827 131.927 104.514 131.632C103.797 130.915 102.463 131.98 101.96 130.563H113.94ZM95.2959 126.922C94.9931 127.383 94.6885 127.842 94.3545 128.351C95.7176 128.669 96.124 128.208 95.8213 126.922H95.2959ZM126.179 98.7168C125.873 98.787 125.52 98.7863 125.27 98.9434C124.498 99.4322 123.976 100.149 123.751 101.025C123.549 101.819 123.447 102.636 123.286 103.439C122.989 104.935 122.712 106.435 122.371 107.921C122.002 109.528 121.592 111.129 121.154 112.721C120.746 114.205 120.287 115.678 119.836 117.152C119.542 118.113 119.441 119.125 118.714 119.953C118.285 120.443 118.126 121.161 117.82 121.764C117.475 122.446 117.209 123.128 117.277 123.924C117.319 124.417 117.645 124.837 118.156 124.886C118.617 124.931 119.123 124.915 119.517 125.11C119.998 125.348 120.129 125.113 120.316 124.677C120.561 124.91 120.753 125.093 120.995 125.323C121.132 125.135 121.317 124.882 121.497 124.635C121.804 125.066 122.003 125.006 122.763 124.257C122.986 124.434 123.208 124.61 123.451 124.806C123.431 124.901 123.401 125.053 123.37 125.203C123.413 125.221 123.455 125.242 123.498 125.26C123.717 124.817 123.937 124.375 124.154 123.933C124.353 123.525 124.469 123.039 124.768 122.725C125.508 121.946 126.287 121.192 127.133 120.53C128.132 119.748 129.203 119.048 130.271 118.357C131.084 117.834 131.947 117.388 132.777 116.89C132.959 116.78 133.094 116.594 133.249 116.442C133.425 116.271 133.57 116.031 133.78 115.936C134.593 115.569 135.429 115.253 136.251 114.904C136.403 114.84 136.529 114.712 136.768 114.539C136.525 114.567 136.407 114.58 136.292 114.593C136.185 114.055 136.664 114.025 136.958 113.808C136.857 113.768 136.778 113.737 136.657 113.689C137.317 113.059 137.963 112.446 138.597 111.824C138.698 111.726 138.79 111.582 138.814 111.447C138.931 110.778 139.165 110.173 139.649 109.668C139.766 109.546 139.781 109.328 139.842 109.154C139.688 109.105 139.528 109.001 139.383 109.018C138.88 109.082 138.376 109.161 137.885 109.283C137.015 109.499 136.136 109.701 135.295 110.004C134.499 110.29 133.757 110.721 132.974 111.048C132.215 111.365 131.438 111.647 130.66 111.918C130.002 112.147 129.337 112.356 128.665 112.539C128.409 112.608 128.126 112.575 127.772 112.593C128.405 110.265 128.986 108.051 129.617 105.853C129.916 104.809 130.339 103.802 130.653 102.763C130.832 102.17 130.756 101.562 130.35 101.055C130.053 100.684 129.745 100.299 129.371 100.011C129.012 99.734 128.743 99.1823 128.191 99.3115C127.405 99.494 126.862 99.0721 126.275 98.7168H126.179ZM74.4609 100.328C74.1952 99.9812 73.8712 99.6184 73.3369 99.8105C72.6091 100.072 71.8655 100.301 71.1719 100.633C70.3035 101.049 69.4518 101.512 68.6445 102.031C67.9509 102.476 67.3155 103.015 66.6787 103.54C65.3995 104.591 64.0477 105.571 63.2588 107.091C62.9461 107.693 62.5858 108.275 62.2305 108.856C61.8296 109.515 61.3808 110.148 61.0098 110.822C60.7555 111.284 60.5987 111.798 60.3955 112.288C60.1468 112.885 59.8571 113.469 59.6553 114.081C59.4464 114.719 59.3212 115.383 59.1592 116.036V118.51C59.2586 118.886 59.3359 119.27 59.4609 119.638C59.7082 120.361 59.8035 121.16 60.4316 121.705C61.4805 122.618 62.6244 123.405 63.8154 124.124C64.819 124.731 65.9622 124.906 67.0566 124.653C68.208 124.386 69.3183 123.894 70.4043 123.403C71.4575 122.929 72.4524 122.345 73.4346 121.715C74.9867 120.718 76.5578 119.773 77.8115 118.378C77.1691 118.797 76.5248 119.213 75.8809 119.632C75.8525 119.586 75.8223 119.54 75.7939 119.494C75.9631 119.354 76.1326 119.215 76.3018 119.074C76.2805 119.049 76.2591 119.023 76.2393 118.998C76.1398 119.042 76.0414 119.085 75.9434 119.129C76.1594 118.734 76.4041 118.386 76.7139 118.109C77.2682 117.616 77.867 117.173 78.4356 116.697C78.6939 116.481 78.6681 116.342 78.3457 116.129C78.3202 116.265 78.2986 116.387 78.2744 116.518C77.7076 116.289 77.6435 115.968 78.0186 115.405C78.226 115.095 78.1963 114.483 77.9648 114.312C78.3215 113.806 78.283 113.682 77.8398 113.229C77.5414 112.922 77.3375 112.524 77.0391 112.218C76.8159 111.989 76.5077 111.843 76.2363 111.66C76.1369 111.823 76.0369 111.986 75.9346 112.147C75.9175 112.174 75.8876 112.191 75.8379 112.236C75.4573 111.984 75.2558 112.225 75.0498 112.528C74.9674 112.649 74.7825 112.698 74.6631 112.801C74.5011 112.941 74.3119 113.08 74.2139 113.261C74.0349 113.587 73.9863 114.008 73.752 114.274C73.4322 114.637 73.01 114.93 72.5908 115.185C71.0713 116.103 69.692 117.229 68.0488 117.975C67.3098 118.309 66.5778 118.558 65.8018 118.698C65.4919 118.754 65.1432 118.68 64.8291 118.603C64.7197 118.576 64.5625 118.332 64.5908 118.238C64.8935 117.258 65.1107 116.227 65.5811 115.328C66.6798 113.225 68.1474 111.361 69.9199 109.766C70.7414 109.025 71.665 108.38 72.6045 107.786C73.0665 107.494 73.6623 107.314 74.2109 107.276C74.6941 107.244 75.2043 107.455 75.6875 107.603C76.7848 107.935 78.0344 107.602 78.124 106.53C78.1922 105.702 78.0469 104.841 77.5566 104.129C77.2795 103.729 76.8038 103.466 76.501 103.078C75.796 102.179 75.1573 101.233 74.4609 100.328ZM88.3848 99.6309C88.1361 99.7699 87.946 99.8861 87.7471 99.9844C87.5794 100.067 87.4028 100.133 87.2266 100.197C86.9665 100.291 86.7085 100.422 86.4385 100.459C86.1086 100.506 85.4233 100.994 85.4756 101.3C85.6006 102.032 85.0288 102.157 84.5811 102.453C84.4418 102.836 84.3325 103.278 84.1279 103.671C83.6191 104.654 83.0916 105.63 82.5244 106.582C81.7427 107.894 81.0133 109.223 80.6836 110.729C80.6524 110.866 80.6085 111.003 80.5518 111.134C79.9718 112.478 79.7935 113.897 79.7324 115.343C79.7196 115.636 79.6162 115.924 79.582 116.219C79.5309 116.66 79.4152 117.118 79.4834 117.545C79.6412 118.527 79.9539 119.472 80.2666 120.423C80.5935 121.414 81.3598 121.813 82.042 122.438C82.1301 121.929 82.2456 121.873 82.5879 122.131C82.7058 122.221 82.7799 122.369 82.875 122.489C82.9489 122.582 83.0064 122.725 83.1016 122.756C83.923 123.035 84.7501 123.3 85.5801 123.554C85.8203 123.627 86.0834 123.628 86.3193 123.709C87.0726 123.967 87.8062 124.292 88.5723 124.501C88.9688 124.609 89.4796 124.662 89.835 124.508C90.8994 124.049 91.944 123.526 92.9346 122.928C93.7873 122.412 94.5494 121.762 95.1094 120.905C95.7988 119.849 96.5854 118.848 97.2236 117.764C97.7054 116.945 98.0886 116.053 98.3984 115.152C98.8518 113.832 99.2789 112.492 99.5674 111.13C99.7877 110.089 99.7865 108.999 99.8604 107.929C99.8916 107.472 99.8662 107.012 99.8662 106.554C99.8024 106.55 99.7396 106.545 99.6758 106.541C99.9116 108.061 99.3428 109.413 98.8809 110.791C98.8355 110.659 98.8606 110.54 98.8691 110.419C98.9104 109.861 98.9827 109.304 98.9756 108.746C98.9685 108.184 98.8813 107.623 98.8301 107.062C98.8045 106.778 98.7912 106.492 98.75 106.211C98.7358 106.118 98.6431 105.958 98.5977 105.962C98.1758 105.998 98.1985 105.751 98.0977 105.434C97.8333 104.602 97.4577 103.8 97.0811 103.01C96.973 102.784 96.7187 102.617 96.5098 102.45C96.2568 102.247 95.9795 102.073 95.7109 101.886C95.1368 101.485 94.7005 100.868 94 100.803C93.7769 100.952 93.5926 101.16 93.4902 101.126C92.9787 100.957 92.4872 100.732 91.9941 100.512C91.7625 100.408 91.5591 100.21 91.3203 100.162C90.3139 99.957 89.3002 99.7938 88.3848 99.6309ZM107.388 100.017C107.249 100.085 107.105 100.147 106.96 100.2C106.698 100.294 106.441 100.421 106.171 100.458C105.846 100.504 105.159 101.005 105.211 101.306C105.343 102.039 104.762 102.157 104.396 102.4C104.242 102.702 104.102 102.957 103.977 103.22C103.593 104.027 103.266 104.867 102.822 105.641C101.886 107.276 100.931 108.879 100.39 110.719C99.9306 112.275 99.4945 113.807 99.4717 115.437C99.4674 115.698 99.3541 115.955 99.3242 116.218C99.273 116.676 99.1556 117.151 99.2295 117.592C99.393 118.557 99.6965 119.488 100.008 120.425C100.336 121.415 101.102 121.811 101.783 122.438C101.87 121.928 101.981 121.871 102.326 122.13C102.445 122.218 102.518 122.367 102.617 122.485C102.701 122.586 102.773 122.736 102.883 122.772C103.706 123.052 104.533 123.314 105.363 123.568C105.586 123.637 105.835 123.63 106.056 123.706C106.809 123.965 107.541 124.289 108.308 124.5C108.704 124.608 109.199 124.646 109.572 124.51C110.36 124.223 111.106 123.816 111.855 123.431C113.402 122.639 114.615 121.469 115.548 120.036C116.244 118.966 116.871 117.847 117.47 116.721C117.859 115.988 118.19 115.215 118.462 114.432C118.719 113.691 118.837 112.906 119.064 112.154C119.569 110.48 119.549 108.756 119.607 107.04C119.612 106.891 119.577 106.741 119.56 106.591C119.513 106.592 119.464 106.593 119.417 106.595C119.657 108.095 119.057 109.421 118.623 110.783C118.613 110.236 118.681 109.699 118.718 109.161C118.733 108.945 118.685 108.724 118.661 108.507C118.637 108.289 118.594 108.074 118.581 107.857C118.548 107.336 118.526 106.815 118.508 106.293C118.498 106.049 118.425 105.908 118.134 105.931C118.049 105.938 117.895 105.826 117.866 105.74C117.548 104.763 117.275 103.768 116.751 102.872C116.651 102.702 116.452 102.583 116.286 102.459C116.012 102.257 115.728 102.067 115.443 101.876C114.863 101.485 114.438 100.849 113.723 100.804C113.525 100.934 113.326 101.156 113.224 101.119C112.643 100.91 112.085 100.636 111.519 100.391C111.304 100.298 111.086 100.196 110.86 100.148C109.931 99.956 108.998 99.7835 108.155 99.6191C107.865 99.7694 107.629 99.8972 107.388 100.017ZM98.5098 110.887C98.676 112.086 97.9251 114.489 97.6963 114.747C97.6608 115.046 97.684 115.229 97.6172 115.368C97.1724 116.288 96.6658 117.182 96.2607 118.119C95.7604 119.274 94.9933 120.226 94.1191 121.101C93.7582 121.461 93.2988 121.724 92.915 122.066C92.7175 122.243 92.5898 122.497 92.4121 122.741C92.5016 122.702 92.5882 122.665 92.6777 122.627C92.686 122.649 92.7014 122.689 92.7022 122.691C92.3995 122.812 92.0966 122.929 91.7939 123.047C91.7627 122.988 91.731 122.928 91.7012 122.867C91.9115 122.692 92.1443 122.537 92.3262 122.336C92.6602 121.965 92.948 121.551 93.2891 121.188C93.4426 121.022 93.7382 120.973 93.8633 120.798C94.301 120.187 94.6795 119.536 95.1016 118.914C95.6344 118.128 96.1869 117.355 96.7354 116.577C96.7794 116.514 96.8804 116.477 96.9004 116.411C97.1008 115.758 97.2793 115.097 97.4854 114.445C97.6744 113.853 97.8135 113.224 98.1162 112.69C98.3393 112.294 98.2949 111.901 98.3857 111.511C98.4341 111.304 98.4515 111.092 98.5098 110.887ZM118.252 110.886C118.41 112.108 117.667 114.493 117.394 114.794C117.394 115.02 117.444 115.196 117.385 115.322C116.993 116.162 116.555 116.982 116.171 117.826C115.609 119.061 114.846 120.154 113.868 121.092C113.489 121.457 113.012 121.726 112.646 122.101C112.567 122.181 112.231 122.384 112.456 122.662C112.463 122.67 112.367 122.801 112.303 122.817C112.041 122.893 111.774 122.945 111.509 123.007L111.451 122.89C111.542 122.791 111.635 122.696 111.726 122.598C112.152 122.136 112.569 121.664 113.011 121.219C113.17 121.057 113.454 121.001 113.579 120.827C114.024 120.204 114.412 119.54 114.843 118.906C115.377 118.121 115.932 117.35 116.48 116.573C116.525 116.51 116.626 116.472 116.646 116.406C116.844 115.753 117.019 115.092 117.227 114.441C117.414 113.847 117.646 113.267 117.834 112.673C117.955 112.291 118.039 111.897 118.127 111.507C118.172 111.302 118.192 111.089 118.252 110.886ZM92.5791 105.927C92.6331 105.983 92.7214 106.027 92.7441 106.093C93.0782 107.028 93.5741 107.937 93.2715 108.99C93.2303 109.135 93.2578 109.302 93.2734 109.458C93.3118 109.834 93.4805 110.239 92.9873 110.479C92.9306 110.508 92.9154 110.65 92.9111 110.741C92.887 111.258 92.8865 111.777 92.8467 112.292C92.8323 112.476 92.73 112.654 92.6689 112.837C92.3478 113.813 92.036 114.79 91.6992 115.761C91.6466 115.912 91.4993 116.046 91.3672 116.155C90.8442 116.588 90.3832 117.05 90.1074 117.699C89.9695 118.022 89.6556 118.282 89.3955 118.545C89.0615 118.881 88.7245 119.223 88.3379 119.493C88.1816 119.603 87.8891 119.501 87.666 119.54C87.1857 119.624 86.7107 119.738 86.2432 119.839C85.6946 118.87 85.843 117.87 85.9609 116.861C86.2168 114.671 86.878 112.588 87.8076 110.611C88.3789 109.399 88.9249 108.131 89.9424 107.159C90.5465 106.58 91.0815 105.932 91.6543 105.321C91.7351 105.235 91.8525 105.183 91.8574 105.18C92.1202 105.452 92.349 105.69 92.5791 105.927ZM112.314 105.923C112.368 105.979 112.46 106.02 112.482 106.086C112.816 107.023 113.313 107.93 113.015 108.984C112.971 109.143 113.012 109.327 113.023 109.497C113.049 109.859 113.201 110.247 112.735 110.478C112.669 110.511 112.647 110.677 112.643 110.782C112.62 111.284 112.625 111.787 112.587 112.285C112.573 112.486 112.476 112.683 112.411 112.878C112.084 113.853 111.762 114.829 111.42 115.798C111.372 115.935 111.233 116.054 111.113 116.153C110.589 116.586 110.118 117.041 109.85 117.695C109.725 118.006 109.423 118.254 109.173 118.503C108.815 118.86 108.453 119.219 108.047 119.516C107.908 119.617 107.624 119.501 107.415 119.536C107.041 119.598 106.671 119.686 106.309 119.791C106.039 119.87 105.95 119.808 105.828 119.536C105.443 118.668 105.598 117.795 105.694 116.916C105.939 114.694 106.617 112.58 107.565 110.578C108.14 109.366 108.684 108.096 109.71 107.128C110.317 106.555 110.85 105.905 111.423 105.294C111.495 105.219 111.599 105.178 111.601 105.177C111.856 105.445 112.084 105.684 112.314 105.923ZM70.6494 111.975C71.1549 111.965 71.2632 111.751 71.1768 111.451C71.1569 111.38 71.019 111.341 70.9365 111.288C70.8399 111.517 70.7446 111.746 70.6494 111.975ZM94.1445 110.191C94.085 110.194 94.0254 110.198 93.9658 110.201C93.9417 109.777 93.9167 109.352 93.8926 108.928C93.9507 108.924 94.0092 108.921 94.0674 108.918C94.093 109.342 94.119 109.766 94.1445 110.191ZM113.813 106.909C113.855 106.933 113.956 106.957 113.968 107.002C114.04 107.28 114.119 107.563 114.148 107.848C114.182 108.179 113.927 108.235 113.477 107.992C113.583 107.645 113.693 107.294 113.813 106.909ZM94.085 106.884C94.1559 106.958 94.2441 107.009 94.2627 107.077C94.3238 107.293 94.3733 107.516 94.3975 107.737C94.4088 107.851 94.3774 108.062 94.3291 108.072C94.1501 108.113 93.9555 108.089 93.7041 108.089C93.8491 107.628 93.9599 107.278 94.085 106.884ZM122.978 69.4209C122.818 69.3325 122.567 69.3148 122.391 69.3682C121.327 69.6899 120.823 70.5002 120.571 71.5059C120.504 71.7727 120.369 72.0677 120.426 72.3135C120.704 73.5299 121.019 74.7395 121.358 75.9404C121.545 76.6047 121.817 77.2437 122.026 77.9023C122.223 78.5246 122.464 79.147 122.549 79.7861C122.745 81.2412 122.973 82.6644 124.021 83.7305C123.942 84.0856 123.888 84.3905 123.81 84.6895C123.424 86.1811 123.008 87.6648 122.649 89.1621C122.172 91.1595 121.731 93.1655 121.29 95.1699C121.179 95.6754 121.108 96.1923 121.065 96.709C121.04 96.9955 121.365 97.155 121.616 97.002C122.092 96.7098 122.558 96.4016 123.027 96.0996C123.206 96.1445 123.376 96.1253 123.536 96.0762C123.717 96.0186 123.899 95.9496 124.063 95.8584C124.511 95.614 125.016 95.4225 125.379 95.084C125.842 94.65 126.181 94.087 126.73 93.7275C126.873 93.6349 127.016 93.5464 127.161 93.4551C127.209 93.6081 127.261 93.7616 127.305 93.916C127.322 93.9776 127.321 94.0435 127.329 94.1064C127.349 94.1064 127.369 94.1069 127.389 94.1055C127.444 93.9215 127.5 93.7373 127.563 93.5225C127.644 93.594 127.7 93.6446 127.801 93.7344C127.927 93.4647 128.097 93.2061 128.175 92.9238C128.55 91.5586 128.855 90.1745 129.271 88.8232C129.66 87.5592 130.162 86.3286 130.6 85.0801C130.782 84.5605 130.916 84.0248 131.09 83.501C131.27 82.9491 131.41 82.3747 132.023 82.084C132.21 81.9969 132.372 81.8188 132.496 81.6475C133.227 80.6362 133.917 79.5936 134.672 78.6006C135.748 77.1861 136.867 75.8055 137.976 74.3994C137.912 74.3699 137.86 74.3289 137.805 74.3232C137.371 74.2755 137.329 74.1268 137.61 73.7939C137.813 73.5538 137.935 73.2475 138.136 72.8965C137.772 73.1127 137.493 73.277 137.122 73.4961C137.183 72.6998 137.616 72.0634 137.461 71.291C137.282 71.4399 137.192 71.5152 137.013 71.6641C137.088 71.0013 136.804 70.6081 136.354 70.3174C136.075 70.1391 135.73 70.0309 135.511 69.8008C135.059 69.3232 134.572 69.4565 134.22 69.9102C133.701 70.5773 132.991 71.1208 132.741 71.9775C132.716 72.0632 132.633 72.1326 132.572 72.207C132.011 72.891 131.478 73.6031 130.877 74.252C130.03 75.1664 129.444 76.3142 128.301 76.9688C127.934 77.1778 127.826 77.1322 127.761 76.7588C127.695 76.3853 127.629 76.0113 127.548 75.6406C127.4 74.9595 127.12 74.2826 127.111 73.6016C127.097 72.5088 126.584 71.6897 125.798 71.0928C124.934 70.4368 123.933 69.9533 122.978 69.4209ZM78.0996 65.8818C77.3507 66.4634 76.978 67.3088 76.5303 68.0967C76.4337 68.2652 76.4127 68.4945 76.417 68.6953C76.4311 69.4466 76.1382 70.0734 75.7432 70.7012C74.3815 72.8657 73.0687 75.0611 71.707 77.2256C71.5094 77.54 71.1484 77.761 70.8457 78.0039C70.6127 78.1905 70.3529 78.3438 70.0205 78.5684C69.8826 78.0683 69.7246 77.6016 69.6279 77.124C69.4773 76.3854 69.3846 75.6355 69.2383 74.8955C69.0763 74.0766 68.9225 73.2504 68.6865 72.4512C68.4563 71.6772 67.9079 71.1262 67.0977 70.9492C65.6393 70.6318 64.1696 70.3527 62.6602 70.4805C62.2523 70.5156 61.8767 70.6192 61.8154 71.126C61.804 71.2284 61.719 71.323 61.6621 71.417C61.3964 71.8551 61.129 72.2933 60.8633 72.7314V73.5889C61.0736 74.166 61.2852 74.7418 61.4912 75.3203C61.5495 75.4832 61.5825 75.6549 61.6436 75.8164C61.8937 76.4862 62.1794 77.1451 62.3926 77.8262C62.5361 78.2853 62.4892 78.8153 62.6865 79.2422C63.1129 80.1664 62.9698 81.1724 63.2256 82.1289C63.5141 83.2062 63.3967 84.3891 63.4678 85.5254C63.5659 87.0845 63.6802 88.643 63.7754 90.2021C63.808 90.7596 63.7258 91.3359 63.8281 91.8779C64.0072 92.8132 64.2752 93.7329 64.5381 94.6484C64.5992 94.8591 64.701 95.1442 65.0762 94.9785C65.3093 94.8746 65.5756 94.8415 65.8301 94.7881C66.3374 94.6799 66.8434 94.5551 67.3564 94.4863C67.544 94.4611 67.734 94.4542 67.9248 94.4531H69.3447C69.6929 93.9912 70.0331 93.5394 70.377 93.083C70.6796 93.4073 70.9583 93.7062 71.2979 94.0684C71.4541 93.7413 71.5737 93.5364 71.6533 93.3174C72.2347 91.7344 72.8105 90.1493 73.3848 88.5635C73.659 87.8066 73.8896 87.0315 74.2051 86.29C74.6925 85.1412 75.316 84.0439 75.7354 82.874C76.4403 80.9062 77.5327 79.1403 78.5049 77.3115C78.7337 76.8804 79.3062 76.6311 79.7695 76.7461C80.7417 76.9877 81.7171 77.0948 82.7148 76.915C83.0076 76.8631 83.3062 76.8407 83.7012 76.793C83.525 77.4291 83.3973 77.9871 83.2168 78.5264C82.9525 79.3198 82.611 80.0907 82.3779 80.8926C82.2429 81.3546 81.9786 81.5365 81.5508 81.6924C80.9041 81.9269 80.0772 81.774 79.6465 82.5029C79.4276 82.8737 79.1397 83.2237 79.0147 83.624C78.954 83.8167 79.1337 84.229 79.3154 84.3174C79.8043 84.5575 80.3532 84.6774 80.9287 84.8613C80.724 85.5032 80.4721 86.2252 80.2617 86.957C79.5453 89.4418 78.8418 91.9284 78.1397 94.416C78.0561 94.7137 78.3471 95.1105 78.708 95.1709C79.113 95.2383 79.5223 95.2809 79.9316 95.3076C80.5172 95.3455 81.1072 95.3262 81.6885 95.3936C81.9699 95.4273 82.2335 95.6068 82.5547 95.7402C82.7452 95.538 83.0379 95.2385 83.3164 94.9268C83.5239 94.6966 83.7004 94.7869 83.8184 94.9863C83.9816 95.2628 84.0979 95.5648 84.2598 95.9072C84.3166 95.8033 84.3535 95.7429 84.3848 95.6797C84.7444 94.9254 85.0561 94.1374 85.8848 93.7314C85.9658 93.6921 86.0203 93.5979 86.0928 93.5361C86.8218 92.9238 87.5028 92.2402 88.293 91.7178C89.8835 90.6657 91.534 89.7027 93.1572 88.7012C93.2466 88.6451 93.3559 88.5751 93.3887 88.4883C93.4995 88.1919 93.7117 88.1735 93.9932 88.1553C94.2802 88.1369 94.5816 88.0355 94.8359 87.8965C95.0817 87.763 95.2537 87.4973 95.4981 87.3555C96.5342 86.7543 97.5847 86.1773 98.5342 85.6436C97.9585 87.8249 97.3711 90.1522 96.7188 92.46C96.4359 93.4615 96.0818 94.4581 95.627 95.3936C95.403 95.8567 96.018 95.9482 95.8418 96.2979C95.8236 96.3358 95.8988 96.4407 95.9541 96.4844C95.9953 96.518 96.0865 96.5298 96.1377 96.5088C96.7432 96.2644 97.4909 96.437 97.9912 95.8613C98.1006 95.7364 98.3563 95.6839 98.541 95.6895C98.6832 95.6937 98.823 95.8433 98.9736 95.9346C99.1115 95.6354 99.1824 95.3788 99.333 95.1836C99.4666 95.011 99.7871 94.7536 99.8516 94.7949C100.198 95.0166 100.419 94.749 100.616 94.6211C100.972 94.3935 101.076 94.5687 101.224 95.0098C101.423 94.6783 101.613 94.4659 101.687 94.2188C102.029 93.0684 102.314 91.8996 102.674 90.7549C102.847 90.203 103.159 89.693 103.376 89.1523C103.515 88.8069 103.597 88.4397 103.718 88.0381C104.048 88.3176 104.326 88.5583 104.608 88.79C104.78 88.9303 104.95 89.0763 105.141 89.1914C105.733 89.5496 106.346 89.8759 106.928 90.251C107.385 90.5473 107.806 90.8983 108.245 91.2227C108.295 91.2592 108.358 91.2801 108.418 91.2998C108.928 91.4768 109.434 91.6664 109.95 91.8223C111.015 92.1453 112.083 92.4519 113.15 92.7637C113.163 92.7202 113.178 92.6754 113.192 92.6318C112.934 92.5139 112.676 92.3958 112.417 92.2764C112.428 92.2357 112.44 92.1935 112.453 92.1514C112.794 92.216 113.135 92.2802 113.492 92.3477C113.394 92.1062 113.308 91.8997 113.206 91.6484C113.423 91.6933 113.599 91.7285 113.662 91.7412C113.671 91.5544 113.615 91.3407 113.699 91.2227C113.819 91.0528 114.039 90.9521 114.223 90.8174C113.89 90.5955 114.066 89.3221 114.547 88.4863C114.408 88.4203 114.278 88.3305 114.135 88.2939C113.671 88.1788 113.202 87.9895 112.737 87.9951C111.523 88.0106 110.612 87.3249 109.704 86.7266C109.03 86.2841 108.529 85.5799 107.977 84.9717C107.907 84.8954 107.932 84.623 108.011 84.5566C108.224 84.3797 108.506 84.2865 108.734 84.125C109.951 83.2626 111.208 82.4454 112.359 81.5029C113.632 80.4635 114.806 79.3041 116.022 78.1973C116.049 78.2169 116.077 78.2368 116.104 78.2578C115.39 79.0402 114.674 79.8231 113.961 80.6055C114.282 80.4538 114.547 80.2416 114.781 80.0029C115.016 79.7627 115.223 79.6376 115.405 80.0225C115.974 79.4157 116.546 78.8801 117.025 78.2734C117.506 77.6653 117.894 76.9838 118.323 76.335C118.367 76.3602 118.413 76.3854 118.457 76.4121C118.424 76.5343 118.39 76.6567 118.357 76.7803C118.4 76.7957 118.445 76.8113 118.487 76.8281C118.793 76.0726 119.185 75.3379 119.377 74.5557C119.582 73.7255 119.768 72.847 119.346 72C118.759 70.8202 118.061 69.744 116.986 68.9082C116.429 68.4756 115.85 68.1666 115.19 67.9756C114.063 67.6498 112.938 67.6457 111.775 67.8633C110.004 68.1962 108.286 68.6372 106.702 69.5234C105.868 69.9898 105.002 70.4044 104.142 70.8271C103.849 70.9718 103.432 70.9874 103.246 71.2051C102.791 71.7416 102.284 72.3153 102.081 72.96C101.866 73.6466 101.345 73.9908 100.94 74.4697C100.882 74.5384 100.79 74.6015 100.703 74.6211C99.9058 74.8065 99.3286 75.2616 98.9277 75.9639C98.8382 76.1211 98.6647 76.2307 98.541 76.3711C98.4288 76.4975 98.2781 76.6213 98.2383 76.7715C98.1075 77.2645 98.0193 77.7694 97.8984 78.3467C98.7684 78.563 99.5692 78.7602 100.443 78.9766C100.213 79.794 100.004 80.57 99.7656 81.3369C99.7357 81.4324 99.5587 81.5067 99.4365 81.5488C98.416 81.9042 97.3841 82.2261 96.3721 82.6025C95.4951 82.9284 94.6405 83.3179 93.7734 83.6719C92.1944 84.3165 90.6154 84.964 89.0293 85.5918C88.6256 85.7519 88.1931 85.8399 87.6416 86C87.7937 85.5872 87.9502 85.3059 87.9971 85.0068C88.1891 83.7669 88.9651 83.174 90.1602 83.0068C90.416 82.9703 90.6982 82.7119 90.8887 83.1191C90.9031 83.15 91.0685 83.1611 91.0928 83.1289C91.259 82.9141 91.4069 82.6854 91.5547 82.4678C91.5248 82.4509 91.4522 82.4104 91.4238 82.3936C92.0151 82.0284 92.5955 81.6673 93.1768 81.3105C93.2959 81.2377 93.5211 81.1853 93.5293 81.1084C93.5748 80.6013 94.0414 80.561 94.3428 80.3447C94.5814 80.1721 94.8371 80.0205 95.0459 79.8857C94.9294 79.751 94.8471 79.6566 94.7647 79.5625C95.0659 79.3125 95.3658 79.064 95.6387 78.8379C95.5591 78.8491 95.4157 78.8705 95.207 78.9014C95.2852 78.7441 95.3117 78.5681 95.4082 78.5146C95.8829 78.2548 95.9501 77.7549 96.1689 77.3447C96.2514 77.1903 96.3783 77.0556 96.4395 76.8955C96.5119 76.706 96.6146 76.4673 96.5537 76.3086C96.5082 76.1892 96.2083 76.0816 96.042 76.1055C95.0145 76.2515 94.01 76.487 93.0635 76.9336C92.6612 77.1232 92.2325 77.2651 91.8047 77.3887C91.0248 77.6118 90.8149 77.4585 91.0166 76.6934C91.2057 75.9784 91.4428 75.293 92.3652 75.043C94.442 74.4811 96.4876 73.8123 98.5586 73.1816C98.5458 73.1564 98.5014 73.0635 98.4375 72.9287C99.3714 72.5888 100.287 72.254 101.221 71.9141C101.151 71.6842 101.088 71.4753 101.056 71.3643C101.155 71.1059 101.205 70.9157 101.299 70.75C101.415 70.5464 101.536 70.2391 101.711 70.1953C102.051 70.1124 102.107 69.8833 102.228 69.6445C102.402 69.302 102.536 68.8665 102.825 68.667C103.398 68.2751 103.489 68.1429 103.115 67.5488C102.986 67.5488 102.862 67.5418 102.74 67.5488C102.072 67.5924 101.404 67.4773 100.739 67.7412C99.9276 68.0657 99.0796 68.3167 98.2324 68.54C96.8937 68.8925 95.5393 69.185 94.1963 69.5234C93.1174 69.7959 92.051 70.114 90.9707 70.3809C90.4462 70.5115 89.8948 70.534 89.376 70.6787C88.8913 70.8149 88.4747 70.7948 88 70.5996C87.6603 70.4592 87.2256 70.3106 86.8418 70.6279C86.738 70.7136 86.5826 70.7485 86.4434 70.7822C85.8479 70.9283 85.5437 71.3361 85.3135 71.874C85.1543 72.2448 84.9324 72.7669 84.624 72.8652C83.2978 73.2866 81.9274 73.575 80.5742 73.9121C81.0631 72.7394 82.0041 71.9145 82.334 70.6113C81.8537 71.3023 81.5263 71.9731 81.0147 72.4492C80.4974 72.931 80.472 73.8062 79.6465 74.0156C80.0601 73.2278 80.6762 72.5295 80.9619 71.7178C81.2604 70.8722 82.2615 70.4028 82.1592 69.2539C81.9801 69.3999 81.7882 69.4787 81.7725 69.584C81.6687 70.2343 81.238 70.5353 80.6523 70.7207C80.6552 70.3232 80.6096 70.2713 80.2217 69.9834C80.1536 69.9315 80.1322 69.7391 80.1689 69.6406C80.3835 69.0606 80.6209 68.4885 80.8525 67.9141C80.8243 67.8945 80.7964 67.8744 80.7695 67.8535C80.5123 68.1527 80.2558 68.4522 80 68.75C79.9488 68.7177 79.8959 68.6841 79.8447 68.6504C79.9285 68.4861 80.0059 68.3159 80.0996 68.1572C80.2759 67.8566 80.0965 67.0436 79.8193 66.9424C79.2352 66.7275 78.6734 66.4884 78.3877 65.8818H78.0996ZM66.2666 94.9844C66.0748 95.2146 65.8647 95.4352 65.707 95.6865C65.6789 95.7301 65.8623 95.9054 65.9023 95.959C66.3827 95.9548 66.7218 95.6721 66.6494 95.3828C66.6096 95.2284 66.3988 95.1163 66.2666 94.9844ZM104.913 92.9023C104.454 92.9039 104.195 93.1967 104.177 93.6602C104.164 93.9816 104.311 94.1304 104.618 94.1318C104.961 94.1329 105.345 93.7386 105.347 93.3877C105.348 93.0885 105.277 92.8462 104.913 92.9023ZM105.883 91.8887C105.592 91.8803 105.414 92.0542 105.459 92.5273C105.472 92.5404 105.571 92.7233 105.676 92.7275C106.021 92.7386 106.193 92.4882 106.203 92.1836C106.206 92.0839 105.998 91.8915 105.883 91.8887ZM76.3223 83.8789C76.4327 83.8705 76.6237 83.8888 76.6406 83.8486C76.6974 83.6845 76.699 83.5016 76.7217 83.3262C76.6279 83.3107 76.5323 83.2957 76.4385 83.2803C76.4001 83.4796 76.362 83.6795 76.3223 83.8789ZM112.927 72.4043C113.17 72.3244 113.57 72.3189 113.724 72.4619C113.977 72.6965 113.964 73.0723 113.789 73.4248C113.221 74.5638 112.542 75.6071 111.584 76.4863C110.288 77.676 108.962 78.8254 107.498 79.8086C106.978 80.1569 106.437 80.4742 105.907 80.8057C105.858 80.7861 105.809 80.7667 105.76 80.7471C106.34 79.0446 106.822 77.2986 107.535 75.6523C107.981 74.6242 108.943 73.9089 110.008 73.458C110.959 73.0549 111.943 72.7217 112.927 72.4043Z" fill="black"/>
</svg>
