<svg width="200" height="200" viewBox="0 0 200 200" fill="none" xmlns="http://www.w3.org/2000/svg">
<path fill-rule="evenodd" clip-rule="evenodd" d="M44.7334 91.5181C44.7334 61.0686 69.4175 36.3845 99.8669 36.3845C130.316 36.3845 155 61.0686 155 91.5181V163.615H125.313H95.6258H44.7334V129.687V110.603V91.5181ZM53.2154 129.687V155.134H87.1439V129.687C87.1439 120.318 79.5486 112.723 70.1796 112.723C60.8106 112.723 53.2154 120.318 53.2154 129.687ZM95.6258 155.134V129.687C95.6258 115.634 84.2331 104.241 70.1796 104.241C63.6623 104.241 57.7174 106.691 53.2154 110.72V110.603C53.2154 93.0357 67.4563 78.795 85.0231 78.795C102.59 78.795 116.831 93.0357 116.831 110.603V155.134H95.6258ZM146.518 155.134H125.313V110.603C125.313 88.3512 107.275 70.3128 85.0231 70.3128C72.3272 70.3128 61.0029 76.1852 53.6181 85.3617C56.631 62.5066 76.1889 44.8666 99.8669 44.8666C125.632 44.8666 146.518 65.7531 146.518 91.5181V155.134Z" fill="black"/>
</svg>
