<svg width="200" height="200" viewBox="0 0 200 200" fill="none" xmlns="http://www.w3.org/2000/svg">
<path fill-rule="evenodd" clip-rule="evenodd" d="M16.8887 97.0667C16.8887 86.5364 24.9509 78 34.8961 78C44.8413 78 52.9034 86.5364 52.9034 97.0667V122H16.8887V97.0667ZM19.659 110.267V119.067H30.7406V110.267C30.7406 107.027 28.2599 104.4 25.1998 104.4C22.1397 104.4 19.659 107.027 19.659 110.267ZM33.5109 119.067V110.267C33.5109 105.406 29.7899 101.467 25.1998 101.467C23.0712 101.467 21.1294 102.314 19.659 103.707V103.667C19.659 97.5916 24.3103 92.6667 30.0479 92.6667C35.7855 92.6667 40.4368 97.5916 40.4368 103.667V119.067H33.5109ZM50.1331 119.067H43.2072V103.667C43.2072 95.9715 37.3156 89.7333 30.0479 89.7333C25.9012 89.7333 22.2025 91.7642 19.7905 94.9377C20.7746 87.0338 27.1625 80.9333 34.8961 80.9333C43.3113 80.9333 50.1331 88.1565 50.1331 97.0667V119.067Z" fill="black"/>
<path d="M105.66 109.498H108.773V90.4666H105.66V109.498Z" fill="black"/>
<path fill-rule="evenodd" clip-rule="evenodd" d="M99.7354 106.371C98.9894 107.099 97.7289 107.422 96.3141 107.422C94.2305 107.422 92.61 106.722 91.9926 105.266C91.7868 104.835 91.6839 104.376 91.6325 103.81H103.723C103.723 102.22 103.517 100.98 103.054 99.7937C101.999 97.3406 99.581 95.858 96.1084 95.858C92.6871 95.858 90.1405 97.2328 89.0858 99.7398C88.7 100.656 88.4941 101.654 88.4941 102.894C88.4941 104.08 88.6743 105.104 89.0858 105.994C90.1405 108.501 92.7385 109.903 96.2884 109.903C98.6293 109.903 100.713 109.336 102.102 108.016C102.701 107.445 103.134 106.78 103.4 105.992H100.074C99.9739 106.129 99.8606 106.256 99.7354 106.371ZM96.1084 98.3649C98.0891 98.3649 99.6325 99.0119 100.276 100.495C100.404 100.818 100.507 101.115 100.558 101.492H91.6839C91.7353 101.168 91.8382 100.872 91.9669 100.575C92.61 99.0659 94.0762 98.3649 96.1084 98.3649Z" fill="black"/>
<path d="M124.059 107.962C122.695 109.229 120.714 109.903 118.296 109.903C115.004 109.903 112.457 108.582 111.377 106.048C110.991 105.131 110.785 104.08 110.785 102.867C110.785 101.681 110.991 100.602 111.377 99.7128C112.457 97.2328 114.952 95.858 118.296 95.858C120.714 95.858 122.669 96.505 124.033 97.8258C125.036 98.7424 125.576 99.9554 125.653 101.411H122.335C122.258 100.629 121.949 100.009 121.486 99.551C120.766 98.8771 119.608 98.5807 118.322 98.5807C116.444 98.5807 115.03 99.3354 114.412 100.71C114.181 101.33 114.052 101.977 114.052 102.867C114.052 103.729 114.181 104.403 114.412 104.996C115.03 106.371 116.444 107.126 118.322 107.126C119.608 107.126 120.792 106.829 121.486 106.129C122.001 105.67 122.309 105.023 122.335 104.268H125.705C125.602 105.751 125.062 106.991 124.059 107.962Z" fill="black"/>
<path fill-rule="evenodd" clip-rule="evenodd" d="M135.098 109.876C138.699 109.876 141.169 108.42 142.223 105.967C142.609 105.05 142.815 104.026 142.815 102.867C142.815 101.735 142.609 100.71 142.223 99.7937C141.169 97.3406 138.699 95.858 135.098 95.858C131.522 95.858 129.053 97.3406 127.973 99.8476C127.587 100.737 127.407 101.762 127.407 102.867C127.407 103.999 127.587 104.996 127.973 105.913C129.053 108.393 131.522 109.876 135.098 109.876ZM135.098 107.18C133.143 107.18 131.651 106.398 131.008 104.942C130.777 104.349 130.648 103.675 130.648 102.867C130.648 102.085 130.777 101.384 131.008 100.818C131.651 99.3624 133.143 98.5807 135.098 98.5807C137.053 98.5807 138.571 99.3354 139.214 100.818C139.445 101.384 139.548 102.085 139.548 102.867C139.548 103.675 139.445 104.349 139.214 104.942C138.571 106.398 137.053 107.18 135.098 107.18Z" fill="black"/>
<path fill-rule="evenodd" clip-rule="evenodd" d="M175.703 107.422C177.118 107.422 178.378 107.099 179.124 106.371C179.249 106.256 179.362 106.129 179.462 105.992H182.788C182.523 106.78 182.089 107.445 181.49 108.016C180.101 109.336 178.018 109.903 175.677 109.903C172.127 109.903 169.529 108.501 168.474 105.994C168.063 105.104 167.882 104.08 167.882 102.894C167.882 101.654 168.089 100.656 168.474 99.7398C169.529 97.2328 172.076 95.858 175.497 95.858C178.97 95.858 181.388 97.3406 182.442 99.7937C182.906 100.98 183.111 102.22 183.111 103.81H171.021C171.073 104.376 171.176 104.835 171.381 105.266C171.999 106.722 173.62 107.422 175.703 107.422ZM179.665 100.495C179.021 99.0119 177.478 98.3649 175.497 98.3649C173.465 98.3649 171.999 99.0659 171.355 100.575C171.226 100.872 171.124 101.168 171.073 101.492H179.948C179.896 101.115 179.793 100.818 179.665 100.495Z" fill="black"/>
<path d="M150.861 95.886C147.501 95.886 144.778 98.7714 144.778 102.331V109.508H147.958V101.617C147.958 99.9179 149.257 98.5957 150.861 98.5957C152.463 98.5957 153.763 99.9179 153.763 101.617V109.508H156.942V101.617C156.942 99.9179 158.242 98.5957 159.846 98.5957C161.448 98.5957 162.748 99.9179 162.748 101.617V109.508H165.927V102.331C165.927 98.7714 163.204 95.886 159.846 95.886C158.067 95.886 156.465 96.6957 155.353 97.9863C154.241 96.6957 152.64 95.886 150.861 95.886Z" fill="black"/>
<path d="M81.3983 105.73L84.6803 96.2477H88.0131L82.9757 109.474H79.821L76.6918 100.208L73.5626 109.474H70.4079L65.3706 96.2477H68.7034L71.9852 105.757L75.1145 96.2477H78.2437L81.3983 105.73Z" fill="black"/>
</svg>
