<?xml version="1.0" encoding="UTF-8"?>
<svg width="22px" height="26px" viewBox="0 0 22 26" version="1.1" xmlns="http://www.w3.org/2000/svg" xmlns:xlink="http://www.w3.org/1999/xlink">
    <title>Apple_logo_black</title>
    <g id="Page-1" stroke="none" stroke-width="1" fill="none" fill-rule="evenodd">
        <g id="iPhone-13-Pro-Copy-7" transform="translate(-76.000000, -459.000000)" fill="#FFFFFF" fill-rule="nonzero">
            <g id="Apple_logo_black" transform="translate(76.000000, 459.000000)">
                <path d="M21.2973836,8.86428643 C21.1406461,8.98129813 18.3734185,10.4816482 18.3734185,13.8177818 C18.3734185,17.6765677 21.8946075,19.0417042 22,19.0755076 C21.9837858,19.1587159 21.4406093,20.9450945 20.1434713,22.7652765 C18.9868567,24.3670367 17.7788969,25.9661966 15.9412849,25.9661966 C14.1036728,25.9661966 13.6307579,24.9390939 11.5093969,24.9390939 C9.44208328,24.9390939 8.70703845,26 7.02616386,26 C5.34528928,26 4.17246039,24.5178518 2.8239774,22.6976698 C1.26200712,20.560256 0,17.239724 0,14.0882088 C0,9.03330333 3.41579659,6.35243524 6.77754576,6.35243524 C8.5638128,6.35243524 10.0528191,7.48094809 11.1743029,7.48094809 C12.2417393,7.48094809 13.9063997,6.28482848 15.9385825,6.28482848 C16.7087581,6.28482848 19.4759858,6.35243524 21.2973836,8.86428643 Z M14.9738361,4.14481448 C15.8142734,3.18531853 16.408795,1.8539854 16.408795,0.522652265 C16.408795,0.338033803 16.3925808,0.150815082 16.3574499,0 C14.9900504,0.0494049405 13.3632232,0.876287629 12.3822626,1.9709971 C11.612087,2.81348135 10.8932564,4.14481448 10.8932564,5.49434943 C10.8932564,5.69716972 10.9283872,5.89999 10.9446014,5.9649965 C11.0310773,5.98059806 11.1716005,5.99879988 11.3121238,5.99879988 C12.5390001,5.99879988 14.0820538,5.20832083 14.9738361,4.14481448 Z" id="Shape"></path>
            </g>
        </g>
    </g>
</svg>