<?xml version="1.0" encoding="UTF-8"?>
<svg width="43px" height="21px" viewBox="0 0 43 21" version="1.1" xmlns="http://www.w3.org/2000/svg" xmlns:xlink="http://www.w3.org/1999/xlink">
    <title>Fill-1</title>
    <g id="Page-1" stroke="none" stroke-width="1" fill="none" fill-rule="evenodd">
        <g id="iPhone-13-Pro-Copy-7" transform="translate(-173.000000, -461.000000)" fill="#FFFFFF" fill-rule="nonzero">
            <path d="M194.491821,470.052328 L190.201771,470.052328 L194.52872,467.219331 L194.491821,470.052328 Z M212.710171,473.071379 C212.631329,471.358047 211.681907,470.014721 209.868178,470.01336 L203.099963,470.01336 L203.099963,467.752876 L212.718289,467.752876 L212.718289,464.300606 L199.54372,464.300606 L199.54372,470.052575 L199.54372,470.052328 L198.028507,470.052328 L198.034288,464.300606 L193.669456,464.300606 L184.426889,470.052328 L179.769936,470.052328 L179.769936,467.752876 L185.269672,467.752876 L190.903475,464.300606 L176.281711,464.300606 L176.281711,477.951218 L179.769936,477.951218 L179.769936,473.501629 L184.63328,473.501629 L184.63328,473.504598 L194.52872,473.504598 L194.52872,478.69927 L198.065529,478.69927 L198.065529,473.504598 L209.223422,473.504598 L209.223422,474.995753 L199.574593,474.995753 L199.574593,478.69927 L209.868178,478.69927 C211.731106,478.69927 212.714353,477.26836 212.714353,475.510123 L212.710171,473.071379 Z M216,461 L173,461 L173,481.251825 L183.051894,481.251825 L183.051894,476.804833 L191.247009,476.805451 L191.247009,482 L209.867932,482 C213.418763,482 215.995941,479.269556 215.995941,475.507649 L216,461 Z M214.200784,462.809451 L214.200784,469.243907 L212.299726,469.243907 C213.412613,470.008659 214.114563,471.335656 214.19119,473.002474 L214.192666,473.035627 L214.196971,475.507649 C214.196971,478.266051 212.41682,480.190425 209.867932,480.190425 L193.045978,480.190425 L193.045978,474.995753 L183.223722,474.995753 L183.223722,474.992908 L181.252678,474.992908 L181.252678,479.442497 L174.79897,479.442497 L174.79897,462.809451 L214.200784,462.809451 Z" id="Fill-1"></path>
        </g>
    </g>
</svg>