<?xml version="1.0" encoding="UTF-8"?>
<svg width="34px" height="38px" viewBox="0 0 34 38" version="1.1" xmlns="http://www.w3.org/2000/svg" xmlns:xlink="http://www.w3.org/1999/xlink">
    <!-- Generator: Sketch 52.6 (67491) - http://www.bohemiancoding.com/sketch -->
    <title>Group 4</title>
    <desc>Created with Sketch.</desc>
    <g id="Page-1" stroke="none" stroke-width="1" fill="none" fill-rule="evenodd">
        <g id="Contact-Page" transform="translate(-123.000000, -56.000000)" fill="#EE3F3A">
            <g id="Page-1" transform="translate(123.000000, 55.000000)">
                <g id="Group-4">
                    <path d="M33.6899052,2.68081277 C33.7773489,1.88254326 33.1652432,1.18466383 32.3778539,1.18425957 L14.6184678,1.17334468 C14.2898275,1.17563546 14.0128345,1.42411773 13.9685843,1.7564156 L13.1904413,7.59615319 C13.1364165,8.00054326 13.4447148,8.3606 13.8448159,8.3606 L23.6028423,8.3606 C24.404101,8.3606 25.0209619,9.08165674 24.9114592,9.89138014 C24.7120031,11.3659688 24.248763,14.5835716 23.9985843,16.3136496 C23.9026869,16.9766284 23.3436814,17.4660468 22.6867972,17.4624085 C21.572749,17.4563447 20.0113116,17.4483943 19.7587552,17.4506851 C19.4808376,17.4531106 19.2245828,17.5586213 19.0279005,17.7336638 C18.8310862,17.9087064 18.6935804,18.1531461 18.6530287,18.4336993 L17.7879705,24.870522 C17.7546838,25.1183305 17.7895556,25.3705858 17.8888873,25.5991248 L23.4419565,38.3921887 C23.5519876,38.6239617 23.7819565,38.7715149 24.0343807,38.7723234 L30.1201694,38.7712454 C30.5843341,38.7711106 30.9038601,38.2959759 30.7359736,37.8543943 C29.7330132,35.2167631 26.8062922,27.2751674 26.0993458,25.3563021 C26.0236581,25.1505362 26.170014,24.9306213 26.3853209,24.925905 C26.3863776,24.925905 26.3873023,24.925905 26.3882269,24.925905 C27.9530987,24.8814369 29.1526092,24.4549475 30.0106667,23.6426638 C30.8688563,22.8305149 31.3855929,21.6325716 31.5849169,20.0457348 C31.841568,18.0037064 33.3590194,5.69857872 33.6899052,2.68081277" id="Fill-8"></path>
                    <g id="Group-12" transform="translate(0.000000, 0.173021)">
                        <path d="M2.99048931,0.826978723 L8.85372017,0.826978723 C9.23233751,0.826978723 9.52281769,1.19436415 9.46794922,1.60395751 L7.63295856,15.2966988 C7.5232216,16.1158855 8.10405784,16.8506564 8.86129252,16.8506564 L12.3790821,16.8506564 C12.7697407,16.8506564 13.0633243,17.2404351 12.9882215,17.6596643 L9.30768856,38.2085479 C9.15077961,39.0847357 7.98203133,39.00792 7.92232152,38.1173462 L6.86020678,22.2557144 C6.83649665,21.9012221 6.56649904,21.6268027 6.24138467,21.626667 L1.24102894,21.6242241 C0.488014912,21.6239526 -0.0913316841,20.8965105 0.0119501603,20.0809881 L2.37563958,1.41246108 C2.41821852,1.07683339 2.68051964,0.826978723 2.99048931,0.826978723" id="Fill-10"></path>
                    </g>
                </g>
            </g>
        </g>
    </g>
</svg>