<?xml version="1.0" encoding="UTF-8"?>
<svg width="170px" height="38px" viewBox="0 0 170 38" version="1.1" xmlns="http://www.w3.org/2000/svg" xmlns:xlink="http://www.w3.org/1999/xlink">
    <!-- Generator: Sketch 52.6 (67491) - http://www.bohemiancoding.com/sketch -->
    <title>Page 1</title>
    <desc>Created with Sketch.</desc>
    <defs>
        <polygon id="path-1" points="0.124916671 0.0964822695 30.3968479 0.0964822695 30.3968479 37.8650191 0.124916671 37.8650191 0.124916671 0.0964822695"></polygon>
    </defs>
    <g id="Page-1" stroke="none" stroke-width="1" fill="none" fill-rule="evenodd">
        <g id="Contact-Page" transform="translate(-636.000000, -1044.000000)">
            <g id="Group-2" transform="translate(553.000000, 1037.000000)">
                <g id="Page-1" transform="translate(83.000000, 7.000000)">
                    <path d="M38.6287552,0.173021277 L45.4848936,0.173021277 C45.885655,0.173021277 46.1942176,0.533212766 46.1392681,0.938276596 C45.5683745,5.14253191 42.8186542,25.3966667 42.2493458,29.6409433 C42.195453,30.0429078 42.5016379,30.4 42.8993613,30.3997305 C44.2934406,30.3993262 47.2198974,30.3982482 48.4615447,30.397844 C48.7920342,30.3977092 49.0706123,30.1490922 49.1143341,29.8149078 C49.3597576,27.9405106 52.9495711,1.33 53.0181259,0.763638298 C53.0590738,0.425950355 53.3401616,0.173021277 53.6735571,0.173021277 L60.5137125,0.173021277 C60.9151344,0.173021277 61.223697,0.535368794 61.1676908,0.940836879 L56.2211795,36.7441135 C56.1293768,37.4091135 55.5715602,37.9035177 54.913223,37.9035177 L34.4635571,37.9035177 C33.6622984,37.9035177 33.0455695,37.1815177 33.1550723,36.3717943 L37.9745128,0.754609929 C38.0195556,0.421368794 38.2989262,0.173021277 38.6287552,0.173021277" id="Fill-1" fill="#EE3F3A"></path>
                    <g id="Group-5" transform="translate(86.122766, 0.038270)">
                        <mask id="mask-2" fill="white">
                            <use xlink:href="#path-1"></use>
                        </mask>
                        <g id="Clip-4"></g>
                        <path d="M12.2011919,14.823544 L13.0737793,14.823544 C13.3005781,14.823544 13.5116581,14.7046929 13.6325206,14.5088986 L22.121425,0.763948227 C22.3632821,0.372359574 22.78531,0.134792199 23.2390396,0.134792199 L29.0734608,0.134792199 C30.1184258,0.134792199 30.7500808,1.31346596 30.1849992,2.21023901 C27.7983947,5.99811135 22.7417203,14.0189411 20.131223,18.1213241 C19.7599176,18.704934 19.7408967,19.1746787 19.9778664,19.7942674 C21.5753644,23.9695511 24.7427537,32.3333241 26.142777,36.0327993 C26.476965,36.9155582 25.8380451,37.8650191 24.9103761,37.8650191 L18.6013551,37.8650191 C18.0521243,37.8650191 17.5603528,37.5184376 17.3659161,36.9945227 L12.3685501,23.5236574 C12.2714639,23.2615652 12.025512,23.0882745 11.7508967,23.0882745 L10.8510987,23.0882745 C10.520345,23.0882745 10.2405781,23.3379695 10.19646,23.6724234 L8.48377933,36.6916007 C8.39554312,37.3627993 7.83257498,37.8628631 7.16882207,37.8597638 L1.44020513,37.8337567 C0.640927739,37.8301184 0.0278974359,37.1087922 0.137664336,36.3010901 L4.90202331,1.25875674 C4.99263714,0.592543972 5.55098213,0.0963879433 6.21037607,0.0963879433 L11.9421632,0.0963879433 C12.7439503,0.0963879433 13.3609433,0.819196454 13.2505159,1.62945887 L11.5470816,14.0565369 C11.4916037,14.4617355 11.8000342,14.823544 12.2011919,14.823544" id="Fill-3" fill="#EE3F3A" mask="url(#mask-2)"></path>
                    </g>
                    <path d="M86.9919588,1.70404397 L85.8923085,9.78807234 C85.8314149,10.2357177 85.554554,10.6223206 85.1552455,10.8178454 L79.1485789,13.7569163 C78.1934351,14.2257177 77.113202,13.413973 77.2693326,12.344583 C77.503,10.7452142 77.7745773,8.84278865 77.854756,8.10866099 C77.8983458,7.70952624 77.5920287,7.3606539 77.1982681,7.3606539 L72.1644452,7.3606539 C71.8347483,7.3606539 71.5555097,7.60873191 71.5102028,7.9418383 L68.5608943,29.6312142 C68.5058127,30.036278 68.8142432,30.3975475 69.2151368,30.3975475 L74.2089363,30.3975475 C74.5388974,30.3975475 74.8182681,30.149739 74.8631787,29.8162284 C74.9640956,29.0686255 75.2745074,26.7892993 75.5048726,25.097895 C75.6336605,24.1535546 76.6565664,23.6408241 77.4681282,24.1135333 L82.6649503,27.1404624 C83.1328135,27.4130652 83.3915781,27.9480298 83.3187964,28.4926965 L82.2260148,36.6725333 C82.1368539,37.3402284 81.5778485,37.8381362 80.9172657,37.8381362 L61.5630233,37.8381362 C60.7611041,37.8381362 60.1442432,37.1151929 60.2546706,36.3049305 L65.022728,1.32943404 C65.1132098,0.665646809 65.66746,0.170703546 66.3243442,0.167604255 C69.0765742,0.154668085 81.358843,0.166660993 85.6857195,0.171377305 C86.4868462,0.172185816 87.102122,0.894455319 86.9919588,1.70404397" id="Fill-6" fill="#EE3F3A"></path>
                    <path d="M33.6899052,1.68081277 C33.7773489,0.882543262 33.1652432,0.18466383 32.3778539,0.184259574 L14.6184678,0.173344681 C14.2898275,0.175635461 14.0128345,0.42411773 13.9685843,0.756415603 L13.1904413,6.59615319 C13.1364165,7.00054326 13.4447148,7.3606 13.8448159,7.3606 L23.6028423,7.3606 C24.404101,7.3606 25.0209619,8.08165674 24.9114592,8.89138014 C24.7120031,10.3659688 24.248763,13.5835716 23.9985843,15.3136496 C23.9026869,15.9766284 23.3436814,16.4660468 22.6867972,16.4624085 C21.572749,16.4563447 20.0113116,16.4483943 19.7587552,16.4506851 C19.4808376,16.4531106 19.2245828,16.5586213 19.0279005,16.7336638 C18.8310862,16.9087064 18.6935804,17.1531461 18.6530287,17.4336993 L17.7879705,23.870522 C17.7546838,24.1183305 17.7895556,24.3705858 17.8888873,24.5991248 L23.4419565,37.3921887 C23.5519876,37.6239617 23.7819565,37.7715149 24.0343807,37.7723234 L30.1201694,37.7712454 C30.5843341,37.7711106 30.9038601,37.2959759 30.7359736,36.8543943 C29.7330132,34.2167631 26.8062922,26.2751674 26.0993458,24.3563021 C26.0236581,24.1505362 26.170014,23.9306213 26.3853209,23.925905 C26.3863776,23.925905 26.3873023,23.925905 26.3882269,23.925905 C27.9530987,23.8814369 29.1526092,23.4549475 30.0106667,22.6426638 C30.8688563,21.8305149 31.3855929,20.6325716 31.5849169,19.0457348 C31.841568,17.0037064 33.3590194,4.69857872 33.6899052,1.68081277" id="Fill-8" fill="#EE3F3A"></path>
                    <g id="Group-12" transform="translate(0.000000, 0.173021)" fill="#EE3F3A">
                        <path d="M3.1820777,0.000363829787 L9.42095882,0.000363829787 C9.82383372,0.000363829787 10.1329246,0.365136879 10.0745408,0.77181773 L8.12198446,14.3671936 C8.00521678,15.1805553 8.62326651,15.9101014 9.42901632,15.9101014 L13.1721865,15.9101014 C13.5878741,15.9101014 13.9002673,16.2971085 13.8203528,16.7133567 L9.90401243,37.1161227 C9.73705051,37.9860801 8.49342191,37.9098106 8.42988656,37.0255695 L7.29972339,21.2767255 C7.27449417,20.9247539 6.98719814,20.6522858 6.64125408,20.6521511 L1.32053147,20.6497255 C0.519272727,20.649456 -0.0971919192,19.9271865 0.0127070707,19.1174631 L2.52783528,0.581682979 C2.57314219,0.248441844 2.85224864,0.000363829787 3.1820777,0.000363829787" id="Fill-10"></path>
                    </g>
                    <path d="M121.671364,0.173021277 L128.527503,0.173021277 C128.928264,0.173021277 129.236827,0.533212766 129.181877,0.938276596 C128.610984,5.14253191 125.861263,25.3966667 125.291955,29.6409433 C125.238062,30.0429078 125.544247,30.4 125.94197,30.3997305 C127.33605,30.3993262 130.262507,30.3982482 131.504154,30.397844 C131.834643,30.3977092 132.113221,30.1490922 132.156943,29.8149078 C132.402367,27.9405106 135.99218,1.33 136.060735,0.763638298 C136.101683,0.425950355 136.382771,0.173021277 136.716166,0.173021277 L143.556322,0.173021277 C143.957744,0.173021277 144.266306,0.535368794 144.2103,0.940836879 L139.263789,36.7441135 C139.171986,37.4091135 138.614169,37.9035177 137.955832,37.9035177 L117.506166,37.9035177 C116.704908,37.9035177 116.088179,37.1815177 116.197681,36.3717943 L121.017122,0.754609929 C121.062165,0.421368794 121.341535,0.173021277 121.671364,0.173021277" id="Fill-13" fill="#EE3F3A"></path>
                    <path d="M169.876099,1.7058227 L168.901803,8.8690922 C168.83589,9.35352482 168.517817,9.76343972 168.070824,9.94023404 L162.282502,12.2298014 C161.343209,12.6014468 160.358345,11.8064113 160.496643,10.7883617 L160.858306,8.12687943 C160.913388,7.72195035 160.604957,7.36068085 160.204064,7.36068085 L155.944685,7.36068085 C155.61512,7.36068085 155.335882,7.60862411 155.290575,7.94186525 L154.590497,13.0897872 C154.497374,13.7745957 154.927327,14.4201915 155.585664,14.5840496 L166.592339,17.3238227 C167.250676,17.4876809 167.680629,18.1332766 167.587638,18.8179504 L165.151632,36.7403404 C165.061018,37.4066879 164.502673,37.9027092 163.843279,37.9027092 L144.621391,37.9029787 C143.818811,37.9029787 143.201686,37.1786879 143.313434,36.3678865 L144.384421,28.597156 C144.454561,28.0880638 144.802618,27.664 145.281577,27.5040496 L150.970171,25.6049929 C151.898236,25.2951986 152.823528,26.0841702 152.689456,27.0708227 L152.341267,29.6315106 C152.286185,30.0365745 152.594615,30.397844 152.995377,30.397844 L157.255416,30.397844 C157.585113,30.397844 157.864351,30.1499007 157.909658,29.8166596 L158.575128,24.9212624 C158.667723,24.240766 158.243582,23.5982695 157.590793,23.4298298 L146.640124,20.6031418 C145.987335,20.4347021 145.563193,19.7920709 145.655789,19.1115745 L148.073434,1.33539007 C148.164048,0.669177305 148.722393,0.173021277 149.381787,0.173021277 L168.567747,0.173156028 C169.369402,0.173156028 169.986263,0.895695035 169.876099,1.7058227" id="Fill-15" fill="#EE3F3A"></path>
                </g>
            </g>
        </g>
    </g>
</svg>