<?xml version="1.0" encoding="UTF-8"?>
<svg width="46px" height="46px" viewBox="0 0 46 46" version="1.1" xmlns="http://www.w3.org/2000/svg" xmlns:xlink="http://www.w3.org/1999/xlink">
    <title>sourced-adventurs</title>
    <g id="Page-1" stroke="none" stroke-width="1" fill="none" fill-rule="evenodd">
        <g id="iPhone-13-Pro-Copy-7" transform="translate(-282.000000, -659.000000)" fill="#FFFFFE">
            <g id="sourced-adventurs" transform="translate(282.000000, 659.000000)">
                <path d="M36.7959022,25.3867366 L35.4436306,29.979224 L30.4238345,34.9186578 L23.9538751,37.1130258 L18.2101356,36.5190735 L12.5984361,32.3151935 L9.79144808,27.6054637 L9.10392953,24.2577947 L13.7959022,20.3161734 L15.4350193,21.4421558 L17.386024,21.3447194 L23.7558151,16.9685044 L29.0510739,20.6228249 L29.0510739,20.6260121 L29.5724042,20.5966446 L30.0003959,20.3086608 L32.8711274,18.372909 L36.9484312,22.4800356 L36.7959022,25.3867366 Z M32.9508067,17.5686034 L29.8524201,19.6568841 L29.294665,20.0334257 L23.7558151,16.2131446 L17.1356033,20.733693 L15.6148669,20.8097298 L13.7572008,19.5344056 L8.42096407,24.0194398 L9.20409779,27.8340295 L12.1294665,32.747283 L18.3239632,37.1273681 L24.0244482,37.5430664 L30.6788083,35.4914382 L30.7516579,35.469128 L35.9968326,30.3100069 L37.4151242,25.4921409 L37.583589,22.2368999 L32.9508067,17.5686034 L32.9508067,17.5686034 Z" id="Fill-67"></path>
                <polyline id="Fill-68" points="37.2899139 24.7244878 35.3821637 23.236989 36.9074532 26.4567158 37.2899139 24.7244878"></polyline>
                <polyline id="Fill-69" points="35.639414 26.2204098 33.7475997 23.4514402 33.913788 25.0800851 32.918935 24.6534594 33.1784618 26.4719687 35.6576264 26.4013956 35.639414 26.2204098"></polyline>
                <polyline id="Fill-70" points="32.3361378 27.244858 31.8011482 23.5247451 32.9553598 19.5967831 26.0733446 24.1100465 25.4176977 23.5757399 18.3672177 28.8807879 21.9573394 27.6120657 22.0119766 29.477472 28.0266258 28.8546075 30.797189 25.4689201 32.3361378 27.244858"></polyline>
                <polyline id="Fill-71" points="27.5371672 20.8675542 28.2178561 20.6540137 23.7671979 17.7329704 22.2191428 18.8081857 22.050678 20.4971593 21.1081857 20.1946056 20.2294368 21.9077106 17.2813026 24.5371276 18.3854301 24.2036128 23.7580917 21.4180243 25.7341384 22.2567059 25.6772246 21.5375433 26.0574087 21.2554786 25.9526873 20.4973869 26.6675245 20.7887855 27.2457686 20.7591903 27.5371672 20.8675542"></polyline>
                <polyline id="Fill-72" points="17.5248936 26.0678808 14.7247352 24.6514105 14.8795407 26.1680491 17.5248936 26.0678808"></polyline>
                <polyline id="Fill-73" points="13.7822429 20.9344848 9.50004949 24.5981392 12.3548451 24.7993863 12.8420271 23.7890528 13.7936257 23.9914382 13.2814016 22.5374047 13.7822429 20.9344848"></polyline>
                <polyline id="Fill-74" points="10.9615956 28.4978719 16.3388103 30.986598 21.1377809 31.6921014 22.7154311 32.8547362 17.2471543 33.9340493 15.6740572 31.7754231 10.9615956 28.4978719"></polyline>
                <path d="M22.9977234,9.34137385 C15.466891,9.34137385 9.34069088,15.4687123 9.34069088,23.0002277 C9.34069088,30.5315154 15.466891,36.6588538 22.9977234,36.6588538 C30.5308324,36.6588538 36.6570326,30.5315154 36.6570326,23.0002277 C36.6570326,15.4687123 30.5308324,9.34137385 22.9977234,9.34137385 Z M22.9977234,37.9041275 C14.781649,37.9041275 8.0954172,31.218351 8.0954172,23.0002277 C8.0954172,14.7818767 14.781649,8.09587251 22.9977234,8.09587251 C31.2160744,8.09587251 37.9023062,14.7818767 37.9023062,23.0002277 C37.9023062,31.218351 31.2160744,37.9041275 22.9977234,37.9041275 Z M22.9977234,1.24572899 C11.0025735,1.24572899 1.24527368,11.0046224 1.24527368,23.0002277 C1.24527368,34.9956053 11.0025735,44.754271 22.9977234,44.754271 C34.99515,44.754271 44.7524498,34.9956053 44.7524498,23.0002277 C44.7524498,11.0046224 34.99515,1.24572899 22.9977234,1.24572899 Z M22.9977234,46 C10.3173315,46 0,35.6822132 0,23.0002277 C0,10.3180145 10.3173315,0 22.9977234,0 C35.680392,0 46,10.3180145 46,23.0002277 C46,35.6822132 35.680392,46 22.9977234,46 L22.9977234,46 Z" id="Fill-75"></path>
                <path d="M5.65495397,29.8856577 C4.78531129,27.6947045 4.3436603,25.3780857 4.3436603,23.0002277 C4.3436603,19.6336633 5.2497278,16.3340295 6.9639711,13.4587449 L7.4989607,13.7774621 C5.8416312,16.5569039 4.96515886,19.7458973 4.96515886,23.0002277 C4.96515886,25.2988617 5.39315055,27.5383055 6.23319806,29.655726 L5.65495397,29.8856577" id="Fill-76"></path>
                <path d="M40.4588736,29.5878848 L39.8760764,29.3679699 C40.6432743,27.3354647 41.0325646,25.1930021 41.0325646,23.0002277 C41.0325646,19.7461249 40.1560922,16.5569039 38.4987627,13.7774621 L39.0337524,13.4587449 C40.7479956,16.3342572 41.6563397,19.6338909 41.6563397,23.0002277 C41.6563397,25.2683559 41.2533901,27.4848065 40.4588736,29.5878848" id="Fill-77"></path>
                <polyline id="Fill-78" points="30.2212214 28.4978719 28.7164209 30.2831436 29.0874988 31.2795902 30.0208849 31.092913 30.2212214 28.4978719"></polyline>
                <path d="M15.6148669,20.1868653 L17.1356033,20.1108285 L23.7558151,15.5905078 L27.8467782,18.4127487 C27.5189548,14.4413046 24.1838068,11.309225 20.1292685,11.309225 C15.8561813,11.309225 12.3798872,14.7859745 12.3798872,19.0590617 C12.3798872,19.3843809 12.4003761,19.7046917 12.4390775,20.0195388 L13.7572008,18.9117688 L15.6148669,20.1868653" id="Fill-79"></path>
                <path d="M11.00485,10.8598337 L11.00485,10.0084034 C11.4510541,9.99724834 11.842621,9.85974463 12.1567851,9.59657527 C12.3593982,9.42765515 12.4094823,9.26670296 12.3115906,9.15059883 L12.304761,9.14285856 C12.2114223,9.03016926 12.0702762,9.04291795 11.6309017,9.2664753 C10.9411066,9.61865782 10.360586,9.8294665 9.89161635,9.27148372 L9.8847867,9.26374344 C9.46362467,8.75948728 9.55696328,8.06058596 10.208057,7.51444126 C10.670197,7.12788281 11.1346135,6.94962882 11.6263486,6.93915669 L11.6969217,7.78557854 C11.3008017,7.81904385 10.9524894,7.95358804 10.7111749,8.15506285 C10.5290508,8.30781946 10.5062853,8.46012076 10.5859646,8.5568742 L10.5927942,8.56484213 C10.6975156,8.68868653 10.8363852,8.66501039 11.2825893,8.43507869 C12.020192,8.04760962 12.5779471,7.92422053 13.0036623,8.43211917 L13.0104919,8.43985945 C13.4749084,8.99419974 13.3132733,9.69105216 12.6530733,10.2433436 C12.172721,10.6462932 11.5899238,10.8787291 11.00485,10.8598337" id="Fill-80"></path>
                <path d="M15.7924379,6.14395724 L15.7878848,6.13507869 C15.5579531,5.67863011 15.0275166,5.44710482 14.5448877,5.69069583 C14.0645353,5.93178264 13.939325,6.48179749 14.1692567,6.93824607 L14.1738098,6.94712462 C14.4037415,7.40334554 14.934178,7.63487083 15.4145303,7.39355637 C15.8971593,7.15019301 16.0223696,6.60040582 15.7924379,6.14395724 Z M13.2814016,7.40880926 L13.2745719,7.39993071 C12.8192616,6.49181431 13.1789567,5.38700386 14.1555973,4.89549639 C15.1299614,4.40398891 16.2204296,4.76732654 16.6780164,5.67521528 L16.6825695,5.68454914 C17.1401564,6.59243789 16.7781847,7.69724834 15.8015441,8.18875582 C14.82718,8.68026329 13.7367119,8.31692567 13.2814016,7.40880926 L13.2814016,7.40880926 Z" id="Fill-81"></path>
                <path d="M17.6683163,5.5943977 L17.2380481,3.65363753 L18.2101356,3.43713748 L18.6381273,5.35831931 C18.7474018,5.85711175 19.0524597,6.03786994 19.4371969,5.9522716 C19.8242106,5.86690092 20.0245472,5.58369791 19.9175492,5.09970306 L19.4850045,3.15416213 L20.457092,2.93766208 L20.8828071,4.85383549 C21.1309512,5.96957339 20.6027913,6.60040582 19.6215975,6.81872711 C18.6381273,7.03727606 17.9096308,6.67575968 17.6683163,5.5943977" id="Fill-82"></path>
                <path d="M23.5668613,4.51736118 C23.9015144,4.5228249 24.0972978,4.36392161 24.0995744,4.10598832 L24.0995744,4.09597149 C24.1041275,3.8177769 23.9060675,3.67276057 23.5759675,3.6675245 L22.93398,3.65728002 L22.9203207,4.50688904 L23.5668613,4.51736118 Z M21.9664456,2.79196278 L23.639711,2.81859844 C24.1815302,2.82724933 24.5526081,2.97499753 24.7870929,3.22154806 C24.9919826,3.42712066 25.0944274,3.70190043 25.0875977,4.05089577 L25.0875977,4.06114026 C25.0784915,4.60227655 24.7848164,4.95673562 24.3408888,5.13681085 L25.167277,6.38436108 L24.0335544,6.36637632 L23.3369296,5.2827378 L23.3278234,5.28251015 L22.9089379,5.27568049 L22.8907255,6.34793626 L21.9095318,6.33245571 L21.9664456,2.79196278 L21.9664456,2.79196278 Z" id="Fill-83"></path>
                <path d="M25.9617935,4.72020192 L25.9640701,4.71041275 C26.2076611,3.70736415 27.1683658,3.10680986 28.2110264,3.3583688 C28.9144808,3.52819954 29.294665,3.93228744 29.497278,4.42903098 L28.6458478,4.81103633 C28.5092547,4.51781649 28.3203009,4.30586954 27.9902009,4.2264179 C27.5098486,4.11008611 27.0727507,4.43631595 26.9498169,4.93784025 L26.9475403,4.94762942 C26.8246066,5.46372365 27.065921,5.94885678 27.5485499,6.06518856 C27.9059685,6.15192517 28.1586657,6.03559339 28.4250223,5.83480154 L29.0192022,6.51936059 C28.5866574,6.88861724 28.0698802,7.11240226 27.3072355,6.92845689 C26.3237652,6.69124023 25.7136494,5.74760962 25.9617935,4.72020192" id="Fill-84"></path>
                <polyline id="Fill-85" points="30.9132931 4.27604672 33.4675839 5.53497971 33.0987825 6.28350985 31.416411 5.45370682 31.1796496 5.93496981 32.7026626 6.68623181 32.3611798 7.38035237 30.8358903 6.62909037 30.5877462 7.13266357 32.2951599 7.9736217 31.9263585 8.72215184 29.3493022 7.45183609 30.9132931 4.27604672"></polyline>
                <path d="M34.0754231,9.24097793 C34.5307334,9.61091755 35.0361279,9.60545383 35.3980996,9.16175393 L35.4049292,9.153786 C35.7623478,8.71395625 35.6667327,8.21311492 35.2114223,7.84317529 L34.8995348,7.59093339 L33.7658121,8.98919133 L34.0754231,9.24097793 Z M34.6878155,6.2969415 L35.746412,7.15793329 C36.7298822,7.95540928 36.8391567,8.98349995 36.1948926,9.77687816 L36.188063,9.78461843 C35.5437989,10.577769 34.4897555,10.6979709 33.4994556,9.89412056 L32.4545185,9.04564981 L34.6878155,6.2969415 L34.6878155,6.2969415 Z" id="Fill-86"></path>
                <path d="M7.6355538,33.4093042 L8.27071167,32.5339701 L7.20756211,32.7404533 L7.6355538,33.4093042 Z M9.00148471,31.5143027 L9.51143225,32.3110957 L7.31911313,35.5046422 L6.75225181,34.6183807 L7.14609522,34.0599426 L6.40849253,32.9093735 L5.73918638,33.037771 L5.18370781,32.1683559 L9.00148471,31.5143027 L9.00148471,31.5143027 Z" id="Fill-87"></path>
                <path d="M9.77551222,36.7936257 C10.2012274,37.1977136 10.7066218,37.2314065 11.1004652,36.8173018 L11.1072949,36.8097892 C11.4988617,36.3990993 11.4419479,35.8925666 11.0162328,35.488251 L10.7271108,35.2127883 L9.48639018,36.5183906 L9.77551222,36.7936257 Z M10.6155597,33.9060477 L11.6058596,34.8471741 C12.5210334,35.7184104 12.5529051,36.7517371 11.8471741,37.492527 L11.8403445,37.4995843 C11.13689,38.2403741 10.076017,38.2779372 9.15173711,37.3998713 L8.17509651,36.4726319 L10.6155597,33.9060477 L10.6155597,33.9060477 Z" id="Fill-88"></path>
                <polyline id="Fill-89" points="13.1379788 36.3100861 14.0827477 36.8705731 13.6297139 39.2083639 15.4646145 37.6924082 16.3911709 38.2426507 13.3337622 40.575433 12.5506285 40.1103336 13.1379788 36.3100861"></polyline>
                <polyline id="Fill-90" points="16.8396516 38.3822033 19.5510244 39.2545778 19.2960507 40.049322 17.5089577 39.4744927 17.345046 39.9848956 18.9636742 40.5055429 18.7269128 41.2426903 17.1082847 40.7218153 16.9352668 41.2565773 18.7474018 41.8393744 18.4901514 42.6341186 15.7560131 41.7537761 16.8396516 38.3822033"></polyline>
                <polyline id="Fill-91" points="20.172523 39.4016431 21.0854202 39.4779076 22.380778 41.4639711 22.53786 39.5990201 23.5053944 39.6798377 23.2117193 43.2080372 22.3534594 43.1367812 21.0080174 41.0751361 20.8463823 43.0106602 19.8788479 42.9300703 20.172523 39.4016431"></polyline>
                <polyline id="Fill-92" points="25.2310205 40.3532416 24.1792537 40.5021281 24.0585965 39.6502425 27.1342176 39.2154212 27.2548748 40.0670791 26.203108 40.2159656 26.5764624 42.8711076 25.6066515 43.0083836 25.2310205 40.3532416"></polyline>
                <path d="M28.3339602,40.958349 L27.6259527,39.1009106 L28.5570623,38.7459962 L29.2582401,40.5843116 C29.4380877,41.0617044 29.7659111,41.1962486 30.1347125,41.0557854 C30.5035138,40.9153222 30.6628724,40.6059388 30.4853014,40.1426606 L29.7750173,38.2808968 L30.7061269,37.9255271 L31.4050282,39.759517 C31.8125309,40.8274473 31.3822627,41.5277145 30.4420469,41.8867267 C29.5018311,42.2452836 28.7278036,41.9930417 28.3339602,40.958349" id="Fill-93"></path>
                <path d="M33.6110066,38.0839751 C33.8864694,37.8963872 33.9547659,37.6548451 33.8113432,37.4410769 L33.8045135,37.4326537 C33.649708,37.2022667 33.4015639,37.1988518 33.1306543,37.3832525 L32.5979412,37.7436306 L33.076017,38.447085 L33.6110066,38.0839751 Z M31.309413,37.590874 L32.6958329,36.6515688 C33.142037,36.3476492 33.5336039,36.2547659 33.8659804,36.3223795 C34.1505493,36.3736019 34.3918638,36.5400178 34.5876472,36.8289122 L34.5944769,36.8373354 C34.8972582,37.2855884 34.8608334,37.7445412 34.6013065,38.1463526 L35.9922795,38.6940909 L35.0543403,39.3299317 L33.8614273,38.842522 L33.8545976,38.8482134 L33.5062853,39.0838365 L34.1072949,39.9716916 L33.2968425,40.5221617 L31.309413,37.590874 L31.309413,37.590874 Z" id="Fill-94"></path>
                <polyline id="Fill-95" points="34.3713748 35.3992379 36.3292091 33.3307631 36.9347718 33.9044541 35.6439671 35.2674255 36.0332574 35.6362269 37.2011284 34.401653 37.7634366 34.9336831 36.5955657 36.1680293 37.0030684 36.5541324 38.3120855 35.1724933 38.9176482 35.746412 36.9416015 37.8333267 34.3713748 35.3992379"></polyline>
                <path d="M39.1566861,34.5935663 L38.8857765,33.7867564 C39.304662,33.6346828 39.634762,33.3792537 39.8487578,33.029803 C39.9853509,32.8055627 39.9830743,32.6373255 39.8533109,32.5578739 L39.8442047,32.5526378 C39.7189944,32.475918 39.5892309,32.5328318 39.2431951,32.884559 C38.7013758,33.4370781 38.2164704,33.822043 37.5972483,33.4414035 L37.5881421,33.4361675 C37.0258339,33.0924082 36.8937939,32.3996536 37.3377215,31.6750272 C37.6518856,31.1616649 38.0366228,30.8454518 38.5010393,30.6788083 L38.8356924,31.4594378 C38.4714441,31.6162922 38.1823221,31.8548748 38.0184104,32.1223696 C37.8954766,32.3252103 37.9205187,32.477284 38.0275166,32.543304 L38.0366228,32.54854 C38.1754924,32.6330001 38.2984262,32.5665248 38.6490151,32.2063743 C39.2272592,31.6046818 39.7144413,31.310779 40.2813026,31.6570425 L40.2881322,31.6625062 C40.9050777,32.0404137 40.9733742,32.7525191 40.5248936,33.4855686 C40.1970702,34.0205583 39.7167178,34.4262397 39.1566861,34.5935663" id="Fill-96"></path>
            </g>
        </g>
    </g>
</svg>